<svg width="50" height="55" viewBox="0 0 50 55" fill="none" xmlns="http://www.w3.org/2000/svg">
<path d="M45.7946 8.54914C45.7946 9.04931 43.295 9.14108 43.1504 9.59077C43.0058 10.0405 44.9584 11.6236 44.6872 12.0136C44.416 12.4036 42.3278 10.9903 41.9436 11.2748C41.5594 11.5593 42.2464 14.0005 41.7854 14.1519C41.3243 14.3034 40.4881 11.9172 39.9774 11.9172C39.4666 11.9172 38.6214 14.2988 38.1694 14.1519C37.7174 14.0051 38.3954 11.5593 38.0157 11.2748C37.636 10.9903 35.5523 12.4082 35.2675 12.0136C34.9828 11.619 36.958 10.0588 36.8089 9.59077C36.6597 9.12273 34.1602 9.04931 34.1602 8.54914C34.1602 8.04897 36.6642 7.96179 36.8089 7.50751C36.9535 7.05323 35.0009 5.47472 35.2675 5.08927C35.5342 4.70382 37.627 6.11255 38.0157 5.82805C38.4044 5.54355 37.7083 3.09778 38.1694 2.94635C38.6304 2.79493 39.4711 5.18563 39.9774 5.18563C40.4836 5.18563 41.3334 2.79952 41.7854 2.94635C42.2374 3.09319 41.5594 5.54355 41.9436 5.82805C42.3278 6.11255 44.4069 4.69464 44.6872 5.08927C44.9674 5.4839 43.0012 7.04405 43.1504 7.50751C43.2995 7.97097 45.7946 8.05356 45.7946 8.54914Z" fill="#FC757C"/>
<path d="M45.2053 8.5483C45.2053 9.00717 42.7103 9.00717 42.5837 9.41098C42.4572 9.81478 44.4505 11.329 44.2064 11.6686C43.9623 12.0082 41.9238 10.549 41.5893 10.8013C41.2549 11.0537 41.9961 13.4628 41.5893 13.5959C41.1825 13.7289 40.4051 11.329 39.9757 11.329C39.5463 11.329 38.7463 13.7243 38.3621 13.5959C37.9779 13.4674 38.7011 11.0445 38.3621 10.8013C38.0231 10.5581 35.9891 12.0128 35.745 11.6686C35.5009 11.3245 37.4942 9.83314 37.3632 9.41098C37.2321 8.98882 34.7461 8.98423 34.7461 8.5483C34.7461 8.11238 37.2411 8.08944 37.3632 7.69022C37.4852 7.291 35.5009 5.77215 35.745 5.43259C35.9891 5.09302 38.005 6.54764 38.3621 6.29985C38.7192 6.05206 37.9553 3.63841 38.3621 3.50534C38.7689 3.37226 39.5463 5.77215 39.9757 5.77215C40.4051 5.77215 41.2006 3.37685 41.5893 3.50534C41.9781 3.63382 41.2503 6.05206 41.5893 6.29985C41.9283 6.54764 43.9578 5.08843 44.2064 5.43259C44.455 5.77674 42.4527 7.26806 42.5837 7.69022C42.7148 8.11238 45.2053 8.11238 45.2053 8.5483Z" fill="#FDC172"/>
<path d="M43.4025 8.54885C43.4025 8.78746 40.9436 8.63145 40.8713 8.84712C40.7989 9.06278 42.8827 10.4073 42.7516 10.5954C42.6205 10.7835 40.7176 9.18668 40.5323 9.31975C40.347 9.45282 41.26 11.7839 41.0385 11.8573C40.817 11.9307 40.2159 9.5033 39.9808 9.5033C39.7458 9.5033 39.1356 11.9261 38.9232 11.8573C38.7107 11.7885 39.6102 9.45741 39.4294 9.31975C39.2486 9.18209 37.3457 10.7835 37.2101 10.5954C37.0745 10.4073 39.1582 9.06737 39.0859 8.84712C39.0136 8.62686 36.5547 8.78746 36.5547 8.54885C36.5547 8.31024 39.0181 8.47084 39.0859 8.25518C39.1537 8.03951 37.0745 6.69043 37.2056 6.52524C37.3366 6.36005 39.2396 7.93397 39.4249 7.79631C39.6102 7.65865 38.6972 5.33218 38.9186 5.26335C39.1401 5.19452 39.7413 7.61735 39.9763 7.61735C40.2114 7.61735 40.8215 5.18993 41.034 5.26335C41.2464 5.33677 40.3424 7.66323 40.5278 7.79631C40.7131 7.92938 42.6295 6.31875 42.7516 6.52524C42.8736 6.73173 40.7989 8.04868 40.8713 8.27353C40.9436 8.49838 43.4025 8.31024 43.4025 8.54885Z" fill="#FDDD7F"/>
<path d="M44.1695 17.9146C44.141 17.9256 44.1107 17.9308 44.0802 17.9298C44.0498 17.9288 44.0198 17.9217 43.9921 17.9089C43.9643 17.8961 43.9394 17.8779 43.9186 17.8552C43.8979 17.8325 43.8817 17.8059 43.8712 17.7769L43.478 16.6894C43.4577 16.631 43.461 16.5668 43.4873 16.5109C43.5136 16.455 43.5606 16.4119 43.6181 16.3911V16.3911C43.6462 16.3802 43.6763 16.3751 43.7064 16.3761C43.7365 16.3771 43.7662 16.3843 43.7935 16.3971C43.8209 16.4099 43.8455 16.4282 43.8658 16.4508C43.8861 16.4734 43.9018 16.4999 43.9119 16.5288L44.3051 17.6163C44.3159 17.6449 44.3209 17.6754 44.3199 17.706C44.3189 17.7366 44.3119 17.7667 44.2992 17.7945C44.2866 17.8223 44.2686 17.8472 44.2463 17.8678C44.224 17.8885 44.1979 17.9044 44.1695 17.9146Z" fill="#FC757C"/>
<path d="M49.9916 9.1131C49.9776 9.17322 49.9408 9.2253 49.8892 9.25796C49.8375 9.29063 49.7752 9.30123 49.7159 9.28747L48.604 9.01215C48.5746 9.00464 48.5469 8.99133 48.5226 8.97296C48.4983 8.9546 48.4778 8.93154 48.4623 8.90511C48.4467 8.87869 48.4365 8.84941 48.4321 8.81896C48.4277 8.78851 48.4293 8.75748 48.4368 8.72765V8.72765C48.4436 8.69798 48.4563 8.67 48.4739 8.64535C48.4916 8.62069 48.5139 8.59985 48.5395 8.58405C48.5652 8.56824 48.5937 8.55779 48.6234 8.55329C48.6531 8.5488 48.6834 8.55035 48.7125 8.55787L49.8244 8.83319C49.8536 8.84017 49.8812 8.85299 49.9055 8.87091C49.9297 8.88883 49.9503 8.91147 49.9658 8.93753C49.9814 8.96359 49.9917 8.99254 49.9961 9.02268C50.0006 9.05282 49.999 9.08356 49.9916 9.1131Z" fill="#FDC172"/>
<path d="M30.5508 7.54848C30.5508 7.48641 30.5751 7.42688 30.6183 7.383C30.6615 7.33911 30.7202 7.31445 30.7813 7.31445H31.9249C31.9549 7.31445 31.9847 7.32053 32.0124 7.33235C32.0401 7.34416 32.0652 7.36147 32.0863 7.38327C32.1073 7.40506 32.1239 7.4309 32.135 7.45927C32.1461 7.48763 32.1515 7.51796 32.1509 7.54848V7.54848C32.1515 7.57899 32.1461 7.60932 32.135 7.63769C32.1239 7.66605 32.1073 7.69189 32.0863 7.71368C32.0652 7.73548 32.0401 7.75279 32.0124 7.76461C31.9847 7.77642 31.9549 7.78251 31.9249 7.7825H30.7813C30.7202 7.7825 30.6615 7.75784 30.6183 7.71396C30.5751 7.67007 30.5508 7.61054 30.5508 7.54848V7.54848Z" fill="#FDC172"/>
<path d="M42.567 0.0137901C42.6245 0.0345591 42.6715 0.0776167 42.6978 0.133526C42.724 0.189435 42.7274 0.253634 42.7071 0.312054L42.3365 1.40875C42.3268 1.43806 42.3115 1.46513 42.2914 1.4884C42.2714 1.51167 42.247 1.53068 42.2197 1.54434C42.1924 1.55799 42.1627 1.56601 42.1323 1.56794C42.1019 1.56988 42.0714 1.56568 42.0427 1.55559V1.55559C41.9859 1.53384 41.9396 1.49066 41.9135 1.43507C41.8874 1.37948 41.8835 1.31579 41.9025 1.25732L42.2732 0.160628C42.2829 0.13132 42.2982 0.104248 42.3182 0.0809757C42.3382 0.0577039 42.3626 0.0386928 42.3899 0.0250402C42.4173 0.0113877 42.447 0.00336488 42.4773 0.00143372C42.5077 -0.000497437 42.5382 0.00370251 42.567 0.0137901V0.0137901Z" fill="#FC757C"/>
<path d="M45.916 3.54237C45.916 3.60687 45.8908 3.66873 45.8459 3.71434C45.801 3.75994 45.74 3.78557 45.6765 3.78557C45.6452 3.78557 45.6143 3.77925 45.5855 3.76698C45.5567 3.7547 45.5306 3.73671 45.5087 3.71406C45.4868 3.69142 45.4696 3.66457 45.458 3.63509C45.4465 3.60561 45.4408 3.57409 45.4414 3.54237C45.4414 3.51103 45.4475 3.48 45.4593 3.45106C45.4712 3.42211 45.4885 3.3958 45.5103 3.37364C45.5321 3.35149 45.558 3.33391 45.5865 3.32192C45.6151 3.30993 45.6456 3.30376 45.6765 3.30376C45.7077 3.30314 45.7388 3.30887 45.7678 3.32058C45.7969 3.3323 45.8233 3.34978 45.8456 3.372C45.8679 3.39422 45.8856 3.42073 45.8977 3.44998C45.9098 3.47923 45.9161 3.51064 45.916 3.54237V3.54237Z" fill="#787878"/>
<path d="M31.8262 12.8575C31.8268 12.8892 31.8211 12.9207 31.8096 12.9502C31.798 12.9797 31.7808 13.0065 31.7589 13.0292C31.7371 13.0518 31.7109 13.0698 31.6821 13.0821C31.6533 13.0943 31.6224 13.1007 31.5911 13.1007C31.5276 13.1007 31.4667 13.075 31.4217 13.0294C31.3768 12.9838 31.3516 12.922 31.3516 12.8575C31.3516 12.793 31.3768 12.7311 31.4217 12.6855C31.4667 12.6399 31.5276 12.6143 31.5911 12.6143C31.6224 12.6143 31.6533 12.6206 31.6821 12.6329C31.7109 12.6451 31.7371 12.6631 31.7589 12.6858C31.7808 12.7084 31.798 12.7353 31.8096 12.7647C31.8211 12.7942 31.8268 12.8257 31.8262 12.8575V12.8575Z" fill="#797979"/>
<path d="M45.2057 13.1006C45.2057 13.1651 45.1804 13.227 45.1355 13.2726C45.0906 13.3182 45.0297 13.3438 44.9661 13.3438C44.9026 13.3438 44.8417 13.3182 44.7967 13.2726C44.7518 13.227 44.7266 13.1651 44.7266 13.1006C44.7266 13.0361 44.7518 12.9743 44.7967 12.9287C44.8417 12.883 44.9026 12.8574 44.9661 12.8574C45.0297 12.8574 45.0906 12.883 45.1355 12.9287C45.1804 12.9743 45.2057 13.0361 45.2057 13.1006Z" fill="#797979"/>
<path d="M44.9667 7.19068C44.9675 7.21555 44.961 7.24012 44.948 7.26118C44.9349 7.28224 44.9159 7.29883 44.8934 7.30877C44.871 7.31871 44.8461 7.32155 44.822 7.31691C44.7979 7.31228 44.7757 7.30039 44.7584 7.28279C44.7411 7.26519 44.7294 7.2427 44.7248 7.21825C44.7202 7.1938 44.723 7.16851 44.7328 7.1457C44.7426 7.12288 44.7589 7.10359 44.7797 7.09033C44.8004 7.07707 44.8246 7.07047 44.8491 7.07137C44.8799 7.07251 44.9092 7.08545 44.931 7.10758C44.9528 7.12971 44.9655 7.1594 44.9667 7.19068V7.19068Z" fill="#787878"/>
<path d="M40.5756 1.38591C40.5756 1.41799 40.5633 1.44882 40.5414 1.47193C40.5195 1.49504 40.4896 1.50861 40.458 1.5098C40.4303 1.5043 40.4052 1.48916 40.3872 1.46697C40.3692 1.44479 40.3594 1.41694 40.3594 1.3882C40.3594 1.35946 40.3692 1.33162 40.3872 1.30943C40.4052 1.28725 40.4303 1.27211 40.458 1.2666C40.4892 1.2666 40.5191 1.27917 40.5411 1.30155C40.5632 1.32392 40.5756 1.35426 40.5756 1.38591V1.38591Z" fill="#787878"/>
<path d="M39.0409 15.1751C39.0418 15.1999 39.0353 15.2245 39.0222 15.2456C39.0091 15.2666 38.9901 15.2832 38.9677 15.2931C38.9452 15.3031 38.9203 15.3059 38.8962 15.3013C38.8721 15.2967 38.85 15.2848 38.8326 15.2672C38.8153 15.2496 38.8036 15.2271 38.799 15.2026C38.7944 15.1782 38.7972 15.1529 38.807 15.1301C38.8168 15.1073 38.8332 15.088 38.8539 15.0747C38.8747 15.0614 38.8989 15.0548 38.9234 15.0557C38.9542 15.0569 38.9834 15.0698 39.0052 15.092C39.027 15.1141 39.0397 15.1438 39.0409 15.1751V15.1751Z" fill="#797979"/>
<path d="M34.2943 3.54216C34.2949 3.55821 34.2923 3.57421 34.2867 3.58922C34.2811 3.60423 34.2725 3.61793 34.2615 3.6295C34.2506 3.64107 34.2374 3.65027 34.2228 3.65655C34.2083 3.66283 34.1926 3.66606 34.1768 3.66605C34.149 3.66055 34.124 3.64541 34.106 3.62322C34.088 3.60104 34.0781 3.57319 34.0781 3.54445C34.0781 3.51571 34.088 3.48787 34.106 3.46568C34.124 3.4435 34.149 3.42836 34.1768 3.42285C34.208 3.42285 34.2378 3.43542 34.2599 3.45779C34.2819 3.48017 34.2943 3.51051 34.2943 3.54216V3.54216Z" fill="#797979"/>
<path d="M40.3188 37.7029C42.1143 26.4736 34.603 15.8928 23.5418 14.07C12.4806 12.2472 2.05821 19.8728 0.262729 31.1021C-1.53275 42.3314 5.97858 52.9122 17.0398 54.735C28.1009 56.5578 38.5233 48.9323 40.3188 37.7029Z" fill="#808080"/>
<path style="mix-blend-mode:multiply" d="M40.3188 37.7029C42.1143 26.4736 34.603 15.8928 23.5418 14.07C12.4806 12.2472 2.05821 19.8728 0.262729 31.1021C-1.53275 42.3314 5.97858 52.9122 17.0398 54.735C28.1009 56.5578 38.5233 48.9323 40.3188 37.7029Z" fill="url(#paint0_radial_2258_1060)"/>
<path style="mix-blend-mode:screen" d="M40.3188 37.7029C42.1143 26.4736 34.603 15.8928 23.5418 14.07C12.4806 12.2472 2.05821 19.8728 0.262729 31.1021C-1.53275 42.3314 5.97858 52.9122 17.0398 54.735C28.1009 56.5578 38.5233 48.9323 40.3188 37.7029Z" fill="url(#paint1_radial_2258_1060)"/>
<path style="mix-blend-mode:screen" d="M40.3188 37.7029C42.1143 26.4736 34.603 15.8928 23.5418 14.07C12.4806 12.2472 2.05821 19.8728 0.262729 31.1021C-1.53275 42.3314 5.97858 52.9122 17.0398 54.735C28.1009 56.5578 38.5233 48.9323 40.3188 37.7029Z" fill="url(#paint2_radial_2258_1060)"/>
<path style="mix-blend-mode:multiply" d="M40.5776 34.4011C40.5792 39.7781 38.5091 44.9426 34.8097 48.7908C31.1103 52.639 26.0752 54.8657 20.7801 54.9951H20.292C16.2931 54.9954 12.3833 53.7962 9.05365 51.548C5.72398 49.2998 3.12293 46.1029 1.57718 42.3588C0.0314322 38.6147 -0.390082 34.4904 0.365581 30.504C1.12124 26.5175 3.02039 22.8465 5.82448 19.9522C8.62856 17.058 12.2126 15.0694 16.1263 14.2363C20.04 13.4032 24.109 13.7627 27.8221 15.2697C31.5353 16.7766 34.727 19.3639 36.9964 22.7065C39.2658 26.049 40.5117 29.9978 40.5776 34.0569V34.4011Z" fill="url(#paint3_radial_2258_1060)"/>
<path d="M39.7903 19.9424L36.7122 24.1457C35.9167 25.2332 32.6714 24.1457 29.4803 21.7412C26.2892 19.3367 24.3185 16.478 25.114 15.3904L28.1876 11.1826L39.7903 19.9424Z" fill="#808080"/>
<path d="M39.7903 19.9424L36.7122 24.1457C35.9167 25.2332 32.6714 24.1457 29.4803 21.7412C26.2892 19.3367 24.3185 16.478 25.114 15.3904L28.1876 11.1826L39.7903 19.9424Z" fill="#808080"/>
<path style="mix-blend-mode:multiply" d="M39.7903 19.9424L36.7122 24.1457C35.9167 25.2332 32.6714 24.1457 29.4803 21.7412C26.2892 19.3367 24.3185 16.478 25.114 15.3904L28.1876 11.1826L39.7903 19.9424Z" fill="url(#paint4_linear_2258_1060)"/>
<path style="mix-blend-mode:screen" d="M39.7903 19.9424L36.7122 24.1457C35.9167 25.2332 32.6714 24.1457 29.4803 21.7412C26.2892 19.3367 24.3185 16.478 25.114 15.3904L28.1876 11.1826L39.7903 19.9424Z" fill="url(#paint5_linear_2258_1060)"/>
<path style="mix-blend-mode:screen" d="M39.7903 19.9424L36.7122 24.1457C35.9167 25.2332 32.6714 24.1457 29.4803 21.7412C26.2892 19.3367 24.3185 16.478 25.114 15.3904L28.1876 11.1826L39.7903 19.9424Z" fill="url(#paint6_linear_2258_1060)"/>
<path style="mix-blend-mode:screen" d="M39.7903 19.9424L36.7122 24.1457C35.9167 25.2332 32.6714 24.1457 29.4803 21.7412C26.2892 19.3367 24.3185 16.478 25.114 15.3904L28.1876 11.1826L39.7903 19.9424Z" fill="url(#paint7_linear_2258_1060)"/>
<path style="mix-blend-mode:multiply" d="M39.7903 19.9424L36.7122 24.1457C35.9167 25.2332 32.6714 24.1457 29.4803 21.7412C26.2892 19.3367 24.3185 16.478 25.114 15.3904L28.1876 11.1826L39.7903 19.9424Z" fill="url(#paint8_radial_2258_1060)"/>
<path d="M39.7894 19.9428C38.9894 21.0303 35.7215 19.9428 32.5575 17.5337C29.3935 15.1247 27.3731 12.2751 28.1641 11.183C28.9551 10.0909 32.2049 11.183 35.396 13.5921C38.5871 16.0011 40.585 18.8553 39.7894 19.9428Z" fill="#949494"/>
<path style="mix-blend-mode:screen" d="M39.7894 19.9428C38.9894 21.0303 35.7215 19.9428 32.5575 17.5337C29.3935 15.1247 27.3731 12.2751 28.1641 11.183C28.9551 10.0909 32.2049 11.183 35.396 13.5921C38.5871 16.0011 40.585 18.8553 39.7894 19.9428Z" fill="url(#paint9_radial_2258_1060)"/>
<path style="mix-blend-mode:screen" d="M39.7894 19.9428C38.9894 21.0303 35.7215 19.9428 32.5575 17.5337C29.3935 15.1247 27.3731 12.2751 28.1641 11.183C28.9551 10.0909 32.2049 11.183 35.396 13.5921C38.5871 16.0011 40.585 18.8553 39.7894 19.9428Z" fill="url(#paint10_radial_2258_1060)"/>
<path style="mix-blend-mode:multiply" d="M39.9186 19.7088C39.8907 19.7921 39.8511 19.8709 39.8011 19.9428C39.6849 20.0779 39.5409 20.1854 39.3792 20.2575C39.2174 20.3297 39.042 20.3648 38.8655 20.3604C37.4778 20.4476 35.0009 19.383 32.5375 17.5337C29.3283 15.1155 27.3712 12.2751 28.1712 11.183C28.9712 10.0909 32.212 11.183 35.4032 13.5921C38.4225 15.8543 40.3254 18.4836 39.9186 19.7088Z" fill="url(#paint11_radial_2258_1060)"/>
<path d="M40.6031 9.2145L34.8989 16.0471C34.8085 16.1709 34.4469 16.0471 34.0762 15.7717C33.7056 15.4964 33.4887 15.1752 33.5791 15.0513L39.2833 8.21875L40.6031 9.2145Z" fill="#FDC172"/>
<path d="M40.6031 9.2145L34.8989 16.0471C34.8085 16.1709 34.4469 16.0471 34.0762 15.7717C33.7056 15.4964 33.4887 15.1752 33.5791 15.0513L39.2833 8.21875L40.6031 9.2145Z" fill="#FDC172"/>
<g style="mix-blend-mode:multiply">
<path d="M36.4123 14.234L36.3806 14.2708C35.9868 13.6632 35.826 12.9302 35.9286 12.2104L35.9874 12.1416C35.8602 12.8686 36.0122 13.6174 36.4123 14.234V14.234Z" fill="#FCC5C7"/>
</g>
<g style="mix-blend-mode:multiply">
<path d="M35.5559 15.2435L35.5242 15.2802C35.1489 14.6802 34.9892 13.967 35.0722 13.2612L35.131 13.1924C35.0206 13.9058 35.1717 14.6356 35.5559 15.2435V15.2435Z" fill="#FCC5C7"/>
</g>
<g style="mix-blend-mode:multiply">
<path d="M34.5472 16.0421H34.4884C34.2161 15.5152 34.1074 14.9169 34.1765 14.326V14.326L34.2308 14.2617C34.1456 14.8743 34.2565 15.4984 34.5472 16.0421V16.0421Z" fill="#FCC5C7"/>
</g>
<g style="mix-blend-mode:multiply">
<path d="M37.3084 13.1599L37.2768 13.1966C36.8941 12.5813 36.7448 11.8459 36.8564 11.1271V11.1271L36.9197 11.0537C36.7763 11.7804 36.9156 12.5352 37.3084 13.1599V13.1599Z" fill="#FCC5C7"/>
</g>
<g style="mix-blend-mode:multiply">
<path d="M38.2035 12.0862L38.1718 12.1229C37.7875 11.5016 37.6427 10.7581 37.765 10.035L37.8328 9.95703C37.7534 10.3192 37.7453 10.6938 37.8089 11.0591C37.8725 11.4245 38.0066 11.7735 38.2035 12.0862V12.0862Z" fill="#FCC5C7"/>
</g>
<g style="mix-blend-mode:multiply">
<path d="M38.7457 8.86523C38.6582 9.22903 38.6448 9.60711 38.7062 9.97636C38.7676 10.3456 38.9025 10.6983 39.1028 11.0127L39.0711 11.0495C38.6829 10.4246 38.5409 9.67422 38.6734 8.94783L38.7457 8.86523Z" fill="#FCC5C7"/>
</g>
<g style="mix-blend-mode:multiply">
<path d="M39.9989 9.93886L39.9672 9.97557C39.7515 9.5948 39.6089 9.17594 39.5469 8.74121L39.6011 8.7871C39.6629 9.19256 39.7977 9.58299 39.9989 9.93886V9.93886Z" fill="#FCC5C7"/>
</g>
<path style="mix-blend-mode:multiply" d="M40.6031 9.2145L34.8989 16.0471C34.8085 16.1709 34.4469 16.0471 34.0762 15.7717C33.7056 15.4964 33.4887 15.1752 33.5791 15.0513L39.2833 8.21875L40.6031 9.2145Z" fill="url(#paint12_linear_2258_1060)"/>
<path style="mix-blend-mode:screen" d="M40.6031 9.2145L34.8989 16.0471C34.8085 16.1709 34.4469 16.0471 34.0762 15.7717C33.7056 15.4964 33.4887 15.1752 33.5791 15.0513L39.2833 8.21875L40.6031 9.2145Z" fill="url(#paint13_linear_2258_1060)"/>
<path style="mix-blend-mode:multiply" d="M40.6049 9.21391L39.9992 9.93892L39.9676 9.97563L39.1043 11.0127L39.0726 11.0494L38.2048 12.0864L38.1731 12.1231L37.3098 13.1602L37.2782 13.1969L36.4149 14.2339L36.3832 14.2706L35.5561 15.2434L35.5244 15.2802L35.2442 15.6197L34.9142 16.0098C34.8645 16.074 34.7334 16.0694 34.5617 16.0098H34.5029C34.3571 15.9431 34.2191 15.86 34.0916 15.762C33.7255 15.4866 33.504 15.1654 33.5944 15.0415L34.1775 14.3257L34.2317 14.2615L34.286 14.1926L34.86 13.5089L35.0589 13.2657L35.1176 13.1969L35.9538 12.1966L36.0126 12.1277L36.8578 11.1136L36.9211 11.0402L37.7664 10.0261L37.8342 9.9481L38.6749 8.93859L38.7472 8.85599L39.2851 8.20898L39.5246 8.39253L39.5698 8.42465L40.6049 9.21391Z" fill="url(#paint14_linear_2258_1060)"/>
<path d="M40.602 9.21376C40.5116 9.33765 40.15 9.21375 39.7794 8.93843C39.4087 8.66311 39.1918 8.3419 39.2822 8.21801C39.3726 8.09412 39.7342 8.21801 40.1048 8.49333C40.4754 8.76865 40.6924 9.08986 40.602 9.21376Z" fill="#D48057"/>
<g style="mix-blend-mode:multiply">
<path d="M40.6999 8.09473H39.1992V9.33826H40.6999V8.09473Z" fill="white"/>
<path d="M40.6641 9.0953C40.4743 9.36603 39.8596 9.2559 39.3081 8.84751C39.1739 8.75206 39.0497 8.64289 38.9375 8.52171H39.168V8.06284H39.9997V7.87012C40.5556 8.26933 40.8585 8.81997 40.6641 9.0953Z" fill="white"/>
<path d="M40.5959 9.04493C40.4197 9.30189 39.8456 9.19635 39.3168 8.81549C39.192 8.72378 39.0755 8.62089 38.9688 8.50805H39.1541V8.04918H39.9632V7.90234C40.492 8.27403 40.7767 8.79255 40.5959 9.04493Z" fill="#FDFDFD"/>
<path d="M40.5253 8.99406C40.3581 9.23267 39.8292 9.13631 39.3365 8.78298C39.2218 8.69759 39.1144 8.60242 39.0156 8.49848H39.1512V8.03962H39.9377V7.91113C40.4304 8.27823 40.6925 8.76004 40.5253 8.99406Z" fill="#FBFBFB"/>
<path d="M40.4588 8.94819C40.3052 9.16386 39.8125 9.07667 39.3605 8.75087C39.1594 8.60938 38.99 8.42645 38.8633 8.214H39.1526V8.05339H39.9164V7.95703C40.3684 8.28742 40.6125 8.72793 40.4588 8.94819Z" fill="#F9F9F9"/>
<path d="M40.3896 8.89782C40.2495 9.09513 39.7975 9.01712 39.3817 8.71427C39.1972 8.58645 39.0428 8.41879 38.9297 8.22328H39.1557V8.0535H39.915V7.98926C40.3083 8.29211 40.5298 8.69592 40.3896 8.89782Z" fill="#F7F7F7"/>
<path d="M40.3237 8.84754C40.1972 9.03109 39.7859 8.95767 39.4197 8.68235C39.2525 8.55889 39.1112 8.40291 39.0039 8.22348H39.1666V8.03993H39.8853V8.00781C40.2469 8.2969 40.4503 8.664 40.3237 8.84754Z" fill="#F6F6F6"/>
<path d="M40.257 8.81978C40.1395 8.98497 39.7734 8.92073 39.4344 8.67294C39.0954 8.42515 38.91 8.09476 39.0276 7.92957L39.1541 8.07641H39.353V7.85156C39.5329 7.89135 39.7024 7.96957 39.8502 8.081C40.1892 8.30125 40.37 8.63623 40.257 8.81978Z" fill="#F5F5F5"/>
<path d="M40.1884 8.7513C40.0844 8.89355 39.7364 8.8339 39.4561 8.61823C39.1759 8.40257 39.0041 8.1043 39.0945 7.95746C39.1849 7.81062 39.5239 7.87028 39.8268 8.09053C40.1296 8.31079 40.2878 8.60447 40.1884 8.7513Z" fill="#F3F3F3"/>
<path d="M40.1135 8.70027C40.0276 8.82875 39.7383 8.77369 39.4762 8.58555C39.214 8.39742 39.0694 8.12668 39.1598 8.00738C39.2502 7.88807 39.535 7.92937 39.7971 8.1221C40.0593 8.31482 40.2039 8.57179 40.1135 8.70027Z" fill="#F2F2F2"/>
<path d="M40.0481 8.65041C39.9713 8.76054 39.7272 8.71466 39.5012 8.54946C39.2752 8.38427 39.1532 8.16401 39.23 8.05847C39.3069 7.95293 39.551 7.98964 39.777 8.15484C40.003 8.32003 40.125 8.54029 40.0481 8.65041Z" fill="#F2F2F2"/>
<path d="M39.9778 8.59958C39.9146 8.69136 39.7112 8.65465 39.5258 8.51699C39.3405 8.37932 39.2366 8.19578 39.2998 8.104C39.3631 8.01223 39.5665 8.05353 39.7518 8.1866C39.9372 8.31967 40.0411 8.50781 39.9778 8.59958Z" fill="#F1F1F1"/>
<path d="M39.9174 8.54941C39.8677 8.62283 39.705 8.5953 39.5513 8.48517C39.3976 8.37504 39.3208 8.2282 39.3705 8.15479C39.4202 8.08137 39.5875 8.11349 39.7366 8.22362C39.8858 8.33374 39.9626 8.48058 39.9174 8.54941Z" fill="#F1F1F1"/>
<path d="M39.8438 8.50308C39.8077 8.55815 39.6811 8.5352 39.5681 8.45261C39.4551 8.37001 39.3963 8.25988 39.4325 8.20482C39.4687 8.14975 39.5952 8.1727 39.7082 8.25529C39.8212 8.33789 39.88 8.44802 39.8438 8.50308Z" fill="#F0F0F0"/>
<path d="M39.7746 8.45315C39.7474 8.48986 39.6661 8.45315 39.5892 8.42103C39.5124 8.38891 39.4762 8.29255 39.4988 8.25584C39.5214 8.21913 39.6073 8.2329 39.6842 8.28796C39.761 8.34302 39.8017 8.41644 39.7746 8.45315Z" fill="#F0F0F0"/>
<path d="M39.7092 8.40249C39.7092 8.40249 39.655 8.40249 39.6143 8.40249C39.5736 8.40249 39.56 8.33824 39.5691 8.32448C39.5781 8.31071 39.6233 8.32448 39.664 8.32448C39.7047 8.32448 39.7228 8.38413 39.7092 8.40249Z" fill="#F0F0F0"/>
</g>
<path style="mix-blend-mode:screen" d="M40.602 9.21376C40.5116 9.33765 40.15 9.21375 39.7794 8.93843C39.4087 8.66311 39.1918 8.3419 39.2822 8.21801C39.3726 8.09412 39.7342 8.21801 40.1048 8.49333C40.4754 8.76865 40.6924 9.08986 40.602 9.21376Z" fill="url(#paint15_radial_2258_1060)"/>
<defs>
<radialGradient id="paint0_radial_2258_1060" cx="0" cy="0" r="1" gradientUnits="userSpaceOnUse" gradientTransform="translate(20.3942 9.9056) scale(35.292 35.8285)">
<stop offset="0.28" stop-color="#BFBFBF"/>
<stop offset="0.42" stop-color="#B2B2B2"/>
<stop offset="0.7" stop-color="#919191"/>
<stop offset="0.96" stop-color="#6B6B6B"/>
</radialGradient>
<radialGradient id="paint1_radial_2258_1060" cx="0" cy="0" r="1" gradientUnits="userSpaceOnUse" gradientTransform="translate(20.2948 34.4) scale(22.7852 23.1316)">
<stop offset="0.61"/>
<stop offset="0.68"/>
<stop offset="0.73"/>
<stop offset="0.77"/>
<stop offset="0.82"/>
<stop offset="0.86" stop-color="#121212"/>
<stop offset="0.89" stop-color="#373737"/>
<stop offset="0.93" stop-color="#626262"/>
<stop offset="0.97" stop-color="#939393"/>
<stop offset="0.99" stop-color="#BFBFBF"/>
</radialGradient>
<radialGradient id="paint2_radial_2258_1060" cx="0" cy="0" r="1" gradientUnits="userSpaceOnUse" gradientTransform="translate(17.3297 23.8277) scale(60.1654 61.08)">
<stop offset="0.01" stop-color="#1C1C1C"/>
<stop offset="0.02" stop-color="#121212"/>
<stop offset="0.08"/>
<stop offset="0.15"/>
<stop offset="0.21"/>
<stop offset="0.29"/>
<stop offset="0.39"/>
</radialGradient>
<radialGradient id="paint3_radial_2258_1060" cx="0" cy="0" r="1" gradientUnits="userSpaceOnUse" gradientTransform="translate(12.0249 26.458) scale(30.546 31.0103)">
<stop offset="0.12" stop-color="#BFBFBF"/>
<stop offset="0.27" stop-color="#BFBFBF"/>
<stop offset="0.42" stop-color="#BFBFBF"/>
<stop offset="0.57" stop-color="#BFBFBF"/>
<stop offset="0.72" stop-color="#BFBFBF"/>
<stop offset="0.87" stop-color="#BFBFBF"/>
<stop offset="0.96" stop-color="#BFBFBF"/>
</radialGradient>
<linearGradient id="paint4_linear_2258_1060" x1="24.6529" y1="13.7018" x2="42.2809" y2="25.122" gradientUnits="userSpaceOnUse">
<stop offset="0.28" stop-color="#BFBFBF"/>
<stop offset="0.42" stop-color="#B2B2B2"/>
<stop offset="0.7" stop-color="#919191"/>
<stop offset="0.96" stop-color="#6B6B6B"/>
</linearGradient>
<linearGradient id="paint5_linear_2258_1060" x1="33.711" y1="20.0709" x2="25.9118" y2="13.2817" gradientUnits="userSpaceOnUse">
<stop offset="0.34"/>
<stop offset="0.5"/>
<stop offset="0.61"/>
<stop offset="0.7"/>
<stop offset="0.78"/>
<stop offset="0.86" stop-color="#0D0D0D"/>
<stop offset="0.94" stop-color="#2F2F2F"/>
<stop offset="0.99" stop-color="#4F4F4F"/>
</linearGradient>
<linearGradient id="paint6_linear_2258_1060" x1="27.166" y1="14.7159" x2="26.0638" y2="13.8374" gradientUnits="userSpaceOnUse">
<stop offset="0.34"/>
<stop offset="0.5"/>
<stop offset="0.61"/>
<stop offset="0.7"/>
<stop offset="0.78"/>
<stop offset="0.86" stop-color="#0D0D0D"/>
<stop offset="0.94" stop-color="#2F2F2F"/>
<stop offset="0.99" stop-color="#4F4F4F"/>
</linearGradient>
<linearGradient id="paint7_linear_2258_1060" x1="34.7415" y1="20.6307" x2="38.0229" y2="22.865" gradientUnits="userSpaceOnUse">
<stop offset="0.37"/>
<stop offset="0.6"/>
<stop offset="0.69"/>
<stop offset="0.75"/>
<stop offset="0.79"/>
<stop offset="0.84"/>
<stop offset="0.87" stop-color="#171717"/>
<stop offset="0.91" stop-color="#373737"/>
<stop offset="0.94" stop-color="#5D5D5D"/>
<stop offset="0.96" stop-color="#888888"/>
<stop offset="0.99" stop-color="#BFBFBF"/>
</linearGradient>
<radialGradient id="paint8_radial_2258_1060" cx="0" cy="0" r="1" gradientUnits="userSpaceOnUse" gradientTransform="translate(22.2076 11.3616) scale(26.7176 27.1237)">
<stop offset="0.12" stop-color="#BFBFBF"/>
<stop offset="0.26" stop-color="#BFBFBF"/>
<stop offset="0.4" stop-color="#BFBFBF"/>
<stop offset="0.54" stop-color="#BFBFBF"/>
<stop offset="0.68" stop-color="#BFBFBF"/>
<stop offset="0.81" stop-color="#BFBFBF"/>
<stop offset="0.95" stop-color="#BFBFBF"/>
<stop offset="0.96" stop-color="#BFBFBF"/>
</radialGradient>
<radialGradient id="paint9_radial_2258_1060" cx="0" cy="0" r="1" gradientUnits="userSpaceOnUse" gradientTransform="translate(36.4114 26.9243) rotate(37.2857) scale(8.21706 3.48191)">
<stop/>
<stop offset="0.42"/>
<stop offset="0.57"/>
<stop offset="0.68"/>
<stop offset="0.76"/>
<stop offset="0.84"/>
<stop offset="0.9" stop-color="#171717"/>
<stop offset="0.96" stop-color="#363636"/>
<stop offset="1" stop-color="#4F4F4F"/>
</radialGradient>
<radialGradient id="paint10_radial_2258_1060" cx="0" cy="0" r="1" gradientUnits="userSpaceOnUse" gradientTransform="translate(45.3549 40.0105) rotate(37.2857) scale(7.89437 2.83785)">
<stop offset="0.37"/>
<stop offset="0.63"/>
<stop offset="0.73"/>
<stop offset="0.79"/>
<stop offset="0.85"/>
<stop offset="0.89"/>
<stop offset="0.93" stop-color="#171717"/>
<stop offset="0.97" stop-color="#363636"/>
<stop offset="0.99" stop-color="#4F4F4F"/>
</radialGradient>
<radialGradient id="paint11_radial_2258_1060" cx="0" cy="0" r="1" gradientUnits="userSpaceOnUse" gradientTransform="translate(29.5091 9.79263) scale(19.5579 19.8552)">
<stop offset="0.12" stop-color="#DBDBDB"/>
<stop offset="0.27" stop-color="#DBDBDB"/>
<stop offset="0.5" stop-color="#DBDBDB"/>
<stop offset="0.78" stop-color="#DBDBDB"/>
<stop offset="0.96" stop-color="#DBDBDB"/>
</radialGradient>
<linearGradient id="paint12_linear_2258_1060" x1="35.6989" y1="11.3436" x2="38.9372" y2="13.4417" gradientUnits="userSpaceOnUse">
<stop offset="0.28" stop-color="white"/>
<stop offset="0.42" stop-color="#F1F0F4"/>
<stop offset="0.7" stop-color="#CDC8D9"/>
<stop offset="0.96" stop-color="#A49CBA"/>
</linearGradient>
<linearGradient id="paint13_linear_2258_1060" x1="37.4256" y1="12.5734" x2="36.4506" y2="11.7574" gradientUnits="userSpaceOnUse">
<stop offset="0.34"/>
<stop offset="0.46" stop-color="#040404"/>
<stop offset="0.57" stop-color="#0F0F0F"/>
<stop offset="0.67" stop-color="#222222"/>
<stop offset="0.78" stop-color="#3C3C3C"/>
<stop offset="0.88" stop-color="#5E5E5E"/>
<stop offset="0.98" stop-color="#878787"/>
<stop offset="0.99" stop-color="#8F8F8F"/>
</linearGradient>
<linearGradient id="paint14_linear_2258_1060" x1="35.2261" y1="9.79208" x2="38.4039" y2="13.825" gradientUnits="userSpaceOnUse">
<stop offset="0.12" stop-color="white"/>
<stop offset="0.3" stop-color="#FEFBFD"/>
<stop offset="0.48" stop-color="#F9EFF8"/>
<stop offset="0.66" stop-color="#F2DCEF"/>
<stop offset="0.84" stop-color="#E9C0E2"/>
<stop offset="0.96" stop-color="#E0A8D7"/>
</linearGradient>
<radialGradient id="paint15_radial_2258_1060" cx="0" cy="0" r="1" gradientUnits="userSpaceOnUse" gradientTransform="translate(42.4407 19.1244) rotate(37.2857) scale(0.931691 0.394796)">
<stop/>
<stop offset="0.42" stop-color="#020202"/>
<stop offset="0.57" stop-color="#090909"/>
<stop offset="0.68" stop-color="#141414"/>
<stop offset="0.76" stop-color="#252525"/>
<stop offset="0.84" stop-color="#3B3B3B"/>
<stop offset="0.9" stop-color="#575757"/>
<stop offset="0.96" stop-color="#767676"/>
<stop offset="1" stop-color="#8F8F8F"/>
</radialGradient>
</defs>
</svg>
