<svg width="20" height="20" viewBox="0 0 20 20" fill="none" xmlns="http://www.w3.org/2000/svg">
<g id="Coins">
<path id="Vector" d="M9.99908 19.9982C15.5214 19.9982 19.9982 15.5214 19.9982 9.99908C19.9982 4.47674 15.5214 0 9.99908 0C4.47674 0 0 4.47674 0 9.99908C0 15.5214 4.47674 19.9982 9.99908 19.9982Z" fill="url(#paint0_radial_2312_68506)"/>
<path id="Vector_2" fill-rule="evenodd" clip-rule="evenodd" d="M9.94555 10.3239L9.93078 10.3203L9.9437 10.3073L9.92709 10.3129L9.93078 10.3L9.91971 10.3092L9.91601 10.2926L9.91232 10.3092L9.90125 10.3L9.90494 10.3129L9.88832 10.3073L9.90125 10.3203L9.88832 10.3239L9.90125 10.3276L9.89017 10.3406L9.90494 10.3369L9.91047 10.335L9.91417 10.3332H9.91786L9.92155 10.335H9.92709L9.9437 10.3406L9.93078 10.3276L9.94555 10.3239ZM9.94555 10.3239L9.93078 10.3203L9.9437 10.3073L9.92709 10.3129L9.93078 10.3L9.91971 10.3092L9.91601 10.2926L9.91232 10.3092L9.90125 10.3L9.90494 10.3129L9.88832 10.3073L9.90125 10.3203L9.88832 10.3239L9.90125 10.3276L9.89017 10.3406L9.90494 10.3369L9.91047 10.335L9.91417 10.3332H9.91786L9.92155 10.335H9.92709L9.9437 10.3406L9.93078 10.3276L9.94555 10.3239ZM9.94555 10.3239L9.93078 10.3203L9.9437 10.3073L9.92709 10.3129L9.93078 10.3L9.91971 10.3092L9.91601 10.2926L9.91232 10.3092L9.90125 10.3L9.90494 10.3129L9.88832 10.3073L9.90125 10.3203L9.88832 10.3239L9.90125 10.3276L9.89017 10.3406L9.90494 10.3369L9.91047 10.335L9.91417 10.3332H9.91786L9.92155 10.335H9.92709L9.9437 10.3406L9.93078 10.3276L9.94555 10.3239ZM9.94555 10.3239L9.93078 10.3203L9.9437 10.3073L9.92709 10.3129L9.93078 10.3L9.91971 10.3092L9.91601 10.2926L9.91232 10.3092L9.90125 10.3L9.90494 10.3129L9.88832 10.3073L9.90125 10.3203L9.88832 10.3239L9.90125 10.3276L9.89017 10.3406L9.90494 10.3369L9.91047 10.335L9.91417 10.3332H9.91786L9.92155 10.335H9.92709L9.9437 10.3406L9.93078 10.3276L9.94555 10.3239ZM9.94555 10.3239L9.93078 10.3203L9.9437 10.3073L9.92709 10.3129L9.93078 10.3L9.91971 10.3092L9.91601 10.2926L9.91232 10.3092L9.90125 10.3L9.90494 10.3129L9.88832 10.3073L9.90125 10.3203L9.88832 10.3239L9.90125 10.3276L9.89017 10.3406L9.90494 10.3369L9.91047 10.335L9.91417 10.3332H9.91786L9.92155 10.335H9.92709L9.9437 10.3406L9.93078 10.3276L9.94555 10.3239ZM9.94555 10.3239L9.93078 10.3203L9.9437 10.3073L9.92709 10.3129L9.93078 10.3L9.91971 10.3092L9.91601 10.2926L9.91232 10.3092L9.90125 10.3L9.90494 10.3129L9.88832 10.3073L9.90125 10.3203L9.88832 10.3239L9.90125 10.3276L9.89017 10.3406L9.90494 10.3369L9.91047 10.335L9.91417 10.3332H9.91786L9.92155 10.335H9.92709L9.9437 10.3406L9.93078 10.3276L9.94555 10.3239ZM19.6382 7.3281C19.1767 5.65759 18.2907 4.16059 17.1057 2.96447C15.8486 1.69451 14.252 0.758653 12.4633 0.306414C11.6751 0.10706 10.85 0 9.99908 0C9.09275 0 8.21412 0.121827 7.37794 0.348869C5.54499 0.843563 3.92247 1.84772 2.66913 3.20074C1.5413 4.41532 0.712506 5.91048 0.299031 7.57176C0.103369 8.34887 0 9.1629 0 9.99908C0 11.1251 0.186433 12.2067 0.529765 13.2164C1.05768 14.7762 1.96031 16.1606 3.13244 17.2663C4.34887 18.4181 5.8551 19.2672 7.533 19.6917C8.32303 19.8929 9.14813 20 9.99908 20C10.7946 20 11.5681 19.9059 12.3083 19.7305C14.0729 19.3152 15.6585 18.4292 16.9229 17.2146C18.1024 16.0831 19.0051 14.6654 19.5182 13.0725C19.832 12.1052 20 11.0715 20 9.99908C20 9.0743 19.8745 8.1772 19.6382 7.3281ZM15.0974 15.4222C14.156 16.3083 12.982 16.9506 11.6788 17.2515C11.138 17.377 10.575 17.4416 9.99908 17.4416C9.3641 17.4416 8.74942 17.3623 8.16059 17.2127C6.9294 16.8989 5.82003 16.2806 4.92109 15.4407C4.04984 14.6285 3.3761 13.6096 2.9737 12.4633C2.7042 11.6917 2.55838 10.8629 2.55838 10.0009C2.55838 9.40655 2.62852 8.83064 2.75958 8.27873C3.05307 7.03276 3.66036 5.90863 4.49469 4.99308C5.42501 3.97047 6.63775 3.20812 8.00738 2.82787C8.64236 2.65251 9.31057 2.55838 9.99908 2.55838C10.6322 2.55838 11.2469 2.63775 11.8339 2.78726C13.1777 3.1269 14.3756 3.83203 15.3152 4.79188C16.2012 5.69451 16.8583 6.82234 17.1924 8.08306C17.3549 8.69405 17.4416 9.33641 17.4416 10.0009C17.4416 10.8297 17.3069 11.6253 17.0577 12.3692C16.6627 13.5431 15.9834 14.5898 15.0974 15.4222ZM9.93078 10.3203L9.9437 10.3073L9.92709 10.3129L9.93078 10.3L9.91971 10.3092L9.91601 10.2926L9.91232 10.3092L9.90125 10.3L9.90494 10.3129L9.88832 10.3073L9.90125 10.3203L9.88832 10.3239L9.90125 10.3276L9.89017 10.3406L9.90494 10.3369L9.91047 10.335L9.91417 10.3332H9.91786L9.92155 10.335H9.92709L9.9437 10.3406L9.93078 10.3276L9.94555 10.3239L9.93078 10.3203ZM9.94555 10.3239L9.93078 10.3203L9.9437 10.3073L9.92709 10.3129L9.93078 10.3L9.91971 10.3092L9.91601 10.2926L9.91232 10.3092L9.90125 10.3L9.90494 10.3129L9.88832 10.3073L9.90125 10.3203L9.88832 10.3239L9.90125 10.3276L9.89017 10.3406L9.90494 10.3369L9.91047 10.335L9.91417 10.3332H9.91786L9.92155 10.335H9.92709L9.9437 10.3406L9.93078 10.3276L9.94555 10.3239ZM9.94555 10.3239L9.93078 10.3203L9.9437 10.3073L9.92709 10.3129L9.93078 10.3L9.91971 10.3092L9.91601 10.2926L9.91232 10.3092L9.90125 10.3L9.90494 10.3129L9.88832 10.3073L9.90125 10.3203L9.88832 10.3239L9.90125 10.3276L9.89017 10.3406L9.90494 10.3369L9.91047 10.335L9.91417 10.3332H9.91786L9.92155 10.335H9.92709L9.9437 10.3406L9.93078 10.3276L9.94555 10.3239ZM9.94555 10.3239L9.93078 10.3203L9.9437 10.3073L9.92709 10.3129L9.93078 10.3L9.91971 10.3092L9.91601 10.2926L9.91232 10.3092L9.90125 10.3L9.90494 10.3129L9.88832 10.3073L9.90125 10.3203L9.88832 10.3239L9.90125 10.3276L9.89017 10.3406L9.90494 10.3369L9.91047 10.335L9.91417 10.3332H9.91786L9.92155 10.335H9.92709L9.9437 10.3406L9.93078 10.3276L9.94555 10.3239ZM9.94555 10.3239L9.93078 10.3203L9.9437 10.3073L9.92709 10.3129L9.93078 10.3L9.91971 10.3092L9.91601 10.2926L9.91232 10.3092L9.90125 10.3L9.90494 10.3129L9.88832 10.3073L9.90125 10.3203L9.88832 10.3239L9.90125 10.3276L9.89017 10.3406L9.90494 10.3369L9.91047 10.335L9.91417 10.3332H9.91786L9.92155 10.335H9.92709L9.9437 10.3406L9.93078 10.3276L9.94555 10.3239Z" fill="url(#paint1_radial_2312_68506)"/>
<path id="Vector_3" fill-rule="evenodd" clip-rule="evenodd" d="M9.94405 10.341L9.92743 10.3354L9.93113 10.3483L9.92005 10.3391L9.91636 10.3557L9.91267 10.341L9.90159 10.3502L9.90528 10.3373L9.89052 10.341L9.90159 10.328L9.88867 10.3243L9.90159 10.3207L9.88867 10.3077L9.90528 10.3133L9.90159 10.3004L9.91267 10.3096L9.91636 10.293L9.92005 10.3096L9.93113 10.3004L9.92743 10.3133L9.94405 10.3077L9.93113 10.3207L9.94589 10.3243L9.93113 10.328L9.94405 10.341Z" fill="url(#paint2_linear_2312_68506)"/>
<path id="Vector_4" d="M10.0597 16.4279C13.5767 16.4279 16.4279 13.5767 16.4279 10.0597C16.4279 6.54257 13.5767 3.69141 10.0597 3.69141C6.54257 3.69141 3.69141 6.54257 3.69141 10.0597C3.69141 13.5767 6.54257 16.4279 10.0597 16.4279Z" fill="url(#paint3_linear_2312_68506)"/>
<g id="Group">
<path id="Vector_5" fill-rule="evenodd" clip-rule="evenodd" d="M12.3085 19.7303C11.5683 19.9057 10.7949 19.9998 9.99928 19.9998C9.14649 19.9998 8.32324 19.8927 7.5332 19.6915L7.95222 18.0395C8.06666 17.5909 8.50044 17.3048 8.95821 17.3694C9.29785 17.4174 9.64672 17.4414 9.99928 17.4414C10.3002 17.4414 10.5973 17.423 10.8908 17.3879C11.3468 17.3344 11.7732 17.6168 11.8858 18.0616L12.3085 19.7303Z" fill="#FFB648"/>
<path id="Vector_6" fill-rule="evenodd" clip-rule="evenodd" d="M12.4625 0.306414L12.0435 1.95847C11.9291 2.40701 11.4953 2.69312 11.0375 2.62852C10.6979 2.58053 10.3509 2.55653 10.0001 2.55653C9.60144 2.55653 9.20827 2.58791 8.82617 2.64882C8.35917 2.72266 7.91062 2.44024 7.79433 1.98062L7.38086 0.347024C8.21335 0.121827 9.09198 0 9.9983 0C10.8492 0 11.6744 0.10706 12.4625 0.306414Z" fill="url(#paint4_linear_2312_68506)"/>
<path id="Vector_7" fill-rule="evenodd" clip-rule="evenodd" d="M4.30964 16.0649L3.13197 17.2684C1.96169 16.1628 1.05722 14.7784 0.529297 13.2186L2.18689 12.7073C2.61698 12.5744 3.0766 12.7793 3.27041 13.1872C3.55468 13.7871 3.91647 14.3409 4.34286 14.8393C4.64928 15.1974 4.64005 15.7271 4.30964 16.0649Z" fill="url(#paint5_linear_2312_68506)"/>
<path id="Vector_8" fill-rule="evenodd" clip-rule="evenodd" d="M19.6371 7.32848L18.0515 7.81763C17.5993 7.95792 17.1064 7.73273 16.9347 7.29156C16.6671 6.60305 16.2979 5.96623 15.8475 5.39585C15.5633 5.03406 15.5799 4.52091 15.9011 4.19235L17.1027 2.96484C18.2896 4.16097 19.1756 5.65612 19.6371 7.32848Z" fill="url(#paint6_linear_2312_68506)"/>
<path id="Vector_9" fill-rule="evenodd" clip-rule="evenodd" d="M3.9998 5.59526C3.57894 6.16748 3.23745 6.80246 2.9938 7.48174C2.83505 7.92475 2.35144 8.16102 1.8992 8.03181L0.298828 7.57219C0.710457 5.91091 1.5411 4.41575 2.67077 3.20117L3.9075 4.41575C4.22868 4.72955 4.26745 5.23163 3.9998 5.59526Z" fill="url(#paint7_linear_2312_68506)"/>
<path id="Vector_10" fill-rule="evenodd" clip-rule="evenodd" d="M19.5176 13.0729C19.0045 14.6659 18.1037 16.0835 16.9223 17.215L15.7299 16.0448C15.3884 15.7107 15.3718 15.1735 15.6819 14.808C16.1212 14.2912 16.4885 13.7116 16.7746 13.0877C16.9611 12.6816 17.4152 12.4712 17.8452 12.593L19.5176 13.0729Z" fill="url(#paint8_linear_2312_68506)"/>
</g>
<path id="Vector_11" fill-rule="evenodd" clip-rule="evenodd" d="M0.332031 12.5579C0.332031 12.5579 2.33849 19.6848 10.0136 19.6165C18.0893 19.5427 19.6952 12.4619 19.6952 12.4619C19.6952 12.4619 18.0099 20.0004 10.0007 20.0004C1.99147 20.0004 0.332031 12.5579 0.332031 12.5579Z" fill="#D54F6C"/>
</g>
<defs>
<radialGradient id="paint0_radial_2312_68506" cx="0" cy="0" r="1" gradientUnits="userSpaceOnUse" gradientTransform="translate(9.99994 9.99994) scale(11.5967)">
<stop offset="0.416667" stop-color="#FF9574"/>
<stop offset="1" stop-color="#D81371"/>
</radialGradient>
<radialGradient id="paint1_radial_2312_68506" cx="0" cy="0" r="1" gradientUnits="userSpaceOnUse" gradientTransform="translate(11.3521 27.042) rotate(-90) scale(25.1961)">
<stop stop-color="#ED4782"/>
<stop offset="1" stop-color="#FFAF52"/>
</radialGradient>
<linearGradient id="paint2_linear_2312_68506" x1="9.90348" y1="10.3512" x2="9.92779" y2="10.2989" gradientUnits="userSpaceOnUse">
<stop stop-color="#13001D"/>
<stop offset="1" stop-color="#2F042F"/>
</linearGradient>
<linearGradient id="paint3_linear_2312_68506" x1="9.96654" y1="16.4441" x2="8.99309" y2="3.76615" gradientUnits="userSpaceOnUse">
<stop stop-color="#FFB546"/>
<stop offset="1" stop-color="#FDCF77"/>
</linearGradient>
<linearGradient id="paint4_linear_2312_68506" x1="9.9217" y1="0" x2="9.9217" y2="2.66051" gradientUnits="userSpaceOnUse">
<stop offset="0.15625" stop-color="#FFD78B"/>
<stop offset="1" stop-color="#FDCE76"/>
</linearGradient>
<linearGradient id="paint5_linear_2312_68506" x1="3.32226" y1="13.9366" x2="1.84556" y2="15.3211" gradientUnits="userSpaceOnUse">
<stop stop-color="#FDC768"/>
<stop offset="1" stop-color="#FEB84C"/>
</linearGradient>
<linearGradient id="paint6_linear_2312_68506" x1="18.5501" y1="4.70735" x2="16.612" y2="6.09175" gradientUnits="userSpaceOnUse">
<stop stop-color="#FFD78B"/>
<stop offset="1" stop-color="#FFCB6A"/>
</linearGradient>
<linearGradient id="paint7_linear_2312_68506" x1="1.29206" y1="5.07657" x2="3.96858" y2="6.73785" gradientUnits="userSpaceOnUse">
<stop stop-color="#FFD78B"/>
<stop offset="1" stop-color="#FFC860"/>
</linearGradient>
<linearGradient id="paint8_linear_2312_68506" x1="16.2433" y1="14.1214" x2="17.9968" y2="15.5058" gradientUnits="userSpaceOnUse">
<stop stop-color="#FDC768"/>
<stop offset="1" stop-color="#FEB84C"/>
</linearGradient>
</defs>
</svg>
