<svg width="20" height="21" viewBox="0 0 20 21" fill="none" xmlns="http://www.w3.org/2000/svg">
<g id="Coins">
<path id="Vector" d="M9.99908 20.0148C15.5214 20.0148 19.9982 15.538 19.9982 10.0157C19.9982 4.49334 15.5214 0.0166016 9.99908 0.0166016C4.47674 0.0166016 0 4.49334 0 10.0157C0 15.538 4.47674 20.0148 9.99908 20.0148Z" fill="url(#paint0_radial_2312_68552)"/>
<path id="Vector_2" fill-rule="evenodd" clip-rule="evenodd" d="M9.94555 10.3406L9.93078 10.3369L9.9437 10.3239L9.92709 10.3295L9.93078 10.3166L9.91971 10.3258L9.91601 10.3092L9.91232 10.3258L9.90125 10.3166L9.90494 10.3295L9.88832 10.3239L9.90125 10.3369L9.88832 10.3406L9.90125 10.3442L9.89017 10.3572L9.90494 10.3535L9.91047 10.3516L9.91417 10.3498H9.91786L9.92155 10.3516H9.92709L9.9437 10.3572L9.93078 10.3442L9.94555 10.3406ZM9.94555 10.3406L9.93078 10.3369L9.9437 10.3239L9.92709 10.3295L9.93078 10.3166L9.91971 10.3258L9.91601 10.3092L9.91232 10.3258L9.90125 10.3166L9.90494 10.3295L9.88832 10.3239L9.90125 10.3369L9.88832 10.3406L9.90125 10.3442L9.89017 10.3572L9.90494 10.3535L9.91047 10.3516L9.91417 10.3498H9.91786L9.92155 10.3516H9.92709L9.9437 10.3572L9.93078 10.3442L9.94555 10.3406ZM9.94555 10.3406L9.93078 10.3369L9.9437 10.3239L9.92709 10.3295L9.93078 10.3166L9.91971 10.3258L9.91601 10.3092L9.91232 10.3258L9.90125 10.3166L9.90494 10.3295L9.88832 10.3239L9.90125 10.3369L9.88832 10.3406L9.90125 10.3442L9.89017 10.3572L9.90494 10.3535L9.91047 10.3516L9.91417 10.3498H9.91786L9.92155 10.3516H9.92709L9.9437 10.3572L9.93078 10.3442L9.94555 10.3406ZM9.94555 10.3406L9.93078 10.3369L9.9437 10.3239L9.92709 10.3295L9.93078 10.3166L9.91971 10.3258L9.91601 10.3092L9.91232 10.3258L9.90125 10.3166L9.90494 10.3295L9.88832 10.3239L9.90125 10.3369L9.88832 10.3406L9.90125 10.3442L9.89017 10.3572L9.90494 10.3535L9.91047 10.3516L9.91417 10.3498H9.91786L9.92155 10.3516H9.92709L9.9437 10.3572L9.93078 10.3442L9.94555 10.3406ZM9.94555 10.3406L9.93078 10.3369L9.9437 10.3239L9.92709 10.3295L9.93078 10.3166L9.91971 10.3258L9.91601 10.3092L9.91232 10.3258L9.90125 10.3166L9.90494 10.3295L9.88832 10.3239L9.90125 10.3369L9.88832 10.3406L9.90125 10.3442L9.89017 10.3572L9.90494 10.3535L9.91047 10.3516L9.91417 10.3498H9.91786L9.92155 10.3516H9.92709L9.9437 10.3572L9.93078 10.3442L9.94555 10.3406ZM9.94555 10.3406L9.93078 10.3369L9.9437 10.3239L9.92709 10.3295L9.93078 10.3166L9.91971 10.3258L9.91601 10.3092L9.91232 10.3258L9.90125 10.3166L9.90494 10.3295L9.88832 10.3239L9.90125 10.3369L9.88832 10.3406L9.90125 10.3442L9.89017 10.3572L9.90494 10.3535L9.91047 10.3516L9.91417 10.3498H9.91786L9.92155 10.3516H9.92709L9.9437 10.3572L9.93078 10.3442L9.94555 10.3406ZM19.6382 7.34471C19.1767 5.67419 18.2907 4.17719 17.1057 2.98107C15.8486 1.71111 14.252 0.775254 12.4633 0.323016C11.6751 0.123662 10.85 0.0166016 9.99908 0.0166016C9.09275 0.0166016 8.21412 0.138429 7.37794 0.365471C5.54499 0.860164 3.92247 1.86432 2.66913 3.21734C1.5413 4.43192 0.712506 5.92708 0.299031 7.58836C0.103369 8.36547 0 9.1795 0 10.0157C0 11.1417 0.186433 12.2233 0.529765 13.233C1.05768 14.7928 1.96031 16.1772 3.13244 17.2829C4.34887 18.4347 5.8551 19.2838 7.533 19.7083C8.32303 19.9095 9.14813 20.0166 9.99908 20.0166C10.7946 20.0166 11.5681 19.9225 12.3083 19.7471C14.0729 19.3318 15.6585 18.4458 16.9229 17.2312C18.1024 16.0997 19.0051 14.682 19.5182 13.0891C19.832 12.1218 20 11.0881 20 10.0157C20 9.0909 19.8745 8.1938 19.6382 7.34471ZM15.0974 15.4388C14.156 16.3249 12.982 16.9672 11.6788 17.2681C11.138 17.3936 10.575 17.4582 9.99908 17.4582C9.3641 17.4582 8.74942 17.3789 8.16059 17.2293C6.9294 16.9155 5.82003 16.2972 4.92109 15.4573C4.04984 14.6451 3.3761 13.6262 2.9737 12.4799C2.7042 11.7083 2.55838 10.8795 2.55838 10.0175C2.55838 9.42315 2.62852 8.84724 2.75958 8.29533C3.05307 7.04937 3.66036 5.92523 4.49469 5.00968C5.42501 3.98707 6.63775 3.22472 8.00738 2.84447C8.64236 2.66912 9.31057 2.57498 9.99908 2.57498C10.6322 2.57498 11.2469 2.65435 11.8339 2.80387C13.1777 3.14351 14.3756 3.84863 15.3152 4.80848C16.2012 5.71111 16.8583 6.83894 17.1924 8.09967C17.3549 8.71065 17.4416 9.35301 17.4416 10.0175C17.4416 10.8463 17.3069 11.6419 17.0577 12.3858C16.6627 13.5597 15.9834 14.6064 15.0974 15.4388ZM9.93078 10.3369L9.9437 10.3239L9.92709 10.3295L9.93078 10.3166L9.91971 10.3258L9.91601 10.3092L9.91232 10.3258L9.90125 10.3166L9.90494 10.3295L9.88832 10.3239L9.90125 10.3369L9.88832 10.3406L9.90125 10.3442L9.89017 10.3572L9.90494 10.3535L9.91047 10.3516L9.91417 10.3498H9.91786L9.92155 10.3516H9.92709L9.9437 10.3572L9.93078 10.3442L9.94555 10.3406L9.93078 10.3369ZM9.94555 10.3406L9.93078 10.3369L9.9437 10.3239L9.92709 10.3295L9.93078 10.3166L9.91971 10.3258L9.91601 10.3092L9.91232 10.3258L9.90125 10.3166L9.90494 10.3295L9.88832 10.3239L9.90125 10.3369L9.88832 10.3406L9.90125 10.3442L9.89017 10.3572L9.90494 10.3535L9.91047 10.3516L9.91417 10.3498H9.91786L9.92155 10.3516H9.92709L9.9437 10.3572L9.93078 10.3442L9.94555 10.3406ZM9.94555 10.3406L9.93078 10.3369L9.9437 10.3239L9.92709 10.3295L9.93078 10.3166L9.91971 10.3258L9.91601 10.3092L9.91232 10.3258L9.90125 10.3166L9.90494 10.3295L9.88832 10.3239L9.90125 10.3369L9.88832 10.3406L9.90125 10.3442L9.89017 10.3572L9.90494 10.3535L9.91047 10.3516L9.91417 10.3498H9.91786L9.92155 10.3516H9.92709L9.9437 10.3572L9.93078 10.3442L9.94555 10.3406ZM9.94555 10.3406L9.93078 10.3369L9.9437 10.3239L9.92709 10.3295L9.93078 10.3166L9.91971 10.3258L9.91601 10.3092L9.91232 10.3258L9.90125 10.3166L9.90494 10.3295L9.88832 10.3239L9.90125 10.3369L9.88832 10.3406L9.90125 10.3442L9.89017 10.3572L9.90494 10.3535L9.91047 10.3516L9.91417 10.3498H9.91786L9.92155 10.3516H9.92709L9.9437 10.3572L9.93078 10.3442L9.94555 10.3406ZM9.94555 10.3406L9.93078 10.3369L9.9437 10.3239L9.92709 10.3295L9.93078 10.3166L9.91971 10.3258L9.91601 10.3092L9.91232 10.3258L9.90125 10.3166L9.90494 10.3295L9.88832 10.3239L9.90125 10.3369L9.88832 10.3406L9.90125 10.3442L9.89017 10.3572L9.90494 10.3535L9.91047 10.3516L9.91417 10.3498H9.91786L9.92155 10.3516H9.92709L9.9437 10.3572L9.93078 10.3442L9.94555 10.3406Z" fill="url(#paint1_radial_2312_68552)"/>
<path id="Vector_3" fill-rule="evenodd" clip-rule="evenodd" d="M9.94405 10.3576L9.92743 10.352L9.93113 10.3649L9.92005 10.3557L9.91636 10.3723L9.91267 10.3576L9.90159 10.3668L9.90528 10.3539L9.89052 10.3576L9.90159 10.3446L9.88867 10.341L9.90159 10.3373L9.88867 10.3243L9.90528 10.3299L9.90159 10.317L9.91267 10.3262L9.91636 10.3096L9.92005 10.3262L9.93113 10.317L9.92743 10.3299L9.94405 10.3243L9.93113 10.3373L9.94589 10.341L9.93113 10.3446L9.94405 10.3576Z" fill="url(#paint2_linear_2312_68552)"/>
<path id="Vector_4" d="M9.87606 16.4445C13.3932 16.4445 16.2443 13.5933 16.2443 10.0763C16.2443 6.55917 13.3932 3.70801 9.87606 3.70801C6.35898 3.70801 3.50781 6.55917 3.50781 10.0763C3.50781 13.5933 6.35898 16.4445 9.87606 16.4445Z" fill="url(#paint3_linear_2312_68552)"/>
<g id="Group">
<path id="Vector_5" fill-rule="evenodd" clip-rule="evenodd" d="M12.3085 19.7469C11.5683 19.9223 10.7949 20.0164 9.99928 20.0164C9.14649 20.0164 8.32324 19.9093 7.5332 19.7081L7.95222 18.0561C8.06666 17.6075 8.50044 17.3214 8.95821 17.386C9.29785 17.434 9.64672 17.458 9.99928 17.458C10.3002 17.458 10.5973 17.4396 10.8908 17.4045C11.3468 17.351 11.7732 17.6334 11.8858 18.0782L12.3085 19.7469Z" fill="#0992F0"/>
<path id="Vector_6" fill-rule="evenodd" clip-rule="evenodd" d="M12.4625 0.323016L12.0435 1.97507C11.9291 2.42362 11.4953 2.70973 11.0375 2.64512C10.6979 2.59713 10.3509 2.57313 10.0001 2.57313C9.60144 2.57313 9.20827 2.60451 8.82617 2.66542C8.35917 2.73926 7.91062 2.45684 7.79433 1.99722L7.38086 0.363625C8.21335 0.138429 9.09198 0.0166016 9.9983 0.0166016C10.8492 0.0166016 11.6744 0.123662 12.4625 0.323016Z" fill="url(#paint4_linear_2312_68552)"/>
<path id="Vector_7" fill-rule="evenodd" clip-rule="evenodd" d="M4.30964 16.0815L3.13197 17.285C1.96169 16.1794 1.05722 14.795 0.529297 13.2352L2.18689 12.7239C2.61698 12.591 3.0766 12.7959 3.27041 13.2038C3.55468 13.8037 3.91647 14.3575 4.34286 14.8559C4.64928 15.214 4.64005 15.7437 4.30964 16.0815Z" fill="url(#paint5_linear_2312_68552)"/>
<path id="Vector_8" fill-rule="evenodd" clip-rule="evenodd" d="M19.6371 7.34508L18.0515 7.83424C17.5993 7.97452 17.1064 7.74933 16.9347 7.30816C16.6671 6.61965 16.2979 5.98283 15.8475 5.41246C15.5633 5.05067 15.5799 4.53751 15.9011 4.20895L17.1027 2.98145C18.2896 4.17757 19.1756 5.67272 19.6371 7.34508Z" fill="url(#paint6_linear_2312_68552)"/>
<path id="Vector_9" fill-rule="evenodd" clip-rule="evenodd" d="M3.9998 5.61187C3.57894 6.18409 3.23745 6.81907 2.9938 7.49835C2.83505 7.94135 2.35144 8.17763 1.8992 8.04841L0.298828 7.58879C0.710457 5.92751 1.5411 4.43236 2.67077 3.21777L3.9075 4.43236C4.22868 4.74615 4.26745 5.24823 3.9998 5.61187Z" fill="url(#paint7_linear_2312_68552)"/>
<path id="Vector_10" fill-rule="evenodd" clip-rule="evenodd" d="M19.5176 13.0895C19.0045 14.6825 18.1037 16.1001 16.9223 17.2316L15.7299 16.0614C15.3884 15.7273 15.3718 15.1901 15.6819 14.8246C16.1212 14.3078 16.4885 13.7282 16.7746 13.1043C16.9611 12.6982 17.4152 12.4878 17.8452 12.6096L19.5176 13.0895Z" fill="#0899F0"/>
</g>
<path id="Vector_11" fill-rule="evenodd" clip-rule="evenodd" d="M0.332031 12.5745C0.332031 12.5745 2.33849 19.7014 10.0136 19.6331C18.0893 19.5593 19.6952 12.4785 19.6952 12.4785C19.6952 12.4785 18.0099 20.017 10.0007 20.017C1.99147 20.017 0.332031 12.5745 0.332031 12.5745Z" fill="#244AC0"/>
</g>
<defs>
<radialGradient id="paint0_radial_2312_68552" cx="0" cy="0" r="1" gradientUnits="userSpaceOnUse" gradientTransform="translate(9.99994 10.0165) scale(11.3199)">
<stop offset="0.395833" stop-color="#466EF9"/>
<stop offset="1" stop-color="#2417BB"/>
</radialGradient>
<radialGradient id="paint1_radial_2312_68552" cx="0" cy="0" r="1" gradientUnits="userSpaceOnUse" gradientTransform="translate(11.4444 19.952) rotate(-90.2923) scale(18.0898)">
<stop stop-color="#4948E7"/>
<stop offset="1" stop-color="#346BF7"/>
</radialGradient>
<linearGradient id="paint2_linear_2312_68552" x1="9.90348" y1="10.3678" x2="9.92779" y2="10.3155" gradientUnits="userSpaceOnUse">
<stop stop-color="#13001D"/>
<stop offset="1" stop-color="#2F042F"/>
</linearGradient>
<linearGradient id="paint3_linear_2312_68552" x1="9.96836" y1="16.9983" x2="8.95387" y2="3.7859" gradientUnits="userSpaceOnUse">
<stop stop-color="#1579EC"/>
<stop offset="0.5286" stop-color="#08A3F1"/>
<stop offset="1" stop-color="#07D1F4"/>
</linearGradient>
<linearGradient id="paint4_linear_2312_68552" x1="9.77386" y1="4.63128" x2="9.77386" y2="0.0166015" gradientUnits="userSpaceOnUse">
<stop stop-color="#109EEF"/>
<stop offset="1" stop-color="#07CCF4"/>
</linearGradient>
<linearGradient id="paint5_linear_2312_68552" x1="2.86079" y1="16.7221" x2="2.49162" y2="12.5688" gradientUnits="userSpaceOnUse">
<stop stop-color="#118AED"/>
<stop offset="1" stop-color="#08B6F2"/>
</linearGradient>
<linearGradient id="paint6_linear_2312_68552" x1="16.7965" y1="7.95422" x2="18.5501" y2="5.18541" gradientUnits="userSpaceOnUse">
<stop stop-color="#13BBDD"/>
<stop offset="0.0001" stop-color="#08ACF2"/>
<stop offset="1" stop-color="#06D1F4"/>
</linearGradient>
<linearGradient id="paint7_linear_2312_68552" x1="1.75353" y1="4.44712" x2="2.23801" y2="8.08361" gradientUnits="userSpaceOnUse">
<stop stop-color="#07D2F4"/>
<stop offset="1" stop-color="#06AAF2"/>
</linearGradient>
</defs>
</svg>
