<svg width="16" height="16" viewBox="0 0 16 16" fill="none" xmlns="http://www.w3.org/2000/svg">
<g id="arrow right">
<path id="Vector" d="M5.71563 14.0669L11.3323 8.46693C11.399 8.40026 11.4461 8.32804 11.4736 8.25026C11.5016 8.17248 11.5156 8.08915 11.5156 8.00026C11.5156 7.91137 11.5016 7.82804 11.4736 7.75026C11.4461 7.67248 11.399 7.60026 11.3323 7.53359L5.71563 1.91693C5.56007 1.76137 5.36563 1.68359 5.13229 1.68359C4.89896 1.68359 4.69896 1.76693 4.53229 1.93359C4.36563 2.10026 4.28229 2.2947 4.28229 2.51693C4.28229 2.73915 4.36563 2.93359 4.53229 3.10026L9.43229 8.00026L4.53229 12.9003C4.37674 13.0558 4.29896 13.2474 4.29896 13.4749C4.29896 13.7029 4.38229 13.9003 4.54896 14.0669C4.71563 14.2336 4.91007 14.3169 5.13229 14.3169C5.35451 14.3169 5.54896 14.2336 5.71563 14.0669Z" fill="white"/>
</g>
</svg>
