<svg width="14" height="14" viewBox="0 0 14 14" fill="none" xmlns="http://www.w3.org/2000/svg">
<g id="arrow left">
<path id="Vector" d="M5.17695 12.3083L10.0915 7.40832C10.1499 7.34998 10.1911 7.28679 10.2152 7.21873C10.2397 7.15068 10.252 7.07776 10.252 6.99998C10.252 6.92221 10.2397 6.84929 10.2152 6.78123C10.1911 6.71318 10.1499 6.64998 10.0915 6.59165L5.17695 1.67707C5.04084 1.54096 4.8707 1.4729 4.66654 1.4729C4.46237 1.4729 4.28737 1.54582 4.14154 1.69165C3.9957 1.83748 3.92279 2.00762 3.92279 2.20207C3.92279 2.39651 3.9957 2.56665 4.14154 2.71248L8.42904 6.99998L4.14154 11.2875C4.00543 11.4236 3.93737 11.5912 3.93737 11.7903C3.93737 11.9898 4.01029 12.1625 4.15612 12.3083C4.30195 12.4542 4.47209 12.5271 4.66654 12.5271C4.86098 12.5271 5.03112 12.4542 5.17695 12.3083Z" fill="white"/>
</g>
</svg>
