<svg width="16" height="16" viewBox="0 0 16 16" fill="none" xmlns="http://www.w3.org/2000/svg">
<g id="arrow left">
<path id="Vector" d="M10.0852 14.0669L4.46849 8.46693C4.40182 8.40026 4.35471 8.32804 4.32716 8.25026C4.29916 8.17248 4.28516 8.08915 4.28516 8.00026C4.28516 7.91137 4.29916 7.82804 4.32716 7.75026C4.35471 7.67248 4.40182 7.60026 4.46849 7.53359L10.0852 1.91693C10.2407 1.76137 10.4352 1.68359 10.6685 1.68359C10.9018 1.68359 11.1018 1.76693 11.2685 1.93359C11.4352 2.10026 11.5185 2.2947 11.5185 2.51693C11.5185 2.73915 11.4352 2.93359 11.2685 3.10026L6.36849 8.00026L11.2685 12.9003C11.424 13.0558 11.5018 13.2474 11.5018 13.4749C11.5018 13.7029 11.4185 13.9003 11.2518 14.0669C11.0852 14.2336 10.8907 14.3169 10.6685 14.3169C10.4463 14.3169 10.2518 14.2336 10.0852 14.0669Z" fill="white"/>
</g>
</svg>
