<svg width="18" height="18" viewBox="0 0 18 18" fill="none" xmlns="http://www.w3.org/2000/svg">
<g id="arrow down">
<path id="Vector" d="M2.17422 6.4313L8.47422 12.75C8.54922 12.825 8.63047 12.878 8.71797 12.909C8.80547 12.9405 8.89922 12.9563 8.99922 12.9563C9.09922 12.9563 9.19297 12.9405 9.28047 12.909C9.36797 12.878 9.44922 12.825 9.52422 12.75L15.843 6.4313C16.018 6.2563 16.1055 6.03755 16.1055 5.77505C16.1055 5.51255 16.0117 5.28755 15.8242 5.10005C15.6367 4.91255 15.418 4.8188 15.168 4.8188C14.918 4.8188 14.6992 4.91255 14.5117 5.10005L8.99922 10.6125L3.48672 5.10005C3.31172 4.92505 3.09622 4.83755 2.84022 4.83755C2.58372 4.83755 2.36172 4.9313 2.17422 5.1188C1.98672 5.3063 1.89297 5.52505 1.89297 5.77505C1.89297 6.02505 1.98672 6.2438 2.17422 6.4313Z" fill="#70717E"/>
</g>
</svg>
