<svg width="14" height="14" viewBox="0 0 14 14" fill="none" xmlns="http://www.w3.org/2000/svg">
<g id="mdi:magic">
<path id="Vector" d="M4.37516 3.26675L2.91682 4.08342L3.73349 2.62508L2.91682 1.16675L4.37516 1.98341L5.83349 1.16675L5.01682 2.62508L5.83349 4.08342L4.37516 3.26675ZM11.3752 8.98342L12.8335 8.16675L12.0168 9.62508L12.8335 11.0834L11.3752 10.2667L9.91682 11.0834L10.7335 9.62508L9.91682 8.16675L11.3752 8.98342ZM12.8335 1.16675L12.0168 2.62508L12.8335 4.08342L11.3752 3.26675L9.91682 4.08342L10.7335 2.62508L9.91682 1.16675L11.3752 1.98341L12.8335 1.16675ZM7.78182 7.45508L9.20516 6.03175L7.96849 4.79508L6.54516 6.21841L7.78182 7.45508ZM8.38266 4.25258L9.74766 5.61758C9.97516 5.83342 9.97516 6.21258 9.74766 6.44008L2.94016 13.2476C2.71266 13.4751 2.33349 13.4751 2.11766 13.2476L0.752656 11.8826C0.525156 11.6667 0.525156 11.2876 0.752656 11.0601L7.56016 4.25258C7.78766 4.02508 8.16682 4.02508 8.38266 4.25258Z" fill="black"/>
</g>
</svg>
