<svg width="16" height="16" viewBox="0 0 16 16" fill="none" xmlns="http://www.w3.org/2000/svg">
<g id="logos:bitcoin" clip-path="url(#clip0_2186_3482)">
<path id="Vector" d="M15.7607 9.93486C14.6918 14.2229 10.3474 16.8295 6.06549 15.7605C1.77737 14.6917 -0.829259 10.3474 0.239679 6.06561C1.30855 1.77761 5.64668 -0.829014 9.9348 0.239923C14.2167 1.30255 16.8296 5.6468 15.7607 9.93486Z" fill="url(#paint0_linear_2186_3482)"/>
<path id="Vector_2" d="M11.8094 7.00308C11.9656 5.94058 11.1594 5.36558 10.0469 4.98433L10.4094 3.54058L9.53438 3.32183L9.18438 4.72808C8.95313 4.67183 8.71563 4.61558 8.47813 4.56558L8.82812 3.15308L7.95313 2.93433L7.59688 4.37183C7.40313 4.32808 7.21563 4.28433 7.03437 4.24058V4.23433L5.82187 3.93433L5.59062 4.87183C5.59062 4.87183 6.24062 5.02183 6.22812 5.02808C6.58437 5.11558 6.64687 5.35308 6.63437 5.54058L6.22187 7.18433C6.24688 7.19058 6.27813 7.19683 6.31562 7.21558C6.28437 7.20933 6.25312 7.20308 6.22187 7.19058L5.64688 9.49058C5.60313 9.59683 5.49063 9.75933 5.24687 9.69683C5.25312 9.70933 4.60938 9.54058 4.60938 9.54058L4.17188 10.5468L5.31562 10.8343C5.52812 10.8906 5.73437 10.9406 5.94062 10.9968L5.57813 12.4531L6.45313 12.6718L6.81562 11.2281C7.05313 11.2906 7.29063 11.3531 7.51563 11.4093L7.15937 12.8468L8.03438 13.0656L8.39688 11.6093C9.89688 11.8906 11.0219 11.7781 11.4906 10.4218C11.8719 9.33433 11.4719 8.70308 10.6844 8.29058C11.2656 8.15933 11.6969 7.77808 11.8094 7.00308ZM9.80313 9.81558C9.53438 10.9031 7.69688 10.3156 7.10312 10.1656L7.58438 8.23433C8.17813 8.38433 10.0906 8.67808 9.80313 9.81558ZM10.0781 6.98433C9.82812 7.97808 8.30313 7.47183 7.80938 7.34683L8.24688 5.59683C8.74063 5.72183 10.3344 5.95308 10.0781 6.98433Z" fill="white"/>
</g>
<defs>
<linearGradient id="paint0_linear_2186_3482" x1="7.99567" y1="-0.00359585" x2="7.99567" y2="15.9986" gradientUnits="userSpaceOnUse">
<stop stop-color="#F9AA4B"/>
<stop offset="1" stop-color="#F7931A"/>
</linearGradient>
<clipPath id="clip0_2186_3482">
<rect width="16" height="16" fill="white"/>
</clipPath>
</defs>
</svg>
