<svg width="18" height="18" viewBox="0 0 18 18" fill="none" xmlns="http://www.w3.org/2000/svg">
<g clip-path="url(#clip0_589_150419)">
<path d="M13.5 0.75H4.5C3.5058 0.751191 2.55267 1.14666 1.84966 1.84967C1.14666 2.55267 0.751191 3.5058 0.75 4.5V10.5C0.751091 11.3642 1.05007 12.2015 1.59654 12.8709C2.14301 13.5404 2.90356 14.0009 3.75 14.175V16.5C3.74998 16.6358 3.78682 16.769 3.85659 16.8855C3.92637 17.002 4.02645 17.0973 4.14618 17.1614C4.2659 17.2255 4.40077 17.2558 4.53639 17.2492C4.67201 17.2426 4.8033 17.1994 4.91625 17.124L9.225 14.25H13.5C14.4942 14.2488 15.4473 13.8533 16.1503 13.1503C16.8533 12.4473 17.2488 11.4942 17.25 10.5V4.5C17.2488 3.5058 16.8533 2.55267 16.1503 1.84967C15.4473 1.14666 14.4942 0.751191 13.5 0.75ZM12 9.75H6C5.80109 9.75 5.61032 9.67098 5.46967 9.53033C5.32902 9.38968 5.25 9.19891 5.25 9C5.25 8.80109 5.32902 8.61032 5.46967 8.46967C5.61032 8.32902 5.80109 8.25 6 8.25H12C12.1989 8.25 12.3897 8.32902 12.5303 8.46967C12.671 8.61032 12.75 8.80109 12.75 9C12.75 9.19891 12.671 9.38968 12.5303 9.53033C12.3897 9.67098 12.1989 9.75 12 9.75ZM13.5 6.75H4.5C4.30109 6.75 4.11032 6.67098 3.96967 6.53033C3.82902 6.38968 3.75 6.19891 3.75 6C3.75 5.80109 3.82902 5.61032 3.96967 5.46967C4.11032 5.32902 4.30109 5.25 4.5 5.25H13.5C13.6989 5.25 13.8897 5.32902 14.0303 5.46967C14.171 5.61032 14.25 5.80109 14.25 6C14.25 6.19891 14.171 6.38968 14.0303 6.53033C13.8897 6.67098 13.6989 6.75 13.5 6.75Z" fill="#0F111C"/>
</g>
<defs>
<clipPath id="clip0_589_150419">
<rect width="18" height="18" fill="white"/>
</clipPath>
</defs>
</svg>
