<svg width="470" height="470" viewBox="0 0 470 393" fill="none" xmlns="http://www.w3.org/2000/svg">
    <path opacity="0.11"
        d="M276.231 390.151L235.003 150.497L315.419 379.312L276.231 390.151ZM214.716 393L276.231 390.151L235.003 150.503L214.716 393ZM193.769 390.151L234.997 150.497L154.581 379.319L193.769 390.151ZM154.581 379.319L235.003 150.497L99.9355 350.043L154.581 379.319ZM83.1695 336.775L234.997 150.503L54.486 307.169L83.1695 336.775ZM54.486 307.169L235.003 150.497L21.3409 253.621L54.486 307.169ZM13.258 233.478L234.997 150.497L0 171.431L13.258 233.478ZM0 171.431L234.997 150.503L0 129.569V171.431ZM2.76098 107.953L235.003 150.497L19.8772 46.2879L2.76098 107.953ZM21.3409 47.3786L234.997 150.503L41.6281 11.1249L21.3409 47.3786ZM54.486 -6.17616L234.997 150.497L83.1695 -35.7751L54.486 -6.17616ZM83.1695 -35.7751L235.003 150.503L135.068 -69.978L83.1695 -35.7751ZM154.581 -78.3188L234.997 150.497L193.769 -89.1509L154.581 -78.3188ZM193.769 -89.1509L234.997 150.497L255.284 -92L193.769 -89.1509ZM276.231 -89.1578L235.003 150.497L315.412 -78.3188L276.231 -89.1578ZM315.412 -78.3188L234.997 150.497L370.065 -49.0434L315.412 -78.3188ZM386.824 -35.7751L234.997 150.497L415.507 -6.17616L386.824 -35.7751ZM415.507 -6.17616L234.997 150.497L448.652 47.3717L415.507 -6.17616ZM456.742 67.5149L234.997 150.497L467.239 107.953L456.742 67.5149ZM467.239 107.953L235.003 150.497L470 171.424L467.239 107.953ZM467.239 193.047L234.997 150.503L456.735 233.485L467.239 193.047ZM456.735 233.485L234.997 150.497L428.372 289.875L456.735 233.485ZM415.514 307.169L234.997 150.497L386.824 336.768L415.514 307.169ZM386.824 336.768L234.997 150.497L334.932 370.971L386.824 336.768Z"
        fill="url(#paint0_radial_501_191980)" />
    <defs>
        <radialGradient id="paint0_radial_501_191980" cx="0" cy="0" r="1"
            gradientUnits="userSpaceOnUse"
            gradientTransform="translate(235.428 150.058) scale(204.18 210.697)">
            <stop stop-color="#146FFC" />
            <stop offset="0.46875" stop-color="#1C3658" />
            <stop offset="0.734375" stop-color="#1B1D29" />
            <stop offset="1" stop-color="#1B1D29" />
        </radialGradient>
    </defs>
</svg>