<svg width="24" height="24" viewBox="0 0 24 24" fill="none" xmlns="http://www.w3.org/2000/svg">
<g id="ion:close">
<path id="Vector" d="M13.7971 12L18.8249 6.97218C19.0635 6.73398 19.1978 6.41074 19.1981 6.07357C19.1984 5.73641 19.0647 5.41294 18.8265 5.17431C18.5883 4.93569 18.2651 4.80147 17.9279 4.80117C17.5907 4.80087 17.2673 4.93453 17.0287 5.17273L12.0008 10.2006L6.97291 5.17273C6.73429 4.93411 6.41065 4.80005 6.07318 4.80005C5.73572 4.80005 5.41208 4.93411 5.17346 5.17273C4.93484 5.41135 4.80078 5.73499 4.80078 6.07245C4.80078 6.40991 4.93484 6.73355 5.17346 6.97218L10.2013 12L5.17346 17.0279C4.93484 17.2665 4.80078 17.5902 4.80078 17.9276C4.80078 18.2651 4.93484 18.5887 5.17346 18.8274C5.41208 19.066 5.73572 19.2 6.07318 19.2C6.41065 19.2 6.73429 19.066 6.97291 18.8274L12.0008 13.7995L17.0287 18.8274C17.2673 19.066 17.5909 19.2 17.9284 19.2C18.2658 19.2 18.5895 19.066 18.8281 18.8274C19.0667 18.5887 19.2008 18.2651 19.2008 17.9276C19.2008 17.5902 19.0667 17.2665 18.8281 17.0279L13.7971 12Z" fill="#51535F"/>
</g>
</svg>
