<svg width="16" height="16" viewBox="0 0 16 16" fill="none" xmlns="http://www.w3.org/2000/svg">
<g id="mingcute:copy-2-fill" clip-path="url(#clip0_501_191422)">
<g id="Group">
<path id="Vector" fill-rule="evenodd" clip-rule="evenodd" d="M5.9987 1.33325C5.64508 1.33325 5.30594 1.47373 5.05589 1.72378C4.80584 1.97382 4.66536 2.31296 4.66536 2.66659V3.99992H5.9987V2.66659H13.332V9.99992H11.9987V11.3333H13.332C13.6857 11.3333 14.0248 11.1928 14.2748 10.9427C14.5249 10.6927 14.6654 10.3535 14.6654 9.99992V2.66659C14.6654 2.31296 14.5249 1.97382 14.2748 1.72378C14.0248 1.47373 13.6857 1.33325 13.332 1.33325H5.9987ZM2.66536 4.66658C2.31174 4.66659 1.9726 4.80706 1.72256 5.05711C1.47251 5.30716 1.33203 5.6463 1.33203 5.99992V13.3333C1.33203 13.6869 1.47251 14.026 1.72256 14.2761C1.9726 14.5261 2.31174 14.6666 2.66536 14.6666H9.9987C10.3523 14.6666 10.6915 14.5261 10.9415 14.2761C11.1916 14.026 11.332 13.6869 11.332 13.3333V5.99992C11.332 5.6463 11.1916 5.30716 10.9415 5.05711C10.6915 4.80706 10.3523 4.66659 9.9987 4.66658H2.66536Z" fill="#51535F"/>
</g>
</g>
<defs>
<clipPath id="clip0_501_191422">
<rect width="16" height="16" fill="white"/>
</clipPath>
</defs>
</svg>
