<svg width="1265" height="179" viewBox="0 0 1265 179" fill="none" xmlns="http://www.w3.org/2000/svg">
    <g clip-path="url(#clip0_0_1)">
        <path
            d="M236.408 227.447C252.153 223.13 261.198 206.929 256.611 191.261C252.024 175.593 235.542 166.391 219.797 170.707C204.053 175.024 195.008 191.225 199.594 206.893C204.181 222.561 220.664 231.763 236.408 227.447Z"
            fill="#FA8A00" />
        <path
            d="M252.008 218.081C246.656 223.545 239.365 226.739 231.634 227.008C223.903 227.276 216.318 224.599 210.437 219.525C210.015 219.165 209.597 218.786 209.184 218.388C208.466 217.694 207.789 216.972 207.148 216.237C206.459 215.425 205.811 214.58 205.206 213.704C203.899 211.814 202.814 209.785 201.973 207.655C201.764 207.138 201.57 206.617 201.4 206.083C201.097 205.187 200.84 204.277 200.631 203.356C199.191 197.179 199.749 190.737 202.226 184.95C204.702 179.162 208.972 174.324 214.424 171.125C219.877 167.927 226.235 166.531 232.591 167.136C238.948 167.742 244.979 170.319 249.824 174.499C250.247 174.86 250.666 175.239 251.079 175.636C251.36 175.907 251.635 176.185 251.898 176.463C252.287 176.862 252.675 177.281 253.041 177.702C254.545 179.445 255.847 181.349 256.922 183.377C257.416 184.313 257.861 185.274 258.256 186.254C260.408 191.64 260.964 197.502 259.856 203.144C258.749 208.786 256.025 213.97 252.008 218.081Z"
            fill="#FFCA00" />
        <path
            d="M237.108 220.846C250.337 217.219 257.936 203.607 254.082 190.443C250.228 177.278 236.38 169.547 223.152 173.174C209.923 176.801 202.323 190.412 206.177 203.577C210.031 216.741 223.879 224.472 237.108 220.846Z"
            fill="#FA8A00" />
        <path
            d="M247.451 215.08C256.595 205.75 255.94 190.415 245.988 180.828C236.036 171.24 220.556 171.032 211.412 180.362C202.268 189.692 202.923 205.027 212.875 214.614C222.827 224.201 238.307 224.41 247.451 215.08Z"
            fill="#FFE700" />
        <path
            d="M248.149 214.368C257.238 205.094 256.538 189.804 246.586 180.217C236.634 170.63 221.199 170.376 212.11 179.65C203.02 188.923 203.72 204.213 213.672 213.8C223.624 223.388 239.059 223.642 248.149 214.368Z"
            fill="#FF9F00" />
        <path
            d="M232.153 195.941C229.369 192.853 229.09 191.876 229.544 191.063C229.971 190.299 231.253 189.85 233.471 191.089C235.012 191.92 236.337 193.099 237.338 194.528L238.092 195.578L242.251 192.547L241.546 191.542C240.523 190.113 239.243 188.88 237.773 187.906L239.535 184.749L234.909 182.166L233.011 185.566C228.982 184.341 225.428 185.379 223.773 188.344C221.689 192.075 224.227 195.623 227.265 198.888C229.871 201.746 229.783 202.914 229.354 203.682C228.685 204.882 226.774 204.914 224.708 203.76C222.95 202.782 221.456 201.391 220.359 199.713L219.609 198.518L215.507 201.64L216.068 202.592C216.954 204.103 218.677 205.797 220.628 207.11L218.798 210.388L223.461 212.992L225.411 209.5C230.149 210.943 233.646 209.159 235.081 206.587C237.356 202.506 234.711 198.752 232.153 195.941Z"
            fill="#FA8A00" />
        <path
            d="M233.287 195.472C230.504 192.383 230.226 191.405 230.679 190.594C231.105 189.83 232.388 189.38 234.607 190.618C236.148 191.449 237.473 192.629 238.472 194.06L239.226 195.11L243.383 192.075L242.674 191.078C241.651 189.649 240.373 188.417 238.904 187.443L240.671 184.279L236.044 181.696L234.145 185.097C230.117 183.871 226.563 184.909 224.907 187.875C222.823 191.606 225.362 195.154 228.4 198.419C231.005 201.277 230.918 202.445 230.489 203.212C229.819 204.413 227.909 204.445 225.843 203.292C224.079 202.312 222.581 200.919 221.481 199.237L220.736 198.047L216.634 201.169L217.194 202.123C218.08 203.634 219.804 205.328 221.754 206.641L219.924 209.919L224.588 212.523L226.539 209.028C231.278 210.471 234.774 208.687 236.21 206.114C238.49 202.045 235.841 198.281 233.287 195.472Z"
            fill="#FFCA00" />
        <g style="mix-blend-mode:soft-light">
            <path
                d="M239.598 183.679L236.82 182.128L235.306 183.013L234.143 185.096C233.574 184.926 232.992 184.798 232.405 184.714L224.304 189.468C224.083 190.487 224.143 191.551 224.477 192.547L239.598 183.679Z"
                fill="white" />
            <path
                d="M251.898 176.459C251.635 176.182 251.36 175.904 251.079 175.633C250.666 175.235 250.248 174.856 249.824 174.495L244.947 177.357C245.727 177.94 246.472 178.567 247.179 179.236L251.898 176.459Z"
                fill="white" />
            <path
                d="M253.04 177.698L248.366 180.442C249.939 182.132 251.27 184.028 252.319 186.075L256.919 183.377C255.844 181.348 254.543 179.443 253.04 177.698Z"
                fill="white" />
        </g>
    </g>
    <g clip-path="url(#clip1_0_1)" filter="url(#filter0_f_0_1)">
        <path
            d="M32.1328 3.80912C31.6295 -0.859385 27.4445 -4.17088 22.7853 -3.58731C18.1262 -3.00375 14.7572 1.2539 15.2605 5.92241C15.7639 10.5909 19.9489 13.9024 24.608 13.3188C29.2672 12.7353 32.6361 8.47763 32.1328 3.80912Z"
            fill="#FA8A00" />
        <path
            d="M30.1891 -1.04969C31.4949 0.72065 32.0674 2.93726 31.789 5.14477C31.5105 7.35228 30.4023 9.38307 28.6919 10.8199C28.5702 10.9235 28.4434 11.0247 28.3116 11.1237C28.0818 11.2958 27.8455 11.4549 27.6076 11.603C27.3454 11.7615 27.0756 11.9068 26.7992 12.0382C26.2027 12.3227 25.5766 12.5376 24.9334 12.6788C24.7769 12.7144 24.62 12.7456 24.4608 12.7692C24.1925 12.8142 23.9223 12.8454 23.6513 12.8626C21.8312 12.9881 20.0278 12.5341 18.4981 11.5653C16.9685 10.5965 15.7906 9.16243 15.1326 7.46748C14.4745 5.77252 14.3698 3.90325 14.8334 2.1262C15.2971 0.349148 16.3053 -1.24496 17.7144 -2.42883C17.8364 -2.53261 17.9632 -2.63401 18.095 -2.733C18.1849 -2.80033 18.2764 -2.8657 18.3672 -2.92772C18.4985 -3.01977 18.6353 -3.11071 18.7716 -3.19544C19.3356 -3.54242 19.9358 -3.82477 20.5609 -4.0371C20.8495 -4.13427 21.1426 -4.21663 21.4391 -4.28384C23.067 -4.64784 24.7569 -4.53657 26.3081 -3.96325C27.8592 -3.38992 29.2062 -2.37867 30.1891 -1.04969Z"
            fill="#FFCA00" />
        <path
            d="M30.2892 3.30753C29.8663 -0.614903 26.3501 -3.39719 22.4355 -2.90689C18.5209 -2.41658 15.6903 1.16066 16.1132 5.0831C16.5361 9.00554 20.0523 11.7878 23.9669 11.2975C27.8815 10.8072 30.712 7.22997 30.2892 3.30753Z"
            fill="#FA8A00" />
        <path
            d="M29.1264 0.106531C26.8969 -2.91778 22.5126 -3.43536 19.3339 -1.04952C16.1553 1.33632 15.3858 5.72211 17.6154 8.74642C19.8449 11.7707 24.2292 12.2883 27.4079 9.90247C30.5865 7.51663 31.356 3.13084 29.1264 0.106531Z"
            fill="#FFE700" />
        <path
            d="M28.9592 -0.124773C26.7431 -3.13094 22.3697 -3.63381 19.191 -1.24797C16.0123 1.13787 15.232 5.50895 17.4482 8.51511C19.6644 11.5213 24.0378 12.0241 27.2165 9.63831C30.3951 7.25247 31.1754 2.88139 28.9592 -0.124773Z"
            fill="#FF9F00" />
        <path
            d="M22.9928 3.57229C21.9882 4.22124 21.698 4.25542 21.488 4.08925C21.2907 3.93309 21.2221 3.54842 21.6756 2.97537C21.9823 2.57604 22.3778 2.25386 22.8296 2.03528L23.1623 1.86952L22.4925 0.549363L22.1747 0.703478C21.7219 0.928524 21.3132 1.23523 20.9692 1.60805L20.1537 0.962764L19.2081 2.15785L20.0863 2.8528C19.5537 3.94045 19.6854 4.99735 20.4511 5.60328C21.415 6.36601 22.5388 5.80813 23.6054 5.09533C24.5363 4.48672 24.8639 4.56507 25.0624 4.72218C25.3723 4.96736 25.2937 5.51118 24.8714 6.04488C24.5129 6.49931 24.0496 6.85969 23.5226 7.09402L23.149 7.25224L23.8472 8.56017L24.1434 8.44456C24.613 8.26238 25.173 7.85072 25.6354 7.35723L26.4821 8.02719L27.4353 6.82246L26.5334 6.10877C27.1605 4.82948 26.8143 3.75496 26.15 3.2293C25.0955 2.39616 23.9083 2.97501 22.9928 3.57229Z"
            fill="#FA8A00" />
        <path
            d="M22.9124 3.22871C21.9075 3.87735 21.6173 3.91152 21.4077 3.74567C21.2103 3.58951 21.1414 3.20453 21.5948 2.63148C21.9014 2.23197 22.2971 1.90984 22.7492 1.6917L23.0819 1.52594L22.4111 0.206274L22.0953 0.361952C21.6428 0.586834 21.2343 0.893262 20.8904 1.26572L20.073 0.618872L19.1273 1.81396L20.006 2.50922C19.473 3.59656 19.6046 4.65346 20.3708 5.2597C21.3347 6.02243 22.4584 5.46455 23.525 4.75175C24.4559 4.14314 24.7835 4.22149 24.9817 4.37829C25.2919 4.62378 25.2134 5.16761 24.7911 5.7013C24.432 6.15707 23.9678 6.51857 23.4397 6.75365L23.0678 6.91058L23.7659 8.21851L24.0625 8.10321C24.5321 7.92103 25.0921 7.50937 25.5545 7.01588L26.4012 7.68584L27.3545 6.48111L26.4517 5.7668C27.0789 4.48751 26.7327 3.41299 26.068 2.88701C25.0173 2.05303 23.8269 2.63264 22.9124 3.22871Z"
            fill="#FFCA00" />
        <g style="mix-blend-mode:soft-light">
            <path
                d="M24.1152 2.61076L24.7617 4.27752C24.842 4.29215 24.9173 4.32617 24.9811 4.37666C25.1832 4.53658 25.2171 4.82464 25.1016 5.15242L25.9453 7.32195L26.4016 7.68301L27.1207 6.77424L26.8512 6.07974L26.4521 5.76397C26.5052 5.65122 26.5521 5.53569 26.5924 5.4179L25.4848 2.56547C25.0294 2.41015 24.5641 2.46119 24.1152 2.61076Z"
                fill="white" />
            <path
                d="M25.0362 7.49289L24.4744 6.04668C24.1745 6.34327 23.8234 6.58241 23.4388 6.75198L23.0669 6.90891L23.765 8.21684L24.0616 8.10155C24.3659 7.98384 24.7068 7.76315 25.0362 7.49289Z"
                fill="white" />
            <path
                d="M21.2729 3.24751C21.307 3.07862 21.4028 2.87163 21.5928 2.63149C21.8995 2.23197 22.2952 1.90985 22.7472 1.69171L22.7781 1.67627L22.2392 0.288695L22.0924 0.359908C21.64 0.585505 21.2318 0.892632 20.8885 1.26573L20.3358 0.828459L21.2729 3.24751Z"
                fill="white" />
            <path
                d="M21.4864 3.79599L22.1416 5.48265C22.6023 5.32474 23.0686 5.05577 23.5259 4.74959C23.6607 4.66035 23.7787 4.5924 23.89 4.53287L23.2911 2.99328C23.1606 3.06895 23.0341 3.14775 22.9127 3.22807C22.0282 3.80085 21.6968 3.89517 21.4864 3.79599Z"
                fill="white" />
            <path
                d="M19.8522 0.896407L19.2844 1.61402L19.4661 2.08436L20.0041 2.51007C19.9297 2.66401 19.8668 2.82317 19.8161 2.98621L20.7942 5.50431C21.0734 5.61394 21.3781 5.64574 21.6764 5.5964L19.8522 0.896407Z"
                fill="white" />
            <path
                d="M23.0624 11.3452L23.6517 12.8628C23.923 12.845 24.1935 12.8132 24.4621 12.7675L23.8911 11.2989C23.6157 11.3303 23.339 11.3458 23.0624 11.3452Z"
                fill="white" />
            <path
                d="M24.9336 12.6776C25.5761 12.5365 26.2016 12.322 26.7977 12.0382L26.2448 10.6134C25.6503 10.9042 25.0199 11.1113 24.3715 11.2286L24.9336 12.6776Z"
                fill="white" />
            <path
                d="M27.0437 10.1505L27.6074 11.6016C27.8453 11.4535 28.0816 11.2943 28.3114 11.1223C28.4433 11.0233 28.57 10.922 28.6917 10.8185L28.1038 9.30325C27.8855 9.51708 27.6542 9.71704 27.4112 9.90191C27.292 9.99173 27.1667 10.0689 27.0437 10.1505Z"
                fill="white" />
        </g>
    </g>
    <g clip-path="url(#clip2_0_1)">
        <path
            d="M951.893 262.262C998.198 238.849 1015.91 182.773 991.447 137.012C966.986 91.2517 909.618 73.1349 863.313 96.5474C817.007 119.96 799.298 176.036 823.759 221.797C848.219 267.557 905.587 285.674 951.893 262.262Z"
            fill="#FA8A00" />
        <path
            d="M994.472 223.256C981.321 243.63 960.654 258.185 936.716 263.931C912.779 269.677 887.388 266.178 865.76 254.151C864.208 253.3 862.659 252.389 861.113 251.416C858.425 249.718 855.844 247.902 853.372 246.028C850.695 243.943 848.125 241.728 845.673 239.391C840.371 234.352 835.671 228.735 831.667 222.655C830.681 221.18 829.737 219.684 828.864 218.134C827.337 215.544 825.946 212.88 824.696 210.152C816.201 191.877 813.766 171.51 817.74 151.957C821.713 132.404 831.891 114.662 846.824 101.261C861.756 87.8596 880.68 79.4838 900.897 77.3275C921.114 75.1712 941.592 79.3444 959.411 89.2522C960.967 90.1042 962.517 91.0165 964.063 91.9892C965.115 92.653 966.153 93.3414 967.154 94.0355C968.625 95.0294 970.106 96.0848 971.522 97.1601C977.342 101.621 982.636 106.707 987.304 112.323C989.451 114.919 991.462 117.62 993.33 120.415C1003.53 135.778 1009.06 153.637 1009.27 171.868C1009.47 190.099 1004.33 207.935 994.472 223.256V223.256Z"
            fill="#FFCA00" />
        <path
            d="M949.799 241.31C988.704 221.639 1003.58 174.524 983.032 136.076C962.48 97.6287 914.28 82.4072 875.375 102.078C836.469 121.749 821.59 168.864 842.142 207.311C862.693 245.759 910.893 260.981 949.799 241.31Z"
            fill="#FA8A00" />
        <path
            d="M978.315 216.828C1000.79 182.035 988.803 134.811 951.552 111.35C914.301 87.8883 865.887 97.0745 843.417 131.867C820.946 166.66 832.928 213.885 870.18 237.346C907.431 260.807 955.844 251.621 978.315 216.828Z"
            fill="#FFE700" />
        <path
            d="M980.036 214.172C1002.37 179.588 990.28 132.532 953.029 109.071C915.778 85.6099 867.473 94.6269 845.137 129.211C822.802 163.795 834.893 210.85 872.144 234.312C909.395 257.773 957.7 248.756 980.036 214.172Z"
            fill="#FF9F00" />
        <path
            d="M918.197 167.091C907.512 159.266 906.01 156.408 906.899 153.594C907.734 150.949 911.443 148.741 919.164 151.179C924.508 152.783 929.405 155.604 933.452 159.409L936.483 162.192L947.491 150.133L944.641 147.458C940.522 143.668 935.733 140.651 930.516 138.56L933.967 127.633L917.864 122.547L914.148 134.315C900.79 133.069 890.376 138.552 887.136 148.813C883.057 161.728 893.272 171.137 904.864 179.352C914.841 186.575 915.326 190.258 914.486 192.919C913.174 197.071 907.238 198.383 900.047 196.112C893.928 194.189 888.368 190.819 883.86 186.301L880.746 183.066L869.976 195.37L872.343 197.973C876.085 202.103 882.558 206.27 889.491 209.111L885.909 220.456L902.141 225.583L905.958 213.497C921.672 214.97 931.419 207.206 934.23 198.305C938.679 184.18 927.996 174.199 918.197 167.091Z"
            fill="#FA8A00" />
        <path
            d="M921.432 164.913C910.748 157.083 909.247 154.225 910.134 151.416C910.969 148.772 914.679 146.558 922.4 148.996C927.746 150.599 932.643 153.421 936.687 157.231L939.718 160.014L950.717 147.946L947.858 145.298C943.742 141.51 938.957 138.494 933.744 136.403L937.203 125.45L921.1 120.364L917.382 132.138C904.026 130.886 893.613 136.369 890.371 146.635C886.292 159.551 896.507 168.959 908.099 177.174C918.076 184.397 918.561 188.08 917.722 190.736C916.409 194.893 910.473 196.205 903.282 193.934C897.147 192.011 891.572 188.636 887.052 184.109L883.957 180.887L873.187 193.19L875.553 195.799C879.295 199.929 885.768 204.096 892.701 206.937L889.119 218.282L905.351 223.409L909.171 211.313C924.885 212.785 934.632 205.022 937.445 196.115C941.918 182.026 931.215 172.016 921.432 164.913Z"
            fill="#FFCA00" />
        <g style="mix-blend-mode:soft-light">
            <path
                d="M932.589 174.921L917.903 188.093C918.069 188.979 918.015 189.888 917.744 190.742C916.889 193.45 914.043 194.925 910.195 195.012L891.088 212.18L889.157 218.294L901.402 222.161L907.521 216.672L909.209 211.325C910.586 211.432 911.966 211.464 913.344 211.421L938.473 188.866C938.279 183.564 935.911 178.966 932.589 174.921Z"
                fill="white" />
            <path
                d="M885.725 203.478L898.465 192.041C894.211 190.106 890.348 187.419 887.073 184.116L883.979 180.894L873.209 193.197L875.575 195.805C877.996 198.483 881.627 201.137 885.725 203.478Z"
                fill="white" />
            <path
                d="M914.76 148.102C916.642 147.795 919.162 147.975 922.398 148.996C927.744 150.599 932.641 153.421 936.685 157.231L936.967 157.488L949.191 146.517L947.873 145.281C943.751 141.497 938.959 138.487 933.742 136.403L936.08 128.998L914.76 148.102Z"
                fill="white" />
            <path
                d="M909.93 152.439L895.072 165.778C898.527 169.911 903.154 173.67 908.13 177.19C909.586 178.231 910.755 179.182 911.811 180.097L925.37 167.913C924.071 166.863 922.756 165.866 921.445 164.929C912.022 158.044 909.736 154.995 909.93 152.439Z"
                fill="white" />
            <path
                d="M933.462 124.269L923.793 121.215L919.646 124.925L917.369 132.134C915.483 131.967 913.587 131.941 911.7 132.054L889.518 151.967C889.488 155.274 890.364 158.54 892.054 161.423L933.462 124.269Z"
                fill="white" />
            <path
                d="M967.15 94.0229C966.149 93.3288 965.111 92.6404 964.059 91.9766C962.514 91.0039 960.963 90.0916 959.408 89.2396L946.054 101.227C948.863 102.544 951.594 104.02 954.232 105.648L967.15 94.0229Z"
                fill="white" />
            <path
                d="M971.518 97.1476L958.718 108.641C964.72 112.892 970.099 117.937 974.699 123.628L987.295 112.326C982.629 106.705 977.337 101.613 971.518 97.1476V97.1476Z"
                fill="white" />
            <path
                d="M993.329 120.414L980.543 131.883C983.152 136.124 985.349 140.592 987.105 145.228L1000.49 133.221C998.436 128.783 996.043 124.502 993.329 120.414V120.414Z"
                fill="white" />
        </g>
    </g>
    <g clip-path="url(#clip3_0_1)" filter="url(#filter1_d_0_1)">
        <path
            d="M542.429 31.9181C542.485 25.404 537.25 20.1687 530.736 20.2248C524.222 20.2808 518.896 25.6069 518.84 32.121C518.784 38.6351 524.019 43.8703 530.533 43.8143C537.047 43.7583 542.373 38.4321 542.429 31.9181Z"
            fill="#FA8A00" />
        <path
            d="M540.532 24.9107C542.047 27.56 542.48 30.7064 541.742 33.7037C541.004 36.7009 539.151 39.3214 536.563 41.0268C536.379 41.1499 536.188 41.2691 535.99 41.3844C535.646 41.5845 535.295 41.7659 534.943 41.9317C534.556 42.1081 534.161 42.2649 533.759 42.4016C532.891 42.6979 531.994 42.8936 531.085 42.9849C530.864 43.0087 530.643 43.0265 530.419 43.0334C530.042 43.0524 529.665 43.052 529.289 43.0322C526.761 42.9129 524.348 41.9978 522.396 40.4171C520.444 38.8365 519.051 36.6712 518.416 34.2299C517.782 31.7885 517.938 29.1958 518.862 26.8215C519.786 24.4471 521.431 22.4123 523.563 21.0072C523.748 20.8838 523.939 20.7644 524.137 20.6492C524.271 20.5708 524.408 20.4955 524.543 20.4246C524.739 20.3188 524.942 20.2154 525.143 20.1206C525.976 19.733 526.848 19.4403 527.744 19.2481C528.157 19.1605 528.574 19.0941 528.994 19.0491C531.295 18.8089 533.606 19.2336 535.652 20.2727C537.697 21.3118 539.391 22.9216 540.532 24.9107Z"
            fill="#FFCA00" />
        <path
            d="M539.971 30.9311C540.018 25.4581 535.62 21.0594 530.147 21.1065C524.674 21.1536 520.199 25.6286 520.152 31.1016C520.105 36.5747 524.503 40.9733 529.976 40.9262C535.449 40.8791 539.924 36.4042 539.971 30.9311Z"
            fill="#FA8A00" />
        <path
            d="M538.886 26.3335C536.3 21.808 530.341 20.3908 525.578 23.1681C520.814 25.9454 519.05 31.8655 521.637 36.391C524.223 40.9165 530.182 42.3338 534.945 39.5564C539.708 36.7791 541.473 30.859 538.886 26.3335Z"
            fill="#FFE700" />
        <path
            d="M538.688 25.9874C536.117 21.489 530.171 20.0938 525.407 22.8711C520.644 25.6484 518.867 31.5465 521.438 36.0449C524.009 40.5433 529.955 41.9385 534.719 39.1612C539.482 36.3839 541.259 30.4858 538.688 25.9874Z"
            fill="#FF9F00" />
        <path
            d="M529.875 30.1242C528.386 30.8571 527.981 30.8576 527.718 30.5949C527.471 30.348 527.439 29.807 528.155 29.0901C528.642 28.5891 529.239 28.2086 529.897 27.98L530.382 27.805L529.671 25.8782L529.208 26.0396C528.548 26.277 527.935 26.634 527.402 27.0925L526.382 26.0724L524.886 27.5674L525.985 28.666C525.077 30.0793 525.088 31.5568 526.046 32.5148C527.252 33.7206 528.89 33.1323 530.474 32.3213C531.855 31.6321 532.294 31.7927 532.542 32.0411C532.93 32.4287 532.734 33.1655 532.067 33.8331C531.499 34.4017 530.803 34.8239 530.039 35.0622L529.499 35.2203L530.251 37.1347L530.678 37.023C531.354 36.8473 532.192 36.37 532.908 35.7642L533.968 36.8233L535.475 35.3163L534.346 34.188C535.416 32.5258 535.112 30.9895 534.28 30.1585C532.961 28.8411 531.232 29.4481 529.875 30.1242Z"
            fill="#FA8A00" />
        <path
            d="M529.815 29.6375C528.326 30.37 527.92 30.3705 527.658 30.1083C527.411 29.8614 527.378 29.3198 528.095 28.603C528.582 28.1017 529.179 27.7213 529.837 27.4933L530.322 27.3183L529.609 25.3921L529.149 25.5559C528.489 25.7932 527.877 26.1498 527.344 26.6079L526.321 25.5852L524.826 27.0802L525.925 28.1794C525.016 29.5922 525.028 31.0697 525.986 32.0282C527.192 33.234 528.83 32.6457 530.414 31.8347C531.795 31.1455 532.234 31.3061 532.482 31.5539C532.87 31.9421 532.674 32.6788 532.007 33.3465C531.439 33.9169 530.741 34.3405 529.975 34.5796L529.438 34.7362L530.19 36.6506L530.617 36.5393C531.293 36.3637 532.131 35.8863 532.847 35.2806L533.907 36.3397L535.414 34.8327L534.284 33.7034C535.354 32.0412 535.05 30.5049 534.218 29.6734C532.904 28.3554 531.171 28.963 529.815 29.6375Z"
            fill="#FFCA00" />
        <g style="mix-blend-mode:soft-light">
            <path
                d="M531.577 28.9795L532.2 31.3801C532.308 31.4132 532.407 31.4721 532.486 31.552C532.739 31.8048 532.74 32.2072 532.528 32.6403L533.342 35.7654L533.913 36.3362L535.05 35.1994L534.79 34.1991L534.291 33.6999C534.382 33.5531 534.465 33.4014 534.54 33.2455L533.471 29.137C532.869 28.8498 532.219 28.8455 531.577 28.9795Z"
                fill="white" />
            <path
                d="M532.061 35.8549L531.519 33.7718C531.058 34.1324 530.536 34.4055 529.978 34.5774L529.441 34.734L530.193 36.6484L530.62 36.5372C531.058 36.4238 531.563 36.1744 532.061 35.8549Z"
                fill="white" />
            <path
                d="M527.557 29.4004C527.631 29.1732 527.796 28.9033 528.096 28.6029C528.583 28.1016 529.18 27.7213 529.838 27.4933L529.883 27.4769L529.363 25.4783L529.15 25.5529C528.49 25.7911 527.878 26.1488 527.345 26.6078L526.654 25.9165L527.557 29.4004Z"
                fill="white" />
            <path
                d="M527.762 30.1904L528.394 32.6198C529.054 32.4762 529.74 32.1805 530.419 31.832C530.619 31.7306 530.793 31.6559 530.956 31.5918L530.378 29.374C530.186 29.4574 529.999 29.5456 529.819 29.6368C528.508 30.2841 528.036 30.3609 527.762 30.1904Z"
                fill="white" />
            <path
                d="M525.975 25.9324L525.078 26.8301L525.253 27.5074L525.926 28.1804C525.798 28.3806 525.686 28.5898 525.59 28.8064L526.533 32.4334C526.901 32.6293 527.315 32.722 527.734 32.7019L525.975 25.9324Z"
                fill="white" />
            <path
                d="M524.541 20.424C524.406 20.4949 524.27 20.5703 524.135 20.6486C523.937 20.7639 523.746 20.8832 523.562 21.0067L524.13 23.1901C524.438 22.9543 524.76 22.7365 525.094 22.5379L524.541 20.424Z"
                fill="white" />
            <path
                d="M525.141 20.1199L525.686 22.2129C526.506 21.7929 527.379 21.4884 528.279 21.3081L527.744 19.2489C526.848 19.4405 525.975 19.7327 525.141 20.1199Z"
                fill="white" />
            <path
                d="M528.996 19.0489L529.539 21.1389C530.162 21.0957 530.787 21.1115 531.406 21.1861L530.837 18.9982C530.224 18.9681 529.609 18.9851 528.996 19.0489Z"
                fill="white" />
            <path
                d="M528.723 40.8462L529.291 43.0322C529.668 43.0512 530.046 43.0508 530.423 43.0309L529.872 40.9155C529.488 40.9146 529.104 40.8915 528.723 40.8462Z"
                fill="white" />
            <path
                d="M531.088 42.9832C531.996 42.8919 532.892 42.6967 533.759 42.4014L533.226 40.3491C532.36 40.6544 531.458 40.8385 530.546 40.8961L531.088 42.9832Z"
                fill="white" />
            <path
                d="M534.398 39.8392L534.942 41.9292C535.293 41.7633 535.645 41.582 535.989 41.3818C536.187 41.2666 536.377 41.1474 536.562 41.0243L535.995 38.8418C535.66 39.1015 535.309 39.3398 534.944 39.5556C534.766 39.6602 534.581 39.7465 534.398 39.8392Z"
                fill="white" />
        </g>
    </g>
    <g clip-path="url(#clip4_0_1)">
        <path
            d="M609.256 33.036C624.693 29.0415 633.755 13.3464 629.495 -2.02011C625.236 -17.3866 609.268 -26.6055 593.831 -22.611C578.393 -18.6166 569.332 -2.92141 573.591 12.4451C577.851 27.8116 593.818 37.0304 609.256 33.036Z"
            fill="#FA8A00" />
        <path
            d="M624.619 24.1081C619.315 29.3691 612.15 32.3863 604.595 32.5398C597.041 32.6934 589.671 29.9718 583.999 24.934C583.591 24.5761 583.189 24.2002 582.791 23.8061C582.099 23.1187 581.448 22.4032 580.833 21.6771C580.171 20.8744 579.55 20.0395 578.972 19.1756C577.722 17.3118 576.691 15.3143 575.899 13.2228C575.703 12.7145 575.52 12.2026 575.362 11.6793C575.079 10.8001 574.841 9.90766 574.649 9.00553C573.329 2.95233 573.965 -3.33101 576.465 -8.94858C578.966 -14.5662 583.203 -19.2312 588.573 -22.2784C593.944 -25.3257 600.173 -26.5997 606.372 -25.9187C612.572 -25.2377 618.425 -22.6366 623.098 -18.4861C623.507 -18.1277 623.91 -17.7515 624.308 -17.3574C624.578 -17.0887 624.843 -16.8134 625.096 -16.5389C625.47 -16.1434 625.843 -15.7287 626.195 -15.3123C627.639 -13.5886 628.884 -11.7111 629.906 -9.71578C630.375 -8.79407 630.796 -7.84985 631.168 -6.88685C633.195 -1.5968 633.654 4.13626 632.493 9.63079C631.332 15.1253 628.599 20.1502 624.619 24.1081Z"
            fill="#FFCA00" />
        <path
            d="M610.031 26.5987C623.001 23.2426 630.615 10.0557 627.036 -2.85508C623.457 -15.7659 610.041 -23.5115 597.071 -20.1554C584.101 -16.7993 576.487 -3.61235 580.066 9.29845C583.645 22.2092 597.06 29.9548 610.031 26.5987Z"
            fill="#FA8A00" />
        <path
            d="M620.213 21.1132C629.275 12.13 628.851 -2.8561 619.266 -12.3591C609.682 -21.8621 594.566 -22.2835 585.505 -13.3003C576.443 -4.31702 576.867 10.6691 586.452 20.1721C596.036 29.6751 611.152 30.0965 620.213 21.1132Z"
            fill="#FFE700" />
        <path
            d="M620.904 20.4276C629.911 11.4983 629.443 -3.44411 619.859 -12.9471C610.274 -22.4502 595.203 -22.9152 586.195 -13.9859C577.188 -5.05653 577.657 9.88585 587.241 19.3889C596.826 28.8919 611.897 29.357 620.904 20.4276Z"
            fill="#FF9F00" />
        <path
            d="M605.54 2.20675C602.864 -0.848204 602.606 -1.80643 603.06 -2.59398C603.488 -3.33415 604.746 -3.75426 606.895 -2.51346C608.388 -1.67986 609.666 -0.509977 610.623 0.90015L611.344 1.93625L615.45 -0.965648L614.775 -1.95712C613.795 -3.36759 612.563 -4.58962 611.141 -5.56125L612.907 -8.61965L608.425 -11.2073L606.523 -7.91355C602.606 -9.16653 599.12 -8.20278 597.462 -5.33091C595.375 -1.7159 597.803 1.78454 600.725 5.01657C603.229 7.844 603.127 8.98343 602.697 9.72804C602.026 10.8901 600.16 10.8944 598.159 9.73886C596.455 8.75836 595.016 7.37947 593.968 5.72465L593.252 4.54745L589.202 7.53836L589.737 8.47665C590.581 9.96453 592.24 11.643 594.126 12.9531L592.293 16.1285L596.811 18.737L598.764 15.3544C603.372 16.8304 606.811 15.1371 608.25 12.6456C610.529 8.69137 607.998 4.98808 605.54 2.20675Z"
            fill="#FA8A00" />
        <path
            d="M606.654 1.76469C603.979 -1.29175 603.721 -2.24997 604.175 -3.03603C604.602 -3.77621 605.862 -4.1978 608.011 -2.95701C609.504 -2.12383 610.782 -0.95324 611.738 0.458088L612.459 1.49419L616.562 -1.41093L615.883 -2.395C614.904 -3.80455 613.673 -5.02596 612.252 -5.9974L614.022 -9.06319L609.54 -11.6509L607.638 -8.35561C603.721 -9.61007 600.235 -8.64632 598.576 -5.77297C596.489 -2.15796 598.918 1.34248 601.839 4.57451C604.343 7.40194 604.242 8.54137 603.813 9.2845C603.141 10.4481 601.275 10.4524 599.273 9.2968C597.565 8.31527 596.121 6.93393 595.071 5.27564L594.36 4.10339L590.31 7.0943L590.844 8.03407C591.687 9.52195 593.347 11.2005 595.233 12.5105L593.4 15.6859L597.918 18.2944L599.873 14.9089C604.48 16.3849 607.92 14.6915 609.359 12.1986C611.643 8.25697 609.108 4.54341 606.654 1.76469Z"
            fill="#FFCA00" />
        <g style="mix-blend-mode:soft-light">
            <path
                d="M609.323 5.50706L604.041 8.50171C604.032 8.77883 603.955 9.04853 603.816 9.28771C603.379 10.0457 602.428 10.3018 601.269 10.0752L594.396 13.9804L593.408 15.6917L596.816 17.6594L599.017 16.4113L599.881 14.9147C600.286 15.0376 600.697 15.138 601.113 15.2154L610.15 10.0866C610.448 8.47979 610.047 6.94157 609.323 5.50706Z"
                fill="white" />
            <path
                d="M593.377 11.0115L597.959 8.41054C596.814 7.54917 595.838 6.48734 595.078 5.27885L594.367 4.10661L590.317 7.09752L590.851 8.03729C591.397 9.00168 592.306 10.0381 593.377 11.0115Z"
                fill="white" />
            <path
                d="M605.782 -3.72801C606.366 -3.69661 607.109 -3.47703 608.009 -2.95706C609.503 -2.12388 610.78 -0.953296 611.736 0.458032L611.803 0.554002L616.2 -1.94096L615.888 -2.39924C614.907 -3.80786 613.674 -5.02787 612.251 -5.99745L613.447 -8.06994L605.782 -3.72801Z"
                fill="white" />
            <path
                d="M604.046 -2.74205L598.702 0.291468C599.46 1.7613 600.594 3.19555 601.848 4.58097C602.214 4.98986 602.501 5.35266 602.756 5.69721L607.633 2.92539C607.315 2.52431 606.987 2.13803 606.658 1.77003C604.297 -0.919444 603.816 -1.98634 604.046 -2.74205Z"
                fill="white" />
            <path
                d="M612.982 -9.66421L610.291 -11.218L608.801 -10.3752L607.636 -8.35753C607.082 -8.53171 606.516 -8.66439 605.943 -8.75443L597.965 -4.22586C597.734 -3.23359 597.778 -2.19415 598.091 -1.21619L612.982 -9.66421Z"
                fill="white" />
            <path
                d="M631.171 -6.88678L626.573 -4.27923C627.07 -2.83274 627.429 -1.34492 627.644 0.164368L632.457 -2.56563C632.14 -4.0348 631.71 -5.47941 631.171 -6.88678Z"
                fill="white" />
            <path
                d="M579.46 6.27662L574.651 9.0054C574.845 9.90832 575.086 10.8014 575.372 11.6812L580.024 9.0381C579.783 8.12836 579.594 7.20633 579.46 6.27662Z"
                fill="white" />
            <path
                d="M575.905 13.2278C576.696 15.3171 577.725 17.3128 578.973 19.1757L583.487 16.6148C582.217 14.7611 581.21 12.745 580.496 10.6244L575.905 13.2278Z"
                fill="white" />
            <path
                d="M585.435 19.0599L580.838 21.6698C581.453 22.3959 582.104 23.1113 582.795 23.7987C583.193 24.1928 583.596 24.5688 584.004 24.9266L588.805 22.2035C587.979 21.5756 587.193 20.897 586.452 20.1718C586.091 19.8156 585.77 19.4328 585.435 19.0599Z"
                fill="white" />
        </g>
    </g>
    <g clip-path="url(#clip5_0_1)">
        <path
            d="M1193.58 185.402C1193.64 179.076 1188.55 173.991 1182.23 174.045C1175.9 174.1 1170.73 179.273 1170.67 185.599C1170.62 191.925 1175.7 197.01 1182.03 196.955C1188.36 196.901 1193.53 191.728 1193.58 185.402Z"
            fill="#FA8A00" />
        <path
            d="M1191.74 178.596C1193.21 181.169 1193.63 184.225 1192.92 187.136C1192.2 190.047 1190.4 192.592 1187.89 194.248C1187.71 194.368 1187.52 194.484 1187.33 194.595C1186.99 194.79 1186.65 194.966 1186.31 195.127C1185.94 195.298 1185.55 195.451 1185.16 195.583C1184.32 195.871 1183.45 196.061 1182.57 196.15C1182.35 196.173 1182.14 196.19 1181.92 196.197C1181.55 196.216 1181.19 196.215 1180.82 196.196C1178.37 196.08 1176.02 195.191 1174.13 193.656C1172.23 192.121 1170.88 190.018 1170.26 187.647C1169.65 185.276 1169.8 182.758 1170.69 180.452C1171.59 178.146 1173.19 176.17 1175.26 174.805C1175.44 174.686 1175.63 174.57 1175.82 174.458C1175.95 174.382 1176.08 174.308 1176.21 174.24C1176.4 174.137 1176.6 174.036 1176.79 173.944C1177.6 173.568 1178.45 173.284 1179.32 173.097C1179.72 173.012 1180.13 172.947 1180.53 172.904C1182.77 172.67 1185.01 173.083 1187 174.092C1188.99 175.101 1190.63 176.665 1191.74 178.596Z"
            fill="#FFCA00" />
        <path
            d="M1191.19 184.443C1191.24 179.128 1186.97 174.856 1181.65 174.902C1176.34 174.947 1171.99 179.293 1171.95 184.609C1171.9 189.924 1176.17 194.196 1181.49 194.15C1186.8 194.105 1191.15 189.759 1191.19 184.443Z"
            fill="#FA8A00" />
        <path
            d="M1190.14 179.978C1187.63 175.583 1181.84 174.207 1177.22 176.904C1172.59 179.601 1170.88 185.351 1173.39 189.746C1175.9 194.141 1181.69 195.518 1186.31 192.82C1190.94 190.123 1192.65 184.373 1190.14 179.978Z"
            fill="#FFE700" />
        <path
            d="M1189.95 179.642C1187.45 175.273 1181.68 173.918 1177.05 176.616C1172.43 179.313 1170.7 185.041 1173.2 189.41C1175.69 193.779 1181.47 195.134 1186.1 192.436C1190.72 189.739 1192.45 184.011 1189.95 179.642Z"
            fill="#FF9F00" />
        <path
            d="M1181.39 183.66C1179.94 184.371 1179.55 184.372 1179.29 184.117C1179.06 183.877 1179.02 183.352 1179.72 182.655C1180.19 182.169 1180.77 181.799 1181.41 181.577L1181.88 181.407L1181.19 179.536L1180.74 179.693C1180.1 179.923 1179.51 180.27 1178.99 180.715L1178 179.725L1176.54 181.176L1177.61 182.243C1176.73 183.616 1176.74 185.051 1177.67 185.981C1178.84 187.152 1180.43 186.581 1181.97 185.793C1183.31 185.124 1183.74 185.28 1183.98 185.521C1184.36 185.898 1184.17 186.613 1183.52 187.262C1182.97 187.814 1182.29 188.224 1181.55 188.455L1181.02 188.609L1181.75 190.468L1182.17 190.36C1182.83 190.189 1183.64 189.725 1184.34 189.137L1185.36 190.166L1186.83 188.702L1185.73 187.606C1186.77 185.992 1186.48 184.5 1185.67 183.693C1184.39 182.414 1182.71 183.003 1181.39 183.66Z"
            fill="#FA8A00" />
        <path
            d="M1181.33 183.187C1179.89 183.898 1179.49 183.899 1179.24 183.644C1179 183.404 1178.97 182.878 1179.66 182.182C1180.14 181.695 1180.72 181.326 1181.35 181.105L1181.83 180.935L1181.13 179.064L1180.69 179.223C1180.05 179.453 1179.45 179.8 1178.93 180.245L1177.94 179.251L1176.49 180.703L1177.56 181.771C1176.67 183.143 1176.68 184.578 1177.61 185.509C1178.79 186.68 1180.38 186.108 1181.92 185.321C1183.26 184.651 1183.68 184.807 1183.92 185.048C1184.3 185.425 1184.11 186.141 1183.46 186.789C1182.91 187.343 1182.23 187.754 1181.49 187.987L1180.97 188.139L1181.7 189.998L1182.11 189.89C1182.77 189.719 1183.58 189.256 1184.28 188.667L1185.31 189.696L1186.77 188.232L1185.67 187.136C1186.71 185.521 1186.42 184.029 1185.61 183.222C1184.33 181.942 1182.65 182.532 1181.33 183.187Z"
            fill="#FFCA00" />
        <g style="mix-blend-mode:soft-light">
            <path
                d="M1179.14 182.957C1179.21 182.736 1179.37 182.474 1179.66 182.182C1180.13 181.695 1180.71 181.326 1181.35 181.105L1181.4 181.089L1180.89 179.148L1180.69 179.22C1180.04 179.452 1179.45 179.799 1178.93 180.245L1178.26 179.573L1179.14 182.957Z"
                fill="white" />
            <path
                d="M1176.21 174.239C1176.08 174.308 1175.94 174.381 1175.81 174.457C1175.62 174.569 1175.44 174.685 1175.26 174.805L1175.81 176.925C1176.11 176.696 1176.42 176.485 1176.75 176.292L1176.21 174.239Z"
                fill="white" />
            <path
                d="M1176.79 173.944L1177.32 175.976C1178.12 175.569 1178.96 175.273 1179.84 175.098L1179.32 173.098C1178.45 173.284 1177.6 173.568 1176.79 173.944Z"
                fill="white" />
            <path
                d="M1180.53 172.903L1181.06 174.933C1181.67 174.891 1182.27 174.907 1182.87 174.979L1182.32 172.854C1181.73 172.825 1181.13 172.841 1180.53 172.903Z"
                fill="white" />
        </g>
    </g>
    <g clip-path="url(#clip6_0_1)">
        <path
            d="M1251.71 17.4366C1251.84 2.00895 1239.44 -10.3901 1224.01 -10.2574C1208.58 -10.1246 1195.97 2.48958 1195.84 17.9173C1195.71 33.345 1208.1 45.744 1223.53 45.6112C1238.96 45.4785 1251.57 32.8643 1251.71 17.4366Z"
            fill="#FA8A00" />
        <path
            d="M1247.21 0.840445C1250.8 7.11479 1251.82 14.5667 1250.08 21.6653C1248.33 28.7639 1243.94 34.9702 1237.81 39.0092C1237.37 39.3008 1236.92 39.583 1236.45 39.856C1235.64 40.3301 1234.81 40.7595 1233.97 41.1524C1233.06 41.5701 1232.12 41.9415 1231.17 42.2652C1229.11 42.9669 1226.99 43.4304 1224.84 43.6466C1224.31 43.703 1223.79 43.7453 1223.26 43.7616C1222.37 43.8066 1221.47 43.8056 1220.58 43.7587C1214.6 43.4762 1208.88 41.3087 1204.26 37.5653C1199.63 33.8218 1196.34 28.6935 1194.83 22.9115C1193.33 17.1295 1193.7 10.9891 1195.89 5.3658C1198.08 -0.257523 1201.97 -5.07667 1207.02 -8.40451C1207.46 -8.69686 1207.91 -8.97951 1208.38 -9.25247C1208.7 -9.43804 1209.02 -9.61657 1209.34 -9.78445C1209.81 -10.035 1210.29 -10.2797 1210.76 -10.5044C1212.74 -11.4223 1214.8 -12.1156 1216.92 -12.5708C1217.9 -12.7782 1218.89 -12.9355 1219.88 -13.0421C1225.33 -13.611 1230.81 -12.6052 1235.65 -10.1442C1240.5 -7.68322 1244.51 -3.87058 1247.21 0.840445Z"
            fill="#FFCA00" />
        <path
            d="M1245.88 15.0989C1246 2.13673 1235.58 -8.28082 1222.62 -8.16931C1209.65 -8.0578 1199.06 2.54054 1198.94 15.5028C1198.83 28.465 1209.25 38.8825 1222.21 38.771C1235.17 38.6595 1245.77 28.0611 1245.88 15.0989Z"
            fill="#FA8A00" />
        <path
            d="M1243.31 4.21032C1237.18 -6.50777 1223.07 -9.86425 1211.79 -3.28657C1200.51 3.2911 1196.33 17.3121 1202.45 28.0302C1208.58 38.7483 1222.69 42.1048 1233.97 35.5271C1245.25 28.9494 1249.43 14.9284 1243.31 4.21032Z"
            fill="#FFE700" />
        <path
            d="M1242.84 3.39097C1236.75 -7.26282 1222.67 -10.5672 1211.39 -3.98949C1200.1 2.58819 1195.9 16.557 1201.99 27.2108C1208.08 37.8646 1222.16 41.169 1233.44 34.5913C1244.72 28.0136 1248.93 14.0448 1242.84 3.39097Z"
            fill="#FF9F00" />
        <path
            d="M1221.96 13.1878C1218.44 14.9238 1217.48 14.9249 1216.86 14.3028C1216.27 13.7181 1216.19 12.4366 1217.89 10.7388C1219.04 9.55218 1220.46 8.6511 1222.01 8.10956L1223.16 7.6951L1221.48 3.13188L1220.38 3.51403C1218.82 4.07629 1217.37 4.92183 1216.11 6.00777L1213.69 3.59167L1210.15 7.13238L1212.75 9.73443C1210.6 13.0816 1210.63 16.581 1212.9 18.8497C1215.75 21.7055 1219.63 20.3122 1223.38 18.3915C1226.65 16.7592 1227.69 17.1395 1228.28 17.7277C1229.2 18.6458 1228.73 20.3907 1227.15 21.9719C1225.81 23.3187 1224.16 24.3186 1222.35 24.883L1221.07 25.2573L1222.85 29.7914L1223.86 29.5267C1225.47 29.1107 1227.45 27.9802 1229.15 26.5454L1231.66 29.0539L1235.23 25.4847L1232.55 22.8124C1235.09 18.8758 1234.37 15.2373 1232.4 13.2691C1229.27 10.149 1225.18 11.5867 1221.96 13.1878Z"
            fill="#FA8A00" />
        <path
            d="M1221.83 12.0353C1218.3 13.7701 1217.34 13.7713 1216.72 13.1503C1216.14 12.5655 1216.06 11.2829 1217.75 9.58512C1218.91 8.39787 1220.32 7.49705 1221.88 6.95705L1223.03 6.54259L1221.34 1.98057L1220.25 2.36857C1218.69 2.93041 1217.24 3.77512 1215.98 4.85994L1213.55 2.43799L1210.01 5.9787L1212.62 8.58192C1210.46 11.9279 1210.49 15.4273 1212.76 17.6972C1215.62 20.553 1219.5 19.1596 1223.25 17.239C1226.52 15.6067 1227.56 15.987 1228.14 16.574C1229.06 17.4932 1228.6 19.2382 1227.02 20.8194C1225.67 22.1703 1224.02 23.1736 1222.21 23.74L1220.93 24.1107L1222.72 28.6448L1223.73 28.3813C1225.33 27.9653 1227.31 26.8348 1229.01 25.4L1231.52 27.9085L1235.09 24.3392L1232.41 21.6647C1234.95 17.7281 1234.23 14.0896 1232.26 12.1202C1229.14 8.99882 1225.04 10.4378 1221.83 12.0353Z"
            fill="#FFCA00" />
        <g style="mix-blend-mode:soft-light">
            <path
                d="M1226 10.4767L1227.47 16.1622C1227.73 16.2405 1227.96 16.3802 1228.15 16.5692C1228.75 17.168 1228.75 18.121 1228.25 19.1468L1230.18 26.5482L1231.53 27.9001L1234.22 25.2077L1233.61 22.8386L1232.42 21.6563C1232.64 21.3085 1232.84 20.9493 1233.01 20.5802L1230.48 10.8497C1229.06 10.1696 1227.52 10.1593 1226 10.4767Z"
                fill="white" />
            <path
                d="M1227.15 26.7607L1225.86 21.8272C1224.77 22.6811 1223.54 23.328 1222.22 23.7352L1220.94 24.1059L1222.72 28.64L1223.74 28.3765C1224.77 28.1081 1225.97 27.5174 1227.15 26.7607Z"
                fill="white" />
            <path
                d="M1216.48 11.474C1216.66 10.9358 1217.05 10.2967 1217.76 9.58524C1218.91 8.39799 1220.32 7.49717 1221.88 6.95717L1221.99 6.91851L1220.76 2.18507L1220.25 2.36163C1218.69 2.92587 1217.24 3.77298 1215.98 4.86006L1214.34 3.22281L1216.48 11.474Z"
                fill="white" />
            <path
                d="M1216.96 13.3452L1218.46 19.099C1220.02 18.7588 1221.65 18.0583 1223.26 17.233C1223.73 16.993 1224.14 16.8161 1224.53 16.6641L1223.16 11.4117C1222.7 11.6091 1222.26 11.8181 1221.84 12.0341C1218.73 13.5671 1217.61 13.7489 1216.96 13.3452Z"
                fill="white" />
            <path
                d="M1212.73 3.2602L1210.61 5.3863L1211.02 6.99042L1212.61 8.58439C1212.31 9.05848 1212.05 9.55402 1211.82 10.0668L1214.05 18.6569C1214.92 19.1209 1215.91 19.3406 1216.9 19.293L1212.73 3.2602Z"
                fill="white" />
            <path
                d="M1219.24 38.5816L1220.58 43.7587C1221.47 43.8037 1222.37 43.8027 1223.26 43.7557L1221.96 38.7457C1221.05 38.7435 1220.14 38.6887 1219.24 38.5816Z"
                fill="white" />
            <path
                d="M1224.84 43.6431C1226.99 43.427 1229.12 42.9647 1231.17 42.2653L1229.91 37.4047C1227.86 38.1279 1225.72 38.5639 1223.56 38.7002L1224.84 43.6431Z"
                fill="white" />
            <path
                d="M1232.68 36.1966L1233.97 41.1465C1234.8 40.7537 1235.63 40.3242 1236.45 39.8501C1236.91 39.5772 1237.37 39.2949 1237.8 39.0034L1236.46 33.8345C1235.67 34.4493 1234.84 35.0139 1233.97 35.5249C1233.55 35.7727 1233.11 35.977 1232.68 36.1966Z"
                fill="white" />
        </g>
    </g>
    <defs>
        <filter id="filter0_f_0_1" x="-3" y="-22" width="52.8711" height="52.8235"
            filterUnits="userSpaceOnUse" color-interpolation-filters="sRGB">
            <feFlood flood-opacity="0" result="BackgroundImageFix" />
            <feBlend mode="normal" in="SourceGraphic" in2="BackgroundImageFix" result="shape" />
            <feGaussianBlur stdDeviation="7" result="effect1_foregroundBlur_0_1" />
        </filter>
        <filter id="filter1_d_0_1" x="509" y="13.9998" width="42.7031" height="42.7043"
            filterUnits="userSpaceOnUse" color-interpolation-filters="sRGB">
            <feFlood flood-opacity="0" result="BackgroundImageFix" />
            <feColorMatrix in="SourceAlpha" type="matrix"
                values="0 0 0 0 0 0 0 0 0 0 0 0 0 0 0 0 0 0 127 0" result="hardAlpha" />
            <feOffset dy="4" />
            <feGaussianBlur stdDeviation="2" />
            <feComposite in2="hardAlpha" operator="out" />
            <feColorMatrix type="matrix" values="0 0 0 0 0 0 0 0 0 0 0 0 0 0 0 0 0 0 0.25 0" />
            <feBlend mode="normal" in2="BackgroundImageFix" result="effect1_dropShadow_0_1" />
            <feBlend mode="normal" in="SourceGraphic" in2="effect1_dropShadow_0_1" result="shape" />
        </filter>
        <clipPath id="clip0_0_1">
            <rect width="61" height="62" fill="white" transform="translate(218 156) rotate(29.1751)" />
        </clipPath>
        <clipPath id="clip1_0_1">
            <rect width="17.5446" height="17.8322" fill="white"
                transform="translate(11 5.7583) rotate(-51.6463)" />
        </clipPath>
        <clipPath id="clip2_0_1">
            <rect width="194.405" height="196.495" fill="white"
                transform="translate(848.172 52) rotate(17.5262)" />
        </clipPath>
        <clipPath id="clip3_0_1">
            <rect width="24.3402" height="24.7392" fill="white"
                transform="translate(513 31.2109) rotate(-45)" />
        </clipPath>
        <clipPath id="clip4_0_1">
            <rect width="59.5807" height="60.5574" fill="white"
                transform="translate(592.281 -37) rotate(30)" />
        </clipPath>
        <clipPath id="clip5_0_1">
            <rect width="23.639" height="24.0265" fill="white"
                transform="translate(1165 184.715) rotate(-45)" />
        </clipPath>
        <clipPath id="clip6_0_1">
            <rect width="57.6465" height="58.5915" fill="white"
                transform="translate(1182 15.7622) rotate(-45)" />
        </clipPath>
    </defs>
</svg>