<svg width="14" height="14" viewBox="0 0 14 14" fill="none" xmlns="http://www.w3.org/2000/svg">
<g id="box 2" clip-path="url(#clip0_2104_51040)">
<g id="Group">
<path id="Vector" d="M6.47883 6.48359L0.189766 3.83557C0.099668 3.79762 0 3.86379 0 3.96157V11.0408C0 11.2197 0.10891 11.3806 0.275023 11.447L6.375 13.887C6.4648 13.923 6.5625 13.8568 6.5625 13.7601V6.60959C6.5625 6.55458 6.52952 6.50495 6.47883 6.48359Z" fill="#51535F"/>
<path id="Vector_2" d="M7.05384 5.73121L13.1328 3.17167C13.242 3.12568 13.245 2.9719 13.1375 2.92178L7.1858 0.144308C7.06853 0.0895928 6.93307 0.0895928 6.81579 0.144308L0.864065 2.92178C0.756631 2.9719 0.759557 3.12568 0.868823 3.17167L6.94775 5.73121C6.98166 5.74551 7.01994 5.74551 7.05384 5.73121Z" fill="#51535F"/>
<path id="Vector_3" d="M7.4375 6.60959V13.7601C7.4375 13.8568 7.5352 13.923 7.625 13.887L13.725 11.447C13.8911 11.3806 14 11.2197 14 11.0408V3.96157C14 3.86379 13.9003 3.79762 13.8102 3.83557L7.52117 6.48359C7.47048 6.50495 7.4375 6.55458 7.4375 6.60959Z" fill="#51535F"/>
</g>
</g>
<defs>
<clipPath id="clip0_2104_51040">
<rect width="14" height="14" fill="white"/>
</clipPath>
</defs>
</svg>
