<svg width="243" height="243" viewBox="0 0 243 243" fill="none" xmlns="http://www.w3.org/2000/svg">
<g opacity="0.1">
<path d="M198.642 96.609C198.341 96.63 198.045 96.6894 197.759 96.7857C195.469 89.4752 192.126 82.5377 187.833 76.1925C186.44 74.0824 184.943 72.043 183.347 70.0817C181.722 68.139 179.992 66.2316 178.19 64.4301C176.408 62.6134 174.521 60.9032 172.539 59.3083C170.596 57.6835 168.512 56.1293 166.428 54.7164C164.313 53.2653 162.12 51.9327 159.858 50.7249C157.564 49.4829 155.205 48.3628 152.793 47.3693C150.427 46.3802 147.954 45.4618 145.481 44.6847C143.009 43.9076 140.43 43.2718 137.852 42.742C135.249 42.2012 132.62 41.8003 129.975 41.541C124.562 40.9759 119.104 40.9759 113.691 41.541L107.757 52.3498C105.537 52.7943 103.344 53.3603 101.187 54.0452C99.0321 54.7164 96.8774 55.4935 94.7934 56.3765C92.7093 57.2596 90.6606 58.2486 88.6826 59.3083C86.7045 60.368 84.7971 61.569 82.925 62.8406L78.9335 77.6761C77.5913 79.0184 76.2843 80.4666 75.048 81.9501C73.7918 83.4553 72.6128 85.0233 71.5158 86.6481C70.4081 88.2605 69.3938 89.9352 68.478 91.6639C67.5269 93.384 66.6663 95.1525 65.8995 96.9623C65.1224 98.799 64.4512 100.671 63.8508 102.579C63.2486 104.492 62.7534 106.438 62.3672 108.407C61.9379 110.4 61.6312 112.417 61.4488 114.447C61.0249 118.581 61.0249 122.747 61.4488 126.881C61.6285 128.911 61.9353 130.929 62.3672 132.921C62.7534 134.901 63.2486 136.859 63.8508 138.784C64.4512 140.656 65.1224 142.528 65.8995 144.365L80.5231 149.522L80.0638 148.816C78.2286 146.117 76.6667 143.241 75.4013 140.233C74.1001 137.183 73.1062 134.012 72.4342 130.766C71.7579 127.405 71.4148 123.986 71.4098 120.558C71.413 117.141 71.7561 113.733 72.4342 110.385C73.7719 104.01 76.3264 97.9539 79.9579 92.5469C83.5641 87.1515 88.197 82.5186 93.5924 78.9124C99.0711 75.2392 105.215 72.6714 111.678 71.3533C118.405 70.0106 125.331 70.0106 132.059 71.3533C135.305 72.0253 138.476 73.0193 141.525 74.3204L142.338 74.6383L134.249 61.2511C122.283 58.8249 109.865 60.0557 98.6082 64.7833C98.0569 63.6814 97.1194 62.821 95.9743 62.3662C94.8292 61.9113 93.5567 61.8938 92.3996 62.3171C91.2425 62.7403 90.2816 63.5746 89.7002 64.6609C89.1189 65.7473 88.9577 67.0096 89.2474 68.2071C89.5372 69.4047 90.2575 70.4537 91.2712 71.1542C92.2848 71.8546 93.5208 72.1574 94.7435 72.0049C95.9661 71.8524 97.0898 71.2552 97.9003 70.3272C98.7109 69.3992 99.1515 68.2054 99.1381 66.9733C99.1297 66.4022 99.0097 65.8382 98.7849 65.3132C109.931 60.5898 122.247 59.3582 134.108 61.7809L141.172 73.4727C138.333 72.3082 135.387 71.421 132.377 70.8235C125.582 69.4458 118.579 69.4458 111.784 70.8235C108.49 71.49 105.272 72.484 102.176 73.7906C99.0655 75.0403 96.0843 76.59 93.2745 78.4179C87.8408 82.1091 83.1546 86.7953 79.4634 92.229C77.6231 94.9686 76.05 97.8784 74.7654 100.918C71.5132 108.618 70.199 116.998 70.938 125.324C71.677 133.65 74.4466 141.668 79.0042 148.675L66.2174 144.189C65.4756 142.387 64.8045 140.656 64.2393 138.749C63.6741 136.842 63.1443 134.899 62.7558 132.956C62.3672 131.013 62.0493 129 61.8374 126.987C61.6375 124.932 61.5432 122.869 61.5548 120.805C61.5424 118.753 61.6367 116.701 61.8374 114.659C62.0493 112.646 62.3672 110.632 62.7558 108.654C63.1443 106.676 63.6741 104.769 64.2393 102.861C64.8045 100.954 65.5109 99.3289 66.288 97.3155C67.0424 95.5175 67.8913 93.7607 68.8313 92.0524C69.7496 90.3569 70.774 88.6968 71.8337 87.0719C72.8933 85.4471 74.0943 83.9282 75.3659 82.4447C76.5984 80.9534 77.9071 79.5269 79.2867 78.1706V78.1706L83.2429 63.4057C85.0797 62.1694 86.7751 61.0391 88.8945 59.8735C90.8553 58.8019 92.8715 57.835 94.9347 56.977C97.0305 56.1057 99.1499 55.3286 101.293 54.6457C103.483 53.9746 105.708 53.3741 107.933 52.9149L113.832 42.1415C119.153 41.6117 124.513 41.6117 129.834 42.1415C132.447 42.4241 135.097 42.8126 137.675 43.3425C140.254 43.8723 142.762 44.5434 145.234 45.2852C147.705 46.0534 150.133 46.9495 152.511 47.9697C154.842 48.9588 157.173 50.0538 159.575 51.2901C164.032 53.7153 168.243 56.5662 172.15 59.8028C174.093 61.3923 176 63.1232 177.766 64.8893C179.532 66.6554 181.299 68.4216 182.888 70.5056C184.478 72.5896 185.996 74.4971 187.409 76.5811C190.249 80.824 192.697 85.3168 194.721 90.0037C195.675 92.2997 196.523 94.631 197.264 97.0682C196.348 97.4347 195.602 98.1302 195.173 99.0183C194.743 99.9064 194.661 100.923 194.942 101.869C195.223 102.814 195.847 103.621 196.692 104.13C197.537 104.639 198.542 104.814 199.51 104.621C200.477 104.427 201.337 103.879 201.922 103.084C202.506 102.289 202.772 101.305 202.668 100.323C202.564 99.3424 202.097 98.4357 201.358 97.7811C200.62 97.1266 199.664 96.7716 198.677 96.7857L198.642 96.609ZM93.9103 71.3533C93.0288 71.3253 92.1747 71.0401 91.4532 70.5328C90.7317 70.0254 90.1744 69.3181 89.8498 68.498C89.5253 67.6779 89.4477 66.7807 89.6267 65.9171C89.8056 65.0534 90.2332 64.2609 90.8569 63.6373C91.4805 63.0136 92.273 62.586 93.1367 62.407C94.0003 62.2281 94.8975 62.3057 95.7176 62.6302C96.5377 62.9548 97.245 63.5121 97.7523 64.2336C98.2597 64.9551 98.5449 65.8092 98.5729 66.6908C98.5926 67.3084 98.4854 67.9234 98.258 68.498C98.0306 69.0726 97.6879 69.5944 97.251 70.0314C96.814 70.4683 96.2921 70.811 95.7176 71.0384C95.143 71.2658 94.5279 71.373 93.9103 71.3533ZM198.642 104.203C197.943 104.203 197.26 103.996 196.68 103.608C196.099 103.22 195.646 102.668 195.379 102.023C195.111 101.377 195.041 100.667 195.178 99.982C195.314 99.2968 195.65 98.6675 196.144 98.1735C196.638 97.6795 197.268 97.343 197.953 97.2068C198.638 97.0705 199.348 97.1404 199.994 97.4078C200.639 97.6751 201.191 98.1279 201.579 98.7087C201.967 99.2896 202.174 99.9725 202.174 100.671C202.138 101.583 201.75 102.446 201.091 103.078C200.433 103.71 199.555 104.063 198.642 104.062V104.203Z" fill="url(#paint0_linear_226_54327)"/>
<path d="M174.481 188.201C173.344 188.201 172.254 188.65 171.446 189.451C170.639 190.251 170.181 191.338 170.172 192.475C170.195 193.113 170.351 193.739 170.631 194.312C156.531 203.732 140.007 208.872 123.051 209.112L130.116 200.211C132.694 199.928 135.273 199.54 137.816 199.01C140.36 198.48 142.938 197.844 145.481 197.067H145.835L146.223 185.411L145.446 185.693C144.386 186.082 143.291 186.47 142.232 186.788L138.947 187.707C137.852 187.989 136.721 188.272 135.626 188.484C134.531 188.696 133.366 188.908 132.094 189.084L128.562 189.543C127.396 189.543 126.23 189.755 125.029 189.791C122.677 189.931 120.318 189.931 117.965 189.791C116.764 189.791 115.598 189.791 114.433 189.543L110.9 189.084C109.77 189.084 108.604 188.731 107.368 188.484C106.132 188.237 105.107 187.989 104.012 187.707C102.917 187.424 101.822 187.141 100.727 186.788C99.6325 186.435 98.5728 186.082 97.5485 185.693C96.5241 185.305 95.4291 184.916 94.4048 184.457L91.9321 183.362C92.1457 182.798 92.2535 182.199 92.2501 181.596C92.257 180.524 91.9451 179.474 91.354 178.58C90.7628 177.686 89.9192 176.988 88.9302 176.574C87.9413 176.161 86.8517 176.051 85.8001 176.258C84.7485 176.466 83.7823 176.981 83.0243 177.739C82.2664 178.497 81.7509 179.463 81.5435 180.515C81.3361 181.567 81.4462 182.656 81.8596 183.645C82.273 184.634 82.9712 185.478 83.8653 186.069C84.7594 186.66 85.8091 186.972 86.881 186.965C87.8075 186.966 88.7182 186.725 89.5234 186.267C90.3286 185.808 91.0005 185.148 91.473 184.351L93.9808 185.517L97.1599 186.753C98.2196 187.141 99.3146 187.53 100.41 187.848C101.505 188.166 102.6 188.519 103.73 188.802C104.86 189.084 105.991 189.367 107.262 189.579C108.534 189.791 109.558 190.038 110.794 190.215C112.031 190.391 113.126 190.532 114.327 190.638C115.528 190.744 116.693 190.85 117.859 190.921C120.261 190.921 122.698 190.921 124.924 190.921C126.124 190.921 127.325 190.921 128.456 190.638C129.586 190.356 130.822 190.391 131.988 190.215C133.154 190.038 134.319 189.826 135.52 189.579C136.721 189.332 137.781 189.084 139.053 188.802C140.324 188.519 141.313 188.201 142.373 187.848L144.846 187.036L144.563 196.255C142.232 196.961 139.794 197.562 137.498 198.056C134.92 198.6 132.314 199 129.692 199.257H129.48L120.473 210.348H121.638C133.602 210.332 145.442 207.93 156.467 203.284C161.556 201.101 166.438 198.465 171.055 195.407C171.523 195.95 172.121 196.367 172.792 196.619C173.464 196.87 174.188 196.949 174.898 196.847C175.608 196.746 176.281 196.467 176.855 196.037C177.429 195.607 177.885 195.039 178.183 194.387C178.48 193.734 178.608 193.017 178.555 192.301C178.502 191.586 178.27 190.896 177.88 190.294C177.49 189.692 176.955 189.197 176.324 188.856C175.693 188.515 174.986 188.339 174.269 188.342L174.481 188.201ZM87.4815 185.658C86.6362 185.658 85.8098 185.407 85.107 184.938C84.4041 184.468 83.8563 183.8 83.5328 183.019C83.2093 182.239 83.1246 181.379 83.2896 180.55C83.4545 179.721 83.8615 178.959 84.4593 178.362C85.057 177.764 85.8186 177.357 86.6477 177.192C87.4768 177.027 88.3361 177.112 89.1171 177.435C89.8981 177.759 90.5656 178.307 91.0352 179.009C91.5048 179.712 91.7556 180.539 91.7556 181.384C91.7556 182.517 91.3053 183.605 90.5037 184.406C89.7022 185.208 88.615 185.658 87.4815 185.658ZM174.481 195.654C173.851 195.661 173.233 195.481 172.705 195.136C172.178 194.791 171.765 194.297 171.519 193.716C171.273 193.136 171.205 192.496 171.324 191.877C171.442 191.258 171.742 190.688 172.185 190.24C172.629 189.792 173.195 189.486 173.813 189.36C174.43 189.235 175.071 189.295 175.654 189.535C176.237 189.774 176.736 190.182 177.087 190.705C177.438 191.229 177.625 191.845 177.625 192.475C177.625 193.312 177.295 194.116 176.706 194.711C176.118 195.306 175.318 195.645 174.481 195.654V195.654Z" fill="url(#paint1_linear_226_54327)"/>
<path d="M172.008 130.519C172.643 127.285 172.962 123.996 172.961 120.7C172.958 117.248 172.615 113.805 171.937 110.421C171.258 107.126 170.252 103.908 168.934 100.813C167.65 97.7729 166.077 94.8631 164.237 92.1235C162.463 89.539 160.466 87.1159 158.267 84.8824C158.63 84.5147 158.917 84.0788 159.111 83.5999C159.305 83.121 159.402 82.6085 159.397 82.0919C159.39 81.304 159.15 80.5358 158.708 79.8841C158.265 79.2323 157.639 78.7262 156.909 78.4295C156.179 78.1328 155.378 78.0588 154.606 78.2168C153.834 78.3748 153.126 78.7577 152.571 79.3173C152.017 79.8769 151.64 80.5881 151.489 81.3614C151.338 82.1347 151.419 82.9354 151.722 83.6627C152.025 84.39 152.536 85.0113 153.192 85.4484C153.848 85.8854 154.618 86.1186 155.406 86.1187C156.288 86.094 157.135 85.7701 157.808 85.2003C160.008 87.3687 162.007 89.7333 163.777 92.2648C167.483 97.7297 170.065 103.878 171.372 110.35C172.069 113.791 172.412 117.295 172.396 120.806C172.391 124.234 172.048 127.653 171.372 131.014V131.508L181.969 127.446C181.757 129.283 181.474 130.978 181.085 132.957C180.704 134.915 180.208 136.849 179.602 138.749C179.037 140.622 178.33 142.494 177.588 144.295C176.847 146.097 175.964 147.827 175.045 149.558C174.127 151.289 173.103 153.09 172.008 154.539C170.913 155.987 169.747 157.682 168.475 159.166C167.204 160.649 165.932 162.098 164.59 163.475C163.248 164.853 161.764 166.124 160.28 167.361C158.797 168.597 157.243 169.763 155.653 170.893C154.064 172.023 152.368 173.012 150.673 173.931C148.977 174.849 147.14 175.697 145.41 176.474C143.679 177.251 141.877 177.922 139.864 178.487C137.963 179.094 136.029 179.589 134.071 179.971C132.098 180.38 130.106 180.687 128.101 180.889C124.003 181.312 119.872 181.312 115.774 180.889C113.757 180.69 111.753 180.383 109.769 179.971C107.813 179.581 105.879 179.085 103.976 178.487C102.139 177.922 100.444 177.251 98.5717 176.509L93.9798 163.546C99.3786 166.974 105.367 169.37 111.641 170.61C118.436 171.988 125.439 171.988 132.234 170.61C138.714 169.316 144.888 166.799 150.425 163.193C153.146 161.364 155.678 159.27 157.984 156.941C160.189 154.766 162.198 152.402 163.989 149.876C164.54 150.188 165.159 150.358 165.791 150.371C166.589 150.378 167.371 150.147 168.037 149.709C168.704 149.271 169.226 148.645 169.536 147.909C169.846 147.174 169.931 146.364 169.78 145.58C169.628 144.797 169.248 144.076 168.686 143.509C168.124 142.942 167.407 142.555 166.625 142.397C165.843 142.239 165.031 142.317 164.293 142.62C163.555 142.924 162.924 143.44 162.48 144.103C162.036 144.766 161.799 145.546 161.799 146.344C161.808 146.979 161.97 147.603 162.272 148.163C162.573 148.722 163.005 149.201 163.53 149.558C161.765 152.084 159.779 154.448 157.596 156.623C155.306 158.921 152.798 160.991 150.107 162.804C147.4 164.626 144.526 166.187 141.524 167.467C138.468 168.741 135.299 169.722 132.058 170.399C125.334 171.777 118.4 171.777 111.676 170.399C105.204 169.092 99.0561 166.51 93.5912 162.804L92.8848 162.31L98.0419 176.933C99.8787 177.71 101.751 178.381 103.658 178.982C105.566 179.582 107.508 180.077 109.486 180.501C111.464 180.925 113.513 181.207 115.527 181.419C119.66 181.843 123.827 181.843 127.96 181.419C129.974 181.207 132.022 180.889 134 180.501C135.978 180.112 137.956 179.582 139.864 178.982C141.771 178.381 143.608 177.71 145.445 176.933C147.282 176.156 148.977 175.308 150.779 174.39C152.58 173.472 154.311 172.412 155.794 171.317C157.278 170.222 158.973 169.056 160.457 167.785C163.487 165.319 166.257 162.55 168.723 159.519C169.959 158.036 171.124 156.446 172.255 154.857C173.385 153.267 174.374 151.536 175.328 149.841C176.282 148.145 177.129 146.308 177.871 144.507C178.613 142.706 179.319 140.975 179.92 138.926C180.52 136.877 181.015 135.041 181.439 133.062C181.863 131.084 182.145 129.036 182.357 127.022V126.598L172.008 130.519ZM151.944 81.9506C151.944 81.252 152.151 80.569 152.54 79.9882C152.928 79.4073 153.479 78.9546 154.125 78.6872C154.77 78.4199 155.48 78.3499 156.166 78.4862C156.851 78.6225 157.48 78.9589 157.974 79.4529C158.468 79.9469 158.805 80.5763 158.941 81.2615C159.077 81.9467 159.007 82.6569 158.74 83.3023C158.473 83.9478 158.02 84.4994 157.439 84.8876C156.858 85.2757 156.175 85.4829 155.477 85.4829C154.54 85.4829 153.641 85.1107 152.979 84.4483C152.316 83.7858 151.944 82.8874 151.944 81.9506ZM162.364 145.955C162.542 145.175 162.98 144.478 163.606 143.979C164.231 143.48 165.008 143.208 165.808 143.208C166.609 143.208 167.385 143.48 168.011 143.979C168.637 144.478 169.074 145.175 169.252 145.955C169.37 146.473 169.37 147.01 169.252 147.527C169.134 148.044 168.901 148.528 168.57 148.943C168.239 149.358 167.819 149.693 167.341 149.923C166.863 150.153 166.339 150.272 165.808 150.272C165.278 150.272 164.754 150.153 164.276 149.923C163.798 149.693 163.378 149.358 163.047 148.943C162.716 148.528 162.483 148.044 162.365 147.527C162.247 147.01 162.247 146.473 162.364 145.955Z" fill="url(#paint2_linear_226_54327)"/>
<path d="M200.409 111.939V112.611C200.927 117.991 200.927 123.408 200.409 128.788C200.126 131.402 199.737 134.051 199.208 136.63C198.678 139.209 198.042 141.716 197.265 144.189C196.488 146.662 195.605 149.099 194.616 151.466C193.627 153.832 192.496 156.128 191.083 158.53C189.874 160.761 188.554 162.93 187.127 165.029C185.714 167.113 184.195 169.162 182.606 171.105C181.016 173.048 179.286 174.955 177.484 176.721C175.683 178.487 173.952 180.253 171.868 181.843C169.784 183.433 167.876 184.951 165.792 186.364C163.708 187.777 161.66 189.013 159.54 190.179C159.127 189.456 158.531 188.853 157.812 188.432C157.093 188.01 156.276 187.785 155.443 187.777C154.369 187.754 153.317 188.082 152.445 188.71C151.574 189.339 150.931 190.234 150.613 191.26C150.296 192.286 150.321 193.388 150.686 194.399C151.05 195.409 151.734 196.274 152.633 196.861C153.533 197.449 154.599 197.728 155.671 197.655C156.743 197.583 157.762 197.163 158.574 196.46C159.386 195.757 159.948 194.809 160.173 193.758C160.398 192.708 160.275 191.613 159.823 190.638C166.465 187.031 172.546 182.473 177.873 177.11C179.804 175.282 181.632 173.348 183.348 171.317C184.976 169.364 186.497 167.324 187.904 165.206C189.355 163.092 190.688 160.898 191.896 158.636C193.138 156.342 194.258 153.984 195.251 151.571C196.272 149.182 197.168 146.742 197.936 144.26C198.713 141.752 199.384 139.209 199.914 136.63C200.444 134.051 200.832 131.402 201.115 128.753C201.398 126.104 201.504 123.313 201.504 120.593C201.504 117.874 201.504 115.613 201.186 113.14L210.476 120.805C210.475 126.738 209.872 132.656 208.674 138.467C206.462 149.414 202.143 159.827 195.958 169.127C195.748 169.087 195.532 169.087 195.322 169.127C194.959 169.127 194.604 169.235 194.302 169.436C194 169.638 193.764 169.925 193.625 170.261C193.486 170.596 193.45 170.966 193.521 171.322C193.592 171.678 193.766 172.006 194.023 172.262C194.28 172.519 194.608 172.694 194.964 172.765C195.32 172.836 195.689 172.8 196.025 172.661C196.361 172.522 196.648 172.286 196.849 171.984C197.051 171.682 197.159 171.327 197.159 170.964C197.162 170.689 197.099 170.418 196.976 170.172C196.853 169.926 196.674 169.713 196.452 169.551C202.639 160.183 206.968 149.715 209.204 138.714C210.418 132.798 211.033 126.774 211.041 120.735L200.409 111.939ZM155.69 196.714C154.835 196.721 153.997 196.473 153.283 196.002C152.569 195.532 152.011 194.859 151.68 194.07C151.35 193.281 151.261 192.412 151.427 191.573C151.592 190.733 152.003 189.962 152.608 189.357C153.213 188.753 153.984 188.341 154.823 188.176C155.662 188.011 156.531 188.1 157.32 188.43C158.109 188.761 158.782 189.318 159.253 190.032C159.723 190.746 159.971 191.585 159.964 192.44C159.974 193.007 159.87 193.57 159.659 194.097C159.449 194.624 159.135 195.103 158.738 195.508C158.34 195.912 157.865 196.233 157.342 196.453C156.819 196.672 156.257 196.785 155.69 196.784V196.714Z" fill="url(#paint3_linear_226_54327)"/>
<path d="M191.859 117.273C191.859 116.072 191.859 114.871 191.577 113.741C191.294 112.611 191.33 111.41 191.153 110.209C190.976 109.008 190.764 107.877 190.517 106.676C190.27 105.475 190.023 104.416 189.74 103.144C189.457 101.872 189.139 100.919 188.786 99.8237C188.433 98.7287 188.08 97.6337 187.691 96.574C187.303 95.5144 186.879 94.4547 186.455 93.395C186.031 92.3353 185.537 91.2756 185.042 90.2866C184.548 89.2976 184.018 88.2732 183.488 87.2489C182.958 86.2245 182.393 85.3061 181.792 84.3171C181.192 83.328 180.591 82.4097 179.991 81.4913C179.39 80.5729 178.684 79.6192 178.013 78.7361C177.342 77.853 176.671 76.9346 175.929 76.0869C175.187 75.2392 174.481 74.3561 173.739 73.5437C172.997 72.7312 172.22 71.8835 171.407 71.1064L153.746 69.8701L155.442 71.0358C156.254 71.5656 157.031 72.1308 157.808 72.6959C158.585 73.2611 159.327 73.8616 160.069 74.4974L162.259 76.3695L164.343 78.3475C165.014 79.0187 165.685 79.7251 166.321 80.4316C166.957 81.138 167.593 81.8798 168.228 82.6216C168.864 83.3634 169.429 84.1052 169.995 84.8823C170.56 85.6593 171.125 86.4364 171.69 87.2489C172.255 88.0613 172.75 88.8384 173.244 89.6861C173.739 90.5339 174.233 91.3463 174.693 92.194C175.152 93.0418 175.576 93.8895 175.999 94.7726C176.423 95.6557 176.847 96.5387 177.2 97.4571C177.554 98.3755 177.942 99.2586 178.295 100.177C178.649 101.095 178.931 102.014 179.214 102.967C179.496 103.921 179.779 104.875 180.026 105.793C180.273 106.712 180.521 107.736 180.697 108.725C180.874 109.714 181.086 110.668 181.227 111.657C181.368 112.646 181.474 113.317 181.545 114.129C180.48 114.273 179.508 114.816 178.828 115.648C178.148 116.481 177.809 117.541 177.881 118.613C177.953 119.686 178.43 120.692 179.215 121.426C180 122.16 181.035 122.569 182.11 122.569C183.185 122.569 184.22 122.16 185.006 121.426C185.791 120.692 186.268 119.686 186.34 118.613C186.411 117.541 186.073 116.481 185.393 115.648C184.712 114.816 183.741 114.273 182.675 114.129L182.358 111.622C182.181 110.597 182.004 109.573 181.792 108.584C181.58 107.595 181.368 106.606 181.121 105.617C180.874 104.628 180.591 103.674 180.309 102.72C180.026 101.766 179.673 100.813 179.32 99.8944C178.967 98.976 178.613 98.0223 178.225 97.1039C177.836 96.1855 177.448 95.3024 177.024 94.4194C176.6 93.5363 176.141 92.6179 175.682 91.7702L174.163 89.015L172.573 86.5424L170.878 84.1405C170.277 83.3634 169.677 82.5863 169.041 81.8445C168.405 81.1027 167.769 80.3609 167.133 79.6192C166.498 78.8774 165.791 78.1709 165.085 77.4998C164.413 76.7929 163.706 76.1209 162.965 75.4864C162.259 74.8153 161.517 74.1795 160.74 73.5437C159.963 72.9079 159.221 72.3074 158.444 71.7422L157.702 71.1771L170.772 72.1308C171.513 72.8372 172.22 73.6143 172.926 74.3561L175.081 76.864C175.788 77.7117 176.459 78.5948 177.13 79.4779C177.801 80.3609 178.437 81.2793 179.037 82.1624C179.638 83.0455 180.273 84.0345 180.839 84.9882C181.404 85.9419 181.969 86.8956 182.499 87.8493C183.029 88.8031 183.559 89.8274 184.018 90.8518C184.477 91.8761 184.971 92.8652 185.395 93.8895C185.819 94.9139 186.278 95.9736 186.632 97.0332C186.985 98.0929 187.409 99.1526 187.727 100.212C188.045 101.272 188.362 102.402 188.645 103.497C188.928 104.592 189.21 105.723 189.422 106.853C189.634 107.983 189.846 109.114 190.023 110.385C190.199 111.657 190.34 112.681 190.482 113.917C190.623 115.154 190.694 116.249 190.729 117.45C190.764 118.651 190.729 119.816 190.729 120.982C190.729 122.148 190.729 123.349 190.729 124.514C190.729 125.68 190.729 126.846 190.482 128.047C190.235 129.248 190.199 130.343 190.023 131.579C189.846 132.815 189.669 133.839 189.422 135.111C189.175 136.383 188.928 137.336 188.645 138.431C188.362 139.526 188.045 140.657 187.727 141.716C187.409 142.776 187.02 143.871 186.632 144.931C186.243 145.99 185.854 147.015 185.395 148.039C184.936 149.064 184.512 150.123 184.018 151.112C183.523 152.101 183.029 153.09 182.499 154.079C181.969 155.068 181.439 156.022 180.839 156.976C180.238 157.93 179.673 158.848 179.037 159.766C178.401 160.685 177.801 161.568 177.13 162.486C176.459 163.405 175.788 164.217 175.081 165.065L172.926 167.573C172.185 168.385 171.407 169.197 170.63 169.975L168.228 172.271L165.685 173.789C164.838 174.496 163.954 175.167 163.071 175.838C162.188 176.509 161.305 177.145 160.387 177.746C159.468 178.346 158.515 178.982 157.596 179.547C156.678 180.112 155.654 180.677 154.7 181.207L152.722 182.232C152.557 182.05 152.355 181.906 152.129 181.808C151.904 181.711 151.66 181.662 151.415 181.666C151.052 181.666 150.696 181.774 150.394 181.976C150.092 182.178 149.857 182.465 149.718 182.8C149.579 183.136 149.543 183.505 149.613 183.861C149.684 184.218 149.859 184.545 150.116 184.802C150.373 185.059 150.7 185.234 151.057 185.305C151.413 185.375 151.782 185.339 152.118 185.2C152.453 185.061 152.74 184.826 152.942 184.524C153.144 184.222 153.252 183.866 153.252 183.503C153.273 183.422 153.273 183.337 153.252 183.256L155.3 182.196C156.289 181.666 157.278 181.101 158.232 180.501C159.186 179.9 160.14 179.3 161.093 178.699L163.813 176.721C164.732 176.05 165.615 175.379 166.462 174.637C167.31 173.895 168.193 173.189 169.006 172.447C169.818 171.705 170.666 170.928 171.443 170.116C172.22 169.303 173.032 168.526 173.774 167.679C174.516 166.831 175.258 166.018 175.964 165.135C176.671 164.252 177.377 163.405 178.048 162.486C178.719 161.568 179.39 160.685 180.026 159.766C180.662 158.848 181.263 157.859 181.828 156.905C182.393 155.951 182.993 154.962 183.523 153.973C184.053 152.984 184.583 151.96 185.077 150.936C185.572 149.911 186.031 148.922 186.49 147.863C186.949 146.803 187.338 145.708 187.727 144.648C188.115 143.589 188.504 142.494 188.822 141.399C189.139 140.304 189.493 139.209 189.775 138.078C190.058 136.948 190.34 135.818 190.552 134.546C190.764 133.274 191.012 132.25 191.188 131.014C191.365 129.777 191.506 128.682 191.612 127.481C191.718 126.28 191.824 125.115 191.895 123.949C191.965 122.783 191.895 121.547 191.895 120.417C191.895 119.287 191.93 118.297 191.859 117.273ZM185.572 118.368C185.572 118.998 185.384 119.614 185.034 120.138C184.683 120.661 184.184 121.069 183.601 121.308C183.018 121.548 182.377 121.609 181.76 121.483C181.142 121.358 180.576 121.051 180.132 120.603C179.689 120.155 179.389 119.585 179.271 118.966C179.152 118.347 179.22 117.707 179.466 117.127C179.712 116.547 180.125 116.053 180.652 115.708C181.18 115.363 181.798 115.182 182.428 115.189C183.235 115.197 184.01 115.511 184.593 116.069C185.177 116.627 185.527 117.385 185.572 118.192V118.368Z" fill="url(#paint4_linear_226_54327)"/>
<path d="M204.541 85.1652C204.376 85.1487 204.21 85.1487 204.046 85.1652C199.588 74.771 193.186 65.3237 185.184 57.3309C181.081 53.364 176.624 49.7814 171.867 46.6282C167.083 43.398 161.997 40.6416 156.678 38.398C151.274 36.0994 145.653 34.3481 139.9 33.1702C127.999 30.7688 115.737 30.7688 103.836 33.1702C98.0696 34.343 92.4366 36.0945 87.0221 38.398C81.7075 40.6492 76.6213 43.4052 71.8333 46.6282C67.0923 49.8521 62.6583 53.5058 58.5873 57.5429C54.6742 61.4619 51.1272 65.7301 47.9905 70.2944C47.3998 69.9479 46.7322 69.7537 46.0478 69.7292C45.194 69.7222 44.3574 69.969 43.6441 70.4382C42.9308 70.9075 42.3729 71.578 42.0414 72.3648C41.7098 73.1516 41.6194 74.0192 41.7817 74.8574C41.9439 75.6957 42.3515 76.4668 42.9528 77.073C43.554 77.6792 44.3218 78.0932 45.1587 78.2624C45.9955 78.4315 46.8638 78.3483 47.6533 78.0232C48.4428 77.6981 49.118 77.1458 49.5931 76.4363C50.0682 75.7269 50.3218 74.8924 50.3218 74.0386C50.3196 73.4448 50.1927 72.8582 49.9493 72.3166C49.7059 71.775 49.3515 71.2907 48.9089 70.8948C61.8269 52.0125 81.569 38.8807 103.977 34.2652C115.727 31.899 127.832 31.899 139.582 34.2652C145.273 35.4307 150.834 37.1582 156.184 39.4223C161.431 41.6308 166.448 44.352 171.161 47.5466C175.855 50.7353 180.242 54.3538 184.265 58.3553C188.265 62.358 191.873 66.7344 195.039 71.4247C198.105 75.9684 200.731 80.7941 202.88 85.8363C202.457 86.1971 202.174 86.6956 202.082 87.2441C201.989 87.7927 202.093 88.3563 202.374 88.8361C202.656 89.3158 203.098 89.681 203.622 89.8674C204.146 90.0539 204.719 90.0498 205.241 89.8558C205.762 89.6618 206.198 89.2903 206.473 88.8066C206.748 88.3228 206.843 87.7577 206.743 87.2106C206.643 86.6634 206.353 86.1691 205.924 85.8144C205.495 85.4597 204.956 85.2674 204.399 85.2712L204.541 85.1652ZM49.1209 73.9326C49.1208 74.5628 48.9334 75.1789 48.5825 75.7024C48.2316 76.2259 47.733 76.6333 47.1501 76.8729C46.5671 77.1124 45.9262 77.1733 45.3086 77.0477C44.6909 76.9222 44.1245 76.6159 43.6814 76.1677C43.2382 75.7196 42.9383 75.1498 42.8196 74.5309C42.701 73.9119 42.769 73.2716 43.015 72.6914C43.2611 72.1111 43.674 71.6171 44.2014 71.2721C44.7288 70.927 45.3469 70.7466 45.9772 70.7536C46.393 70.7535 46.8047 70.836 47.1884 70.9962C47.5721 71.1564 47.9203 71.3911 48.2127 71.6868C48.5051 71.9825 48.7359 72.3332 48.8918 72.7187C49.0477 73.1042 49.1255 73.5168 49.1209 73.9326V73.9326Z" fill="url(#paint5_linear_226_54327)"/>
<path d="M162.718 61.3221C162.307 61.3185 161.899 61.4015 161.522 61.5658C161.144 61.7302 160.806 61.9721 160.528 62.2758C158.797 61.1455 156.996 60.0505 155.265 59.0615C153.534 58.0724 151.203 57.0128 149.154 56.1297C147.106 55.2466 144.88 54.4342 142.69 53.7631C140.5 53.092 138.24 52.4915 135.979 52.0323C133.718 51.5731 131.352 51.2198 128.914 50.9726C126.567 50.732 124.209 50.6141 121.85 50.6194C121.719 50.2002 121.442 49.8417 121.07 49.6091C120.697 49.3764 120.254 49.2849 119.82 49.3511C119.385 49.4173 118.989 49.6369 118.703 49.97C118.417 50.3031 118.26 50.7277 118.26 51.1669C118.26 51.606 118.417 52.0306 118.703 52.3638C118.989 52.6969 119.385 52.9164 119.82 52.9826C120.254 53.0489 120.697 52.9573 121.07 52.7247C121.442 52.492 121.719 52.1336 121.85 51.7144C124.181 51.7144 126.512 51.7144 128.914 52.1029C131.215 52.3206 133.503 52.6625 135.767 53.1273C137.992 53.5865 140.218 54.1516 142.372 54.8228C144.527 55.4939 146.646 56.271 148.695 57.1541C150.744 58.0371 152.757 58.9908 154.735 60.0505C156.507 61.0098 158.228 62.0591 159.892 63.1942C159.736 63.5757 159.652 63.983 159.645 64.3952C159.645 65.003 159.825 65.5971 160.163 66.1025C160.501 66.6079 160.981 67.0018 161.542 67.2343C162.104 67.4669 162.722 67.5278 163.318 67.4092C163.914 67.2906 164.461 66.998 164.891 66.5682C165.321 66.1384 165.614 65.5908 165.732 64.9947C165.851 64.3986 165.79 63.7807 165.557 63.2192C165.325 62.6577 164.931 62.1777 164.425 61.84C163.92 61.5024 163.326 61.3221 162.718 61.3221V61.3221ZM162.718 66.338C162.324 66.3449 161.937 66.234 161.606 66.0193C161.275 65.8047 161.016 65.4962 160.862 65.1333C160.708 64.7705 160.666 64.3698 160.741 63.9829C160.817 63.5959 161.006 63.2402 161.284 62.9615C161.563 62.6827 161.919 62.4936 162.306 62.4184C162.693 62.3432 163.093 62.3854 163.456 62.5395C163.819 62.6935 164.128 62.9525 164.342 63.2832C164.557 63.6138 164.668 64.0011 164.661 64.3952C164.661 64.9104 164.456 65.4046 164.092 65.7689C163.728 66.1333 163.233 66.338 162.718 66.338V66.338Z" fill="url(#paint6_linear_226_54327)"/>
<path d="M88.2936 170.504C86.704 169.409 85.1498 168.244 83.6663 166.972C82.1827 165.7 80.7699 164.429 79.3923 163.087C78.0356 161.73 76.7505 160.303 75.5421 158.813C74.553 157.647 73.6347 156.375 72.7516 155.104C73.0971 154.68 73.2879 154.152 73.2926 153.606C73.2974 153.059 73.1157 152.528 72.7776 152.099C72.4395 151.669 71.9653 151.368 71.433 151.245C70.9008 151.122 70.3424 151.183 69.85 151.42C69.3576 151.657 68.9607 152.054 68.7246 152.547C68.4886 153.04 68.4275 153.598 68.5516 154.13C68.6757 154.662 68.9774 155.136 69.407 155.474C69.8366 155.811 70.3685 155.992 70.9148 155.987C71.2449 155.991 71.5715 155.919 71.8685 155.775C72.7516 157.046 73.67 158.318 74.659 159.519C75.8941 161.041 77.215 162.492 78.6152 163.864C79.9953 165.255 81.4454 166.576 82.9599 167.82C84.1608 168.844 85.4324 169.798 86.7393 170.716L77.7321 173.789C76.1426 172.447 74.553 171.034 73.0695 169.551C71.5859 168.067 70.0318 166.336 68.6189 164.641C67.206 162.945 65.899 161.108 64.6627 159.342C63.4264 157.576 62.2607 155.598 61.1304 153.655C60.0001 151.713 59.0817 149.664 58.234 147.615C57.3862 145.567 56.5738 143.412 55.9027 141.292C55.2315 139.173 54.6664 136.912 54.2072 134.687C53.7425 132.423 53.4005 130.136 53.1828 127.835C52.6648 123.139 52.6648 118.401 53.1828 113.705C53.4007 111.416 53.7427 109.14 54.2072 106.888C54.6664 104.663 55.2315 102.438 55.9027 100.248C56.5738 98.0575 57.3509 96.0088 58.234 93.9248C59.1171 91.8408 60.0707 89.8627 61.1304 87.8846C62.1901 85.9066 63.1791 84.3524 64.2741 82.6922C64.6431 82.849 65.0389 82.933 65.4398 82.9394C66.0546 82.9394 66.6556 82.7572 67.1667 82.4156C67.6779 82.074 68.0763 81.5886 68.3116 81.0206C68.5469 80.4526 68.6084 79.8276 68.4885 79.2246C68.3685 78.6217 68.0725 78.0678 67.6378 77.6331C67.203 77.1984 66.6492 76.9023 66.0462 76.7824C65.4433 76.6624 64.8182 76.724 64.2503 76.9593C63.6823 77.1945 63.1968 77.593 62.8553 78.1041C62.5137 78.6153 62.3314 79.2163 62.3314 79.8311C62.3288 80.2595 62.419 80.6834 62.5959 81.0736C62.7727 81.4639 63.0319 81.8112 63.3558 82.0917C62.2254 83.8225 61.1304 85.624 60.1414 87.3548C59.1524 89.0856 58.0927 91.4169 57.2096 93.5009C56.3265 95.585 55.5141 97.775 54.843 99.9296C54.1719 102.084 53.5714 104.38 53.1122 106.641C52.653 108.902 52.2998 111.268 52.0525 113.705C51.5815 118.474 51.5815 123.278 52.0525 128.046C52.2998 130.378 52.653 132.709 53.1122 135.111C53.5714 137.513 54.1719 139.632 54.843 141.822C55.5141 144.012 56.3265 146.167 57.2096 148.286C58.0927 150.406 59.0817 152.419 60.1414 154.397C61.2011 156.375 62.402 158.318 63.6737 160.19C64.9246 162.046 66.2686 163.838 67.7004 165.559C69.1449 167.207 70.6778 168.775 72.2924 170.257C73.91 171.85 75.6077 173.359 77.3789 174.778L77.6261 174.99L89.3532 171.14L88.2936 170.504ZM65.5104 77.8177C65.9032 77.8177 66.287 77.9347 66.613 78.1536C66.939 78.3726 67.1925 78.6836 67.3411 79.0471C67.4897 79.4106 67.5268 79.8102 67.4475 80.1948C67.3683 80.5794 67.1764 80.9318 66.8962 81.207C66.616 81.4822 66.2603 81.6677 65.8743 81.74C65.4883 81.8123 65.0894 81.768 64.7287 81.6129C64.3679 81.4577 64.0615 81.1987 63.8484 80.8688C63.6354 80.5389 63.5254 80.1531 63.5324 79.7604C63.5323 79.5023 63.5837 79.2467 63.6836 79.0087C63.7834 78.7707 63.9297 78.5549 64.1138 78.374C64.298 78.1932 64.5163 78.0508 64.7561 77.9553C64.9959 77.8598 65.2524 77.813 65.5104 77.8177V77.8177Z" fill="url(#paint7_linear_226_54327)"/>
<path d="M101.646 39.916C100.584 39.916 99.5649 40.3354 98.8107 41.0829C98.0565 41.8305 97.6282 42.8456 97.6188 43.9075C97.652 44.2211 97.7231 44.5295 97.8308 44.8259C95.4642 45.5676 93.1329 46.4154 90.7662 47.3691C86.0792 49.3845 81.5963 51.8448 77.379 54.7162C75.2949 56.1291 73.2462 57.6833 71.2682 59.3082C69.2901 60.933 67.418 62.6285 65.6165 64.4299C63.8151 66.2314 62.0843 68.1388 60.4947 70.0816C58.9052 72.0243 57.3157 74.1083 55.9028 76.1924C53.0234 80.4546 50.5629 84.9852 48.5557 89.721C47.5666 92.0876 46.6836 94.5248 45.9065 96.7855H45.6239C45.2606 96.7855 44.9055 96.8932 44.6034 97.095C44.3014 97.2969 44.066 97.5837 43.927 97.9194C43.7879 98.255 43.7515 98.6243 43.8224 98.9806C43.8933 99.3369 44.0682 99.6642 44.3251 99.9211C44.582 100.178 44.9093 100.353 45.2656 100.424C45.6219 100.495 45.9912 100.458 46.3268 100.319C46.6624 100.18 46.9493 99.9448 47.1511 99.6427C47.353 99.3407 47.4607 98.9856 47.4607 98.6223C47.4565 98.2833 47.3586 97.9521 47.1778 97.6653C46.997 97.3785 46.7404 97.1473 46.4363 96.9974C47.2134 94.5955 48.0965 92.1582 49.0855 89.9329C50.0705 87.5802 51.1787 85.281 52.4058 83.045C53.6068 80.8197 54.9491 78.6296 56.362 76.5103C57.7782 74.4101 59.2989 72.3824 60.9186 70.4348C62.5081 68.4921 64.2389 66.6199 66.0051 64.8185C67.7712 63.017 69.5373 61.2862 71.6214 59.732C73.5689 58.1124 75.5967 56.5916 77.6969 55.1754C79.8162 53.7625 82.0063 52.4202 84.2316 51.2193C86.4676 49.9922 88.7667 48.8839 91.1195 47.8989C93.358 46.9431 95.6454 46.106 97.9721 45.391C98.2414 46.0638 98.6888 46.6505 99.2663 47.0883C99.8438 47.5261 100.53 47.7984 101.25 47.876C101.971 47.9536 102.699 47.8336 103.356 47.5288C104.014 47.2241 104.576 46.746 104.982 46.1461C105.389 45.5461 105.624 44.8468 105.663 44.1232C105.702 43.3996 105.544 42.6789 105.205 42.0386C104.865 41.3983 104.358 40.8624 103.737 40.4885C103.117 40.1145 102.406 39.9166 101.681 39.916H101.646ZM101.646 47.3691C101.128 47.487 100.591 47.4868 100.074 47.3686C99.5567 47.2505 99.0728 47.0173 98.658 46.6864C98.2432 46.3556 97.9083 45.9355 97.6782 45.4575C97.448 44.9794 97.3285 44.4557 97.3285 43.9251C97.3285 43.3946 97.448 42.8708 97.6782 42.3928C97.9083 41.9148 98.2432 41.4947 98.658 41.1639C99.0728 40.833 99.5567 40.5998 100.074 40.4816C100.591 40.3634 101.128 40.3633 101.646 40.4812C102.426 40.659 103.123 41.0967 103.622 41.7224C104.121 42.3481 104.393 43.1247 104.393 43.9251C104.393 44.7255 104.121 45.5022 103.622 46.1279C103.123 46.7536 102.426 47.1912 101.646 47.3691V47.3691Z" fill="url(#paint8_linear_226_54327)"/>
<path d="M117.329 195.901C116.363 195.92 115.438 196.289 114.723 196.938C114.009 197.588 113.554 198.474 113.443 199.433C110.935 199.151 108.392 198.762 105.919 198.268C103.447 197.773 100.833 197.102 98.3603 196.325C95.8877 195.548 93.4505 194.665 91.0838 193.676C86.3969 191.651 81.9041 189.204 77.6612 186.364C75.5772 184.951 73.5285 183.432 71.5857 181.843C69.643 180.253 67.7356 178.522 65.9694 176.721C64.2033 174.919 62.4371 173.189 60.883 171.105C57.6463 167.197 54.7954 162.986 52.3702 158.53C51.1339 156.269 50.0389 153.938 49.0498 151.465C48.0296 149.088 47.1335 146.659 46.3653 144.189C45.6236 141.716 44.9524 139.173 44.4226 136.63C43.8927 134.086 43.5042 131.402 43.2216 128.788C42.939 126.174 42.8331 123.419 42.8331 120.699C42.8331 117.979 42.8331 115.295 43.2216 112.61L34.5676 102.261V102.826C31.5819 117.288 32.2397 132.266 36.482 146.411C40.7242 160.556 48.4176 173.424 58.8695 183.856C62.9114 187.911 67.3355 191.566 72.0802 194.771C76.3639 197.595 80.8915 200.03 85.6088 202.047C85.5755 202.21 85.5755 202.379 85.6088 202.542C85.6088 203.02 85.7986 203.478 86.1364 203.816C86.4743 204.153 86.9325 204.343 87.4103 204.343C87.6717 204.396 87.9416 204.39 88.2003 204.325C88.4591 204.261 88.7004 204.14 88.9067 203.971C89.113 203.802 89.2792 203.589 89.3934 203.348C89.5075 203.107 89.5667 202.844 89.5667 202.577C89.5667 202.31 89.5075 202.047 89.3934 201.806C89.2792 201.565 89.113 201.352 88.9067 201.183C88.7004 201.014 88.4591 200.893 88.2003 200.829C87.9416 200.765 87.6717 200.758 87.4103 200.811C87.1147 200.811 86.8241 200.886 86.5649 201.028C86.3057 201.17 86.0863 201.375 85.9267 201.623C81.205 199.545 76.6777 197.051 72.3981 194.17C62.9317 187.814 54.7769 179.695 48.3787 170.257C41.8861 160.634 37.3383 149.835 34.9914 138.466C33.8339 132.65 33.2424 126.735 33.2253 120.805C33.2219 115.006 33.7898 109.22 34.9208 103.532L42.6564 112.787C42.4092 115.436 42.2679 118.121 42.2679 120.805C42.2672 123.531 42.4087 126.254 42.6917 128.965C42.9511 131.61 43.352 134.239 43.8928 136.842C44.4226 139.42 45.0584 141.963 45.8355 144.471C46.6126 146.979 47.531 149.416 48.52 151.783C49.5136 154.195 50.6337 156.553 51.8757 158.848C53.0835 161.11 54.4161 163.303 55.8671 165.418C57.28 167.502 58.8343 169.586 60.4591 171.528C62.0539 173.511 63.7642 175.398 65.5809 177.18C67.3823 178.982 69.2897 180.712 71.2325 182.337C73.2084 183.886 75.2596 185.336 77.3786 186.682C81.6408 189.561 86.1714 192.022 90.9072 194.029C93.3092 195.053 95.7464 195.936 98.219 196.714C100.692 197.491 103.305 198.162 105.849 198.692C108.392 199.221 110.865 199.539 113.372 199.822C113.372 200.881 113.793 201.896 114.541 202.644C115.29 203.393 116.305 203.813 117.364 203.813C118.423 203.813 119.438 203.393 120.186 202.644C120.935 201.896 121.355 200.881 121.355 199.822C121.328 198.772 120.891 197.775 120.139 197.043C119.387 196.31 118.378 195.901 117.329 195.901ZM117.329 203.354C116.392 203.354 115.493 202.982 114.831 202.32C114.168 201.657 113.796 200.759 113.796 199.822C113.796 198.885 114.168 197.987 114.831 197.324C115.493 196.662 116.392 196.29 117.329 196.29C118.265 196.29 119.164 196.662 119.826 197.324C120.489 197.987 120.861 198.885 120.861 199.822C120.861 200.759 120.489 201.657 119.826 202.32C119.164 202.982 118.265 203.354 117.329 203.354Z" fill="url(#paint9_linear_226_54327)"/>
<path style="mix-blend-mode:screen" d="M121.85 228.645C181.467 228.645 229.796 180.316 229.796 120.699C229.796 61.082 181.467 12.7529 121.85 12.7529C62.2334 12.7529 13.9043 61.082 13.9043 120.699C13.9043 180.316 62.2334 228.645 121.85 228.645Z" fill="url(#paint10_radial_226_54327)"/>
<path style="mix-blend-mode:screen" d="M166.391 183.503C166.391 186.48 165.506 189.389 163.849 191.862C162.191 194.334 159.836 196.258 157.083 197.389C154.329 198.52 151.302 198.807 148.385 198.213C145.468 197.619 142.794 196.172 140.701 194.055C138.609 191.937 137.194 189.246 136.634 186.322C136.075 183.399 136.398 180.375 137.561 177.635C138.725 174.895 140.676 172.563 143.168 170.935C145.66 169.307 148.58 168.456 151.556 168.491C155.51 168.529 159.288 170.128 162.067 172.94C164.847 175.752 166.401 179.55 166.391 183.503V183.503Z" fill="url(#paint11_radial_226_54327)"/>
<path style="mix-blend-mode:screen" d="M70.8793 168.491C79.1703 168.491 85.8914 161.77 85.8914 153.479C85.8914 145.188 79.1703 138.467 70.8793 138.467C62.5883 138.467 55.8672 145.188 55.8672 153.479C55.8672 161.77 62.5883 168.491 70.8793 168.491Z" fill="url(#paint12_radial_226_54327)"/>
<path style="mix-blend-mode:screen" d="M58.1635 125.079C58.8699 134.758 56.9272 142.741 53.8188 143.023C50.7104 143.306 47.602 135.57 46.7543 125.892C45.9065 116.213 48.0259 108.231 51.1343 107.948C54.2427 107.665 57.4924 115.401 58.1635 125.079Z" fill="url(#paint13_radial_226_54327)"/>
<path style="mix-blend-mode:screen" d="M163.072 35.607C174.729 41.082 183.1 47.8286 181.758 50.6545C180.416 53.4803 169.925 51.2903 158.268 45.8153C146.612 40.3402 138.24 33.5936 139.583 30.7678C140.925 27.942 151.557 30.0967 163.072 35.607Z" fill="url(#paint14_radial_226_54327)"/>
<path style="mix-blend-mode:screen" d="M189.952 73.1198C194.862 80.1843 197.476 86.8956 195.745 88.0966C194.014 89.2976 188.681 84.5643 183.771 77.4998C178.861 70.4353 176.247 63.724 177.943 62.5583C179.638 61.3927 185.042 66.0553 189.952 73.1198Z" fill="url(#paint15_radial_226_54327)"/>
<path style="mix-blend-mode:screen" d="M184.3 175.556C178.684 182.09 172.855 186.153 171.266 184.916C169.676 183.68 172.961 177.181 178.578 170.787C184.194 164.394 190.022 160.19 191.612 161.427C193.201 162.663 189.916 169.056 184.3 175.556Z" fill="url(#paint16_radial_226_54327)"/>
<path style="mix-blend-mode:screen" d="M207.261 170.929C207.254 173.295 206.546 175.607 205.226 177.572C203.906 179.536 202.033 181.065 199.845 181.966C197.656 182.867 195.25 183.099 192.929 182.633C190.609 182.167 188.478 181.024 186.807 179.348C185.136 177.672 183.999 175.538 183.54 173.216C183.081 170.895 183.32 168.489 184.227 166.303C185.135 164.117 186.67 162.249 188.638 160.935C190.606 159.62 192.92 158.919 195.287 158.919C196.862 158.919 198.422 159.23 199.877 159.834C201.333 160.438 202.654 161.323 203.767 162.439C204.879 163.554 205.76 164.879 206.36 166.335C206.96 167.792 207.266 169.353 207.261 170.929V170.929Z" fill="url(#paint17_radial_226_54327)"/>
<path style="mix-blend-mode:screen" d="M97.4064 202.683C97.4064 204.695 96.8098 206.662 95.692 208.334C94.5742 210.007 92.9854 211.311 91.1265 212.081C89.2677 212.851 87.2222 213.053 85.2488 212.66C83.2755 212.268 81.4629 211.299 80.0402 209.876C78.6175 208.453 77.6485 206.641 77.256 204.667C76.8635 202.694 77.065 200.649 77.8349 198.79C78.6049 196.931 79.9088 195.342 81.5817 194.224C83.2546 193.106 85.2215 192.51 87.2335 192.51C89.9315 192.51 92.519 193.582 94.4268 195.489C96.3346 197.397 97.4064 199.985 97.4064 202.683V202.683Z" fill="url(#paint18_radial_226_54327)"/>
<path style="mix-blend-mode:screen" d="M60.9891 98.7641C60.9891 101.733 60.1087 104.636 58.4591 107.104C56.8096 109.573 54.465 111.497 51.7219 112.633C48.9788 113.77 45.9603 114.067 43.0483 113.488C40.1362 112.909 37.4613 111.479 35.3618 109.379C33.2623 107.28 31.8325 104.605 31.2533 101.693C30.6741 98.7807 30.9714 95.7623 32.1076 93.0192C33.2438 90.2761 35.1679 87.9315 37.6367 86.282C40.1054 84.6324 43.0079 83.752 45.977 83.752C49.9584 83.752 53.7768 85.3336 56.5922 88.1489C59.4075 90.9642 60.9891 94.7826 60.9891 98.7641V98.7641Z" fill="url(#paint19_radial_226_54327)"/>
<path style="mix-blend-mode:screen" d="M155.406 113.14C172.554 113.14 186.455 99.2393 186.455 82.0916C186.455 64.9439 172.554 51.043 155.406 51.043C138.258 51.043 124.357 64.9439 124.357 82.0916C124.357 99.2393 138.258 113.14 155.406 113.14Z" fill="url(#paint20_radial_226_54327)"/>
<path style="mix-blend-mode:screen" d="M143.292 199.893C143.271 205.03 141.728 210.046 138.859 214.307C135.99 218.568 131.922 221.884 127.17 223.835C122.418 225.787 117.194 226.287 112.158 225.272C107.122 224.256 102.499 221.772 98.874 218.132C95.2488 214.492 92.7833 209.86 91.7887 204.82C90.7942 199.779 91.3151 194.558 93.2859 189.813C95.2567 185.069 98.5889 181.015 102.862 178.163C107.135 175.311 112.157 173.789 117.294 173.789C120.716 173.794 124.103 174.473 127.262 175.788C130.421 177.102 133.29 179.027 135.704 181.451C138.119 183.876 140.032 186.752 141.334 189.917C142.636 193.081 143.301 196.471 143.292 199.893Z" fill="url(#paint21_radial_226_54327)"/>
<path style="mix-blend-mode:screen" d="M87.4809 196.396C95.7719 196.396 102.493 189.675 102.493 181.384C102.493 173.093 95.7719 166.372 87.4809 166.372C79.1899 166.372 72.4688 173.093 72.4688 181.384C72.4688 189.675 79.1899 196.396 87.4809 196.396Z" fill="url(#paint22_radial_226_54327)"/>
<path style="mix-blend-mode:screen" d="M117.33 211.408C123.689 211.408 128.845 206.253 128.845 199.893C128.845 193.533 123.689 188.378 117.33 188.378C110.97 188.378 105.814 193.533 105.814 199.893C105.814 206.253 110.97 211.408 117.33 211.408Z" fill="url(#paint23_radial_226_54327)"/>
<path style="mix-blend-mode:screen" d="M183.347 192.475C183.354 194.267 182.829 196.02 181.838 197.512C180.847 199.005 179.435 200.169 177.781 200.858C176.127 201.547 174.306 201.729 172.549 201.381C170.791 201.033 169.177 200.171 167.91 198.904C166.643 197.638 165.782 196.023 165.434 194.266C165.086 192.508 165.268 190.687 165.957 189.034C166.646 187.38 167.81 185.968 169.303 184.977C170.795 183.986 172.548 183.461 174.34 183.468C176.728 183.468 179.02 184.417 180.709 186.106C182.398 187.795 183.347 190.086 183.347 192.475V192.475Z" fill="url(#paint24_radial_226_54327)"/>
<path style="mix-blend-mode:screen" d="M45.9764 104.946C63.124 104.946 77.025 91.0449 77.025 73.8972C77.025 56.7496 63.124 42.8486 45.9764 42.8486C28.8287 42.8486 14.9277 56.7496 14.9277 73.8972C14.9277 91.0449 28.8287 104.946 45.9764 104.946Z" fill="url(#paint25_radial_226_54327)"/>
<path style="mix-blend-mode:screen" d="M46.1184 85.3412C52.439 85.3412 57.5629 80.2173 57.5629 73.8967C57.5629 67.576 52.439 62.4521 46.1184 62.4521C39.7977 62.4521 34.6738 67.576 34.6738 73.8967C34.6738 80.2173 39.7977 85.3412 46.1184 85.3412Z" fill="url(#paint26_radial_226_54327)"/>
<path style="mix-blend-mode:screen" d="M123.596 65.8639C135.722 53.7386 135.722 34.0797 123.596 21.9545C111.471 9.82924 91.8123 9.82927 79.6871 21.9545C67.5619 34.0797 67.5619 53.7386 79.6871 65.8639C91.8123 77.9891 111.471 77.9891 123.596 65.8639Z" fill="url(#paint27_radial_226_54327)"/>
<path style="mix-blend-mode:screen" d="M113.09 43.9082C113.097 46.1732 112.432 48.3894 111.179 50.2761C109.925 52.1628 108.14 53.6351 106.05 54.5068C103.959 55.3784 101.657 55.6101 99.4347 55.1725C97.2123 54.7349 95.1698 53.6477 93.5657 52.0486C91.9616 50.4494 90.8681 48.4103 90.4237 46.1893C89.9792 43.9683 90.2038 41.6654 91.0689 39.5721C91.9341 37.4788 93.401 35.6894 95.2838 34.4303C97.1666 33.1711 99.3806 32.499 101.646 32.499C104.675 32.499 107.58 33.6999 109.726 35.8386C111.871 37.9772 113.081 40.8791 113.09 43.9082V43.9082Z" fill="url(#paint28_radial_226_54327)"/>
<path style="mix-blend-mode:screen" d="M131.6 51.0787C131.586 53.3391 130.903 55.5448 129.637 57.4175C128.371 59.2903 126.579 60.7461 124.486 61.6015C122.394 62.4569 120.095 62.6735 117.88 62.224C115.664 61.7744 113.632 60.6789 112.038 59.0756C110.445 57.4723 109.362 55.433 108.926 53.2149C108.49 50.9968 108.721 48.6993 109.589 46.6122C110.457 44.5251 111.924 42.7419 113.804 41.4874C115.685 40.233 117.895 39.5635 120.155 39.5635C121.664 39.5634 123.158 39.8618 124.551 40.4413C125.944 41.0209 127.209 41.8702 128.273 42.9404C129.336 44.0107 130.178 45.2807 130.749 46.6773C131.32 48.074 131.609 49.5698 131.6 51.0787V51.0787Z" fill="url(#paint29_radial_226_54327)"/>
<path style="mix-blend-mode:screen" d="M170.807 64.2891C170.807 65.8889 170.332 67.4528 169.443 68.783C168.555 70.1132 167.291 71.15 165.813 71.7622C164.335 72.3745 162.709 72.5347 161.14 72.2226C159.571 71.9104 158.129 71.14 156.998 70.0088C155.867 68.8775 155.096 67.4362 154.784 65.8672C154.472 64.2981 154.632 62.6717 155.245 61.1936C155.857 59.7155 156.894 58.4522 158.224 57.5634C159.554 56.6746 161.118 56.2002 162.718 56.2002C164.863 56.2002 166.921 57.0524 168.438 58.5694C169.954 60.0863 170.807 62.1438 170.807 64.2891Z" fill="url(#paint30_radial_226_54327)"/>
<path style="mix-blend-mode:screen" d="M217.006 118.957C227.145 108.818 227.145 92.3795 217.006 82.2406C206.867 72.1018 190.429 72.1017 180.29 82.2406C170.151 92.3795 170.151 108.818 180.29 118.957C190.429 129.096 206.867 129.095 217.006 118.957Z" fill="url(#paint31_radial_226_54327)"/>
<path style="mix-blend-mode:screen" d="M208.073 100.636C208.073 102.502 207.52 104.325 206.484 105.876C205.447 107.427 203.975 108.636 202.251 109.349C200.528 110.063 198.632 110.25 196.802 109.886C194.973 109.522 193.292 108.624 191.973 107.305C190.654 105.986 189.756 104.306 189.392 102.476C189.028 100.647 189.215 98.7504 189.929 97.0271C190.643 95.3038 191.852 93.8308 193.402 92.7945C194.953 91.7582 196.777 91.2051 198.642 91.2051C201.141 91.2144 203.534 92.211 205.301 93.9777C207.067 95.7443 208.064 98.1378 208.073 100.636V100.636Z" fill="url(#paint32_radial_226_54327)"/>
<path style="mix-blend-mode:screen" d="M73.8472 79.7605C73.861 81.4461 73.372 83.0975 72.4426 84.5038C71.5133 85.9102 70.1858 87.0075 68.6298 87.6557C67.0737 88.3038 65.3598 88.4734 63.7069 88.1427C62.054 87.812 60.5372 86.996 59.3503 85.7991C58.1634 84.6021 57.3603 83.0785 57.0436 81.4229C56.7268 79.7673 56.9109 78.0548 57.5722 76.5043C58.2334 74.9538 59.3419 73.6356 60.756 72.7182C62.1701 71.8007 63.8256 71.3257 65.511 71.3537C67.7255 71.3815 69.8403 72.2783 71.3997 73.8509C72.9591 75.4235 73.8381 77.5459 73.8472 79.7605V79.7605Z" fill="url(#paint33_radial_226_54327)"/>
<path style="mix-blend-mode:screen" d="M217.574 87.7081C217.574 90.2929 216.808 92.8198 215.372 94.969C213.936 97.1183 211.894 98.7934 209.506 99.7826C207.118 100.772 204.49 101.031 201.955 100.526C199.42 100.022 197.091 98.7773 195.263 96.9495C193.436 95.1217 192.191 92.793 191.687 90.2578C191.182 87.7226 191.441 85.0947 192.43 82.7066C193.42 80.3185 195.095 78.2773 197.244 76.8413C199.393 75.4052 201.92 74.6387 204.505 74.6387C207.971 74.6387 211.295 76.0156 213.746 78.4666C216.197 80.9176 217.574 84.2418 217.574 87.7081V87.7081Z" fill="url(#paint34_radial_226_54327)"/>
<path style="mix-blend-mode:screen" d="M175.399 81.9506C175.399 85.9048 174.227 89.7702 172.03 93.0579C169.833 96.3457 166.711 98.9082 163.058 100.421C159.404 101.935 155.385 102.331 151.506 101.559C147.628 100.788 144.066 98.8836 141.27 96.0876C138.474 93.2915 136.57 89.7292 135.798 85.851C135.027 81.9728 135.423 77.953 136.936 74.2998C138.449 70.6466 141.012 67.5242 144.299 65.3274C147.587 63.1305 151.453 61.958 155.407 61.958C160.709 61.958 165.794 64.0644 169.544 67.8137C173.293 71.5631 175.399 76.6483 175.399 81.9506V81.9506Z" fill="url(#paint35_radial_226_54327)"/>
</g>
<defs>
<linearGradient id="paint0_linear_226_54327" x1="60.9896" y1="95.4081" x2="202.633" y2="95.4081" gradientUnits="userSpaceOnUse">
<stop stop-color="#9F9F9F"/>
<stop offset="0.01" stop-color="#999999"/>
<stop offset="0.08" stop-color="#7C7C7C"/>
<stop offset="0.15" stop-color="#626262"/>
<stop offset="0.22" stop-color="#4D4D4D"/>
<stop offset="0.3" stop-color="#3C3C3C"/>
<stop offset="0.37" stop-color="#313131"/>
<stop offset="0.46" stop-color="#2A2A2A"/>
<stop offset="0.55" stop-color="#282828"/>
<stop offset="0.63" stop-color="#2A2A2A"/>
<stop offset="0.7" stop-color="#313131"/>
<stop offset="0.76" stop-color="#3C3C3C"/>
<stop offset="0.82" stop-color="#4C4C4C"/>
<stop offset="0.88" stop-color="#616161"/>
<stop offset="0.93" stop-color="#7A7A7A"/>
<stop offset="0.99" stop-color="#979797"/>
<stop offset="1" stop-color="#9F9F9F"/>
</linearGradient>
<linearGradient id="paint1_linear_226_54327" x1="82.0771" y1="193.076" x2="178.755" y2="193.076" gradientUnits="userSpaceOnUse">
<stop stop-color="#9F9F9F"/>
<stop offset="1" stop-color="#282828"/>
</linearGradient>
<linearGradient id="paint2_linear_226_54327" x1="92.8848" y1="129.848" x2="182.463" y2="129.848" gradientUnits="userSpaceOnUse">
<stop stop-color="#9F9F9F"/>
<stop offset="0.44" stop-color="#282828"/>
<stop offset="0.54" stop-color="#2A2A2A"/>
<stop offset="0.63" stop-color="#313131"/>
<stop offset="0.7" stop-color="#3C3C3C"/>
<stop offset="0.78" stop-color="#4C4C4C"/>
<stop offset="0.85" stop-color="#616161"/>
<stop offset="0.92" stop-color="#7A7A7A"/>
<stop offset="0.98" stop-color="#979797"/>
<stop offset="1" stop-color="#9F9F9F"/>
</linearGradient>
<linearGradient id="paint3_linear_226_54327" x1="150.851" y1="154.645" x2="211.041" y2="154.645" gradientUnits="userSpaceOnUse">
<stop stop-color="#9F9F9F"/>
<stop offset="0.05" stop-color="#8F8F8F"/>
<stop offset="0.18" stop-color="#636363"/>
<stop offset="0.3" stop-color="#434343"/>
<stop offset="0.38" stop-color="#2F2F2F"/>
<stop offset="0.43" stop-color="#282828"/>
<stop offset="0.53" stop-color="#2A2A2A"/>
<stop offset="0.62" stop-color="#313131"/>
<stop offset="0.7" stop-color="#3C3C3C"/>
<stop offset="0.77" stop-color="#4C4C4C"/>
<stop offset="0.85" stop-color="#616161"/>
<stop offset="0.92" stop-color="#7A7A7A"/>
<stop offset="0.98" stop-color="#979797"/>
<stop offset="1" stop-color="#9F9F9F"/>
</linearGradient>
<linearGradient id="paint4_linear_226_54327" x1="149.649" y1="127.587" x2="191.965" y2="127.587" gradientUnits="userSpaceOnUse">
<stop stop-color="#9F9F9F"/>
<stop offset="1" stop-color="#282828"/>
</linearGradient>
<linearGradient id="paint5_linear_226_54327" x1="41.8444" y1="60.5806" x2="206.837" y2="60.5806" gradientUnits="userSpaceOnUse">
<stop stop-color="#9F9F9F"/>
<stop offset="0.01" stop-color="#9B9B9B"/>
<stop offset="0.06" stop-color="#7C7C7C"/>
<stop offset="0.12" stop-color="#626262"/>
<stop offset="0.17" stop-color="#4D4D4D"/>
<stop offset="0.23" stop-color="#3D3D3D"/>
<stop offset="0.29" stop-color="#313131"/>
<stop offset="0.35" stop-color="#2A2A2A"/>
<stop offset="0.43" stop-color="#282828"/>
<stop offset="0.5" stop-color="#2B2B2B"/>
<stop offset="0.59" stop-color="#353535"/>
<stop offset="0.68" stop-color="#454545"/>
<stop offset="0.78" stop-color="#5B5B5B"/>
<stop offset="0.88" stop-color="#777777"/>
<stop offset="0.98" stop-color="#999999"/>
<stop offset="1" stop-color="#9F9F9F"/>
</linearGradient>
<linearGradient id="paint6_linear_226_54327" x1="118.388" y1="58.3903" x2="165.791" y2="58.3903" gradientUnits="userSpaceOnUse">
<stop stop-color="#9F9F9F"/>
<stop offset="1" stop-color="#282828"/>
</linearGradient>
<linearGradient id="paint7_linear_226_54327" x1="51.7699" y1="125.821" x2="89.2473" y2="125.821" gradientUnits="userSpaceOnUse">
<stop stop-color="#9F9F9F"/>
<stop offset="1" stop-color="#282828"/>
</linearGradient>
<linearGradient id="paint8_linear_226_54327" x1="43.7871" y1="70.2229" x2="105.637" y2="70.2229" gradientUnits="userSpaceOnUse">
<stop stop-color="#9F9F9F"/>
<stop offset="1" stop-color="#282828"/>
</linearGradient>
<linearGradient id="paint9_linear_226_54327" x1="32.6955" y1="153.302" x2="121.32" y2="153.302" gradientUnits="userSpaceOnUse">
<stop stop-color="#9F9F9F"/>
<stop offset="1" stop-color="#282828"/>
</linearGradient>
<radialGradient id="paint10_radial_226_54327" cx="0" cy="0" r="1" gradientUnits="userSpaceOnUse" gradientTransform="translate(121.85 120.699) scale(107.946)">
<stop offset="0.36"/>
<stop offset="0.48" stop-color="#020202"/>
<stop offset="0.56" stop-color="#070707"/>
<stop offset="0.62" stop-color="#101010"/>
<stop offset="0.67" stop-color="#1A1A1A"/>
<stop offset="0.84" stop-color="#0E0E0E"/>
<stop offset="1"/>
</radialGradient>
<radialGradient id="paint11_radial_226_54327" cx="0" cy="0" r="1" gradientUnits="userSpaceOnUse" gradientTransform="translate(151.415 183.503) scale(15.0121 15.0121)">
<stop stop-color="#303030"/>
<stop offset="0.11" stop-color="#272727"/>
<stop offset="0.36" stop-color="#161616"/>
<stop offset="0.6" stop-color="#0A0A0A"/>
<stop offset="0.82" stop-color="#030303"/>
<stop offset="1"/>
</radialGradient>
<radialGradient id="paint12_radial_226_54327" cx="0" cy="0" r="1" gradientUnits="userSpaceOnUse" gradientTransform="translate(70.8793 153.479) scale(15.0121)">
<stop stop-color="#303030"/>
<stop offset="0.11" stop-color="#272727"/>
<stop offset="0.36" stop-color="#161616"/>
<stop offset="0.6" stop-color="#0A0A0A"/>
<stop offset="0.82" stop-color="#030303"/>
<stop offset="1"/>
</radialGradient>
<radialGradient id="paint13_radial_226_54327" cx="0" cy="0" r="1" gradientUnits="userSpaceOnUse" gradientTransform="translate(55.2444 123.668) rotate(-4.51399) scale(5.72235 17.6042)">
<stop stop-color="#808080"/>
<stop offset="0.01" stop-color="#787878"/>
<stop offset="0.06" stop-color="#5F5F5F"/>
<stop offset="0.11" stop-color="#484848"/>
<stop offset="0.16" stop-color="#353535"/>
<stop offset="0.22" stop-color="#242424"/>
<stop offset="0.29" stop-color="#171717"/>
<stop offset="0.37" stop-color="#0C0C0C"/>
<stop offset="0.47" stop-color="#060606"/>
<stop offset="0.61" stop-color="#010101"/>
<stop offset="1"/>
</radialGradient>
<radialGradient id="paint14_radial_226_54327" cx="0" cy="0" r="1" gradientUnits="userSpaceOnUse" gradientTransform="translate(160.954 40.6066) rotate(-64.7989) scale(5.64105 23.3712)">
<stop stop-color="#808080"/>
<stop offset="0.01" stop-color="#787878"/>
<stop offset="0.06" stop-color="#5F5F5F"/>
<stop offset="0.11" stop-color="#484848"/>
<stop offset="0.16" stop-color="#353535"/>
<stop offset="0.22" stop-color="#242424"/>
<stop offset="0.29" stop-color="#171717"/>
<stop offset="0.37" stop-color="#0C0C0C"/>
<stop offset="0.47" stop-color="#060606"/>
<stop offset="0.61" stop-color="#010101"/>
<stop offset="1"/>
</radialGradient>
<radialGradient id="paint15_radial_226_54327" cx="0" cy="0" r="1" gradientUnits="userSpaceOnUse" gradientTransform="translate(188.221 80.1607) rotate(-34.1145) scale(3.75617 15.6382)">
<stop stop-color="#808080"/>
<stop offset="0.01" stop-color="#787878"/>
<stop offset="0.06" stop-color="#5F5F5F"/>
<stop offset="0.11" stop-color="#484848"/>
<stop offset="0.16" stop-color="#353535"/>
<stop offset="0.22" stop-color="#242424"/>
<stop offset="0.29" stop-color="#171717"/>
<stop offset="0.37" stop-color="#0C0C0C"/>
<stop offset="0.47" stop-color="#060606"/>
<stop offset="0.61" stop-color="#010101"/>
<stop offset="1"/>
</radialGradient>
<radialGradient id="paint16_radial_226_54327" cx="0" cy="0" r="1" gradientUnits="userSpaceOnUse" gradientTransform="translate(184.944 176.044) rotate(40.7636) scale(3.84095 15.5813)">
<stop stop-color="#808080"/>
<stop offset="0.01" stop-color="#787878"/>
<stop offset="0.06" stop-color="#5F5F5F"/>
<stop offset="0.11" stop-color="#484848"/>
<stop offset="0.16" stop-color="#353535"/>
<stop offset="0.22" stop-color="#242424"/>
<stop offset="0.29" stop-color="#171717"/>
<stop offset="0.37" stop-color="#0C0C0C"/>
<stop offset="0.47" stop-color="#060606"/>
<stop offset="0.61" stop-color="#010101"/>
<stop offset="1"/>
</radialGradient>
<radialGradient id="paint17_radial_226_54327" cx="0" cy="0" r="1" gradientUnits="userSpaceOnUse" gradientTransform="translate(195.287 170.929) scale(11.9744 11.9744)">
<stop stop-color="#3A3A3A"/>
<stop offset="0.11" stop-color="#2F2F2F"/>
<stop offset="0.36" stop-color="#1B1B1B"/>
<stop offset="0.6" stop-color="#0C0C0C"/>
<stop offset="0.82" stop-color="#030303"/>
<stop offset="1"/>
</radialGradient>
<radialGradient id="paint18_radial_226_54327" cx="0" cy="0" r="1" gradientUnits="userSpaceOnUse" gradientTransform="translate(87.2335 202.683) scale(10.1729 10.1729)">
<stop stop-color="#3A3A3A"/>
<stop offset="0.11" stop-color="#2F2F2F"/>
<stop offset="0.36" stop-color="#1B1B1B"/>
<stop offset="0.6" stop-color="#0C0C0C"/>
<stop offset="0.82" stop-color="#030303"/>
<stop offset="1"/>
</radialGradient>
<radialGradient id="paint19_radial_226_54327" cx="0" cy="0" r="1" gradientUnits="userSpaceOnUse" gradientTransform="translate(45.977 98.7641) scale(15.0121 15.0121)">
<stop stop-color="#3A3A3A"/>
<stop offset="0.11" stop-color="#2F2F2F"/>
<stop offset="0.36" stop-color="#1B1B1B"/>
<stop offset="0.6" stop-color="#0C0C0C"/>
<stop offset="0.82" stop-color="#030303"/>
<stop offset="1"/>
</radialGradient>
<radialGradient id="paint20_radial_226_54327" cx="0" cy="0" r="1" gradientUnits="userSpaceOnUse" gradientTransform="translate(155.406 82.0916) scale(31.0486)">
<stop stop-color="#252525"/>
<stop offset="0.04" stop-color="#212121"/>
<stop offset="0.24" stop-color="#121212"/>
<stop offset="0.46" stop-color="#080808"/>
<stop offset="0.7" stop-color="#020202"/>
<stop offset="1"/>
</radialGradient>
<radialGradient id="paint21_radial_226_54327" cx="0" cy="0" r="1" gradientUnits="userSpaceOnUse" gradientTransform="translate(117.294 199.893) scale(25.9622 25.9622)">
<stop stop-color="#343434"/>
<stop offset="0.01" stop-color="#333333"/>
<stop offset="0.18" stop-color="#212121"/>
<stop offset="0.35" stop-color="#121212"/>
<stop offset="0.53" stop-color="#080808"/>
<stop offset="0.74" stop-color="#020202"/>
<stop offset="1"/>
</radialGradient>
<radialGradient id="paint22_radial_226_54327" cx="0" cy="0" r="1" gradientUnits="userSpaceOnUse" gradientTransform="translate(87.4809 181.384) scale(15.0121)">
<stop stop-color="#979797"/>
<stop offset="0.05" stop-color="#7A7A7A"/>
<stop offset="0.09" stop-color="#606060"/>
<stop offset="0.14" stop-color="#494949"/>
<stop offset="0.2" stop-color="#353535"/>
<stop offset="0.26" stop-color="#252525"/>
<stop offset="0.32" stop-color="#171717"/>
<stop offset="0.4" stop-color="#0D0D0D"/>
<stop offset="0.5" stop-color="#060606"/>
<stop offset="0.63" stop-color="#010101"/>
<stop offset="1"/>
</radialGradient>
<radialGradient id="paint23_radial_226_54327" cx="0" cy="0" r="1" gradientUnits="userSpaceOnUse" gradientTransform="translate(117.33 199.893) scale(11.5152)">
<stop stop-color="#979797"/>
<stop offset="0.05" stop-color="#7A7A7A"/>
<stop offset="0.09" stop-color="#606060"/>
<stop offset="0.14" stop-color="#494949"/>
<stop offset="0.2" stop-color="#353535"/>
<stop offset="0.26" stop-color="#252525"/>
<stop offset="0.32" stop-color="#171717"/>
<stop offset="0.4" stop-color="#0D0D0D"/>
<stop offset="0.5" stop-color="#060606"/>
<stop offset="0.63" stop-color="#010101"/>
<stop offset="1"/>
</radialGradient>
<radialGradient id="paint24_radial_226_54327" cx="0" cy="0" r="1" gradientUnits="userSpaceOnUse" gradientTransform="translate(174.481 192.475) scale(9.0426 9.04261)">
<stop stop-color="#979797"/>
<stop offset="0.05" stop-color="#7A7A7A"/>
<stop offset="0.09" stop-color="#606060"/>
<stop offset="0.14" stop-color="#494949"/>
<stop offset="0.2" stop-color="#353535"/>
<stop offset="0.26" stop-color="#252525"/>
<stop offset="0.32" stop-color="#171717"/>
<stop offset="0.4" stop-color="#0D0D0D"/>
<stop offset="0.5" stop-color="#060606"/>
<stop offset="0.63" stop-color="#010101"/>
<stop offset="1"/>
</radialGradient>
<radialGradient id="paint25_radial_226_54327" cx="0" cy="0" r="1" gradientUnits="userSpaceOnUse" gradientTransform="translate(45.9764 73.8972) scale(31.0486)">
<stop stop-color="#252525"/>
<stop offset="0.04" stop-color="#212121"/>
<stop offset="0.24" stop-color="#121212"/>
<stop offset="0.46" stop-color="#080808"/>
<stop offset="0.7" stop-color="#020202"/>
<stop offset="1"/>
</radialGradient>
<radialGradient id="paint26_radial_226_54327" cx="0" cy="0" r="1" gradientUnits="userSpaceOnUse" gradientTransform="translate(46.1184 73.8967) scale(11.4445)">
<stop stop-color="#979797"/>
<stop offset="0.05" stop-color="#7A7A7A"/>
<stop offset="0.09" stop-color="#606060"/>
<stop offset="0.14" stop-color="#494949"/>
<stop offset="0.2" stop-color="#353535"/>
<stop offset="0.26" stop-color="#252525"/>
<stop offset="0.32" stop-color="#171717"/>
<stop offset="0.4" stop-color="#0D0D0D"/>
<stop offset="0.5" stop-color="#060606"/>
<stop offset="0.63" stop-color="#010101"/>
<stop offset="1"/>
</radialGradient>
<radialGradient id="paint27_radial_226_54327" cx="0" cy="0" r="1" gradientUnits="userSpaceOnUse" gradientTransform="translate(101.637 43.9068) scale(31.0486)">
<stop stop-color="#252525"/>
<stop offset="0.04" stop-color="#212121"/>
<stop offset="0.24" stop-color="#121212"/>
<stop offset="0.46" stop-color="#080808"/>
<stop offset="0.7" stop-color="#020202"/>
<stop offset="1"/>
</radialGradient>
<radialGradient id="paint28_radial_226_54327" cx="0" cy="0" r="1" gradientUnits="userSpaceOnUse" gradientTransform="translate(101.646 43.9082) scale(11.4445)">
<stop stop-color="#979797"/>
<stop offset="0.05" stop-color="#7A7A7A"/>
<stop offset="0.09" stop-color="#606060"/>
<stop offset="0.14" stop-color="#494949"/>
<stop offset="0.2" stop-color="#353535"/>
<stop offset="0.26" stop-color="#252525"/>
<stop offset="0.32" stop-color="#171717"/>
<stop offset="0.4" stop-color="#0D0D0D"/>
<stop offset="0.5" stop-color="#060606"/>
<stop offset="0.63" stop-color="#010101"/>
<stop offset="1"/>
</radialGradient>
<radialGradient id="paint29_radial_226_54327" cx="0" cy="0" r="1" gradientUnits="userSpaceOnUse" gradientTransform="translate(120.155 51.0787) scale(11.4445 11.4445)">
<stop stop-color="#979797"/>
<stop offset="0.05" stop-color="#7A7A7A"/>
<stop offset="0.09" stop-color="#606060"/>
<stop offset="0.14" stop-color="#494949"/>
<stop offset="0.2" stop-color="#353535"/>
<stop offset="0.26" stop-color="#252525"/>
<stop offset="0.32" stop-color="#171717"/>
<stop offset="0.4" stop-color="#0D0D0D"/>
<stop offset="0.5" stop-color="#060606"/>
<stop offset="0.63" stop-color="#010101"/>
<stop offset="1"/>
</radialGradient>
<radialGradient id="paint30_radial_226_54327" cx="0" cy="0" r="1" gradientUnits="userSpaceOnUse" gradientTransform="translate(162.718 64.3951) scale(8.08889 8.08889)">
<stop stop-color="#979797"/>
<stop offset="0.05" stop-color="#7A7A7A"/>
<stop offset="0.09" stop-color="#606060"/>
<stop offset="0.14" stop-color="#494949"/>
<stop offset="0.2" stop-color="#353535"/>
<stop offset="0.26" stop-color="#252525"/>
<stop offset="0.32" stop-color="#171717"/>
<stop offset="0.4" stop-color="#0D0D0D"/>
<stop offset="0.5" stop-color="#060606"/>
<stop offset="0.63" stop-color="#010101"/>
<stop offset="1"/>
</radialGradient>
<radialGradient id="paint31_radial_226_54327" cx="0" cy="0" r="1" gradientUnits="userSpaceOnUse" gradientTransform="translate(198.654 100.602) scale(25.9622)">
<stop stop-color="#343434"/>
<stop offset="0.01" stop-color="#333333"/>
<stop offset="0.18" stop-color="#212121"/>
<stop offset="0.35" stop-color="#121212"/>
<stop offset="0.53" stop-color="#080808"/>
<stop offset="0.74" stop-color="#020202"/>
<stop offset="1"/>
</radialGradient>
<radialGradient id="paint32_radial_226_54327" cx="0" cy="0" r="1" gradientUnits="userSpaceOnUse" gradientTransform="translate(198.642 100.636) scale(9.43115)">
<stop stop-color="#979797"/>
<stop offset="0.05" stop-color="#7A7A7A"/>
<stop offset="0.09" stop-color="#606060"/>
<stop offset="0.14" stop-color="#494949"/>
<stop offset="0.2" stop-color="#353535"/>
<stop offset="0.26" stop-color="#252525"/>
<stop offset="0.32" stop-color="#171717"/>
<stop offset="0.4" stop-color="#0D0D0D"/>
<stop offset="0.5" stop-color="#060606"/>
<stop offset="0.63" stop-color="#010101"/>
<stop offset="1"/>
</radialGradient>
<radialGradient id="paint33_radial_226_54327" cx="0" cy="0" r="1" gradientUnits="userSpaceOnUse" gradientTransform="translate(65.511 79.7605) scale(8.47744)">
<stop stop-color="#979797"/>
<stop offset="0.05" stop-color="#7A7A7A"/>
<stop offset="0.09" stop-color="#606060"/>
<stop offset="0.14" stop-color="#494949"/>
<stop offset="0.2" stop-color="#353535"/>
<stop offset="0.26" stop-color="#252525"/>
<stop offset="0.32" stop-color="#171717"/>
<stop offset="0.4" stop-color="#0D0D0D"/>
<stop offset="0.5" stop-color="#060606"/>
<stop offset="0.63" stop-color="#010101"/>
<stop offset="1"/>
</radialGradient>
<radialGradient id="paint34_radial_226_54327" cx="0" cy="0" r="1" gradientUnits="userSpaceOnUse" gradientTransform="translate(204.505 87.7081) scale(13.0694 13.0694)">
<stop stop-color="#979797"/>
<stop offset="0.05" stop-color="#7A7A7A"/>
<stop offset="0.09" stop-color="#606060"/>
<stop offset="0.14" stop-color="#494949"/>
<stop offset="0.2" stop-color="#353535"/>
<stop offset="0.26" stop-color="#252525"/>
<stop offset="0.32" stop-color="#171717"/>
<stop offset="0.4" stop-color="#0D0D0D"/>
<stop offset="0.5" stop-color="#060606"/>
<stop offset="0.63" stop-color="#010101"/>
<stop offset="1"/>
</radialGradient>
<radialGradient id="paint35_radial_226_54327" cx="0" cy="0" r="1" gradientUnits="userSpaceOnUse" gradientTransform="translate(155.407 82.0919) scale(19.9926 19.9926)">
<stop stop-color="#979797"/>
<stop offset="0.05" stop-color="#7A7A7A"/>
<stop offset="0.09" stop-color="#606060"/>
<stop offset="0.14" stop-color="#494949"/>
<stop offset="0.2" stop-color="#353535"/>
<stop offset="0.26" stop-color="#252525"/>
<stop offset="0.32" stop-color="#171717"/>
<stop offset="0.4" stop-color="#0D0D0D"/>
<stop offset="0.5" stop-color="#060606"/>
<stop offset="0.63" stop-color="#010101"/>
<stop offset="1"/>
</radialGradient>
</defs>
</svg>
