<svg width="20" height="20" viewBox="0 0 20 20" fill="none" xmlns="http://www.w3.org/2000/svg">
<g id="mdi:security-lock-outline">
<path id="Vector" d="M17.5 9.16634C17.5 13.7913 14.3 18.1163 10 19.1663C5.7 18.1163 2.5 13.7913 2.5 9.16634V4.16634L10 0.833008L17.5 4.16634V9.16634ZM10 17.4997C13.125 16.6663 15.8333 12.9497 15.8333 9.34967V5.24967L10 2.64967L4.16667 5.24967V9.34967C4.16667 12.9497 6.875 16.6663 10 17.4997ZM12.3333 9.16634V7.91634C12.3333 6.74967 11.1667 5.83301 10 5.83301C8.83333 5.83301 7.66667 6.74967 7.66667 7.91634V9.16634C7.16667 9.16634 6.66667 9.66634 6.66667 10.1663V13.083C6.66667 13.6663 7.16667 14.1663 7.66667 14.1663H12.25C12.8333 14.1663 13.3333 13.6663 13.3333 13.1663V10.2497C13.3333 9.66634 12.8333 9.16634 12.3333 9.16634ZM11.25 9.16634H8.75V7.91634C8.75 7.24967 9.33333 6.83301 10 6.83301C10.6667 6.83301 11.25 7.24967 11.25 7.91634V9.16634Z" fill="#51535F"/>
</g>
</svg>
