<svg width="20" height="20" viewBox="0 0 20 20" fill="none" xmlns="http://www.w3.org/2000/svg">
<g id="material-symbols:exit-to-app-rounded">
<path id="Vector" d="M8.16667 13.5625C8 13.3958 7.92 13.1944 7.92667 12.9583C7.93389 12.7222 8.02083 12.5208 8.1875 12.3542L9.70833 10.8333H3.33333C3.09722 10.8333 2.89944 10.7533 2.74 10.5933C2.58 10.4339 2.5 10.2361 2.5 10C2.5 9.76389 2.58 9.56583 2.74 9.40583C2.89944 9.24639 3.09722 9.16667 3.33333 9.16667H9.70833L8.16667 7.625C8 7.45833 7.91667 7.26056 7.91667 7.03167C7.91667 6.80222 8 6.60417 8.16667 6.4375C8.33333 6.27083 8.53139 6.1875 8.76083 6.1875C8.98972 6.1875 9.1875 6.27083 9.35417 6.4375L12.3333 9.41667C12.4167 9.5 12.4758 9.59028 12.5108 9.6875C12.5453 9.78472 12.5625 9.88889 12.5625 10C12.5625 10.1111 12.5453 10.2153 12.5108 10.3125C12.4758 10.4097 12.4167 10.5 12.3333 10.5833L9.33333 13.5833C9.18056 13.7361 8.98972 13.8125 8.76083 13.8125C8.53139 13.8125 8.33333 13.7292 8.16667 13.5625ZM4.16667 17.5C3.70833 17.5 3.31583 17.3369 2.98917 17.0108C2.66306 16.6842 2.5 16.2917 2.5 15.8333V13.3333C2.5 13.0972 2.58 12.8992 2.74 12.7392C2.89944 12.5797 3.09722 12.5 3.33333 12.5C3.56944 12.5 3.7675 12.5797 3.9275 12.7392C4.08694 12.8992 4.16667 13.0972 4.16667 13.3333V15.8333H15.8333V4.16667H4.16667V6.66667C4.16667 6.90278 4.08694 7.10056 3.9275 7.26C3.7675 7.42 3.56944 7.5 3.33333 7.5C3.09722 7.5 2.89944 7.42 2.74 7.26C2.58 7.10056 2.5 6.90278 2.5 6.66667V4.16667C2.5 3.70833 2.66306 3.31583 2.98917 2.98917C3.31583 2.66306 3.70833 2.5 4.16667 2.5H15.8333C16.2917 2.5 16.6842 2.66306 17.0108 2.98917C17.3369 3.31583 17.5 3.70833 17.5 4.16667V15.8333C17.5 16.2917 17.3369 16.6842 17.0108 17.0108C16.6842 17.3369 16.2917 17.5 15.8333 17.5H4.16667Z" fill="#51535F"/>
</g>
</svg>
