<svg width="16" height="16" viewBox="0 0 16 16" fill="none" xmlns="http://www.w3.org/2000/svg">
<g id="material-symbols:lock">
<path id="Vector" d="M3.99935 14.6667C3.63268 14.6667 3.3189 14.5363 3.05802 14.2754C2.79668 14.0141 2.66602 13.7001 2.66602 13.3334V6.66675C2.66602 6.30008 2.79668 5.98608 3.05802 5.72475C3.3189 5.46386 3.63268 5.33342 3.99935 5.33342H4.66602V4.00008C4.66602 3.07786 4.99113 2.29164 5.64135 1.64141C6.29113 0.991637 7.07713 0.666748 7.99935 0.666748C8.92157 0.666748 9.70779 0.991637 10.358 1.64141C11.0078 2.29164 11.3327 3.07786 11.3327 4.00008V5.33342H11.9993C12.366 5.33342 12.68 5.46386 12.9413 5.72475C13.2022 5.98608 13.3327 6.30008 13.3327 6.66675V13.3334C13.3327 13.7001 13.2022 14.0141 12.9413 14.2754C12.68 14.5363 12.366 14.6667 11.9993 14.6667H3.99935ZM7.99935 11.3334C8.36602 11.3334 8.68002 11.203 8.94135 10.9421C9.20224 10.6807 9.33268 10.3667 9.33268 10.0001C9.33268 9.63342 9.20224 9.31942 8.94135 9.05808C8.68002 8.79719 8.36602 8.66675 7.99935 8.66675C7.63268 8.66675 7.3189 8.79719 7.05802 9.05808C6.79668 9.31942 6.66602 9.63342 6.66602 10.0001C6.66602 10.3667 6.79668 10.6807 7.05802 10.9421C7.3189 11.203 7.63268 11.3334 7.99935 11.3334ZM5.99935 5.33342H9.99935V4.00008C9.99935 3.44453 9.8049 2.9723 9.41602 2.58341C9.02713 2.19453 8.5549 2.00008 7.99935 2.00008C7.44379 2.00008 6.97157 2.19453 6.58268 2.58341C6.19379 2.9723 5.99935 3.44453 5.99935 4.00008V5.33342Z" fill="#70717E"/>
</g>
</svg>
