<svg width="633" height="583" viewBox="0 0 633 583" fill="none" xmlns="http://www.w3.org/2000/svg">
<g filter="url(#filter0_di_501_188950)">
<circle cx="242" cy="6" r="6" fill="#5E6175"/>
<circle cx="289" cy="6" r="6" fill="#5E6175"/>
<circle cx="336" cy="6" r="6" fill="#5E6175"/>
<circle cx="221" cy="53" r="6" fill="#5E6175"/>
<circle cx="268" cy="53" r="6" fill="#5E6175"/>
<circle cx="315" cy="53" r="6" fill="#5E6175"/>
<circle cx="362" cy="53" r="6" fill="#5E6175"/>
<circle cx="200" cy="100" r="6" fill="#5E6175"/>
<circle cx="247" cy="100" r="6" fill="#5E6175"/>
<circle cx="294" cy="100" r="6" fill="#5E6175"/>
<circle cx="341" cy="100" r="6" fill="#5E6175"/>
<circle cx="388" cy="100" r="6" fill="#5E6175"/>
<circle cx="179" cy="147" r="6" fill="#5E6175"/>
<circle cx="226" cy="147" r="6" fill="#5E6175"/>
<circle cx="273" cy="147" r="6" fill="#5E6175"/>
<circle cx="320" cy="147" r="6" fill="#5E6175"/>
<circle cx="367" cy="147" r="6" fill="#5E6175"/>
<circle cx="414" cy="147" r="6" fill="#5E6175"/>
<circle cx="158" cy="194" r="6" fill="#5E6175"/>
<circle cx="205" cy="194" r="6" fill="#5E6175"/>
<circle cx="205" cy="194" r="6" fill="#5E6175"/>
<circle cx="252" cy="194" r="6" fill="#5E6175"/>
<circle cx="299" cy="194" r="6" fill="#5E6175"/>
<circle cx="346" cy="194" r="6" fill="#5E6175"/>
<circle cx="393" cy="194" r="6" fill="#5E6175"/>
<circle cx="440" cy="194" r="6" fill="#5E6175"/>
<circle cx="137" cy="241" r="6" fill="#5E6175"/>
<circle cx="184" cy="241" r="6" fill="#5E6175"/>
<circle cx="231" cy="241" r="6" fill="#5E6175"/>
<circle cx="278" cy="241" r="6" fill="#5E6175"/>
<circle cx="325" cy="241" r="6" fill="#5E6175"/>
<circle cx="372" cy="241" r="6" fill="#5E6175"/>
<circle cx="419" cy="241" r="6" fill="#5E6175"/>
<circle cx="466" cy="241" r="6" fill="#5E6175"/>
<circle cx="116" cy="288" r="6" fill="#5E6175"/>
<circle cx="163" cy="288" r="6" fill="#5E6175"/>
<circle cx="210" cy="288" r="6" fill="#5E6175"/>
<circle cx="257" cy="288" r="6" fill="#5E6175"/>
<circle cx="304" cy="288" r="6" fill="#5E6175"/>
<circle cx="351" cy="288" r="6" fill="#5E6175"/>
<circle cx="398" cy="288" r="6" fill="#5E6175"/>
<circle cx="445" cy="288" r="6" fill="#5E6175"/>
<circle cx="492" cy="288" r="6" fill="#5E6175"/>
<circle cx="95" cy="335" r="6" fill="#5E6175"/>
<circle cx="142" cy="335" r="6" fill="#5E6175"/>
<circle cx="189" cy="335" r="6" fill="#5E6175"/>
<circle cx="236" cy="335" r="6" fill="#5E6175"/>
<circle cx="283" cy="335" r="6" fill="#5E6175"/>
<circle cx="330" cy="335" r="6" fill="#5E6175"/>
<circle cx="377" cy="335" r="6" fill="#5E6175"/>
<circle cx="424" cy="335" r="6" fill="#5E6175"/>
<circle cx="471" cy="335" r="6" fill="#5E6175"/>
<circle cx="518" cy="335" r="6" fill="#5E6175"/>
<circle cx="74" cy="382" r="6" fill="#5E6175"/>
<circle cx="121" cy="382" r="6" fill="#5E6175"/>
<circle cx="168" cy="382" r="6" fill="#5E6175"/>
<circle cx="215" cy="382" r="6" fill="#5E6175"/>
<circle cx="262" cy="382" r="6" fill="#5E6175"/>
<circle cx="309" cy="382" r="6" fill="#5E6175"/>
<circle cx="356" cy="382" r="6" fill="#5E6175"/>
<circle cx="403" cy="382" r="6" fill="#5E6175"/>
<circle cx="450" cy="382" r="6" fill="#5E6175"/>
<circle cx="497" cy="382" r="6" fill="#5E6175"/>
<circle cx="544" cy="382" r="6" fill="#5E6175"/>
<circle cx="53" cy="429" r="6" fill="#5E6175"/>
<circle cx="100" cy="429" r="6" fill="#5E6175"/>
<circle cx="147" cy="429" r="6" fill="#5E6175"/>
<circle cx="194" cy="429" r="6" fill="#5E6175"/>
<circle cx="241" cy="429" r="6" fill="#5E6175"/>
<circle cx="288" cy="429" r="6" fill="#5E6175"/>
<circle cx="335" cy="429" r="6" fill="#5E6175"/>
<circle cx="382" cy="429" r="6" fill="#5E6175"/>
<circle cx="429" cy="429" r="6" fill="#5E6175"/>
<circle cx="476" cy="429" r="6" fill="#5E6175"/>
<circle cx="523" cy="429" r="6" fill="#5E6175"/>
<circle cx="570" cy="429" r="6" fill="#5E6175"/>
<circle cx="32" cy="476" r="6" fill="#5E6175"/>
<circle cx="79" cy="476" r="6" fill="#5E6175"/>
<circle cx="126" cy="476" r="6" fill="#5E6175"/>
<circle cx="173" cy="476" r="6" fill="#5E6175"/>
<circle cx="220" cy="476" r="6" fill="#5E6175"/>
<circle cx="267" cy="476" r="6" fill="#5E6175"/>
<circle cx="314" cy="476" r="6" fill="#5E6175"/>
<circle cx="361" cy="476" r="6" fill="#5E6175"/>
<circle cx="408" cy="476" r="6" fill="#5E6175"/>
<circle cx="455" cy="476" r="6" fill="#5E6175"/>
<circle cx="502" cy="476" r="6" fill="#5E6175"/>
<circle cx="549" cy="476" r="6" fill="#5E6175"/>
<circle cx="596" cy="476" r="6" fill="#5E6175"/>
<circle cx="11" cy="523" r="6" fill="#5E6175"/>
<circle cx="58" cy="523" r="6" fill="#5E6175"/>
<circle cx="105" cy="523" r="6" fill="#5E6175"/>
<circle cx="152" cy="523" r="6" fill="#5E6175"/>
<circle cx="199" cy="523" r="6" fill="#5E6175"/>
<circle cx="246" cy="523" r="6" fill="#5E6175"/>
<circle cx="293" cy="523" r="6" fill="#5E6175"/>
<circle cx="340" cy="523" r="6" fill="#5E6175"/>
<circle cx="387" cy="523" r="6" fill="#5E6175"/>
<circle cx="434" cy="523" r="6" fill="#5E6175"/>
<circle cx="481" cy="523" r="6" fill="#5E6175"/>
<circle cx="528" cy="523" r="6" fill="#5E6175"/>
<circle cx="575" cy="523" r="6" fill="#5E6175"/>
<circle cx="622" cy="523" r="6" fill="#5E6175"/>
</g>
<path d="M8 554.783C8 552.905 9.81945 551.563 11.6141 552.119C22.9511 555.628 35.0726 555.706 46.4539 552.343L47.2559 552.106C49.1252 551.554 51 552.955 51 554.904V576C51 579.866 47.866 583 44 583H15C11.134 583 8 579.866 8 576V554.783Z" fill="#2850B6"/>
<g filter="url(#filter1_i_501_188950)">
<path d="M8 554.455C8 551.25 11.1046 548.961 14.1668 549.909C23.8392 552.903 34.181 552.969 43.8911 550.1L44.6008 549.891C47.7957 548.947 51 551.341 51 554.673V573C51 576.866 47.866 580 44 580H15C11.134 580 8 576.866 8 573V554.455Z" fill="#20A1EC"/>
</g>
<path d="M23.864 570H22.33L20.705 567.686L19.067 570H17.546L19.847 566.776L17.676 563.721H19.21L20.705 565.853L22.187 563.721H23.721L21.55 566.776L23.864 570ZM27.9472 570H26.4262V563.305L25.0092 564.774L24.1252 563.851L26.6212 561.329H27.9472V570ZM32.1057 570H30.4417L33.7177 562.668H29.2197V561.329H35.4727V562.382L32.1057 570ZM42.7166 570H36.4376V568.804C38.2489 567.435 39.4796 566.421 40.1296 565.762C40.7883 565.095 41.1176 564.466 41.1176 563.877C41.1176 563.452 40.9616 563.127 40.6496 562.902C40.3463 562.668 39.9779 562.551 39.5446 562.551C38.5913 562.551 37.8113 562.898 37.2046 563.591L36.3206 562.59C36.6933 562.139 37.1613 561.797 37.7246 561.563C38.2966 561.32 38.8946 561.199 39.5186 561.199C40.4026 561.199 41.1479 561.437 41.7546 561.914C42.3613 562.391 42.6646 563.045 42.6646 563.877C42.6646 564.622 42.3526 565.363 41.7286 566.1C41.1046 566.837 40.1513 567.69 38.8686 568.661H42.7166V570Z" fill="white"/>
<path d="M56 554.783C56 552.905 57.8194 551.563 59.6141 552.119C70.9511 555.628 83.0726 555.706 94.4539 552.343L95.2559 552.106C97.1252 551.554 99 552.955 99 554.904V576C99 579.866 95.866 583 92 583H63C59.134 583 56 579.866 56 576V554.783Z" fill="#2850B6"/>
<g filter="url(#filter2_i_501_188950)">
<path d="M56 554.455C56 551.25 59.1046 548.961 62.1668 549.909V549.909C71.8392 552.903 82.181 552.969 91.8911 550.1L92.6008 549.891C95.7957 548.947 99 551.341 99 554.673V573C99 576.866 95.866 580 92 580H63C59.134 580 56 576.866 56 573V554.455Z" fill="#20A1EC"/>
</g>
<path d="M73.5222 570H71.9882L70.3632 567.686L68.7252 570H67.2042L69.5052 566.776L67.3342 563.721H68.8682L70.3632 565.853L71.8452 563.721H73.3792L71.2082 566.776L73.5222 570ZM80.5174 570H74.2384V568.804C76.0497 567.435 77.2804 566.421 77.9304 565.762C78.589 565.095 78.9184 564.466 78.9184 563.877C78.9184 563.452 78.7624 563.127 78.4504 562.902C78.147 562.668 77.7787 562.551 77.3454 562.551C76.392 562.551 75.612 562.898 75.0054 563.591L74.1214 562.59C74.494 562.139 74.962 561.797 75.5254 561.563C76.0974 561.32 76.6954 561.199 77.3194 561.199C78.2034 561.199 78.9487 561.437 79.5554 561.914C80.162 562.391 80.4654 563.045 80.4654 563.877C80.4654 564.622 80.1534 565.363 79.5294 566.1C78.9054 566.837 77.952 567.69 76.6694 568.661H80.5174V570ZM87.3388 570H85.8178V568.037H81.6838V566.815L85.2458 561.329H87.3388V566.698H88.4958V568.037H87.3388V570ZM85.8178 566.698V562.694L83.1788 566.698H85.8178Z" fill="white"/>
<g filter="url(#filter3_i_501_188950)">
<path d="M104 554.783C104 552.905 105.819 551.563 107.614 552.119C118.951 555.628 131.073 555.706 142.454 552.343L143.256 552.106C145.125 551.554 147 552.955 147 554.904V576C147 579.866 143.866 583 140 583H111C107.134 583 104 579.866 104 576V554.783Z" fill="#2850B6"/>
</g>
<g filter="url(#filter4_i_501_188950)">
<path d="M104 554.455C104 551.25 107.105 548.961 110.167 549.909C119.839 552.903 130.181 552.969 139.891 550.1L140.601 549.891C143.796 548.947 147 551.341 147 554.673V573C147 576.866 143.866 580 140 580H111C107.134 580 104 576.866 104 573V554.455Z" fill="#20A1EC"/>
</g>
<path d="M121.814 570H120.28L118.655 567.686L117.017 570H115.496L117.797 566.776L115.626 563.721H117.16L118.655 565.853L120.137 563.721H121.671L119.5 566.776L121.814 570ZM128.107 569.532C127.475 569.948 126.69 570.156 125.754 570.156C124.818 570.156 124.03 569.948 123.388 569.532C122.747 569.107 122.426 568.522 122.426 567.777C122.426 567.248 122.608 566.789 122.972 566.399C123.345 566.009 123.813 565.719 124.376 565.528C123.839 565.355 123.401 565.099 123.063 564.761C122.734 564.423 122.569 563.994 122.569 563.474C122.569 563.093 122.66 562.75 122.842 562.447C123.033 562.144 123.28 561.905 123.583 561.732C123.895 561.559 124.233 561.429 124.597 561.342C124.97 561.247 125.356 561.199 125.754 561.199C126.153 561.199 126.534 561.247 126.898 561.342C127.262 561.429 127.6 561.559 127.912 561.732C128.224 561.905 128.471 562.144 128.653 562.447C128.844 562.75 128.939 563.093 128.939 563.474C128.939 564.453 128.333 565.138 127.119 565.528C127.683 565.719 128.146 566.009 128.51 566.399C128.883 566.789 129.069 567.248 129.069 567.777C129.069 568.522 128.749 569.107 128.107 569.532ZM125.754 564.93C125.988 564.887 126.214 564.83 126.43 564.761C126.647 564.683 126.859 564.553 127.067 564.371C127.284 564.18 127.392 563.959 127.392 563.708C127.392 563.353 127.236 563.071 126.924 562.863C126.621 562.655 126.231 562.551 125.754 562.551C125.269 562.551 124.87 562.655 124.558 562.863C124.255 563.071 124.103 563.353 124.103 563.708C124.103 563.959 124.212 564.18 124.428 564.371C124.645 564.553 124.862 564.683 125.078 564.761C125.295 564.83 125.52 564.887 125.754 564.93ZM125.754 568.804C126.248 568.804 126.669 568.691 127.015 568.466C127.362 568.241 127.535 567.946 127.535 567.582C127.535 567.192 127.332 566.88 126.924 566.646C126.526 566.403 126.136 566.26 125.754 566.217C125.529 566.243 125.291 566.304 125.039 566.399C124.788 566.486 124.545 566.637 124.311 566.854C124.077 567.062 123.96 567.305 123.96 567.582C123.96 567.946 124.129 568.241 124.467 568.466C124.814 568.691 125.243 568.804 125.754 568.804ZM131.835 569.883C131.653 570.056 131.44 570.143 131.198 570.143C130.955 570.143 130.743 570.056 130.561 569.883C130.379 569.701 130.288 569.484 130.288 569.233C130.288 568.982 130.379 568.769 130.561 568.596C130.743 568.414 130.955 568.323 131.198 568.323C131.44 568.323 131.653 568.414 131.835 568.596C132.017 568.769 132.108 568.982 132.108 569.233C132.108 569.484 132.017 569.701 131.835 569.883ZM135.647 570H134.126V563.305L132.709 564.774L131.825 563.851L134.321 561.329H135.647V570Z" fill="white"/>
<g filter="url(#filter5_i_501_188950)">
<path d="M248 554.783C248 552.905 249.819 551.563 251.614 552.119C262.951 555.628 275.073 555.706 286.454 552.343L287.256 552.106C289.125 551.554 291 552.955 291 554.904V576C291 579.866 287.866 583 284 583H255C251.134 583 248 579.866 248 576V554.783Z" fill="#2850B6"/>
<path d="M248 554.455C248 551.25 251.105 548.961 254.167 549.909C263.839 552.903 274.181 552.969 283.891 550.1L284.601 549.891C287.796 548.947 291 551.341 291 554.673V573C291 576.866 287.866 580 284 580H255C251.134 580 248 576.866 248 573V554.455Z" fill="#20A1EC"/>
<path d="M263.859 570H262.325L260.7 567.686L259.062 570H257.541L259.842 566.776L257.671 563.721H259.205L260.7 565.853L262.182 563.721H263.716L261.545 566.776L263.859 570ZM270.854 570H264.575V568.804C266.387 567.435 267.617 566.421 268.267 565.762C268.926 565.095 269.255 564.466 269.255 563.877C269.255 563.452 269.099 563.127 268.787 562.902C268.484 562.668 268.116 562.551 267.682 562.551C266.729 562.551 265.949 562.898 265.342 563.591L264.458 562.59C264.831 562.139 265.299 561.797 265.862 561.563C266.434 561.32 267.032 561.199 267.656 561.199C268.54 561.199 269.286 561.437 269.892 561.914C270.499 562.391 270.802 563.045 270.802 563.877C270.802 564.622 270.49 565.363 269.866 566.1C269.242 566.837 268.289 567.69 267.006 568.661H270.854V570ZM273.88 569.883C273.698 570.056 273.485 570.143 273.243 570.143C273 570.143 272.788 570.056 272.606 569.883C272.424 569.701 272.333 569.484 272.333 569.233C272.333 568.982 272.424 568.769 272.606 568.596C272.788 568.414 273 568.323 273.243 568.323C273.485 568.323 273.698 568.414 273.88 568.596C274.062 568.769 274.153 568.982 274.153 569.233C274.153 569.484 274.062 569.701 273.88 569.883ZM280.077 569.766C279.618 570.026 279.098 570.156 278.517 570.156C277.937 570.156 277.417 570.026 276.957 569.766C276.498 569.506 276.134 569.159 275.865 568.726C275.597 568.293 275.393 567.816 275.254 567.296C275.116 566.776 275.046 566.234 275.046 565.671C275.046 565.108 275.116 564.566 275.254 564.046C275.393 563.526 275.597 563.054 275.865 562.629C276.134 562.196 276.498 561.849 276.957 561.589C277.417 561.329 277.937 561.199 278.517 561.199C279.098 561.199 279.618 561.329 280.077 561.589C280.537 561.849 280.901 562.196 281.169 562.629C281.438 563.054 281.642 563.526 281.78 564.046C281.919 564.566 281.988 565.108 281.988 565.671C281.988 566.234 281.919 566.776 281.78 567.296C281.642 567.816 281.438 568.293 281.169 568.726C280.901 569.159 280.537 569.506 280.077 569.766ZM277.061 567.92C277.373 568.509 277.859 568.804 278.517 568.804C279.176 568.804 279.661 568.509 279.973 567.92C280.285 567.331 280.441 566.581 280.441 565.671C280.441 565.09 280.381 564.575 280.259 564.124C280.147 563.673 279.939 563.301 279.635 563.006C279.341 562.703 278.968 562.551 278.517 562.551C278.067 562.551 277.69 562.703 277.386 563.006C277.092 563.301 276.884 563.673 276.762 564.124C276.65 564.575 276.593 565.09 276.593 565.671C276.593 566.581 276.749 567.331 277.061 567.92Z" fill="white"/>
</g>
<g filter="url(#filter6_i_501_188950)">
<path d="M200 554.783C200 552.905 201.819 551.563 203.614 552.119C214.951 555.628 227.073 555.706 238.454 552.343L239.256 552.106C241.125 551.554 243 552.955 243 554.904V576C243 579.866 239.866 583 236 583H207C203.134 583 200 579.866 200 576V554.783Z" fill="#2850B6"/>
<path d="M200 554.455C200 551.25 203.105 548.961 206.167 549.909C215.839 552.903 226.181 552.969 235.891 550.1L236.601 549.891C239.796 548.947 243 551.341 243 554.673V573C243 576.866 239.866 580 236 580H207C203.134 580 200 576.866 200 573V554.455Z" fill="#20A1EC"/>
<path d="M216.722 570H215.188L213.563 567.686L211.925 570H210.404L212.705 566.776L210.534 563.721H212.068L213.563 565.853L215.045 563.721H216.579L214.408 566.776L216.722 570ZM222.353 569.766C221.893 570.026 221.373 570.156 220.793 570.156C220.212 570.156 219.692 570.026 219.233 569.766C218.773 569.506 218.409 569.159 218.141 568.726C217.872 568.293 217.668 567.816 217.53 567.296C217.391 566.776 217.322 566.234 217.322 565.671C217.322 565.108 217.391 564.566 217.53 564.046C217.668 563.526 217.872 563.054 218.141 562.629C218.409 562.196 218.773 561.849 219.233 561.589C219.692 561.329 220.212 561.199 220.793 561.199C221.373 561.199 221.893 561.329 222.353 561.589C222.812 561.849 223.176 562.196 223.445 562.629C223.713 563.054 223.917 563.526 224.056 564.046C224.194 564.566 224.264 565.108 224.264 565.671C224.264 566.234 224.194 566.776 224.056 567.296C223.917 567.816 223.713 568.293 223.445 568.726C223.176 569.159 222.812 569.506 222.353 569.766ZM219.337 567.92C219.649 568.509 220.134 568.804 220.793 568.804C221.451 568.804 221.937 568.509 222.249 567.92C222.561 567.331 222.717 566.581 222.717 565.671C222.717 565.09 222.656 564.575 222.535 564.124C222.422 563.673 222.214 563.301 221.911 563.006C221.616 562.703 221.243 562.551 220.793 562.551C220.342 562.551 219.965 562.703 219.662 563.006C219.367 563.301 219.159 563.673 219.038 564.124C218.925 564.575 218.869 565.09 218.869 565.671C218.869 566.581 219.025 567.331 219.337 567.92ZM226.692 569.883C226.51 570.056 226.298 570.143 226.055 570.143C225.813 570.143 225.6 570.056 225.418 569.883C225.236 569.701 225.145 569.484 225.145 569.233C225.145 568.982 225.236 568.769 225.418 568.596C225.6 568.414 225.813 568.323 226.055 568.323C226.298 568.323 226.51 568.414 226.692 568.596C226.874 568.769 226.965 568.982 226.965 569.233C226.965 569.484 226.874 569.701 226.692 569.883ZM229.979 570H228.315L231.591 562.668H227.093V561.329H233.346V562.382L229.979 570Z" fill="white"/>
</g>
<g filter="url(#filter7_i_501_188950)">
<path d="M152 554.783C152 552.905 153.819 551.563 155.614 552.119C166.951 555.628 179.073 555.706 190.454 552.343L191.256 552.106C193.125 551.554 195 552.955 195 554.904V576C195 579.866 191.866 583 188 583H159C155.134 583 152 579.866 152 576V554.783Z" fill="#2850B6"/>
<path d="M152 554.455C152 551.25 155.105 548.961 158.167 549.909C167.839 552.903 178.181 552.969 187.891 550.1L188.601 549.891C191.796 548.947 195 551.341 195 554.673V573C195 576.866 191.866 580 188 580H159C155.134 580 152 576.866 152 573V554.455Z" fill="#20A1EC"/>
<path d="M167.859 570H166.325L164.7 567.686L163.062 570H161.541L163.842 566.776L161.671 563.721H163.205L164.7 565.853L166.182 563.721H167.716L165.545 566.776L167.859 570ZM173.489 569.766C173.03 570.026 172.51 570.156 171.929 570.156C171.349 570.156 170.829 570.026 170.369 569.766C169.91 569.506 169.546 569.159 169.277 568.726C169.009 568.293 168.805 567.816 168.666 567.296C168.528 566.776 168.458 566.234 168.458 565.671C168.458 565.108 168.528 564.566 168.666 564.046C168.805 563.526 169.009 563.054 169.277 562.629C169.546 562.196 169.91 561.849 170.369 561.589C170.829 561.329 171.349 561.199 171.929 561.199C172.51 561.199 173.03 561.329 173.489 561.589C173.949 561.849 174.313 562.196 174.581 562.629C174.85 563.054 175.054 563.526 175.192 564.046C175.331 564.566 175.4 565.108 175.4 565.671C175.4 566.234 175.331 566.776 175.192 567.296C175.054 567.816 174.85 568.293 174.581 568.726C174.313 569.159 173.949 569.506 173.489 569.766ZM170.473 567.92C170.785 568.509 171.271 568.804 171.929 568.804C172.588 568.804 173.073 568.509 173.385 567.92C173.697 567.331 173.853 566.581 173.853 565.671C173.853 565.09 173.793 564.575 173.671 564.124C173.559 563.673 173.351 563.301 173.047 563.006C172.753 562.703 172.38 562.551 171.929 562.551C171.479 562.551 171.102 562.703 170.798 563.006C170.504 563.301 170.296 563.673 170.174 564.124C170.062 564.575 170.005 565.09 170.005 565.671C170.005 566.581 170.161 567.331 170.473 567.92ZM177.829 569.883C177.647 570.056 177.435 570.143 177.192 570.143C176.949 570.143 176.737 570.056 176.555 569.883C176.373 569.701 176.282 569.484 176.282 569.233C176.282 568.982 176.373 568.769 176.555 568.596C176.737 568.414 176.949 568.323 177.192 568.323C177.435 568.323 177.647 568.414 177.829 568.596C178.011 568.769 178.102 568.982 178.102 569.233C178.102 569.484 178.011 569.701 177.829 569.883ZM185.721 570H179.442V568.804C181.254 567.435 182.484 566.421 183.134 565.762C183.793 565.095 184.122 564.466 184.122 563.877C184.122 563.452 183.966 563.127 183.654 562.902C183.351 562.668 182.983 562.551 182.549 562.551C181.596 562.551 180.816 562.898 180.209 563.591L179.325 562.59C179.698 562.139 180.166 561.797 180.729 561.563C181.301 561.32 181.899 561.199 182.523 561.199C183.407 561.199 184.153 561.437 184.759 561.914C185.366 562.391 185.669 563.045 185.669 563.877C185.669 564.622 185.357 565.363 184.733 566.1C184.109 566.837 183.156 567.69 181.873 568.661H185.721V570Z" fill="white"/>
</g>
<path d="M296 554.783C296 552.905 297.819 551.563 299.614 552.119C310.951 555.628 323.073 555.706 334.454 552.343L335.256 552.106C337.125 551.554 339 552.955 339 554.904V576C339 579.866 335.866 583 332 583H303C299.134 583 296 579.866 296 576V554.783Z" fill="#2850B6"/>
<path d="M296 554.455C296 551.25 299.105 548.961 302.167 549.909C311.839 552.903 322.181 552.969 331.891 550.1L332.601 549.891C335.796 548.947 339 551.341 339 554.673V573C339 576.866 335.866 580 332 580H303C299.134 580 296 576.866 296 573V554.455Z" fill="#20A1EC"/>
<path d="M313.84 570H312.306L310.681 567.686L309.043 570H307.522L309.823 566.776L307.652 563.721H309.186L310.681 565.853L312.163 563.721H313.697L311.526 566.776L313.84 570ZM319.47 569.766C319.01 570.026 318.49 570.156 317.91 570.156C317.329 570.156 316.809 570.026 316.35 569.766C315.89 569.506 315.526 569.159 315.258 568.726C314.989 568.293 314.785 567.816 314.647 567.296C314.508 566.776 314.439 566.234 314.439 565.671C314.439 565.108 314.508 564.566 314.647 564.046C314.785 563.526 314.989 563.054 315.258 562.629C315.526 562.196 315.89 561.849 316.35 561.589C316.809 561.329 317.329 561.199 317.91 561.199C318.49 561.199 319.01 561.329 319.47 561.589C319.929 561.849 320.293 562.196 320.562 562.629C320.83 563.054 321.034 563.526 321.173 564.046C321.311 564.566 321.381 565.108 321.381 565.671C321.381 566.234 321.311 566.776 321.173 567.296C321.034 567.816 320.83 568.293 320.562 568.726C320.293 569.159 319.929 569.506 319.47 569.766ZM316.454 567.92C316.766 568.509 317.251 568.804 317.91 568.804C318.568 568.804 319.054 568.509 319.366 567.92C319.678 567.331 319.834 566.581 319.834 565.671C319.834 565.09 319.773 564.575 319.652 564.124C319.539 563.673 319.331 563.301 319.028 563.006C318.733 562.703 318.36 562.551 317.91 562.551C317.459 562.551 317.082 562.703 316.779 563.006C316.484 563.301 316.276 563.673 316.155 564.124C316.042 564.575 315.986 565.09 315.986 565.671C315.986 566.581 316.142 567.331 316.454 567.92ZM323.809 569.883C323.627 570.056 323.415 570.143 323.172 570.143C322.93 570.143 322.717 570.056 322.535 569.883C322.353 569.701 322.262 569.484 322.262 569.233C322.262 568.982 322.353 568.769 322.535 568.596C322.717 568.414 322.93 568.323 323.172 568.323C323.415 568.323 323.627 568.414 323.809 568.596C323.991 568.769 324.082 568.982 324.082 569.233C324.082 569.484 323.991 569.701 323.809 569.883ZM327.622 570H326.101V563.305L324.684 564.774L323.8 563.851L326.296 561.329H327.622V570Z" fill="white"/>
<path d="M344 554.783C344 552.905 345.819 551.563 347.614 552.119C358.951 555.628 371.073 555.706 382.454 552.343L383.256 552.106C385.125 551.554 387 552.955 387 554.904V576C387 579.866 383.866 583 380 583H351C347.134 583 344 579.866 344 576V554.783Z" fill="#2850B6"/>
<path d="M344 554.455C344 551.25 347.105 548.961 350.167 549.909C359.839 552.903 370.181 552.969 379.891 550.1L380.601 549.891C383.796 548.947 387 551.341 387 554.673V573C387 576.866 383.866 580 380 580H351C347.134 580 344 576.866 344 573V554.455Z" fill="#20A1EC"/>
<path d="M359.859 570H358.325L356.7 567.686L355.062 570H353.541L355.842 566.776L353.671 563.721H355.205L356.7 565.853L358.182 563.721H359.716L357.545 566.776L359.859 570ZM365.489 569.766C365.03 570.026 364.51 570.156 363.929 570.156C363.349 570.156 362.829 570.026 362.369 569.766C361.91 569.506 361.546 569.159 361.277 568.726C361.009 568.293 360.805 567.816 360.666 567.296C360.528 566.776 360.458 566.234 360.458 565.671C360.458 565.108 360.528 564.566 360.666 564.046C360.805 563.526 361.009 563.054 361.277 562.629C361.546 562.196 361.91 561.849 362.369 561.589C362.829 561.329 363.349 561.199 363.929 561.199C364.51 561.199 365.03 561.329 365.489 561.589C365.949 561.849 366.313 562.196 366.581 562.629C366.85 563.054 367.054 563.526 367.192 564.046C367.331 564.566 367.4 565.108 367.4 565.671C367.4 566.234 367.331 566.776 367.192 567.296C367.054 567.816 366.85 568.293 366.581 568.726C366.313 569.159 365.949 569.506 365.489 569.766ZM362.473 567.92C362.785 568.509 363.271 568.804 363.929 568.804C364.588 568.804 365.073 568.509 365.385 567.92C365.697 567.331 365.853 566.581 365.853 565.671C365.853 565.09 365.793 564.575 365.671 564.124C365.559 563.673 365.351 563.301 365.047 563.006C364.753 562.703 364.38 562.551 363.929 562.551C363.479 562.551 363.102 562.703 362.798 563.006C362.504 563.301 362.296 563.673 362.174 564.124C362.062 564.575 362.005 565.09 362.005 565.671C362.005 566.581 362.161 567.331 362.473 567.92ZM369.829 569.883C369.647 570.056 369.435 570.143 369.192 570.143C368.949 570.143 368.737 570.056 368.555 569.883C368.373 569.701 368.282 569.484 368.282 569.233C368.282 568.982 368.373 568.769 368.555 568.596C368.737 568.414 368.949 568.323 369.192 568.323C369.435 568.323 369.647 568.414 369.829 568.596C370.011 568.769 370.102 568.982 370.102 569.233C370.102 569.484 370.011 569.701 369.829 569.883ZM377.721 570H371.442V568.804C373.254 567.435 374.484 566.421 375.134 565.762C375.793 565.095 376.122 564.466 376.122 563.877C376.122 563.452 375.966 563.127 375.654 562.902C375.351 562.668 374.983 562.551 374.549 562.551C373.596 562.551 372.816 562.898 372.209 563.591L371.325 562.59C371.698 562.139 372.166 561.797 372.729 561.563C373.301 561.32 373.899 561.199 374.523 561.199C375.407 561.199 376.153 561.437 376.759 561.914C377.366 562.391 377.669 563.045 377.669 563.877C377.669 564.622 377.357 565.363 376.733 566.1C376.109 566.837 375.156 567.69 373.873 568.661H377.721V570Z" fill="white"/>
<path d="M392 554.783C392 552.905 393.819 551.563 395.614 552.119C406.951 555.628 419.073 555.706 430.454 552.343L431.256 552.106C433.125 551.554 435 552.955 435 554.904V576C435 579.866 431.866 583 428 583H399C395.134 583 392 579.866 392 576V554.783Z" fill="#2850B6"/>
<path d="M392 554.455C392 551.25 395.105 548.961 398.167 549.909C407.839 552.903 418.181 552.969 427.891 550.1L428.601 549.891C431.796 548.947 435 551.341 435 554.673V573C435 576.866 431.866 580 428 580H399C395.134 580 392 576.866 392 573V554.455Z" fill="#20A1EC"/>
<path d="M408.722 570H407.188L405.563 567.686L403.925 570H402.404L404.705 566.776L402.534 563.721H404.068L405.563 565.853L407.045 563.721H408.579L406.408 566.776L408.722 570ZM414.353 569.766C413.893 570.026 413.373 570.156 412.793 570.156C412.212 570.156 411.692 570.026 411.233 569.766C410.773 569.506 410.409 569.159 410.141 568.726C409.872 568.293 409.668 567.816 409.53 567.296C409.391 566.776 409.322 566.234 409.322 565.671C409.322 565.108 409.391 564.566 409.53 564.046C409.668 563.526 409.872 563.054 410.141 562.629C410.409 562.196 410.773 561.849 411.233 561.589C411.692 561.329 412.212 561.199 412.793 561.199C413.373 561.199 413.893 561.329 414.353 561.589C414.812 561.849 415.176 562.196 415.445 562.629C415.713 563.054 415.917 563.526 416.056 564.046C416.194 564.566 416.264 565.108 416.264 565.671C416.264 566.234 416.194 566.776 416.056 567.296C415.917 567.816 415.713 568.293 415.445 568.726C415.176 569.159 414.812 569.506 414.353 569.766ZM411.337 567.92C411.649 568.509 412.134 568.804 412.793 568.804C413.451 568.804 413.937 568.509 414.249 567.92C414.561 567.331 414.717 566.581 414.717 565.671C414.717 565.09 414.656 564.575 414.535 564.124C414.422 563.673 414.214 563.301 413.911 563.006C413.616 562.703 413.243 562.551 412.793 562.551C412.342 562.551 411.965 562.703 411.662 563.006C411.367 563.301 411.159 563.673 411.038 564.124C410.925 564.575 410.869 565.09 410.869 565.671C410.869 566.581 411.025 567.331 411.337 567.92ZM418.692 569.883C418.51 570.056 418.298 570.143 418.055 570.143C417.813 570.143 417.6 570.056 417.418 569.883C417.236 569.701 417.145 569.484 417.145 569.233C417.145 568.982 417.236 568.769 417.418 568.596C417.6 568.414 417.813 568.323 418.055 568.323C418.298 568.323 418.51 568.414 418.692 568.596C418.874 568.769 418.965 568.982 418.965 569.233C418.965 569.484 418.874 569.701 418.692 569.883ZM421.979 570H420.315L423.591 562.668H419.093V561.329H425.346V562.382L421.979 570Z" fill="white"/>
<path d="M440 554.783C440 552.905 441.819 551.563 443.614 552.119C454.951 555.628 467.073 555.706 478.454 552.343L479.256 552.106C481.125 551.554 483 552.955 483 554.904V576C483 579.866 479.866 583 476 583H447C443.134 583 440 579.866 440 576V554.783Z" fill="#2850B6"/>
<path d="M440 554.455C440 551.25 443.105 548.961 446.167 549.909V549.909C455.839 552.903 466.181 552.969 475.891 550.1L476.601 549.891C479.796 548.947 483 551.341 483 554.673V573C483 576.866 479.866 580 476 580H447C443.134 580 440 576.866 440 573V554.455Z" fill="#20A1EC"/>
<path d="M455.859 570H454.325L452.7 567.686L451.062 570H449.541L451.842 566.776L449.671 563.721H451.205L452.7 565.853L454.182 563.721H455.716L453.545 566.776L455.859 570ZM462.854 570H456.575V568.804C458.387 567.435 459.617 566.421 460.267 565.762C460.926 565.095 461.255 564.466 461.255 563.877C461.255 563.452 461.099 563.127 460.787 562.902C460.484 562.668 460.116 562.551 459.682 562.551C458.729 562.551 457.949 562.898 457.342 563.591L456.458 562.59C456.831 562.139 457.299 561.797 457.862 561.563C458.434 561.32 459.032 561.199 459.656 561.199C460.54 561.199 461.286 561.437 461.892 561.914C462.499 562.391 462.802 563.045 462.802 563.877C462.802 564.622 462.49 565.363 461.866 566.1C461.242 566.837 460.289 567.69 459.006 568.661H462.854V570ZM465.88 569.883C465.698 570.056 465.485 570.143 465.243 570.143C465 570.143 464.788 570.056 464.606 569.883C464.424 569.701 464.333 569.484 464.333 569.233C464.333 568.982 464.424 568.769 464.606 568.596C464.788 568.414 465 568.323 465.243 568.323C465.485 568.323 465.698 568.414 465.88 568.596C466.062 568.769 466.153 568.982 466.153 569.233C466.153 569.484 466.062 569.701 465.88 569.883ZM472.077 569.766C471.618 570.026 471.098 570.156 470.517 570.156C469.937 570.156 469.417 570.026 468.957 569.766C468.498 569.506 468.134 569.159 467.865 568.726C467.597 568.293 467.393 567.816 467.254 567.296C467.116 566.776 467.046 566.234 467.046 565.671C467.046 565.108 467.116 564.566 467.254 564.046C467.393 563.526 467.597 563.054 467.865 562.629C468.134 562.196 468.498 561.849 468.957 561.589C469.417 561.329 469.937 561.199 470.517 561.199C471.098 561.199 471.618 561.329 472.077 561.589C472.537 561.849 472.901 562.196 473.169 562.629C473.438 563.054 473.642 563.526 473.78 564.046C473.919 564.566 473.988 565.108 473.988 565.671C473.988 566.234 473.919 566.776 473.78 567.296C473.642 567.816 473.438 568.293 473.169 568.726C472.901 569.159 472.537 569.506 472.077 569.766ZM469.061 567.92C469.373 568.509 469.859 568.804 470.517 568.804C471.176 568.804 471.661 568.509 471.973 567.92C472.285 567.331 472.441 566.581 472.441 565.671C472.441 565.09 472.381 564.575 472.259 564.124C472.147 563.673 471.939 563.301 471.635 563.006C471.341 562.703 470.968 562.551 470.517 562.551C470.067 562.551 469.69 562.703 469.386 563.006C469.092 563.301 468.884 563.673 468.762 564.124C468.65 564.575 468.593 565.09 468.593 565.671C468.593 566.581 468.749 567.331 469.061 567.92Z" fill="white"/>
<path d="M488 554.783C488 552.905 489.819 551.563 491.614 552.119C502.951 555.628 515.073 555.706 526.454 552.343L527.256 552.106C529.125 551.554 531 552.955 531 554.904V576C531 579.866 527.866 583 524 583H495C491.134 583 488 579.866 488 576V554.783Z" fill="#2850B6"/>
<path d="M488 554.455C488 551.25 491.105 548.961 494.167 549.909C503.839 552.903 514.181 552.969 523.891 550.1L524.601 549.891C527.796 548.947 531 551.341 531 554.673V573C531 576.866 527.866 580 524 580H495C491.134 580 488 576.866 488 573V554.455Z" fill="#20A1EC"/>
<path d="M505.814 570H504.28L502.655 567.686L501.017 570H499.496L501.797 566.776L499.626 563.721H501.16L502.655 565.853L504.137 563.721H505.671L503.5 566.776L505.814 570ZM512.107 569.532C511.475 569.948 510.69 570.156 509.754 570.156C508.818 570.156 508.03 569.948 507.388 569.532C506.747 569.107 506.426 568.522 506.426 567.777C506.426 567.248 506.608 566.789 506.972 566.399C507.345 566.009 507.813 565.719 508.376 565.528C507.839 565.355 507.401 565.099 507.063 564.761C506.734 564.423 506.569 563.994 506.569 563.474C506.569 563.093 506.66 562.75 506.842 562.447C507.033 562.144 507.28 561.905 507.583 561.732C507.895 561.559 508.233 561.429 508.597 561.342C508.97 561.247 509.356 561.199 509.754 561.199C510.153 561.199 510.534 561.247 510.898 561.342C511.262 561.429 511.6 561.559 511.912 561.732C512.224 561.905 512.471 562.144 512.653 562.447C512.844 562.75 512.939 563.093 512.939 563.474C512.939 564.453 512.333 565.138 511.119 565.528C511.683 565.719 512.146 566.009 512.51 566.399C512.883 566.789 513.069 567.248 513.069 567.777C513.069 568.522 512.749 569.107 512.107 569.532ZM509.754 564.93C509.988 564.887 510.214 564.83 510.43 564.761C510.647 564.683 510.859 564.553 511.067 564.371C511.284 564.18 511.392 563.959 511.392 563.708C511.392 563.353 511.236 563.071 510.924 562.863C510.621 562.655 510.231 562.551 509.754 562.551C509.269 562.551 508.87 562.655 508.558 562.863C508.255 563.071 508.103 563.353 508.103 563.708C508.103 563.959 508.212 564.18 508.428 564.371C508.645 564.553 508.862 564.683 509.078 564.761C509.295 564.83 509.52 564.887 509.754 564.93ZM509.754 568.804C510.248 568.804 510.669 568.691 511.015 568.466C511.362 568.241 511.535 567.946 511.535 567.582C511.535 567.192 511.332 566.88 510.924 566.646C510.526 566.403 510.136 566.26 509.754 566.217C509.529 566.243 509.291 566.304 509.039 566.399C508.788 566.486 508.545 566.637 508.311 566.854C508.077 567.062 507.96 567.305 507.96 567.582C507.96 567.946 508.129 568.241 508.467 568.466C508.814 568.691 509.243 568.804 509.754 568.804ZM515.835 569.883C515.653 570.056 515.44 570.143 515.198 570.143C514.955 570.143 514.743 570.056 514.561 569.883C514.379 569.701 514.288 569.484 514.288 569.233C514.288 568.982 514.379 568.769 514.561 568.596C514.743 568.414 514.955 568.323 515.198 568.323C515.44 568.323 515.653 568.414 515.835 568.596C516.017 568.769 516.108 568.982 516.108 569.233C516.108 569.484 516.017 569.701 515.835 569.883ZM519.647 570H518.126V563.305L516.709 564.774L515.825 563.851L518.321 561.329H519.647V570Z" fill="white"/>
<path d="M536 554.783C536 552.905 537.819 551.563 539.614 552.119C550.951 555.628 563.073 555.706 574.454 552.343L575.256 552.106C577.125 551.554 579 552.955 579 554.904V576C579 579.866 575.866 583 572 583H543C539.134 583 536 579.866 536 576V554.783Z" fill="#2850B6"/>
<path d="M536 554.455C536 551.25 539.105 548.961 542.167 549.909C551.839 552.903 562.181 552.969 571.891 550.1L572.601 549.891C575.796 548.947 579 551.341 579 554.673V573C579 576.866 575.866 580 572 580H543C539.134 580 536 576.866 536 573V554.455Z" fill="#20A1EC"/>
<path d="M553.522 570H551.988L550.363 567.686L548.725 570H547.204L549.505 566.776L547.334 563.721H548.868L550.363 565.853L551.845 563.721H553.379L551.208 566.776L553.522 570ZM560.517 570H554.238V568.804C556.05 567.435 557.28 566.421 557.93 565.762C558.589 565.095 558.918 564.466 558.918 563.877C558.918 563.452 558.762 563.127 558.45 562.902C558.147 562.668 557.779 562.551 557.345 562.551C556.392 562.551 555.612 562.898 555.005 563.591L554.121 562.59C554.494 562.139 554.962 561.797 555.525 561.563C556.097 561.32 556.695 561.199 557.319 561.199C558.203 561.199 558.949 561.437 559.555 561.914C560.162 562.391 560.465 563.045 560.465 563.877C560.465 564.622 560.153 565.363 559.529 566.1C558.905 566.837 557.952 567.69 556.669 568.661H560.517V570ZM567.339 570H565.818V568.037H561.684V566.815L565.246 561.329H567.339V566.698H568.496V568.037H567.339V570ZM565.818 566.698V562.694L563.179 566.698H565.818Z" fill="white"/>
<path d="M584 554.783C584 552.905 585.819 551.563 587.614 552.119C598.951 555.628 611.073 555.706 622.454 552.343L623.256 552.106C625.125 551.554 627 552.955 627 554.904V576C627 579.866 623.866 583 620 583H591C587.134 583 584 579.866 584 576V554.783Z" fill="#2850B6"/>
<path d="M584 554.455C584 551.25 587.105 548.961 590.167 549.909C599.839 552.903 610.181 552.969 619.891 550.1L620.601 549.891C623.796 548.947 627 551.341 627 554.673V573C627 576.866 623.866 580 620 580H591C587.134 580 584 576.866 584 573V554.455Z" fill="#20A1EC"/>
<path d="M599.864 570H598.33L596.705 567.686L595.067 570H593.546L595.847 566.776L593.676 563.721H595.21L596.705 565.853L598.187 563.721H599.721L597.55 566.776L599.864 570ZM603.947 570H602.426V563.305L601.009 564.774L600.125 563.851L602.621 561.329H603.947V570ZM608.106 570H606.442L609.718 562.668H605.22V561.329H611.473V562.382L608.106 570ZM618.717 570H612.438V568.804C614.249 567.435 615.48 566.421 616.13 565.762C616.788 565.095 617.118 564.466 617.118 563.877C617.118 563.452 616.962 563.127 616.65 562.902C616.346 562.668 615.978 562.551 615.545 562.551C614.591 562.551 613.811 562.898 613.205 563.591L612.321 562.59C612.693 562.139 613.161 561.797 613.725 561.563C614.297 561.32 614.895 561.199 615.519 561.199C616.403 561.199 617.148 561.437 617.755 561.914C618.361 562.391 618.665 563.045 618.665 563.877C618.665 564.622 618.353 565.363 617.729 566.1C617.105 566.837 616.151 567.69 614.869 568.661H618.717V570Z" fill="white"/>
<defs>
<filter id="filter0_di_501_188950" x="0" y="-4" width="633" height="544" filterUnits="userSpaceOnUse" color-interpolation-filters="sRGB">
<feFlood flood-opacity="0" result="BackgroundImageFix"/>
<feColorMatrix in="SourceAlpha" type="matrix" values="0 0 0 0 0 0 0 0 0 0 0 0 0 0 0 0 0 0 127 0" result="hardAlpha"/>
<feOffset dy="6"/>
<feGaussianBlur stdDeviation="2.5"/>
<feComposite in2="hardAlpha" operator="out"/>
<feColorMatrix type="matrix" values="0 0 0 0 0 0 0 0 0 0 0 0 0 0 0 0 0 0 0.15 0"/>
<feBlend mode="normal" in2="BackgroundImageFix" result="effect1_dropShadow_501_188950"/>
<feBlend mode="normal" in="SourceGraphic" in2="effect1_dropShadow_501_188950" result="shape"/>
<feColorMatrix in="SourceAlpha" type="matrix" values="0 0 0 0 0 0 0 0 0 0 0 0 0 0 0 0 0 0 127 0" result="hardAlpha"/>
<feOffset dy="-4"/>
<feGaussianBlur stdDeviation="2"/>
<feComposite in2="hardAlpha" operator="arithmetic" k2="-1" k3="1"/>
<feColorMatrix type="matrix" values="0 0 0 0 0 0 0 0 0 0 0 0 0 0 0 0 0 0 0.25 0"/>
<feBlend mode="normal" in2="shape" result="effect2_innerShadow_501_188950"/>
</filter>
<filter id="filter1_i_501_188950" x="8" y="545.684" width="43" height="34.3164" filterUnits="userSpaceOnUse" color-interpolation-filters="sRGB">
<feFlood flood-opacity="0" result="BackgroundImageFix"/>
<feBlend mode="normal" in="SourceGraphic" in2="BackgroundImageFix" result="shape"/>
<feColorMatrix in="SourceAlpha" type="matrix" values="0 0 0 0 0 0 0 0 0 0 0 0 0 0 0 0 0 0 127 0" result="hardAlpha"/>
<feOffset dy="-4"/>
<feGaussianBlur stdDeviation="2"/>
<feComposite in2="hardAlpha" operator="arithmetic" k2="-1" k3="1"/>
<feColorMatrix type="matrix" values="0 0 0 0 0 0 0 0 0 0 0 0 0 0 0 0 0 0 0.22 0"/>
<feBlend mode="normal" in2="shape" result="effect1_innerShadow_501_188950"/>
</filter>
<filter id="filter2_i_501_188950" x="56" y="545.684" width="43" height="34.3164" filterUnits="userSpaceOnUse" color-interpolation-filters="sRGB">
<feFlood flood-opacity="0" result="BackgroundImageFix"/>
<feBlend mode="normal" in="SourceGraphic" in2="BackgroundImageFix" result="shape"/>
<feColorMatrix in="SourceAlpha" type="matrix" values="0 0 0 0 0 0 0 0 0 0 0 0 0 0 0 0 0 0 127 0" result="hardAlpha"/>
<feOffset dy="-4"/>
<feGaussianBlur stdDeviation="2"/>
<feComposite in2="hardAlpha" operator="arithmetic" k2="-1" k3="1"/>
<feColorMatrix type="matrix" values="0 0 0 0 0 0 0 0 0 0 0 0 0 0 0 0 0 0 0.22 0"/>
<feBlend mode="normal" in2="shape" result="effect1_innerShadow_501_188950"/>
</filter>
<filter id="filter3_i_501_188950" x="104" y="547.984" width="43" height="35.0156" filterUnits="userSpaceOnUse" color-interpolation-filters="sRGB">
<feFlood flood-opacity="0" result="BackgroundImageFix"/>
<feBlend mode="normal" in="SourceGraphic" in2="BackgroundImageFix" result="shape"/>
<feColorMatrix in="SourceAlpha" type="matrix" values="0 0 0 0 0 0 0 0 0 0 0 0 0 0 0 0 0 0 127 0" result="hardAlpha"/>
<feOffset dy="-4"/>
<feGaussianBlur stdDeviation="2"/>
<feComposite in2="hardAlpha" operator="arithmetic" k2="-1" k3="1"/>
<feColorMatrix type="matrix" values="0 0 0 0 0 0 0 0 0 0 0 0 0 0 0 0 0 0 0.22 0"/>
<feBlend mode="normal" in2="shape" result="effect1_innerShadow_501_188950"/>
</filter>
<filter id="filter4_i_501_188950" x="104" y="545.684" width="43" height="34.3164" filterUnits="userSpaceOnUse" color-interpolation-filters="sRGB">
<feFlood flood-opacity="0" result="BackgroundImageFix"/>
<feBlend mode="normal" in="SourceGraphic" in2="BackgroundImageFix" result="shape"/>
<feColorMatrix in="SourceAlpha" type="matrix" values="0 0 0 0 0 0 0 0 0 0 0 0 0 0 0 0 0 0 127 0" result="hardAlpha"/>
<feOffset dy="-4"/>
<feGaussianBlur stdDeviation="2"/>
<feComposite in2="hardAlpha" operator="arithmetic" k2="-1" k3="1"/>
<feColorMatrix type="matrix" values="0 0 0 0 0 0 0 0 0 0 0 0 0 0 0 0 0 0 0.22 0"/>
<feBlend mode="normal" in2="shape" result="effect1_innerShadow_501_188950"/>
</filter>
<filter id="filter5_i_501_188950" x="248" y="545.684" width="43" height="37.3164" filterUnits="userSpaceOnUse" color-interpolation-filters="sRGB">
<feFlood flood-opacity="0" result="BackgroundImageFix"/>
<feBlend mode="normal" in="SourceGraphic" in2="BackgroundImageFix" result="shape"/>
<feColorMatrix in="SourceAlpha" type="matrix" values="0 0 0 0 0 0 0 0 0 0 0 0 0 0 0 0 0 0 127 0" result="hardAlpha"/>
<feOffset dy="-4"/>
<feGaussianBlur stdDeviation="2"/>
<feComposite in2="hardAlpha" operator="arithmetic" k2="-1" k3="1"/>
<feColorMatrix type="matrix" values="0 0 0 0 0 0 0 0 0 0 0 0 0 0 0 0 0 0 0.22 0"/>
<feBlend mode="normal" in2="shape" result="effect1_innerShadow_501_188950"/>
</filter>
<filter id="filter6_i_501_188950" x="200" y="545.684" width="43" height="37.3164" filterUnits="userSpaceOnUse" color-interpolation-filters="sRGB">
<feFlood flood-opacity="0" result="BackgroundImageFix"/>
<feBlend mode="normal" in="SourceGraphic" in2="BackgroundImageFix" result="shape"/>
<feColorMatrix in="SourceAlpha" type="matrix" values="0 0 0 0 0 0 0 0 0 0 0 0 0 0 0 0 0 0 127 0" result="hardAlpha"/>
<feOffset dy="-4"/>
<feGaussianBlur stdDeviation="2"/>
<feComposite in2="hardAlpha" operator="arithmetic" k2="-1" k3="1"/>
<feColorMatrix type="matrix" values="0 0 0 0 0 0 0 0 0 0 0 0 0 0 0 0 0 0 0.22 0"/>
<feBlend mode="normal" in2="shape" result="effect1_innerShadow_501_188950"/>
</filter>
<filter id="filter7_i_501_188950" x="152" y="545.684" width="43" height="37.3164" filterUnits="userSpaceOnUse" color-interpolation-filters="sRGB">
<feFlood flood-opacity="0" result="BackgroundImageFix"/>
<feBlend mode="normal" in="SourceGraphic" in2="BackgroundImageFix" result="shape"/>
<feColorMatrix in="SourceAlpha" type="matrix" values="0 0 0 0 0 0 0 0 0 0 0 0 0 0 0 0 0 0 127 0" result="hardAlpha"/>
<feOffset dy="-4"/>
<feGaussianBlur stdDeviation="2"/>
<feComposite in2="hardAlpha" operator="arithmetic" k2="-1" k3="1"/>
<feColorMatrix type="matrix" values="0 0 0 0 0 0 0 0 0 0 0 0 0 0 0 0 0 0 0.22 0"/>
<feBlend mode="normal" in2="shape" result="effect1_innerShadow_501_188950"/>
</filter>
</defs>
</svg>
