<svg width="25" height="24" viewBox="0 0 25 24" fill="none" xmlns="http://www.w3.org/2000/svg">
<g id="tabler:refresh">
<path id="Vector" d="M20.5 11C20.2554 9.24017 19.4391 7.60961 18.1766 6.35945C16.9142 5.10928 15.2758 4.30887 13.5137 4.0815C11.7516 3.85414 9.96362 4.21243 8.4252 5.1012C6.88678 5.98996 5.68325 7.35989 5 8.99995M4.5 4.99995V8.99995H8.5M4.5 13C4.74456 14.7597 5.56093 16.3903 6.82336 17.6405C8.08579 18.8906 9.72424 19.691 11.4863 19.9184C13.2484 20.1458 15.0364 19.7875 16.5748 18.8987C18.1132 18.0099 19.3168 16.64 20 15M20.5 19V15H16.5" stroke="#51535F" stroke-width="2" stroke-linecap="round" stroke-linejoin="round"/>
</g>
</svg>
