<svg width="908" height="226" viewBox="0 0 908 226" fill="none" xmlns="http://www.w3.org/2000/svg">
    <g clip-path="url(#clip0_0_1)">
        <path fill-rule="evenodd" clip-rule="evenodd"
            d="M868.94 27.8975C868.815 27.4141 868.987 26.9037 869.379 26.5933L877.196 20.4039C877.931 19.8219 879.024 20.2168 879.216 21.136L880.513 27.344L883.804 24.7385C884.686 24.0401 885.971 24.7573 885.841 25.874L883.402 46.8628C883.248 48.1868 881.415 48.4008 880.961 47.1478L877.528 37.6794L874.001 40.4711C873.836 40.6016 873.642 40.6889 873.434 40.725C873.227 40.7611 873.014 40.7448 872.815 40.6777C872.616 40.6106 872.436 40.4948 872.293 40.3407C872.15 40.1867 872.047 39.9993 871.995 39.7956L868.94 27.8975Z"
            fill="#222430" />
    </g>
    <path fill-rule="evenodd" clip-rule="evenodd"
        d="M702.354 16.9027C702.722 16.074 703.541 15.5405 704.45 15.5405H722.559C724.262 15.5405 725.372 17.334 724.61 18.8597L719.458 29.1621H727.082C729.125 29.1621 730.147 31.6322 728.703 33.0761L701.566 60.2126C699.855 61.9244 697.003 60.1627 697.77 57.8674L703.555 40.5135H695.387C695.005 40.5135 694.629 40.418 694.293 40.2358C693.957 40.0536 693.672 39.7904 693.464 39.4702C693.256 39.1499 693.131 38.7827 693.101 38.4019C693.071 38.0211 693.136 37.6388 693.291 37.2897L702.354 16.9027Z"
        fill="#222430" />
    <g clip-path="url(#clip1_0_1)">
        <path fill-rule="evenodd" clip-rule="evenodd"
            d="M716.143 159.696C716.021 158.541 716.588 157.424 717.596 156.843L737.689 145.241C739.579 144.151 741.959 145.43 742.09 147.611L742.974 162.342L751.433 157.458C753.7 156.149 756.416 158.235 755.739 160.762L743.013 208.255C742.21 211.251 737.918 211.122 737.299 208.084L732.601 185.124L723.538 190.357C723.114 190.601 722.635 190.736 722.146 190.749C721.657 190.762 721.172 190.652 720.736 190.43C720.3 190.208 719.926 189.881 719.649 189.478C719.371 189.075 719.199 188.609 719.147 188.122L716.143 159.696Z"
            fill="#222430" />
    </g>
    <g clip-path="url(#clip2_0_1)">
        <path
            d="M887.117 149.635L886.726 143.767L886.984 143.614L891.938 146.784L887.117 149.635ZM894.914 158.791L882.221 154.273L889.645 149.882L894.914 158.791ZM896.205 158.028L890.937 149.119L898.361 144.728L896.205 158.028ZM893.358 145.944L888.447 142.749L892.88 140.127L897.812 143.31L893.358 145.944ZM881.243 153.109L880.83 147.254L885.263 144.632L885.697 150.475L881.243 153.109Z"
            fill="#222430" />
    </g>
    <g clip-path="url(#clip3_0_1)">
        <g filter="url(#filter0_i_0_1)">
            <path
                d="M604.74 11.6662L609.627 8.46612L609.885 8.61512L609.558 14.4475L604.74 11.6662ZM600.618 22.8783L598.339 9.69106L605.759 13.9748L600.618 22.8783ZM601.909 23.6233L607.049 14.7198L614.469 19.0035L601.909 23.6233ZM610.977 15.267L611.348 9.45944L615.778 12.0173L615.429 17.8373L610.977 15.267ZM598.869 8.27653L603.735 5.06399L608.165 7.6218L603.321 10.8468L598.869 8.27653Z"
                fill="#20A1EC" />
        </g>
    </g>
    <g clip-path="url(#clip4_0_1)">
        <path
            d="M805.178 88.9065L811.579 81.7433L812.052 81.8701L814.014 91.274L805.178 88.9065ZM803.403 108.47L794.17 88.4934L807.778 92.1399L803.403 108.47ZM805.769 109.104L810.145 92.774L823.754 96.4204L805.769 109.104ZM816.617 91.9716L814.734 82.5889L822.86 84.7661L824.782 94.1594L816.617 91.9716ZM794.409 86.021L800.771 78.8473L808.896 81.0246L802.575 88.2089L794.409 86.021Z"
            fill="#222430" />
    </g>
    <g clip-path="url(#clip5_0_1)">
        <path
            d="M132.105 75.8794L128.96 66.3242L129.323 65.9614L138.878 69.1061L132.105 75.8794ZM148.917 87.7327L125.967 85.6463L136.399 75.2142L148.917 87.7327ZM150.732 85.9184L138.213 73.3999L148.645 62.9678L150.732 85.9184ZM140.874 67.1104L131.379 63.9052L137.608 57.6762L147.133 60.8512L140.874 67.1104ZM123.85 84.1344L120.675 74.6094L126.904 68.3804L130.109 77.8751L123.85 84.1344Z"
            fill="#222430" />
    </g>
    <g clip-path="url(#clip6_0_1)">
        <path
            d="M55.811 33.2038L61.3422 29.5819L61.6343 29.7506L61.2633 36.3517L55.811 33.2038ZM51.1458 45.8935L48.5663 30.9683L56.9637 35.8166L51.1458 45.8935ZM52.6062 46.7367L58.4242 36.6598L66.8216 41.508L52.6062 46.7367ZM62.8697 37.2792L63.2895 30.7062L68.3036 33.6011L67.9082 40.1881L62.8697 37.2792ZM49.1661 29.3674L54.6729 25.7314L59.6871 28.6263L54.2045 32.2763L49.1661 29.3674Z"
            fill="#222430" />
    </g>
    <g clip-path="url(#clip7_0_1)">
        <path fill-rule="evenodd" clip-rule="evenodd"
            d="M171.175 149.286C170.286 148.619 169.091 148.539 168.12 149.081L148.749 159.908C146.928 160.926 146.813 163.508 148.541 164.684L160.21 172.624L152.056 177.182C149.87 178.403 150.254 181.656 152.662 182.337L197.91 195.139C200.765 195.946 202.761 192.357 200.568 190.361L184.006 175.258L192.743 170.374C193.152 170.146 193.497 169.819 193.747 169.423C193.997 169.028 194.144 168.576 194.176 168.109C194.207 167.642 194.121 167.174 193.925 166.749C193.73 166.324 193.432 165.954 193.057 165.673L171.175 149.286Z"
            fill="#222430" />
    </g>
    <path fill-rule="evenodd" clip-rule="evenodd"
        d="M18.5685 136.137C18.3307 135.744 17.8842 135.527 17.4269 135.585L8.30866 136.735C7.45135 136.843 7.0063 137.817 7.48726 138.536L10.7352 143.396L6.89675 143.88C5.86798 144.01 5.51047 145.319 6.32916 145.954L21.7157 157.894C22.6863 158.647 24.0101 157.579 23.478 156.472L19.4633 148.102L23.5761 147.583C23.7684 147.559 23.9516 147.487 24.1091 147.374C24.2665 147.261 24.3933 147.11 24.4777 146.936C24.5622 146.761 24.6018 146.568 24.5928 146.375C24.5838 146.181 24.5266 145.993 24.4264 145.827L18.5685 136.137Z"
        fill="#222430" />
    <g filter="url(#filter1_i_0_1)">
        <path fill-rule="evenodd" clip-rule="evenodd"
            d="M320.568 154.137C320.331 153.744 319.884 153.527 319.427 153.585L310.309 154.735C309.451 154.843 309.006 155.817 309.487 156.536L312.735 161.396L308.897 161.88C307.868 162.01 307.51 163.319 308.329 163.954L323.716 175.894C324.686 176.647 326.01 175.579 325.478 174.472L321.463 166.102L325.576 165.583C325.768 165.559 325.952 165.487 326.109 165.374C326.267 165.261 326.393 165.11 326.478 164.936C326.562 164.761 326.602 164.568 326.593 164.375C326.584 164.181 326.527 163.993 326.426 163.827L320.568 154.137Z"
            fill="#20A1EC" />
    </g>
    <g clip-path="url(#clip8_0_1)">
        <path fill-rule="evenodd" clip-rule="evenodd"
            d="M258.701 27.5523C259.296 26.2113 260.622 25.3479 262.092 25.3479L291.4 25.3479C294.155 25.3479 295.952 28.2504 294.717 30.7193L286.381 47.3919H298.718C302.025 47.3919 303.678 51.3892 301.341 53.7259L257.426 97.6413C254.656 100.411 250.041 97.5604 251.283 93.846L260.645 65.7619H247.425C246.807 65.7619 246.199 65.6075 245.656 65.3126C245.112 65.0177 244.651 64.5918 244.314 64.0735C243.977 63.5552 243.775 62.961 243.726 62.3447C243.678 61.7285 243.783 61.1098 244.034 60.5449L258.701 27.5523Z"
            fill="#222430" />
    </g>
    <defs>
        <filter id="filter0_i_0_1" x="598.34" y="5.06396" width="17.4375" height="19.5593"
            filterUnits="userSpaceOnUse" color-interpolation-filters="sRGB">
            <feFlood flood-opacity="0" result="BackgroundImageFix" />
            <feBlend mode="normal" in="SourceGraphic" in2="BackgroundImageFix" result="shape" />
            <feColorMatrix in="SourceAlpha" type="matrix"
                values="0 0 0 0 0 0 0 0 0 0 0 0 0 0 0 0 0 0 127 0" result="hardAlpha" />
            <feOffset dy="1" />
            <feGaussianBlur stdDeviation="3.5" />
            <feComposite in2="hardAlpha" operator="arithmetic" k2="-1" k3="1" />
            <feColorMatrix type="matrix" values="0 0 0 0 1 0 0 0 0 1 0 0 0 0 1 0 0 0 0.47 0" />
            <feBlend mode="normal" in2="shape" result="effect1_innerShadow_0_1" />
        </filter>
        <filter id="filter1_i_0_1" x="307.879" y="153.575" width="18.7148" height="23.5708"
            filterUnits="userSpaceOnUse" color-interpolation-filters="sRGB">
            <feFlood flood-opacity="0" result="BackgroundImageFix" />
            <feBlend mode="normal" in="SourceGraphic" in2="BackgroundImageFix" result="shape" />
            <feColorMatrix in="SourceAlpha" type="matrix"
                values="0 0 0 0 0 0 0 0 0 0 0 0 0 0 0 0 0 0 127 0" result="hardAlpha" />
            <feOffset dy="1" />
            <feGaussianBlur stdDeviation="3.5" />
            <feComposite in2="hardAlpha" operator="arithmetic" k2="-1" k3="1" />
            <feColorMatrix type="matrix" values="0 0 0 0 1 0 0 0 0 1 0 0 0 0 1 0 0 0 0.47 0" />
            <feBlend mode="normal" in2="shape" result="effect1_innerShadow_0_1" />
        </filter>
        <clipPath id="clip0_0_1">
            <rect width="30" height="30" fill="white"
                transform="translate(859 31.6218) rotate(-38.3692)" />
        </clipPath>
        <clipPath id="clip1_0_1">
            <rect width="69.807" height="69.807" fill="white"
                transform="translate(692 164.904) rotate(-30)" />
        </clipPath>
        <clipPath id="clip2_0_1">
            <rect width="24" height="24" fill="white"
                transform="translate(875 147.217) rotate(-30.5987)" />
        </clipPath>
        <clipPath id="clip3_0_1">
            <rect width="23.8397" height="23.8397" fill="white"
                transform="translate(600.922) rotate(30)" />
        </clipPath>
        <clipPath id="clip4_0_1">
            <rect width="39.2032" height="39.2032" fill="white"
                transform="translate(794.148 72) rotate(15)" />
        </clipPath>
        <clipPath id="clip5_0_1">
            <rect width="41.0524" height="41.0524" fill="white"
                transform="translate(111 77.0286) rotate(-45)" />
        </clipPath>
        <clipPath id="clip6_0_1">
            <rect width="26.9817" height="26.9817" fill="white"
                transform="translate(51.4922 20) rotate(30)" />
        </clipPath>
        <clipPath id="clip7_0_1">
            <rect width="66.7642" height="66.7642" fill="white"
                transform="matrix(-0.872898 0.487903 0.487903 0.872898 187.277 132)" />
        </clipPath>
        <clipPath id="clip8_0_1">
            <rect width="88.1761" height="88.1761" fill="white" transform="translate(229 18)" />
        </clipPath>
    </defs>
</svg>