<svg width="19" height="19" viewBox="0 0 19 19" fill="none" xmlns="http://www.w3.org/2000/svg">
<path fill-rule="evenodd" clip-rule="evenodd" d="M16.0415 4.79692L10.8631 1.94112C10.2236 1.58844 9.43568 1.58844 8.79616 1.94112L3.61772 4.79692C2.97821 5.1496 2.58425 5.80138 2.58425 6.50674V12.2183C2.58425 12.9237 2.97821 13.5755 3.61772 13.9282L8.79616 16.784C9.43568 17.1366 10.2236 17.1366 10.8631 16.784L16.0415 13.9282C16.6811 13.5755 17.075 12.9237 17.075 12.2183V6.50674C17.075 5.80138 16.6811 5.1496 16.0415 4.79692ZM11.3798 1.08622C10.4206 0.557199 9.2387 0.557199 8.27943 1.08622L3.10099 3.94202C2.14172 4.47104 1.55078 5.4487 1.55078 6.50674V12.2183C1.55078 13.2764 2.14172 14.254 3.10099 14.7831L8.27943 17.6389C9.2387 18.1679 10.4206 18.1679 11.3798 17.6389L16.5583 14.7831C17.5176 14.254 18.1085 13.2764 18.1085 12.2183V6.50674C18.1085 5.4487 17.5176 4.47104 16.5583 3.94202L11.3798 1.08622Z" fill="#20A1EC"/>
<path d="M9.37137 7.93718C9.37137 8.33858 9.23841 8.67224 8.97248 8.93817C8.70656 9.19908 8.33526 9.35462 7.8586 9.40479L9.3488 11.0831V11.2261H8.26502L6.6544 9.41985H5.39V11.2261H4.44922V6.28893H7.53497C8.10697 6.28893 8.55603 6.42942 8.88217 6.7104C9.20831 6.98636 9.37137 7.36518 9.37137 7.84686V7.93718ZM8.41554 7.80923C8.41554 7.59348 8.33777 7.4279 8.18223 7.3125C8.02669 7.19208 7.80341 7.13187 7.5124 7.13187H5.39V8.58443H7.5124C7.80341 8.58443 8.02669 8.52673 8.18223 8.41133C8.33777 8.29091 8.41554 8.12032 8.41554 7.89955V7.80923Z" fill="white"/>
<path d="M13.7491 8.3737C14.3061 8.43391 14.7275 8.56436 15.0135 8.76506C15.2995 8.96576 15.4425 9.22918 15.4425 9.55532V9.63058C15.4425 10.042 15.2644 10.3707 14.9082 10.6165C14.5569 10.8624 14.0502 11.0079 13.3879 11.053V11.6777H12.4922V11.053C11.8199 11.0079 11.3081 10.8624 10.9569 10.6165C10.6107 10.3656 10.4376 10.0219 10.4376 9.58542V9.53274H11.3633V9.58542C11.3633 9.80619 11.5013 9.97177 11.7772 10.0822C12.0532 10.1875 12.4772 10.2402 13.0492 10.2402C14.0226 10.2402 14.5093 10.0721 14.5093 9.73595V9.66068C14.5093 9.56034 14.4817 9.48507 14.4265 9.4349C14.3763 9.37971 14.2835 9.33706 14.148 9.30695C14.0175 9.27183 13.8194 9.23922 13.5534 9.20911L12.2213 9.06611C11.6393 9.00089 11.2128 8.87545 10.9418 8.6898C10.6759 8.49914 10.5429 8.22819 10.5429 7.87697V7.80171C10.5429 7.42038 10.7135 7.1118 11.0547 6.87598C11.3959 6.64016 11.8751 6.50218 12.4922 6.46204V5.82983H13.3879V6.46204C14.0201 6.51221 14.5017 6.65772 14.8329 6.89856C15.1691 7.13438 15.3371 7.4555 15.3371 7.86192V7.9146H14.4114V7.86192C14.4114 7.67125 14.2734 7.52574 13.9975 7.42539C13.7265 7.32504 13.3402 7.27487 12.8384 7.27487C12.3969 7.27487 12.0582 7.3125 11.8224 7.38776C11.5866 7.46303 11.4687 7.57341 11.4687 7.71892V7.79418C11.4687 7.88449 11.4938 7.95725 11.5439 8.01244C11.5991 8.06262 11.6945 8.10526 11.8299 8.14039C11.9704 8.17049 12.1736 8.2006 12.4395 8.2307L13.7491 8.3737Z" fill="white"/>
</svg>
