<svg width="20" height="20" viewBox="0 0 20 20" fill="none" xmlns="http://www.w3.org/2000/svg">
<g id="smile-face 2">
<g id="Group">
<path id="Vector" d="M10 1.5C5.30601 1.5 1.5 5.30552 1.5 10C1.5 14.6945 5.30601 18.5 10 18.5C14.695 18.5 18.5 14.6945 18.5 10C18.5 5.30552 14.695 1.5 10 1.5ZM13.1369 7.16931C13.809 7.16931 14.3545 7.7148 14.3545 8.38686C14.3545 9.05892 13.8085 9.60441 13.1369 9.60441C12.4649 9.60441 11.9194 9.05892 11.9194 8.38686C11.9194 7.7148 12.4649 7.16931 13.1369 7.16931ZM6.86257 7.16931C7.53512 7.16931 8.08012 7.7148 8.08012 8.38686C8.08012 9.05892 7.53512 9.60441 6.86257 9.60441C6.19051 9.60441 5.64502 9.05892 5.64502 8.38686C5.64502 7.7148 6.19101 7.16931 6.86257 7.16931ZM14.5863 12.9553C13.5449 14.4672 11.83 15.3695 10 15.3695C8.16896 15.3695 6.45358 14.4672 5.41372 12.9548C5.18044 12.6163 5.26631 12.1527 5.60531 11.9194C5.94432 11.6856 6.40742 11.772 6.6407 12.111C7.4031 13.2193 8.65936 13.8805 10.0005 13.8805C11.3416 13.8805 12.5969 13.2193 13.3613 12.111C13.5946 11.773 14.0572 11.6871 14.3967 11.9199C14.7337 12.1532 14.8191 12.6163 14.5863 12.9553Z" fill="#51535F"/>
</g>
</g>
</svg>
