<svg width="22" height="23" viewBox="0 0 22 23" fill="none" xmlns="http://www.w3.org/2000/svg">
<g id="Frame" clip-path="url(#clip0_2104_15573)">
<g id="Group">
<g id="Layer 1">
<path id="Vector" style="mix-blend-mode:screen" d="M18.7779 19.2785C23.0736 14.9827 23.0736 8.01779 18.7779 3.72196C14.4821 -0.573864 7.5173 -0.573864 3.22153 3.72196C-1.07423 8.01779 -1.07423 14.9827 3.22153 19.2785C7.5173 23.5744 14.4821 23.5744 18.7779 19.2785Z" fill="url(#paint0_radial_2104_15573)"/>
<path id="Vector_2" d="M3.79777 12.2905C3.79777 12.2905 -0.129379 9.11993 0.22808 7.21304C0.532503 5.58821 5.05041 7.71828 5.05041 7.71828C5.05041 7.71828 4.76928 12.0499 3.79777 12.2905Z" fill="url(#paint1_linear_2104_15573)"/>
<path id="Vector_3" style="mix-blend-mode:screen" d="M0.614663 7.30002C0.847962 6.21046 3.98385 7.4576 5.03631 7.90979C5.04612 7.78717 5.05041 7.71972 5.05041 7.71972C5.05041 7.71972 0.532503 5.59026 0.22808 7.21449C-0.129379 9.12137 3.79777 12.292 3.79777 12.292C3.85876 12.2755 3.91559 12.2464 3.96454 12.2064C3.19536 11.5476 0.267627 8.92057 0.614663 7.30002Z" fill="url(#paint2_linear_2104_15573)"/>
<path id="Vector_4" d="M0.462299 7.15445C0.513189 6.8816 0.683946 6.71482 0.931347 6.62622C0.558253 6.68539 0.293992 6.86075 0.22808 7.213C-0.12938 9.11989 3.79777 12.2905 3.79777 12.2905C3.86603 12.2719 3.92902 12.2377 3.98171 12.1905C3.52829 11.8153 0.128139 8.93441 0.462299 7.15445Z" fill="url(#paint3_linear_2104_15573)"/>
<path id="Vector_5" d="M3.79777 15.6008C3.79777 15.6008 -0.129379 12.4302 0.22808 10.5233C0.532503 8.89851 5.05041 11.0286 5.05041 11.0286C5.05041 11.0286 4.76928 15.3602 3.79777 15.6008Z" fill="url(#paint4_linear_2104_15573)"/>
<path id="Vector_6" style="mix-blend-mode:screen" d="M0.614663 10.6089C0.847962 9.5193 3.98385 10.7664 5.03631 11.2186C5.04612 11.0978 5.05041 11.0286 5.05041 11.0286C5.05041 11.0286 0.532503 8.8991 0.22808 10.5233C-0.129379 12.4302 3.79777 15.6008 3.79777 15.6008C3.85875 15.5845 3.91558 15.5554 3.96454 15.5156C3.19536 14.8583 0.267627 12.2309 0.614663 10.6089Z" fill="url(#paint5_linear_2104_15573)"/>
<path id="Vector_7" d="M0.462299 10.465C0.513189 10.1921 0.683946 10.0257 0.931347 9.93677C0.558253 9.99594 0.293992 10.1713 0.22808 10.5235C-0.12938 12.4304 3.79777 15.601 3.79777 15.601C3.86596 15.5825 3.92892 15.5484 3.98171 15.5014C3.52829 15.1261 0.128139 12.2453 0.462299 10.465Z" fill="url(#paint6_linear_2104_15573)"/>
<path id="Vector_8" d="M18.2006 12.2905C18.2006 12.2905 22.1278 9.11993 21.7716 7.21304C21.4671 5.58821 16.9492 7.71828 16.9492 7.71828C16.9492 7.71828 17.2294 12.0499 18.2006 12.2905Z" fill="url(#paint7_linear_2104_15573)"/>
<path id="Vector_9" style="mix-blend-mode:screen" d="M21.385 7.30005C21.1517 6.21049 18.0158 7.45763 16.9633 7.90982C16.9535 7.78719 16.9492 7.71975 16.9492 7.71975C16.9492 7.71975 21.4659 5.58876 21.7725 7.21298C22.1296 9.11987 18.2025 12.2904 18.2025 12.2904C18.1416 12.274 18.0848 12.2448 18.036 12.2049C18.8043 11.5476 21.732 8.92059 21.385 7.30005Z" fill="url(#paint8_linear_2104_15573)"/>
<path id="Vector_10" d="M21.5373 7.15445C21.4864 6.8816 21.3156 6.71482 21.0679 6.62622C21.4413 6.68539 21.7056 6.86075 21.7715 7.213C22.1287 9.11989 18.2015 12.2905 18.2015 12.2905C18.1333 12.2718 18.0704 12.2376 18.0176 12.1905C18.4713 11.8153 21.8708 8.93441 21.5373 7.15445Z" fill="url(#paint9_linear_2104_15573)"/>
<path id="Vector_11" d="M18.2006 15.6008C18.2006 15.6008 22.1278 12.4302 21.7716 10.5233C21.4671 8.89851 16.9492 11.0286 16.9492 11.0286C16.9492 11.0286 17.2294 15.3602 18.2006 15.6008Z" fill="url(#paint10_linear_2104_15573)"/>
<path id="Vector_12" style="mix-blend-mode:screen" d="M21.385 10.6089C21.1517 9.5193 18.0158 10.7664 16.9633 11.2186C16.9535 11.0978 16.9492 11.0286 16.9492 11.0286C16.9492 11.0286 21.4659 8.8991 21.7725 10.5233C22.1296 12.4302 18.2025 15.6008 18.2025 15.6008C18.1416 15.5845 18.0849 15.5554 18.036 15.5156C18.8043 14.8583 21.732 12.2309 21.385 10.6089Z" fill="url(#paint11_linear_2104_15573)"/>
<path id="Vector_13" d="M21.5373 10.465C21.4864 10.1921 21.3156 10.0257 21.0679 9.93677C21.4413 9.99594 21.7056 10.1713 21.7715 10.5235C22.1287 12.4304 18.2015 15.601 18.2015 15.601C18.1334 15.5824 18.0704 15.5483 18.0176 15.5014C18.4713 15.1261 21.8708 12.2453 21.5373 10.465Z" fill="url(#paint12_linear_2104_15573)"/>
<path id="Vector_14" d="M10.7724 19.7584C8.8796 19.221 5.31237 17.2498 3.95733 15.8236C3.85121 15.7154 3.77413 15.5823 3.73323 15.4364C3.24885 13.5283 3.17006 9.44869 3.73323 7.56235C3.77431 7.41681 3.85138 7.28396 3.95733 7.17606C5.36755 5.80537 8.85937 3.70106 10.7724 3.24089C10.8453 3.22341 11.1525 3.22341 11.2255 3.24089C13.1381 3.70075 16.6294 5.80507 18.0405 7.17606C18.1486 7.28224 18.226 7.41573 18.2643 7.56235C18.7502 9.47015 18.8256 13.5497 18.2643 15.4364C18.2233 15.5822 18.1464 15.7153 18.0405 15.8236C16.6303 17.1943 13.1381 19.2977 11.2255 19.7584C11.1525 19.7759 10.8447 19.7778 10.7724 19.7584Z" fill="#EECA00"/>
<path id="Vector_15" style="mix-blend-mode:screen" d="M10.7724 19.7584C8.8796 19.221 5.31237 17.2498 3.95733 15.8236C3.85121 15.7154 3.77413 15.5823 3.73323 15.4364C3.24885 13.5283 3.17006 9.44869 3.73323 7.56235C3.77431 7.41681 3.85138 7.28396 3.95733 7.17606C5.36755 5.80537 8.85937 3.70106 10.7724 3.24089C10.8453 3.22341 11.1525 3.22341 11.2255 3.24089C13.1381 3.70075 16.6294 5.80507 18.0405 7.17606C18.1486 7.28224 18.226 7.41573 18.2643 7.56235C18.7502 9.47015 18.8256 13.5497 18.2643 15.4364C18.2233 15.5822 18.1464 15.7153 18.0405 15.8236C16.6303 17.1943 13.1381 19.2977 11.2255 19.7584C11.1525 19.7759 10.8447 19.7778 10.7724 19.7584Z" fill="url(#paint13_linear_2104_15573)"/>
<path id="Vector_16" style="mix-blend-mode:multiply" d="M10.7747 19.7025C8.89516 19.1691 5.35183 17.211 4.00569 15.7943C3.90038 15.6868 3.82393 15.5545 3.78343 15.4096C3.30211 13.5146 3.22394 9.46205 3.78343 7.58888C3.82407 7.44429 3.90051 7.31228 4.00569 7.20506C5.40763 5.84356 8.87493 3.75335 10.7747 3.29655C10.8474 3.27908 11.1524 3.27908 11.2251 3.29655C13.1258 3.75335 16.5925 5.84356 17.9941 7.20506C18.1017 7.31048 18.1786 7.44314 18.2167 7.58888C18.6992 9.48351 18.774 13.5364 18.2167 15.4096C18.1759 15.5544 18.0994 15.6867 17.9941 15.7943C16.5925 17.1558 13.1249 19.2451 11.2251 19.7025C11.1524 19.7203 10.8468 19.7231 10.7747 19.7025Z" fill="url(#paint14_linear_2104_15573)"/>
<path id="Vector_17" d="M10.7787 19.527C8.9393 19.0058 5.4717 17.0888 4.15468 15.7022C4.0516 15.5971 3.97673 15.4677 3.93702 15.326C3.46613 13.4715 3.38979 9.50602 3.93702 7.67271C3.97681 7.5312 4.05168 7.40203 4.15468 7.29716C5.52657 5.96479 8.91938 3.91933 10.7787 3.47235C10.8498 3.45518 11.1484 3.45518 11.2193 3.47235C13.0786 3.91933 16.4717 5.96479 17.8436 7.29716C17.9487 7.40035 18.0238 7.53015 18.061 7.67271C18.5334 9.52686 18.6066 13.4921 18.061 15.326C18.0214 15.4677 17.9466 15.5971 17.8436 15.7022C16.4717 17.0348 13.0783 19.0794 11.2193 19.527C11.1484 19.5441 10.8489 19.5472 10.7787 19.527Z" fill="#EECA00"/>
<path id="Vector_18" style="mix-blend-mode:screen" d="M3.97545 15.4335C3.97545 15.4335 5.14685 9.03536 8.08347 7.18672C11.2105 5.21607 15.9246 5.77648 17.955 7.43198C17.9235 7.38369 17.8868 7.33897 17.8455 7.29862C16.4736 5.96625 13.0805 3.9208 11.2212 3.47381C11.1504 3.45665 10.8533 3.45665 10.7807 3.47381C8.92133 3.9208 5.52853 5.96625 4.15663 7.29862C4.05363 7.40349 3.97877 7.53267 3.93897 7.67417C3.39174 9.50748 3.46808 13.473 3.93897 15.3275C3.94835 15.3637 3.96055 15.3992 3.97545 15.4335Z" fill="url(#paint15_linear_2104_15573)"/>
<path id="Vector_19" style="mix-blend-mode:screen" d="M4.02991 7.83979C4.06978 7.69831 4.14463 7.56916 4.24757 7.46424C5.61916 6.13187 9.01226 4.08641 10.8716 3.63943C10.9427 3.62226 11.2395 3.62226 11.3121 3.63943C13.0596 4.06005 16.166 5.89397 17.6704 7.21929C17.7693 7.28775 17.8635 7.35816 17.953 7.43052C17.9215 7.38222 17.8848 7.33751 17.8436 7.29716C16.4717 5.96479 13.0786 3.91933 11.2193 3.47235C11.1484 3.45518 10.8514 3.45518 10.7787 3.47235C8.91938 3.91933 5.52657 5.96479 4.15468 7.29716C4.05168 7.40203 3.97681 7.5312 3.93702 7.67271C3.38979 9.50602 3.46613 13.4715 3.93702 15.326C3.94652 15.3628 3.95892 15.3988 3.97411 15.4336C3.97411 15.4336 3.98024 15.3993 3.9925 15.337C3.55534 13.4246 3.4974 9.62343 4.02991 7.83979Z" fill="url(#paint16_linear_2104_15573)"/>
<path id="Vector_20" style="mix-blend-mode:screen" d="M15.848 16.3485C18.5258 13.6707 18.5258 9.32925 15.848 6.6515C13.1703 3.97374 8.82888 3.97374 6.15117 6.6515C3.47345 9.32925 3.47345 13.6707 6.15117 16.3485C8.82888 19.0263 13.1703 19.0263 15.848 16.3485Z" fill="url(#paint17_radial_2104_15573)"/>
<path id="Vector_21" style="mix-blend-mode:lighten" d="M16.1283 12.8952C16.8999 10.0612 15.228 7.13833 12.3941 6.36677C9.56015 5.5952 6.63733 7.26711 5.86577 10.1011C5.09422 12.935 6.7661 15.8579 9.60003 16.6295C12.434 17.401 15.3568 15.7291 16.1283 12.8952Z" fill="url(#paint18_linear_2104_15573)"/>
<path id="Vector_22" style="mix-blend-mode:multiply" d="M16.0655 12.6947C16.7262 9.8954 14.9926 7.09057 12.1934 6.42988C9.39415 5.7692 6.58935 7.50285 5.92868 10.3021C5.268 13.1014 7.00163 15.9062 9.80085 16.5669C12.6001 17.2276 15.4049 15.4939 16.0655 12.6947Z" fill="url(#paint19_linear_2104_15573)"/>
<path id="Vector_23" d="M15.8979 12.2685C16.3219 9.56384 14.4731 7.02756 11.7685 6.60355C9.06392 6.17953 6.52769 8.02833 6.10368 10.733C5.67967 13.4376 7.52844 15.9739 10.233 16.3979C12.9376 16.8219 15.4739 14.9731 15.8979 12.2685Z" fill="#E5A946"/>
<path id="Vector_24" d="M14.7487 8.25781C15.117 9.34666 15.0955 10.5296 14.6879 11.6044C14.2803 12.6791 13.512 13.5789 12.5143 14.1497C11.5166 14.7205 10.3516 14.9269 9.2185 14.7336C8.08544 14.5403 7.05475 13.9593 6.30273 13.09C6.5374 13.7831 6.92257 14.4156 7.43061 14.9423C7.93866 15.4689 8.55698 15.8765 9.24119 16.1358C9.92541 16.3952 10.6586 16.4999 11.388 16.4424C12.1175 16.3849 12.8252 16.1666 13.4603 15.8032C14.0954 15.4399 14.6422 14.9404 15.0615 14.3407C15.4807 13.741 15.762 13.0559 15.8852 12.3346C16.0084 11.6133 15.9703 10.8737 15.7738 10.1688C15.5774 9.46398 15.2273 8.81136 14.7487 8.25781Z" fill="url(#paint20_linear_2104_15573)"/>
<path id="Vector_25" d="M15.4196 11.5001C15.4196 12.3744 15.1604 13.2292 14.6747 13.9562C14.189 14.6832 13.4986 15.2499 12.6908 15.5846C11.883 15.9192 10.9942 16.0068 10.1366 15.8363C9.27904 15.6657 8.49131 15.2447 7.87303 14.6265C7.25475 14.0082 6.83369 13.2205 6.66309 12.3629C6.49249 11.5054 6.58002 10.6165 6.9146 9.80868C7.24919 9.00087 7.8158 8.31042 8.5428 7.82465C9.26979 7.33887 10.1245 7.07959 10.9988 7.07959C11.5794 7.07955 12.1542 7.19386 12.6906 7.41599C13.2269 7.63812 13.7143 7.96373 14.1248 8.37421C14.5353 8.78469 14.8609 9.27202 15.0831 9.80835C15.3052 10.3447 15.4196 10.9195 15.4196 11.5001Z" fill="#EECA00"/>
<path id="Vector_26" d="M12.8718 7.49512C13.2553 8.31745 13.3765 9.23787 13.2189 10.1314C13.0613 11.025 12.6326 11.8485 11.991 12.49C11.3494 13.1316 10.5259 13.5602 9.63234 13.7177C8.73876 13.8751 7.81837 13.7539 6.99609 13.3703C7.2968 14.0139 7.74818 14.5756 8.31201 15.0077C8.87584 15.4399 9.53551 15.7298 10.2352 15.8529C10.9348 15.976 11.6538 15.9287 12.3313 15.715C13.0088 15.5012 13.6247 15.1274 14.1271 14.625C14.6294 14.1227 15.0033 13.5067 15.2171 12.8293C15.4308 12.1518 15.4782 11.4328 15.3551 10.7331C15.232 10.0335 14.9422 9.37378 14.5101 8.80992C14.0779 8.24606 13.5163 7.79464 12.8727 7.4939L12.8718 7.49512Z" fill="url(#paint21_linear_2104_15573)"/>
<path id="Vector_27" d="M14.1684 8.41919C14.8747 9.30674 15.2127 10.4319 15.1125 11.5617C15.0123 12.6916 14.4815 13.7397 13.63 14.489C12.7785 15.2384 11.6714 15.6316 10.538 15.5874C9.40458 15.5432 8.33156 15.0649 7.54102 14.2514C7.91387 14.72 8.37805 15.1079 8.90537 15.3915C9.4327 15.6752 10.0122 15.8488 10.6086 15.9017C11.205 15.9546 11.806 15.8858 12.375 15.6993C12.9441 15.5129 13.4693 15.2128 13.9188 14.8172C14.3683 14.4217 14.7327 13.9388 14.99 13.3981C15.2472 12.8574 15.3919 12.2701 15.4153 11.6717C15.4386 11.0734 15.3401 10.4766 15.1258 9.91744C14.9115 9.35832 14.5857 8.84859 14.1684 8.41919Z" fill="url(#paint22_linear_2104_15573)"/>
<path id="Vector_28" style="mix-blend-mode:screen" d="M6.94922 11.8702C6.94912 11.0182 7.19529 10.1843 7.65809 9.4689C8.1209 8.75353 8.7806 8.18716 9.55779 7.838C10.335 7.48884 11.1965 7.37176 12.0387 7.50086C12.8809 7.62996 13.6678 7.99973 14.3047 8.56566C13.9047 8.11519 13.4168 7.75125 12.871 7.4962C12.3252 7.24115 11.7331 7.10037 11.1309 7.08251C10.5287 7.06465 9.92926 7.17009 9.36932 7.39234C8.80937 7.6146 8.30077 7.94899 7.87476 8.37496C7.44875 8.80094 7.11432 9.30951 6.89201 9.86944C6.6697 10.4294 6.56421 11.0288 6.58201 11.631C6.59981 12.2332 6.74053 12.8254 6.99552 13.3712C7.25051 13.917 7.6144 14.405 8.06483 14.805C7.34508 13.997 6.94796 12.9523 6.94922 11.8702Z" fill="url(#paint23_linear_2104_15573)"/>
<path id="Vector_29" style="mix-blend-mode:screen" d="M5.68157 11.5003C5.68152 10.3652 6.04467 9.2598 6.71791 8.34588C7.39114 7.43196 8.33914 6.75743 9.42323 6.42095C10.5073 6.08447 11.6706 6.1037 12.743 6.47583C13.8154 6.84796 14.7406 7.55345 15.3833 8.48913C15.0053 7.89168 14.5121 7.37557 13.9324 6.97099C13.3526 6.5664 12.6981 6.28146 12.0069 6.13281C11.3158 5.98417 10.6019 5.9748 9.90715 6.10527C9.21235 6.23574 8.55054 6.50343 7.96041 6.89267C7.37027 7.28191 6.86366 7.78491 6.47019 8.37224C6.07673 8.95957 5.8043 9.61946 5.66885 10.3133C5.5334 11.0072 5.53763 11.7211 5.68131 12.4133C5.82499 13.1055 6.10522 13.7621 6.50563 14.3447C5.96584 13.4943 5.67996 12.5075 5.68157 11.5003Z" fill="url(#paint24_linear_2104_15573)"/>
<path id="Vector_30" d="M17.9531 7.43042C17.9531 7.43042 17.5597 13.8479 13.7699 16.0411C9.98014 18.2344 4.15625 15.7021 4.15625 15.7021C5.4745 17.0887 8.94087 19.0048 10.7803 19.5269C10.8505 19.5471 11.15 19.544 11.2208 19.5269C13.0799 19.0793 16.4733 17.0347 17.8452 15.7021C17.9482 15.597 18.0229 15.4676 18.0625 15.3259C18.6082 13.492 18.5349 9.52677 18.0625 7.67261C18.0398 7.58635 18.0028 7.5045 17.9531 7.43042Z" fill="url(#paint25_linear_2104_15573)"/>
<path id="Vector_31" d="M8.57905 10.6748H9.15325V12.0758H10.0497V12.5336H8.57812L8.57905 10.6748Z" fill="url(#paint26_linear_2104_15573)"/>
<path id="Vector_32" d="M9.86523 11.1875H10.402L10.6632 12.0404L10.9342 11.1875H11.4554L10.883 12.5337H10.4253L9.86523 11.1875Z" fill="url(#paint27_linear_2104_15573)"/>
<path id="Vector_33" d="M12.4007 11.2126L11.9127 11.1249C11.9452 10.9818 12.0278 10.855 12.1457 10.7675C12.2611 10.6847 12.4246 10.6433 12.6362 10.6433C12.8788 10.6433 13.0541 10.6886 13.1622 10.7791C13.2137 10.8196 13.2551 10.8715 13.2832 10.9306C13.3114 10.9897 13.3255 11.0546 13.3244 11.12C13.3253 11.1978 13.3023 11.274 13.2585 11.3383C13.2066 11.4103 13.1384 11.4689 13.0595 11.5094C13.1173 11.5213 13.1729 11.542 13.2245 11.5707C13.2847 11.6073 13.3343 11.6591 13.3683 11.7209C13.404 11.7895 13.4216 11.8661 13.4195 11.9435C13.4192 12.0529 13.3899 12.1603 13.3345 12.2547C13.278 12.3543 13.1924 12.4344 13.0893 12.4843C12.9828 12.538 12.8429 12.5649 12.6696 12.5649C12.5006 12.5649 12.3677 12.5445 12.271 12.5036C12.1773 12.4668 12.0945 12.4069 12.0301 12.3295C11.9627 12.2441 11.9133 12.1459 11.8848 12.041L12.4007 11.9723C12.4213 12.0762 12.4525 12.1486 12.4955 12.1869C12.5172 12.2073 12.5428 12.2233 12.5707 12.2338C12.5987 12.2443 12.6284 12.2492 12.6582 12.2482C12.6909 12.2489 12.7232 12.2424 12.7531 12.2293C12.783 12.2162 12.8096 12.1967 12.8311 12.1722C12.8793 12.1159 12.9041 12.0433 12.9004 11.9692C12.905 11.8964 12.8811 11.8247 12.8339 11.769C12.8106 11.745 12.7824 11.7263 12.7513 11.714C12.7202 11.7017 12.6868 11.6962 12.6533 11.6979C12.5964 11.7007 12.5401 11.711 12.4859 11.7286L12.5126 11.3607C12.5348 11.3644 12.5573 11.3666 12.5798 11.3671C12.6109 11.368 12.6418 11.3627 12.6709 11.3516C12.6999 11.3404 12.7265 11.3236 12.749 11.3021C12.7704 11.2828 12.7876 11.2592 12.7993 11.2327C12.8109 11.2063 12.8169 11.1777 12.8167 11.1488C12.8179 11.124 12.8139 11.0992 12.8052 11.0759C12.7964 11.0526 12.783 11.0313 12.7658 11.0133C12.7473 10.9959 12.7254 10.9825 12.7014 10.9738C12.6775 10.9651 12.6521 10.9613 12.6267 10.9628C12.5995 10.9616 12.5724 10.9659 12.547 10.9753C12.5215 10.9848 12.4982 10.9991 12.4783 11.0176C12.4405 11.0554 12.4146 11.1204 12.4007 11.2126Z" fill="url(#paint28_linear_2104_15573)"/>
<path id="Vector_34" d="M8.57905 10.4668H9.15325V11.8681H10.0497V12.3259H8.57812L8.57905 10.4668Z" fill="white"/>
<path id="Vector_35" d="M9.86523 10.979H10.402L10.6632 11.8322L10.9342 10.979H11.4554L10.883 12.3255H10.4253L9.86523 10.979Z" fill="white"/>
<path id="Vector_36" d="M12.4007 11.0041L11.9127 10.9176C11.9449 10.774 12.0276 10.6467 12.1457 10.5589C12.2611 10.4772 12.4246 10.4363 12.6362 10.4363C12.8788 10.4363 13.0541 10.4815 13.1622 10.5721C13.2137 10.6126 13.255 10.6645 13.2832 10.7236C13.3113 10.7827 13.3254 10.8475 13.3244 10.913C13.3253 10.9908 13.3023 11.067 13.2585 11.1313C13.2066 11.2032 13.1384 11.2618 13.0595 11.3023C13.1173 11.3143 13.1729 11.335 13.2245 11.3637C13.2848 11.4001 13.3345 11.452 13.3683 11.5139C13.404 11.5824 13.4217 11.6589 13.4195 11.7362C13.4192 11.8457 13.3899 11.9531 13.3345 12.0476C13.2778 12.1471 13.1923 12.2271 13.0893 12.2769C12.9828 12.3307 12.8429 12.3576 12.6696 12.3576C12.5006 12.3576 12.3677 12.3371 12.271 12.2963C12.1773 12.2595 12.0944 12.1996 12.0301 12.1221C11.9627 12.0367 11.9133 11.9386 11.8848 11.8336L12.4007 11.7653C12.4213 11.8689 12.4525 11.9412 12.4955 11.9799C12.5172 12.0003 12.5428 12.0163 12.5707 12.0268C12.5987 12.0373 12.6284 12.0422 12.6582 12.0412C12.6909 12.0419 12.7232 12.0354 12.7531 12.0223C12.783 12.0091 12.8096 11.9897 12.8311 11.9652C12.8793 11.9089 12.9041 11.8362 12.9004 11.7622C12.905 11.6894 12.8811 11.6176 12.8339 11.562C12.8106 11.538 12.7824 11.5193 12.7513 11.507C12.7201 11.4948 12.6868 11.4893 12.6533 11.4909C12.5964 11.4936 12.5401 11.5039 12.4859 11.5215L12.5126 11.1537C12.5348 11.1574 12.5573 11.1595 12.5798 11.1601C12.6425 11.1618 12.7034 11.1385 12.749 11.0954C12.7704 11.076 12.7875 11.0524 12.7992 11.026C12.8108 10.9996 12.8168 10.971 12.8167 10.9421C12.8179 10.9172 12.814 10.8923 12.8052 10.869C12.7965 10.8456 12.7831 10.8243 12.7658 10.8063C12.7473 10.7889 12.7254 10.7753 12.7015 10.7666C12.6775 10.7578 12.6521 10.754 12.6267 10.7554C12.5995 10.7543 12.5724 10.7586 12.5469 10.768C12.5214 10.7775 12.4981 10.792 12.4783 10.8106C12.4403 10.8474 12.4145 10.9121 12.4007 11.0041Z" fill="white"/>
<path id="Vector_37" d="M10.9501 20.5156C10.5375 20.3985 9.76001 19.9687 9.46479 19.6572C9.44152 19.6338 9.42464 19.6047 9.41573 19.5729C9.31027 19.1569 9.2931 18.2675 9.41573 17.8561C9.42488 17.8244 9.44173 17.7954 9.46479 17.7718C9.77135 17.4732 10.5332 17.0143 10.9501 16.9134C10.983 16.9097 11.0162 16.9097 11.0491 16.9134C11.4661 17.0137 12.227 17.4726 12.5345 17.7718C12.5581 17.795 12.575 17.8241 12.5835 17.8561C12.6893 18.2721 12.7061 19.1612 12.5835 19.5729C12.5744 19.6047 12.5576 19.6337 12.5345 19.6572C12.2279 19.9561 11.4661 20.4145 11.0491 20.5156C11.0163 20.5198 10.983 20.5198 10.9501 20.5156Z" fill="#EECA00"/>
<path id="Vector_38" style="mix-blend-mode:screen" d="M10.9501 20.5156C10.5375 20.3985 9.76001 19.9687 9.46479 19.6572C9.44152 19.6338 9.42464 19.6047 9.41573 19.5729C9.31027 19.1569 9.2931 18.2675 9.41573 17.8561C9.42488 17.8244 9.44173 17.7954 9.46479 17.7718C9.77135 17.4732 10.5332 17.0143 10.9501 16.9134C10.983 16.9097 11.0162 16.9097 11.0491 16.9134C11.4661 17.0137 12.227 17.4726 12.5345 17.7718C12.5581 17.795 12.575 17.8241 12.5835 17.8561C12.6893 18.2721 12.7061 19.1612 12.5835 19.5729C12.5744 19.6047 12.5576 19.6337 12.5345 19.6572C12.2279 19.9561 11.4661 20.4145 11.0491 20.5156C11.0163 20.5198 10.983 20.5198 10.9501 20.5156Z" fill="url(#paint29_linear_2104_15573)"/>
<path id="Vector_39" style="mix-blend-mode:multiply" d="M10.9492 20.5033C10.5397 20.3871 9.7671 19.9603 9.47371 19.6513C9.45075 19.6279 9.43409 19.5991 9.42528 19.5676C9.32043 19.1543 9.30265 18.2711 9.42528 17.8627C9.43414 17.8312 9.4508 17.8024 9.47371 17.779C9.78028 17.4823 10.5351 17.0267 10.9492 16.9271C10.9819 16.9234 11.0149 16.9234 11.0476 16.9271C11.4618 17.0267 12.2175 17.4823 12.5232 17.779C12.5466 17.8021 12.5633 17.831 12.5716 17.8627C12.6767 18.2757 12.6942 19.1589 12.5716 19.5676C12.5627 19.5991 12.5461 19.6279 12.5232 19.6513C12.2166 19.948 11.4615 20.4036 11.0476 20.5033C11.015 20.5075 10.9819 20.5075 10.9492 20.5033Z" fill="url(#paint30_linear_2104_15573)"/>
<path id="Vector_40" d="M10.9518 20.4652C10.5508 20.3512 9.79477 19.9336 9.50782 19.6314C9.48517 19.6085 9.4688 19.5802 9.4603 19.5492C9.3576 19.1451 9.34105 18.2806 9.4603 17.8811C9.46886 17.8502 9.48522 17.822 9.50782 17.7993C9.80672 17.5087 10.5465 17.0635 10.9518 16.9654C10.9836 16.9617 11.0158 16.9617 11.0477 16.9654C11.453 17.0629 12.1928 17.5087 12.4917 17.7993C12.5147 17.8217 12.5312 17.85 12.5392 17.8811C12.6422 18.2852 12.6581 19.1497 12.5392 19.5492C12.5305 19.5802 12.5142 19.6084 12.4917 19.6314C12.1928 19.9217 11.453 20.3671 11.0477 20.4652C11.0159 20.4692 10.9836 20.4692 10.9518 20.4652Z" fill="#EECA00"/>
<path id="Vector_41" style="mix-blend-mode:screen" d="M9.46827 19.5728C9.46827 19.5728 9.72364 18.1782 10.3641 17.7748C11.0459 17.3456 12.0732 17.4682 12.5156 17.8281C12.5086 17.8177 12.5006 17.808 12.4917 17.7993C12.1928 17.5087 11.453 17.0635 11.0477 16.9654C11.0158 16.9617 10.9836 16.9617 10.9518 16.9654C10.5465 17.0629 9.80672 17.5087 9.50782 17.7993C9.48522 17.822 9.46886 17.8502 9.4603 17.8811C9.34105 18.2797 9.3576 19.1451 9.4603 19.5492C9.4625 19.5572 9.46516 19.5651 9.46827 19.5728Z" fill="url(#paint31_linear_2104_15573)"/>
<path id="Vector_42" style="mix-blend-mode:screen" d="M9.48084 17.9173C9.48954 17.8865 9.50588 17.8583 9.52836 17.8355C9.82726 17.5451 10.567 17.0997 10.9723 17.0019C11.0042 16.9982 11.0364 16.9982 11.0683 17.0019C11.4493 17.0939 12.1265 17.4924 12.4543 17.7821C12.4761 17.7972 12.4966 17.8126 12.5156 17.8281C12.5086 17.8177 12.5006 17.808 12.4917 17.7993C12.1928 17.5087 11.453 17.0635 11.0477 16.9654C11.0158 16.9617 10.9836 16.9617 10.9518 16.9654C10.5465 17.0629 9.80672 17.5087 9.50782 17.7993C9.48522 17.822 9.46886 17.8502 9.4603 17.8811C9.34105 18.2797 9.3576 19.1451 9.4603 19.5492C9.4625 19.5572 9.46516 19.5651 9.46827 19.5728L9.47257 19.5517C9.37753 19.1338 9.36465 18.3061 9.48084 17.9173Z" fill="url(#paint32_linear_2104_15573)"/>
<path id="Vector_43" d="M12.5156 17.8281C12.5156 17.8281 12.4297 19.227 11.6035 19.7053C10.7773 20.1835 9.50781 19.6314 9.50781 19.6314C9.79476 19.9337 10.5501 20.3512 10.9518 20.4653C10.9836 20.4693 11.0158 20.4693 11.0477 20.4653C11.453 20.3675 12.1927 19.9217 12.4916 19.6314C12.5142 19.6084 12.5305 19.5802 12.5392 19.5492C12.6581 19.1507 12.6422 18.2852 12.5392 17.8812C12.5344 17.8623 12.5264 17.8443 12.5156 17.8281Z" fill="url(#paint33_linear_2104_15573)"/>
<path id="Vector_44" style="mix-blend-mode:screen" d="M13.0533 18.7154C13.0533 19.1217 12.9329 19.5188 12.7072 19.8566C12.4815 20.1944 12.1607 20.4576 11.7854 20.6131C11.41 20.7686 10.997 20.8092 10.5986 20.73C10.2002 20.6507 9.83418 20.4551 9.54692 20.1678C9.25966 19.8806 9.06403 19.5146 8.98478 19.1161C8.90553 18.7177 8.9462 18.3047 9.10167 17.9294C9.25713 17.554 9.5204 17.2332 9.85818 17.0075C10.196 16.7818 10.5931 16.6614 10.9993 16.6614C11.5441 16.6614 12.0665 16.8778 12.4517 17.263C12.8369 17.6482 13.0533 18.1707 13.0533 18.7154Z" fill="url(#paint34_radial_2104_15573)"/>
<path id="Vector_45" d="M10.999 19.6317L10.225 19.907L10.2473 19.0854L9.74609 18.4339L10.5343 18.2015L10.999 17.5237L11.4635 18.2015L12.252 18.4339L11.7507 19.0854L11.7731 19.907L10.999 19.6317Z" fill="url(#paint35_linear_2104_15573)"/>
<path id="Vector_46" d="M10.9836 18.7464L10.544 18.2222L9.80273 18.4404L10.9836 18.7464Z" fill="url(#paint36_linear_2104_15573)"/>
<path id="Vector_47" d="M10.9955 18.7418V17.5725L10.5547 18.216L10.9955 18.7418Z" fill="url(#paint37_linear_2104_15573)"/>
<path id="Vector_48" d="M12.1968 18.4409L11.4525 18.2214L11.0156 18.7463L12.1968 18.4409Z" fill="url(#paint38_linear_2104_15573)"/>
<path id="Vector_49" d="M10.983 18.7576L9.79688 18.4504L10.2717 19.0679L10.983 18.7576Z" fill="url(#paint39_linear_2104_15573)"/>
<path id="Vector_50" d="M11.0078 18.7394L11.4444 18.2142L11.0078 17.5771V18.7394Z" fill="url(#paint40_linear_2104_15573)"/>
<path id="Vector_51" d="M11.0156 18.7695L11.7456 19.8569L11.7244 19.0786L11.0156 18.7695Z" fill="url(#paint41_linear_2104_15573)"/>
<path id="Vector_52" d="M11.0176 18.7576L11.7279 19.0676L12.2019 18.4517L11.0176 18.7576Z" fill="url(#paint42_linear_2104_15573)"/>
<path id="Vector_53" d="M10.9854 18.7695L10.2751 19.0789L10.2539 19.8545L10.9854 18.7695Z" fill="url(#paint43_linear_2104_15573)"/>
<path id="Vector_54" d="M11.0078 18.7766V19.6016L11.735 19.86L11.0078 18.7766Z" fill="url(#paint44_linear_2104_15573)"/>
<path id="Vector_55" d="M10.9961 18.7739L10.2637 19.8607L10.9961 19.6004V18.7739Z" fill="url(#paint45_linear_2104_15573)"/>
<path id="Vector_56" style="mix-blend-mode:screen" d="M14.9809 17.1452C14.981 17.4027 14.9047 17.6544 14.7618 17.8685C14.6188 18.0827 14.4155 18.2496 14.1777 18.3482C13.9399 18.4469 13.6781 18.4728 13.4256 18.4226C13.173 18.3725 12.941 18.2487 12.7588 18.0667C12.5767 17.8848 12.4525 17.6529 12.4021 17.4004C12.3517 17.1479 12.3773 16.8861 12.4757 16.6482C12.574 16.4102 12.7407 16.2068 12.9547 16.0636C13.1686 15.9203 13.4203 15.8437 13.6777 15.8435C13.8488 15.8433 14.0182 15.8768 14.1763 15.9422C14.3344 16.0075 14.4781 16.1033 14.5992 16.2242C14.7202 16.3451 14.8162 16.4887 14.8817 16.6467C14.9472 16.8048 14.9809 16.9741 14.9809 17.1452Z" fill="url(#paint46_radial_2104_15573)"/>
<path id="Vector_57" d="M13.6791 17.726L13.1883 17.9004L13.2024 17.3796L12.8848 16.9666L13.3845 16.8195L13.6791 16.3896L13.9737 16.8195L14.4734 16.9666L14.1555 17.3796L14.1699 17.9004L13.6791 17.726Z" fill="url(#paint47_linear_2104_15573)"/>
<path id="Vector_58" d="M13.6705 17.1648L13.3922 16.8325L12.9219 16.9711L13.6705 17.1648Z" fill="url(#paint48_linear_2104_15573)"/>
<path id="Vector_59" d="M13.6777 17.1619V16.4207L13.3984 16.8284L13.6777 17.1619Z" fill="url(#paint49_linear_2104_15573)"/>
<path id="Vector_60" d="M14.44 16.9712L13.9682 16.832L13.6914 17.1647L14.44 16.9712Z" fill="url(#paint50_linear_2104_15573)"/>
<path id="Vector_61" d="M13.67 17.172L12.918 16.9771L13.219 17.3685L13.67 17.172Z" fill="url(#paint51_linear_2104_15573)"/>
<path id="Vector_62" d="M13.6855 17.1603L13.9624 16.8274L13.6855 16.4233V17.1603Z" fill="url(#paint52_linear_2104_15573)"/>
<path id="Vector_63" d="M13.6914 17.1794L14.1543 17.8689L14.1408 17.3753L13.6914 17.1794Z" fill="url(#paint53_linear_2104_15573)"/>
<path id="Vector_64" d="M13.6914 17.1721L14.1418 17.3686L14.4425 16.978L13.6914 17.1721Z" fill="url(#paint54_linear_2104_15573)"/>
<path id="Vector_65" d="M13.6709 17.1794L13.2205 17.3757L13.207 17.8674L13.6709 17.1794Z" fill="url(#paint55_linear_2104_15573)"/>
<path id="Vector_66" d="M13.6855 17.1841V17.7071L14.1466 17.8708L13.6855 17.1841Z" fill="url(#paint56_linear_2104_15573)"/>
<path id="Vector_67" d="M13.677 17.1821L13.2129 17.8713L13.677 17.7061V17.1821Z" fill="url(#paint57_linear_2104_15573)"/>
<path id="Vector_68" style="mix-blend-mode:screen" d="M7.01758 17.1452C7.01752 17.4028 7.09383 17.6545 7.23688 17.8687C7.37992 18.0829 7.58326 18.2498 7.82118 18.3484C8.05911 18.447 8.32092 18.4728 8.57351 18.4225C8.8261 18.3723 9.05812 18.2483 9.24023 18.0662C9.42234 17.8841 9.54635 17.6521 9.59657 17.3995C9.6468 17.1469 9.62099 16.885 9.52241 16.6471C9.42383 16.4092 9.2569 16.2059 9.04274 16.0628C8.82858 15.9198 8.57681 15.8434 8.31927 15.8435C7.97404 15.8435 7.64295 15.9807 7.39884 16.2248C7.15472 16.4689 7.01758 16.8 7.01758 17.1452Z" fill="url(#paint58_radial_2104_15573)"/>
<path id="Vector_69" d="M8.3194 17.726L8.81053 17.9004L8.79612 17.3796L9.11403 16.9666L8.61402 16.8195L8.3194 16.3896L8.0251 16.8195L7.52539 16.9666L7.843 17.3796L7.82889 17.9004L8.3194 17.726Z" fill="url(#paint59_linear_2104_15573)"/>
<path id="Vector_70" d="M8.33008 17.1648L8.60844 16.8325L9.07841 16.9711L8.33008 17.1648Z" fill="url(#paint60_linear_2104_15573)"/>
<path id="Vector_71" d="M8.32227 17.1619V16.4207L8.60186 16.8284L8.32227 17.1619Z" fill="url(#paint61_linear_2104_15573)"/>
<path id="Vector_72" d="M7.56055 16.9712L8.03236 16.832L8.30919 17.1647L7.56055 16.9712Z" fill="url(#paint62_linear_2104_15573)"/>
<path id="Vector_73" d="M8.33008 17.172L9.08209 16.9771L8.78104 17.3685L8.33008 17.172Z" fill="url(#paint63_linear_2104_15573)"/>
<path id="Vector_74" d="M8.31425 17.1603L8.03711 16.8274L8.31425 16.4233V17.1603Z" fill="url(#paint64_linear_2104_15573)"/>
<path id="Vector_75" d="M8.30862 17.1794L7.8457 17.8689L7.85919 17.3753L8.30862 17.1794Z" fill="url(#paint65_linear_2104_15573)"/>
<path id="Vector_76" d="M8.30743 17.1721L7.85708 17.3686L7.55664 16.978L8.30743 17.1721Z" fill="url(#paint66_linear_2104_15573)"/>
<path id="Vector_77" d="M8.32812 17.1794L8.77817 17.3757L8.79166 17.8674L8.32812 17.1794Z" fill="url(#paint67_linear_2104_15573)"/>
<path id="Vector_78" d="M8.3146 17.1841V17.7071L7.85352 17.8708L8.3146 17.1841Z" fill="url(#paint68_linear_2104_15573)"/>
<path id="Vector_79" d="M8.32227 17.1821L8.78672 17.8713L8.32227 17.7061V17.1821Z" fill="url(#paint69_linear_2104_15573)"/>
</g>
</g>
</g>
<defs>
<radialGradient id="paint0_radial_2104_15573" cx="0" cy="0" r="1" gradientUnits="userSpaceOnUse" gradientTransform="translate(10.9997 11.5002) scale(10.9273 10.9275)">
<stop stop-color="#EECA00"/>
<stop offset="0.96"/>
</radialGradient>
<linearGradient id="paint1_linear_2104_15573" x1="2.77168" y1="8.50188" x2="4.52743" y2="10.1172" gradientUnits="userSpaceOnUse">
<stop stop-color="#EECA00"/>
<stop offset="0.39" stop-color="#EABC1D"/>
<stop offset="1" stop-color="#E5A946"/>
</linearGradient>
<linearGradient id="paint2_linear_2104_15573" x1="2.6325" y1="7.68262" x2="2.55064" y2="6.72305" gradientUnits="userSpaceOnUse">
<stop/>
<stop offset="1" stop-color="#EECA00"/>
</linearGradient>
<linearGradient id="paint3_linear_2104_15573" x1="0.636123" y1="5.78253" x2="2.27508" y2="10.5114" gradientUnits="userSpaceOnUse">
<stop stop-color="#EECA00"/>
<stop offset="0.39" stop-color="#EABC1D"/>
<stop offset="1" stop-color="#E5A946"/>
</linearGradient>
<linearGradient id="paint4_linear_2104_15573" x1="2.77168" y1="11.8122" x2="4.52743" y2="13.4275" gradientUnits="userSpaceOnUse">
<stop stop-color="#EECA00"/>
<stop offset="0.39" stop-color="#EABC1D"/>
<stop offset="1" stop-color="#E5A946"/>
</linearGradient>
<linearGradient id="paint5_linear_2104_15573" x1="2.6325" y1="10.9933" x2="2.55064" y2="10.0334" gradientUnits="userSpaceOnUse">
<stop/>
<stop offset="1" stop-color="#EECA00"/>
</linearGradient>
<linearGradient id="paint6_linear_2104_15573" x1="0.636123" y1="9.09308" x2="2.27508" y2="13.822" gradientUnits="userSpaceOnUse">
<stop stop-color="#EECA00"/>
<stop offset="0.39" stop-color="#EABC1D"/>
<stop offset="1" stop-color="#E5A946"/>
</linearGradient>
<linearGradient id="paint7_linear_2104_15573" x1="19.227" y1="8.50188" x2="17.4713" y2="10.1172" gradientUnits="userSpaceOnUse">
<stop stop-color="#EECA00"/>
<stop offset="0.39" stop-color="#EABC1D"/>
<stop offset="1" stop-color="#E5A946"/>
</linearGradient>
<linearGradient id="paint8_linear_2104_15573" x1="19.3671" y1="7.68265" x2="19.449" y2="6.72308" gradientUnits="userSpaceOnUse">
<stop/>
<stop offset="1" stop-color="#EECA00"/>
</linearGradient>
<linearGradient id="paint9_linear_2104_15573" x1="21.3632" y1="5.78253" x2="19.7245" y2="10.5114" gradientUnits="userSpaceOnUse">
<stop stop-color="#EECA00"/>
<stop offset="0.39" stop-color="#EABC1D"/>
<stop offset="1" stop-color="#E5A946"/>
</linearGradient>
<linearGradient id="paint10_linear_2104_15573" x1="19.227" y1="11.8122" x2="17.4713" y2="13.4275" gradientUnits="userSpaceOnUse">
<stop stop-color="#EECA00"/>
<stop offset="0.39" stop-color="#EABC1D"/>
<stop offset="1" stop-color="#E5A946"/>
</linearGradient>
<linearGradient id="paint11_linear_2104_15573" x1="19.3671" y1="10.9933" x2="19.449" y2="10.0334" gradientUnits="userSpaceOnUse">
<stop/>
<stop offset="1" stop-color="#EECA00"/>
</linearGradient>
<linearGradient id="paint12_linear_2104_15573" x1="21.3632" y1="9.09308" x2="19.7245" y2="13.822" gradientUnits="userSpaceOnUse">
<stop stop-color="#EECA00"/>
<stop offset="0.39" stop-color="#EABC1D"/>
<stop offset="1" stop-color="#E5A946"/>
</linearGradient>
<linearGradient id="paint13_linear_2104_15573" x1="14.8277" y1="18.129" x2="7.17185" y2="4.86919" gradientUnits="userSpaceOnUse">
<stop stop-color="#FFF214"/>
<stop offset="1" stop-color="#EECA00"/>
</linearGradient>
<linearGradient id="paint14_linear_2104_15573" x1="14.8027" y1="18.0844" x2="7.19875" y2="4.91382" gradientUnits="userSpaceOnUse">
<stop stop-color="#FFF214"/>
<stop offset="1" stop-color="#EECA00"/>
</linearGradient>
<linearGradient id="paint15_linear_2104_15573" x1="8.20028" y1="8.53994" x2="5.67319" y2="5.90498" gradientUnits="userSpaceOnUse">
<stop/>
<stop offset="1" stop-color="#EECA00"/>
</linearGradient>
<linearGradient id="paint16_linear_2104_15573" x1="7.45244" y1="6.0304" x2="7.22496" y2="5.6806" gradientUnits="userSpaceOnUse">
<stop/>
<stop offset="1" stop-color="#EECA00"/>
</linearGradient>
<radialGradient id="paint17_radial_2104_15573" cx="0" cy="0" r="1" gradientUnits="userSpaceOnUse" gradientTransform="translate(10.9997 11.5002) scale(6.85672 6.85682)">
<stop offset="0.3" stop-color="#FFFF7B"/>
<stop offset="0.38" stop-color="#E5E56F"/>
<stop offset="0.56" stop-color="#A3A34F"/>
<stop offset="0.82" stop-color="#3A3A1C"/>
<stop offset="0.96"/>
</radialGradient>
<linearGradient id="paint18_linear_2104_15573" x1="13.6556" y1="16.1078" x2="8.33648" y2="6.89473" gradientUnits="userSpaceOnUse">
<stop stop-color="#FFF214"/>
<stop offset="1" stop-color="#E5A946"/>
</linearGradient>
<linearGradient id="paint19_linear_2104_15573" x1="13.6004" y1="16.0117" x2="8.39194" y2="6.99056" gradientUnits="userSpaceOnUse">
<stop stop-color="#FFEF31"/>
<stop offset="1" stop-color="#E5A946"/>
</linearGradient>
<linearGradient id="paint20_linear_2104_15573" x1="12.722" y1="14.0842" x2="11.385" y2="12.079" gradientUnits="userSpaceOnUse">
<stop stop-color="#C28C43"/>
<stop offset="1" stop-color="#E5A946"/>
</linearGradient>
<linearGradient id="paint21_linear_2104_15573" x1="11.2927" y1="11.8724" x2="14.138" y2="15.4991" gradientUnits="userSpaceOnUse">
<stop stop-color="#EECA00"/>
<stop offset="0.39" stop-color="#EABC1D"/>
<stop offset="1" stop-color="#E5A946"/>
</linearGradient>
<linearGradient id="paint22_linear_2104_15573" x1="13.4829" y1="15.2116" x2="12.6911" y2="14.024" gradientUnits="userSpaceOnUse">
<stop stop-color="#DD931B"/>
<stop offset="1" stop-color="#EECA00"/>
</linearGradient>
<linearGradient id="paint23_linear_2104_15573" x1="9.4542" y1="9.30604" x2="8.45446" y2="7.86884" gradientUnits="userSpaceOnUse">
<stop/>
<stop offset="1" stop-color="#EECA00"/>
</linearGradient>
<linearGradient id="paint24_linear_2104_15573" x1="8.76044" y1="8.34228" x2="8.1381" y2="7.46855" gradientUnits="userSpaceOnUse">
<stop/>
<stop offset="1" stop-color="#EECA00"/>
</linearGradient>
<linearGradient id="paint25_linear_2104_15573" x1="12.284" y1="13.9074" x2="14.2973" y2="17.7469" gradientUnits="userSpaceOnUse">
<stop stop-color="#EECA00"/>
<stop offset="0.39" stop-color="#EABC1D"/>
<stop offset="1" stop-color="#E5A946"/>
</linearGradient>
<linearGradient id="paint26_linear_2104_15573" x1="9.3142" y1="12.4664" x2="9.3142" y2="10.8039" gradientUnits="userSpaceOnUse">
<stop stop-color="#D8BB36"/>
<stop offset="1" stop-color="#EECA00"/>
</linearGradient>
<linearGradient id="paint27_linear_2104_15573" x1="10.6602" y1="12.4665" x2="10.6602" y2="10.804" gradientUnits="userSpaceOnUse">
<stop stop-color="#D8BB36"/>
<stop offset="1" stop-color="#EECA00"/>
</linearGradient>
<linearGradient id="paint28_linear_2104_15573" x1="12.6524" y1="12.4665" x2="12.6524" y2="10.804" gradientUnits="userSpaceOnUse">
<stop stop-color="#D8BB36"/>
<stop offset="1" stop-color="#EECA00"/>
</linearGradient>
<linearGradient id="paint29_linear_2104_15573" x1="11.8343" y1="20.1603" x2="10.1653" y2="17.27" gradientUnits="userSpaceOnUse">
<stop stop-color="#FFF214"/>
<stop offset="1" stop-color="#EECA00"/>
</linearGradient>
<linearGradient id="paint30_linear_2104_15573" x1="11.8279" y1="20.1507" x2="10.1702" y2="17.2797" gradientUnits="userSpaceOnUse">
<stop stop-color="#FFF214"/>
<stop offset="1" stop-color="#EECA00"/>
</linearGradient>
<linearGradient id="paint31_linear_2104_15573" x1="10.3895" y1="18.07" x2="9.8386" y2="17.4958" gradientUnits="userSpaceOnUse">
<stop/>
<stop offset="1" stop-color="#EECA00"/>
</linearGradient>
<linearGradient id="paint32_linear_2104_15573" x1="10.227" y1="17.5231" x2="10.1774" y2="17.4467" gradientUnits="userSpaceOnUse">
<stop/>
<stop offset="1" stop-color="#EECA00"/>
</linearGradient>
<linearGradient id="paint33_linear_2104_15573" x1="11.2798" y1="19.2402" x2="11.7188" y2="20.0771" gradientUnits="userSpaceOnUse">
<stop stop-color="#EECA00"/>
<stop offset="0.39" stop-color="#EABC1D"/>
<stop offset="1" stop-color="#E5A946"/>
</linearGradient>
<radialGradient id="paint34_radial_2104_15573" cx="0" cy="0" r="1" gradientUnits="userSpaceOnUse" gradientTransform="translate(10.9996 18.7154) scale(2.05371 2.05373)">
<stop stop-color="#FFD872"/>
<stop offset="0.96"/>
</radialGradient>
<linearGradient id="paint35_linear_2104_15573" x1="11.5368" y1="17.6944" x2="10.2957" y2="20.0511" gradientUnits="userSpaceOnUse">
<stop stop-color="#FFF030"/>
<stop offset="0.44" stop-color="#DEA02F"/>
<stop offset="0.55" stop-color="#E0A62F"/>
<stop offset="0.7" stop-color="#E7B72F"/>
<stop offset="0.86" stop-color="#F3D330"/>
<stop offset="1" stop-color="#FFF030"/>
</linearGradient>
<linearGradient id="paint36_linear_2104_15573" x1="10.1295" y1="19.1226" x2="10.6562" y2="18.0652" gradientUnits="userSpaceOnUse">
<stop offset="0.55" stop-color="#FFF030"/>
<stop offset="0.93" stop-color="#F8FFAE"/>
</linearGradient>
<linearGradient id="paint37_linear_2104_15573" x1="11.2279" y1="18.9729" x2="10.6341" y2="17.5578" gradientUnits="userSpaceOnUse">
<stop stop-color="#DEA02F"/>
<stop offset="0.13" stop-color="#E8B92F"/>
<stop offset="0.38" stop-color="#FFF030"/>
<stop offset="0.97" stop-color="#F8FFAE"/>
</linearGradient>
<linearGradient id="paint38_linear_2104_15573" x1="11.5248" y1="19.3361" x2="11.6677" y2="18.0317" gradientUnits="userSpaceOnUse">
<stop stop-color="#DEA02F"/>
<stop offset="0.2" stop-color="#E8B92F"/>
<stop offset="0.57" stop-color="#FFF030"/>
<stop offset="0.92" stop-color="#F8FFAE"/>
</linearGradient>
<linearGradient id="paint39_linear_2104_15573" x1="10.5096" y1="18.1442" x2="10.1712" y2="19.4447" gradientUnits="userSpaceOnUse">
<stop offset="0.09" stop-color="#DEA02F"/>
<stop offset="0.34" stop-color="#E8B92F"/>
<stop offset="0.79" stop-color="#FFF030"/>
<stop offset="0.93" stop-color="#F8FFAE"/>
</linearGradient>
<linearGradient id="paint40_linear_2104_15573" x1="10.6065" y1="18.774" x2="11.5419" y2="17.4481" gradientUnits="userSpaceOnUse">
<stop stop-color="#DEA02F"/>
<stop offset="0.22" stop-color="#E8B92F"/>
<stop offset="0.63" stop-color="#FFF030"/>
<stop offset="0.93" stop-color="#F8FFAE"/>
</linearGradient>
<linearGradient id="paint41_linear_2104_15573" x1="11.0736" y1="19.7769" x2="11.71" y2="18.8164" gradientUnits="userSpaceOnUse">
<stop stop-color="#DEA02F"/>
<stop offset="0.22" stop-color="#E8B92F"/>
<stop offset="0.62" stop-color="#FFF030"/>
<stop offset="0.88" stop-color="#F8FFAE"/>
</linearGradient>
<linearGradient id="paint42_linear_2104_15573" x1="11.4373" y1="18.2297" x2="12.1856" y2="19.8567" gradientUnits="userSpaceOnUse">
<stop offset="0.09" stop-color="#DEA02F"/>
<stop offset="0.34" stop-color="#E8B92F"/>
<stop offset="0.79" stop-color="#FFF030"/>
<stop offset="0.93" stop-color="#F8FFAE"/>
</linearGradient>
<linearGradient id="paint43_linear_2104_15573" x1="10.9271" y1="19.8324" x2="10.3033" y2="18.7769" gradientUnits="userSpaceOnUse">
<stop stop-color="#DEA02F"/>
<stop offset="0.2" stop-color="#E8B92F"/>
<stop offset="0.57" stop-color="#FFF030"/>
<stop offset="0.93" stop-color="#F8FFAE"/>
</linearGradient>
<linearGradient id="paint44_linear_2104_15573" x1="11.6801" y1="18.7524" x2="10.8567" y2="20.2607" gradientUnits="userSpaceOnUse">
<stop offset="0.09" stop-color="#DEA02F"/>
<stop offset="0.34" stop-color="#E8B92F"/>
<stop offset="0.79" stop-color="#FFF030"/>
<stop offset="0.93" stop-color="#F8FFAE"/>
</linearGradient>
<linearGradient id="paint45_linear_2104_15573" x1="10.3731" y1="18.8582" x2="11.1506" y2="20.2482" gradientUnits="userSpaceOnUse">
<stop offset="0.09" stop-color="#DEA02F"/>
<stop offset="0.34" stop-color="#E8B92F"/>
<stop offset="0.79" stop-color="#FFF030"/>
<stop offset="0.93" stop-color="#F8FFAE"/>
</linearGradient>
<radialGradient id="paint46_radial_2104_15573" cx="0" cy="0" r="1" gradientUnits="userSpaceOnUse" gradientTransform="translate(13.6793 17.1452) scale(1.302 1.30202)">
<stop stop-color="#FFD872"/>
<stop offset="0.96"/>
</radialGradient>
<linearGradient id="paint47_linear_2104_15573" x1="14.02" y1="16.4979" x2="13.2333" y2="17.9918" gradientUnits="userSpaceOnUse">
<stop stop-color="#FFF030"/>
<stop offset="0.44" stop-color="#DEA02F"/>
<stop offset="0.55" stop-color="#E0A62F"/>
<stop offset="0.7" stop-color="#E7B72F"/>
<stop offset="0.86" stop-color="#F3D330"/>
<stop offset="1" stop-color="#FFF030"/>
</linearGradient>
<linearGradient id="paint48_linear_2104_15573" x1="13.1294" y1="17.4034" x2="13.463" y2="16.7332" gradientUnits="userSpaceOnUse">
<stop offset="0.55" stop-color="#FFF030"/>
<stop offset="0.93" stop-color="#F8FFAE"/>
</linearGradient>
<linearGradient id="paint49_linear_2104_15573" x1="13.8252" y1="17.3085" x2="13.4487" y2="16.4115" gradientUnits="userSpaceOnUse">
<stop stop-color="#DEA02F"/>
<stop offset="0.13" stop-color="#E8B92F"/>
<stop offset="0.38" stop-color="#FFF030"/>
<stop offset="0.97" stop-color="#F8FFAE"/>
</linearGradient>
<linearGradient id="paint50_linear_2104_15573" x1="14.0142" y1="17.5387" x2="14.1047" y2="16.7115" gradientUnits="userSpaceOnUse">
<stop stop-color="#DEA02F"/>
<stop offset="0.2" stop-color="#E8B92F"/>
<stop offset="0.57" stop-color="#FFF030"/>
<stop offset="0.92" stop-color="#F8FFAE"/>
</linearGradient>
<linearGradient id="paint51_linear_2104_15573" x1="13.3699" y1="16.783" x2="13.1552" y2="17.6074" gradientUnits="userSpaceOnUse">
<stop offset="0.09" stop-color="#DEA02F"/>
<stop offset="0.34" stop-color="#E8B92F"/>
<stop offset="0.79" stop-color="#FFF030"/>
<stop offset="0.93" stop-color="#F8FFAE"/>
</linearGradient>
<linearGradient id="paint52_linear_2104_15573" x1="13.4311" y1="17.1824" x2="14.0243" y2="16.3415" gradientUnits="userSpaceOnUse">
<stop stop-color="#DEA02F"/>
<stop offset="0.22" stop-color="#E8B92F"/>
<stop offset="0.63" stop-color="#FFF030"/>
<stop offset="0.93" stop-color="#F8FFAE"/>
</linearGradient>
<linearGradient id="paint53_linear_2104_15573" x1="13.7279" y1="17.8183" x2="14.1316" y2="17.2092" gradientUnits="userSpaceOnUse">
<stop stop-color="#DEA02F"/>
<stop offset="0.22" stop-color="#E8B92F"/>
<stop offset="0.62" stop-color="#FFF030"/>
<stop offset="0.88" stop-color="#F8FFAE"/>
</linearGradient>
<linearGradient id="paint54_linear_2104_15573" x1="13.9575" y1="16.8373" x2="14.4318" y2="17.8686" gradientUnits="userSpaceOnUse">
<stop offset="0.09" stop-color="#DEA02F"/>
<stop offset="0.34" stop-color="#E8B92F"/>
<stop offset="0.79" stop-color="#FFF030"/>
<stop offset="0.93" stop-color="#F8FFAE"/>
</linearGradient>
<linearGradient id="paint55_linear_2104_15573" x1="13.6341" y1="17.8533" x2="13.2386" y2="17.1844" gradientUnits="userSpaceOnUse">
<stop stop-color="#DEA02F"/>
<stop offset="0.2" stop-color="#E8B92F"/>
<stop offset="0.57" stop-color="#FFF030"/>
<stop offset="0.93" stop-color="#F8FFAE"/>
</linearGradient>
<linearGradient id="paint56_linear_2104_15573" x1="14.112" y1="17.1688" x2="13.5899" y2="18.1249" gradientUnits="userSpaceOnUse">
<stop offset="0.09" stop-color="#DEA02F"/>
<stop offset="0.34" stop-color="#E8B92F"/>
<stop offset="0.79" stop-color="#FFF030"/>
<stop offset="0.93" stop-color="#F8FFAE"/>
</linearGradient>
<linearGradient id="paint57_linear_2104_15573" x1="13.2822" y1="17.2358" x2="13.7751" y2="18.1169" gradientUnits="userSpaceOnUse">
<stop offset="0.09" stop-color="#DEA02F"/>
<stop offset="0.34" stop-color="#E8B92F"/>
<stop offset="0.79" stop-color="#FFF030"/>
<stop offset="0.93" stop-color="#F8FFAE"/>
</linearGradient>
<radialGradient id="paint58_radial_2104_15573" cx="0" cy="0" r="1" gradientUnits="userSpaceOnUse" gradientTransform="translate(8.31927 17.1452) rotate(180) scale(1.302 1.30202)">
<stop stop-color="#FFD872"/>
<stop offset="0.96"/>
</radialGradient>
<linearGradient id="paint59_linear_2104_15573" x1="7.9785" y1="16.4982" x2="8.76517" y2="17.9921" gradientUnits="userSpaceOnUse">
<stop stop-color="#FFF030"/>
<stop offset="0.44" stop-color="#DEA02F"/>
<stop offset="0.55" stop-color="#E0A62F"/>
<stop offset="0.7" stop-color="#E7B72F"/>
<stop offset="0.86" stop-color="#F3D330"/>
<stop offset="1" stop-color="#FFF030"/>
</linearGradient>
<linearGradient id="paint60_linear_2104_15573" x1="8.87117" y1="17.4034" x2="8.53731" y2="16.7332" gradientUnits="userSpaceOnUse">
<stop offset="0.55" stop-color="#FFF030"/>
<stop offset="0.93" stop-color="#F8FFAE"/>
</linearGradient>
<linearGradient id="paint61_linear_2104_15573" x1="8.17511" y1="17.3085" x2="8.55128" y2="16.4115" gradientUnits="userSpaceOnUse">
<stop stop-color="#DEA02F"/>
<stop offset="0.13" stop-color="#E8B92F"/>
<stop offset="0.38" stop-color="#FFF030"/>
<stop offset="0.97" stop-color="#F8FFAE"/>
</linearGradient>
<linearGradient id="paint62_linear_2104_15573" x1="7.98606" y1="17.5387" x2="7.89562" y2="16.7119" gradientUnits="userSpaceOnUse">
<stop stop-color="#DEA02F"/>
<stop offset="0.2" stop-color="#E8B92F"/>
<stop offset="0.57" stop-color="#FFF030"/>
<stop offset="0.92" stop-color="#F8FFAE"/>
</linearGradient>
<linearGradient id="paint63_linear_2104_15573" x1="8.6299" y1="16.7833" x2="8.84451" y2="17.6074" gradientUnits="userSpaceOnUse">
<stop offset="0.09" stop-color="#DEA02F"/>
<stop offset="0.34" stop-color="#E8B92F"/>
<stop offset="0.79" stop-color="#FFF030"/>
<stop offset="0.93" stop-color="#F8FFAE"/>
</linearGradient>
<linearGradient id="paint64_linear_2104_15573" x1="8.56839" y1="17.1824" x2="7.97517" y2="16.3415" gradientUnits="userSpaceOnUse">
<stop stop-color="#DEA02F"/>
<stop offset="0.22" stop-color="#E8B92F"/>
<stop offset="0.63" stop-color="#FFF030"/>
<stop offset="0.93" stop-color="#F8FFAE"/>
</linearGradient>
<linearGradient id="paint65_linear_2104_15573" x1="8.27183" y1="17.8183" x2="7.86838" y2="17.2095" gradientUnits="userSpaceOnUse">
<stop stop-color="#DEA02F"/>
<stop offset="0.22" stop-color="#E8B92F"/>
<stop offset="0.62" stop-color="#FFF030"/>
<stop offset="0.88" stop-color="#F8FFAE"/>
</linearGradient>
<linearGradient id="paint66_linear_2104_15573" x1="8.04133" y1="16.8373" x2="7.56705" y2="17.8686" gradientUnits="userSpaceOnUse">
<stop offset="0.09" stop-color="#DEA02F"/>
<stop offset="0.34" stop-color="#E8B92F"/>
<stop offset="0.79" stop-color="#FFF030"/>
<stop offset="0.93" stop-color="#F8FFAE"/>
</linearGradient>
<linearGradient id="paint67_linear_2104_15573" x1="8.36491" y1="17.8536" x2="8.7604" y2="17.1844" gradientUnits="userSpaceOnUse">
<stop stop-color="#DEA02F"/>
<stop offset="0.2" stop-color="#E8B92F"/>
<stop offset="0.57" stop-color="#FFF030"/>
<stop offset="0.93" stop-color="#F8FFAE"/>
</linearGradient>
<linearGradient id="paint68_linear_2104_15573" x1="7.88816" y1="17.1691" x2="8.40995" y2="18.1249" gradientUnits="userSpaceOnUse">
<stop offset="0.09" stop-color="#DEA02F"/>
<stop offset="0.34" stop-color="#E8B92F"/>
<stop offset="0.79" stop-color="#FFF030"/>
<stop offset="0.93" stop-color="#F8FFAE"/>
</linearGradient>
<linearGradient id="paint69_linear_2104_15573" x1="8.71713" y1="17.2358" x2="8.22415" y2="18.1169" gradientUnits="userSpaceOnUse">
<stop offset="0.09" stop-color="#DEA02F"/>
<stop offset="0.34" stop-color="#E8B92F"/>
<stop offset="0.79" stop-color="#FFF030"/>
<stop offset="0.93" stop-color="#F8FFAE"/>
</linearGradient>
<clipPath id="clip0_2104_15573">
<rect width="22" height="22" fill="white" transform="translate(0 0.5)"/>
</clipPath>
</defs>
</svg>
