<svg width="22" height="23" viewBox="0 0 22 23" fill="none" xmlns="http://www.w3.org/2000/svg">
<g id="Frame" clip-path="url(#clip0_2104_15469)">
<g id="Group">
<g id="Layer 1">
<path id="Vector" style="mix-blend-mode:screen" d="M18.7782 19.2785C23.074 14.9827 23.074 8.01779 18.7782 3.72196C14.4824 -0.573867 7.51747 -0.573866 3.22164 3.72196C-1.07418 8.01779 -1.07418 14.9827 3.22164 19.2785C7.51747 23.5744 14.4824 23.5744 18.7782 19.2785Z" fill="url(#paint0_radial_2104_15469)"/>
<path id="Vector_2" d="M10.7742 19.7584C8.88174 19.221 5.31415 17.2498 3.9594 15.8233C3.85322 15.7153 3.77612 15.5822 3.7353 15.4364C3.2506 13.5283 3.17212 9.44869 3.7353 7.56235C3.77633 7.41679 3.8534 7.28393 3.9594 7.17606C5.36964 5.80537 8.86151 3.70106 10.7742 3.24089C10.8475 3.22341 11.1544 3.22341 11.2276 3.24089C13.1404 3.70075 16.6313 5.80507 18.0428 7.17606C18.1509 7.2822 18.2283 7.4157 18.2666 7.56235C18.7525 9.47015 18.8276 13.5497 18.2666 15.4364C18.2257 15.5821 18.1487 15.7152 18.0428 15.8233C16.6325 17.1943 13.1404 19.2977 11.2276 19.7584C11.1541 19.7759 10.8475 19.7778 10.7742 19.7584Z" fill="#C9DEEF"/>
<path id="Vector_3" style="mix-blend-mode:lighten" d="M10.7742 19.7584C8.88174 19.221 5.31415 17.2498 3.9594 15.8233C3.85322 15.7153 3.77612 15.5822 3.7353 15.4364C3.2506 13.5283 3.17212 9.44869 3.7353 7.56235C3.77633 7.41679 3.8534 7.28393 3.9594 7.17606C5.36964 5.80537 8.86151 3.70106 10.7742 3.24089C10.8475 3.22341 11.1544 3.22341 11.2276 3.24089C13.1404 3.70075 16.6313 5.80507 18.0428 7.17606C18.1509 7.2822 18.2283 7.4157 18.2666 7.56235C18.7525 9.47015 18.8276 13.5497 18.2666 15.4364C18.2257 15.5821 18.1487 15.7152 18.0428 15.8233C16.6325 17.1943 13.1404 19.2977 11.2276 19.7584C11.1541 19.7759 10.8475 19.7778 10.7742 19.7584Z" fill="url(#paint1_linear_2104_15469)"/>
<path id="Vector_4" style="mix-blend-mode:multiply" d="M10.7749 19.7028C8.89501 19.1693 5.35163 17.2112 4.00578 15.7946C3.90048 15.687 3.82394 15.5547 3.7832 15.4098C3.30219 13.5149 3.22401 9.46229 3.7832 7.58913C3.82408 7.44457 3.90061 7.31259 4.00578 7.2053C5.40774 5.84381 8.87508 3.75359 10.7749 3.2968C10.8476 3.27932 11.1526 3.27932 11.2253 3.2968C13.126 3.75359 16.5924 5.8435 17.9944 7.2053C18.1019 7.31074 18.1787 7.44341 18.2167 7.58913C18.6995 9.48375 18.7743 13.5367 18.2167 15.4098C18.1761 15.5547 18.0997 15.687 17.9944 15.7946C16.5924 17.1561 13.1251 19.2454 11.2253 19.7028C11.1532 19.7205 10.8467 19.7233 10.7749 19.7028Z" fill="url(#paint2_linear_2104_15469)"/>
<path id="Vector_5" d="M10.7809 19.527C8.94145 19.0058 5.4738 17.0888 4.15676 15.7022C4.05357 15.5972 3.97869 15.4678 3.93909 15.326C3.4682 13.4715 3.39155 9.50602 3.93909 7.67271C3.97889 7.5312 4.05376 7.40203 4.15676 7.29716C5.52837 5.96479 8.92152 3.91933 10.7809 3.47235C10.8517 3.45518 11.1488 3.45518 11.2214 3.47235C13.0808 3.91933 16.474 5.96479 17.8456 7.29716C17.9509 7.40024 18.0261 7.53008 18.0632 7.67271C18.5357 9.52686 18.6086 13.4921 18.0632 15.326C18.0236 15.4678 17.9487 15.5972 17.8456 15.7022C16.474 17.0348 13.0805 19.0794 11.2214 19.527C11.1503 19.5441 10.8511 19.5472 10.7809 19.527Z" fill="#C9DEEF"/>
<path id="Vector_6" style="mix-blend-mode:screen" d="M3.97558 15.4333C3.97558 15.4333 5.14699 9.03542 8.08366 7.18648C11.2107 5.21582 15.9249 5.77624 17.9553 7.43174C17.9236 7.38351 17.8868 7.3388 17.8456 7.29838C16.474 5.96601 13.0808 3.92055 11.2214 3.47357C11.1503 3.4564 10.8517 3.4564 10.7809 3.47357C8.92152 3.92055 5.52837 5.96601 4.15676 7.29838C4.05376 7.40325 3.97889 7.53242 3.93909 7.67393C3.39155 9.50724 3.4682 13.4728 3.93909 15.3272C3.94836 15.3635 3.96057 15.399 3.97558 15.4333Z" fill="url(#paint3_linear_2104_15469)"/>
<path id="Vector_7" style="mix-blend-mode:screen" d="M4.03168 7.83979C4.07179 7.69842 4.14662 7.56932 4.24935 7.46424C5.62126 6.13187 9.01441 4.08641 10.8735 3.63943C10.9446 3.62226 11.2432 3.62226 11.3143 3.63943C13.0618 4.06005 16.168 5.89397 17.6723 7.21929C17.7717 7.28775 17.866 7.35816 17.9553 7.43052C17.9236 7.38229 17.8868 7.33758 17.8456 7.29716C16.474 5.96479 13.0808 3.91933 11.2214 3.47235C11.1503 3.45518 10.8517 3.45518 10.7809 3.47235C8.92152 3.91933 5.52837 5.96479 4.15676 7.29716C4.05376 7.40203 3.97889 7.5312 3.93909 7.67271C3.39155 9.50602 3.4682 13.4715 3.93909 15.326C3.9484 15.3627 3.9607 15.3986 3.97588 15.4333C3.97588 15.4333 3.98232 15.3993 3.99458 15.337C3.55741 13.4246 3.49947 9.62343 4.03168 7.83979Z" fill="url(#paint4_linear_2104_15469)"/>
<path id="Vector_8" style="mix-blend-mode:lighten" d="M14.76 15.2607C16.8368 13.1839 16.8368 9.81662 14.76 7.73976C12.6831 5.66291 9.31585 5.66291 7.239 7.73976C5.16214 9.81662 5.16214 13.1839 7.239 15.2607C9.31585 17.3376 12.6831 17.3376 14.76 15.2607Z" fill="url(#paint5_linear_2104_15469)"/>
<path id="Vector_9" style="mix-blend-mode:multiply" d="M11.0007 16.708C13.8769 16.708 16.2085 14.3764 16.2085 11.5002C16.2085 8.62407 13.8769 6.29248 11.0007 6.29248C8.12456 6.29248 5.79297 8.62407 5.79297 11.5002C5.79297 14.3764 8.12456 16.708 11.0007 16.708Z" fill="url(#paint6_linear_2104_15469)"/>
<path id="Vector_10" d="M15.951 11.6955C16.0599 8.96 13.9306 6.65415 11.1951 6.54524C8.45962 6.43633 6.15377 8.5656 6.04486 11.3011C5.93595 14.0366 8.06522 16.3424 10.8007 16.4514C13.5362 16.5603 15.8421 14.431 15.951 11.6955Z" fill="#B0C9E7"/>
<path id="Vector_11" d="M14.7508 8.25806C15.1191 9.34691 15.0976 10.5299 14.69 11.6046C14.2824 12.6794 13.514 13.5791 12.5163 14.1499C11.5186 14.7207 10.3536 14.9272 9.22049 14.7339C8.08742 14.5406 7.05671 13.9596 6.30469 13.0903C6.53935 13.7833 6.92453 14.4159 7.43258 14.9425C7.94064 15.4691 8.55896 15.8767 9.24319 16.1361C9.92741 16.3955 10.6606 16.5001 11.39 16.4426C12.1195 16.3851 12.8272 16.1669 13.4623 15.8035C14.0975 15.4401 14.6443 14.9406 15.0636 14.3409C15.4828 13.7412 15.7641 13.0561 15.8873 12.3348C16.0105 11.6136 15.9724 10.8739 15.7759 10.1691C15.5794 9.46422 15.2293 8.8116 14.7508 8.25806Z" fill="url(#paint7_linear_2104_15469)"/>
<path id="Vector_12" d="M14.7308 11.5002C14.7308 12.2382 14.5119 12.9597 14.1019 13.5733C13.6919 14.187 13.1091 14.6653 12.4272 14.9477C11.7454 15.2302 10.9951 15.3041 10.2712 15.1601C9.54733 15.0161 8.88242 14.6607 8.36054 14.1388C7.83867 13.6169 7.48327 12.952 7.33928 12.2282C7.1953 11.5043 7.2692 10.754 7.55163 10.0721C7.83407 9.39028 8.31236 8.80748 8.92602 8.39744C9.53968 7.98741 10.2611 7.76855 10.9992 7.76855C11.9889 7.76855 12.938 8.1617 13.6378 8.86152C14.3376 9.56133 14.7308 10.5105 14.7308 11.5002Z" fill="#C9DEEF"/>
<path id="Vector_13" d="M13.6744 8.89941C14.2705 9.64862 14.5557 10.5983 14.4711 11.552C14.3864 12.5056 13.9384 13.3902 13.2197 14.0228C12.5009 14.6553 11.5666 14.9872 10.6099 14.95C9.6532 14.9128 8.74745 14.5091 8.08008 13.8227C8.3948 14.2183 8.78664 14.5457 9.23179 14.7853C9.67694 15.0248 10.1661 15.1713 10.6697 15.216C11.1732 15.2607 11.6805 15.2026 12.1609 15.0453C12.6413 14.8879 13.0847 14.6345 13.4642 14.3006C13.8436 13.9666 14.1513 13.559 14.3684 13.1025C14.5856 12.6461 14.7077 12.1502 14.7274 11.6451C14.747 11.14 14.6638 10.6361 14.4828 10.1641C14.3018 9.69214 14.0268 9.26186 13.6744 8.89941Z" fill="url(#paint8_linear_2104_15469)"/>
<path id="Vector_14" style="mix-blend-mode:screen" d="M7.58076 11.8126C7.58052 11.0933 7.78821 10.3893 8.17883 9.78532C8.56945 9.18134 9.12634 8.70316 9.78245 8.40836C10.4386 8.11356 11.1659 8.01472 11.8769 8.12373C12.5878 8.23275 13.2522 8.54497 13.7898 9.0228C13.4521 8.64265 13.0402 8.33555 12.5795 8.12035C12.1188 7.90515 11.6189 7.78641 11.1106 7.7714C10.6024 7.75639 10.0964 7.84544 9.62376 8.03308C9.15115 8.22072 8.72188 8.50299 8.36232 8.86256C8.00275 9.22212 7.72048 9.65139 7.53284 10.124C7.3452 10.5966 7.25615 11.1026 7.27116 11.6109C7.28616 12.1192 7.40491 12.619 7.62011 13.0797C7.8353 13.5404 8.14241 13.9523 8.52256 14.29C7.91491 13.608 7.57966 12.7261 7.58076 11.8126Z" fill="url(#paint9_linear_2104_15469)"/>
<path id="Vector_15" style="mix-blend-mode:screen" d="M5.6815 11.5003C5.68135 10.3651 6.04447 9.25966 6.71773 8.34564C7.39099 7.43163 8.33906 6.75703 9.42326 6.42054C10.5075 6.08405 11.6709 6.10332 12.7433 6.47553C13.8158 6.84775 14.741 7.55337 15.3836 8.48918C15.0052 7.89272 14.5118 7.3776 13.9322 6.97391C13.3525 6.57022 12.6983 6.28604 12.0076 6.13796C11.3169 5.98987 10.6037 5.98086 9.90949 6.11144C9.2153 6.24202 8.55408 6.50957 7.96442 6.89848C7.37476 7.28739 6.86848 7.78987 6.47513 8.37658C6.08178 8.96329 5.80925 9.62248 5.67344 10.3157C5.53763 11.0089 5.54127 11.7222 5.68414 12.4139C5.82701 13.1057 6.10625 13.7621 6.50556 14.3447C5.9659 13.4943 5.68002 12.5076 5.6815 11.5003Z" fill="url(#paint10_linear_2104_15469)"/>
<path id="Vector_16" d="M17.9548 7.43042C17.9548 7.43042 17.5612 13.8479 13.7698 16.0411C9.97838 18.2344 4.15625 15.7021 4.15625 15.7021C5.47451 17.0887 8.94063 19.0048 10.7804 19.5269C10.8506 19.5471 11.1483 19.544 11.2209 19.5269C13.08 19.0793 16.4734 17.0347 17.8451 15.7021C17.9482 15.5971 18.0231 15.4677 18.0627 15.3259C18.6081 13.492 18.5351 9.52677 18.0627 7.67261C18.0402 7.58654 18.0037 7.50473 17.9548 7.43042Z" fill="url(#paint11_linear_2104_15469)"/>
<path id="Vector_17" d="M8.7832 10.4272H9.34975V11.8093H10.2345V12.2606H8.78382L8.7832 10.4272Z" fill="url(#paint12_linear_2104_15469)"/>
<path id="Vector_18" d="M10.0488 10.9326H10.5786L10.8361 11.7742L11.1034 10.9326H11.617L11.0525 12.2607H10.6013L10.0488 10.9326Z" fill="url(#paint13_linear_2104_15469)"/>
<path id="Vector_19" d="M13.5498 12.2606H12.0215C12.0397 12.108 12.0944 11.9619 12.1809 11.8348C12.2698 11.7018 12.4364 11.5448 12.6806 11.3639C12.83 11.2533 12.9255 11.1691 12.967 11.1113C13.0042 11.0646 13.0257 11.0073 13.0283 10.9476C13.0287 10.9208 13.0234 10.8941 13.0129 10.8695C13.0023 10.8448 12.9867 10.8226 12.967 10.8044C12.9235 10.7658 12.8672 10.7446 12.809 10.7449C12.7508 10.7453 12.6948 10.7671 12.6518 10.8063C12.6107 10.847 12.5828 10.9194 12.5687 11.0227L12.0586 10.9813C12.079 10.8382 12.1157 10.7258 12.1686 10.6441C12.2243 10.5621 12.3028 10.4982 12.3943 10.4601C12.4916 10.4172 12.6259 10.3958 12.7974 10.3958C12.9769 10.3958 13.1164 10.4162 13.2159 10.4571C13.3115 10.4946 13.3935 10.5602 13.451 10.6453C13.5079 10.7292 13.5377 10.8285 13.5366 10.9298C13.5359 11.0438 13.5018 11.1551 13.4385 11.2499C13.3729 11.3521 13.2538 11.4638 13.0813 11.585C12.9789 11.6561 12.9102 11.7054 12.8756 11.7339C12.841 11.7625 12.8005 11.7992 12.753 11.8452H13.5482L13.5498 12.2606Z" fill="url(#paint14_linear_2104_15469)"/>
<path id="Vector_20" d="M8.7832 10.2322H9.34975V11.6142H10.2345V12.0655H8.78382L8.7832 10.2322Z" fill="white"/>
<path id="Vector_21" d="M10.0488 10.7375H10.5786L10.8361 11.5791L11.1034 10.7375H11.617L11.0525 12.0656H10.6013L10.0488 10.7375Z" fill="white"/>
<path id="Vector_22" d="M13.5498 12.0656H12.0215C12.0397 11.9129 12.0944 11.7669 12.1809 11.6397C12.2698 11.5067 12.4364 11.3497 12.6806 11.1688C12.83 11.0583 12.9255 10.9741 12.967 10.9162C13.0042 10.8695 13.0257 10.8122 13.0283 10.7525C13.0287 10.7257 13.0234 10.6991 13.0129 10.6744C13.0023 10.6497 12.9867 10.6276 12.967 10.6093C12.9235 10.5707 12.8672 10.5495 12.809 10.5499C12.7508 10.5502 12.6948 10.572 12.6518 10.6112C12.6107 10.652 12.5828 10.7243 12.5687 10.8276L12.0586 10.7862C12.0785 10.6431 12.115 10.5309 12.1686 10.449C12.2244 10.3671 12.3028 10.3032 12.3943 10.2651C12.4916 10.2221 12.6259 10.2007 12.7974 10.2007C12.9769 10.2007 13.1164 10.2211 13.2159 10.262C13.3115 10.2995 13.3935 10.3652 13.451 10.4502C13.5079 10.5341 13.5377 10.6334 13.5366 10.7347C13.5359 10.8487 13.5018 10.96 13.4385 11.0548C13.3729 11.157 13.2538 11.2687 13.0813 11.3899C12.9789 11.461 12.9102 11.5104 12.8756 11.5389C12.841 11.5674 12.8005 11.6042 12.753 11.6502H13.5482L13.5498 12.0656Z" fill="white"/>
<path id="Vector_23" style="mix-blend-mode:screen" d="M9.38196 17.2292C9.38202 17.465 9.31217 17.6955 9.18123 17.8915C9.05029 18.0876 8.86415 18.2404 8.64636 18.3307C8.42856 18.421 8.18889 18.4446 7.95765 18.3986C7.72642 18.3527 7.514 18.2392 7.34727 18.0725C7.18054 17.9058 7.06699 17.6934 7.02097 17.4622C6.97496 17.231 6.99854 16.9913 7.08875 16.7735C7.17896 16.5557 7.33173 16.3695 7.52776 16.2385C7.72378 16.1075 7.95425 16.0376 8.19001 16.0376C8.50608 16.0376 8.80921 16.1631 9.03274 16.3866C9.25626 16.6101 9.38188 16.9132 9.38196 17.2292Z" fill="url(#paint15_radial_2104_15469)"/>
<path id="Vector_24" d="M8.1891 17.8187L7.69092 17.9959L7.70563 17.4674L7.38281 17.048L7.89019 16.8987L8.1891 16.4622L8.48831 16.8987L8.99539 17.048L8.67287 17.4674L8.68759 17.9959L8.1891 17.8187Z" fill="url(#paint16_linear_2104_15469)"/>
<path id="Vector_25" d="M8.17931 17.248L7.91657 16.9341L7.47266 17.0647L8.17931 17.248Z" fill="url(#paint17_linear_2104_15469)"/>
<path id="Vector_26" d="M8.18583 17.2451V16.5449L7.92188 16.9303L8.18583 17.2451Z" fill="url(#paint18_linear_2104_15469)"/>
<path id="Vector_27" d="M8.90648 17.0648L8.46073 16.9336L8.19922 17.2478L8.90648 17.0648Z" fill="url(#paint19_linear_2104_15469)"/>
<path id="Vector_28" d="M8.17877 17.2547L7.46875 17.0708L7.75294 17.4402L8.17877 17.2547Z" fill="url(#paint20_linear_2104_15469)"/>
<path id="Vector_29" d="M8.19336 17.2435L8.45517 16.9293L8.19336 16.5476V17.2435Z" fill="url(#paint21_linear_2104_15469)"/>
<path id="Vector_30" d="M8.19922 17.2617L8.63639 17.9129L8.62352 17.4466L8.19922 17.2617Z" fill="url(#paint22_linear_2104_15469)"/>
<path id="Vector_31" d="M8.19922 17.2546L8.62444 17.4401L8.90802 17.0713L8.19922 17.2546Z" fill="url(#paint23_linear_2104_15469)"/>
<path id="Vector_32" d="M8.17998 17.2617L7.75506 17.4469L7.74219 17.9113L8.17998 17.2617Z" fill="url(#paint24_linear_2104_15469)"/>
<path id="Vector_33" d="M8.19336 17.2661V17.76L8.629 17.9145L8.19336 17.2661Z" fill="url(#paint25_linear_2104_15469)"/>
<path id="Vector_34" d="M8.18645 17.2642L7.74805 17.915L8.18645 17.759V17.2642Z" fill="url(#paint26_linear_2104_15469)"/>
<path id="Vector_35" style="mix-blend-mode:screen" d="M8.1891 17.8187L7.69092 17.9959L7.70563 17.4674L7.38281 17.048L7.89019 16.8987L8.1891 16.4622L8.48831 16.8987L8.99539 17.048L8.67287 17.4674L8.68759 17.9959L8.1891 17.8187Z" fill="url(#paint27_linear_2104_15469)"/>
<path id="Vector_36" style="mix-blend-mode:screen" d="M15.0031 17.2292C15.0031 17.465 14.9333 17.6955 14.8023 17.8915C14.6714 18.0876 14.4852 18.2404 14.2675 18.3307C14.0497 18.421 13.81 18.4446 13.5787 18.3986C13.3475 18.3527 13.1351 18.2392 12.9684 18.0725C12.8016 17.9058 12.6881 17.6934 12.6421 17.4622C12.5961 17.231 12.6196 16.9913 12.7098 16.7735C12.8 16.5557 12.9528 16.3695 13.1488 16.2385C13.3449 16.1075 13.5753 16.0376 13.8111 16.0376C14.1272 16.0376 14.4303 16.1631 14.6538 16.3866C14.8774 16.6101 15.003 16.9132 15.0031 17.2292Z" fill="url(#paint28_radial_2104_15469)"/>
<path id="Vector_37" d="M13.8102 17.8187L13.312 17.9959L13.3264 17.4674L13.0039 17.048L13.5113 16.8987L13.8102 16.4622L14.1091 16.8987L14.6165 17.048L14.294 17.4674L14.3084 17.9959L13.8102 17.8187Z" fill="url(#paint29_linear_2104_15469)"/>
<path id="Vector_38" d="M13.8027 17.248L13.5396 16.9341L13.0957 17.0647L13.8027 17.248Z" fill="url(#paint30_linear_2104_15469)"/>
<path id="Vector_39" d="M13.8089 17.2451V16.5449L13.5449 16.9303L13.8089 17.2451Z" fill="url(#paint31_linear_2104_15469)"/>
<path id="Vector_40" d="M14.5273 17.0648L14.0818 16.9336L13.8203 17.2478L14.5273 17.0648Z" fill="url(#paint32_linear_2104_15469)"/>
<path id="Vector_41" d="M13.8002 17.2547L13.0898 17.0708L13.3743 17.4402L13.8002 17.2547Z" fill="url(#paint33_linear_2104_15469)"/>
<path id="Vector_42" d="M13.8145 17.2435L14.076 16.9293L13.8145 16.5476V17.2435Z" fill="url(#paint34_linear_2104_15469)"/>
<path id="Vector_43" d="M13.8203 17.2617L14.2572 17.9129L14.2446 17.4466L13.8203 17.2617Z" fill="url(#paint35_linear_2104_15469)"/>
<path id="Vector_44" d="M13.8223 17.2546L14.2478 17.4401L14.5314 17.0713L13.8223 17.2546Z" fill="url(#paint36_linear_2104_15469)"/>
<path id="Vector_45" d="M13.8011 17.2617L13.3762 17.4469L13.3633 17.9113L13.8011 17.2617Z" fill="url(#paint37_linear_2104_15469)"/>
<path id="Vector_46" d="M13.8145 17.2661V17.76L14.2501 17.9145L13.8145 17.2661Z" fill="url(#paint38_linear_2104_15469)"/>
<path id="Vector_47" d="M13.8078 17.2642L13.3691 17.915L13.8078 17.759V17.2642Z" fill="url(#paint39_linear_2104_15469)"/>
<path id="Vector_48" style="mix-blend-mode:screen" d="M13.8102 17.8187L13.312 17.9959L13.3264 17.4674L13.0039 17.048L13.5113 16.8987L13.8102 16.4622L14.1091 16.8987L14.6165 17.048L14.294 17.4674L14.3084 17.9959L13.8102 17.8187Z" fill="url(#paint40_linear_2104_15469)"/>
</g>
</g>
</g>
<defs>
<radialGradient id="paint0_radial_2104_15469" cx="0" cy="0" r="1" gradientUnits="userSpaceOnUse" gradientTransform="translate(11.0001 11.5002) scale(10.9275)">
<stop stop-color="#C9DEEF"/>
<stop offset="0.36" stop-color="#7A8791"/>
<stop offset="0.77" stop-color="#232629"/>
<stop offset="0.96"/>
</radialGradient>
<linearGradient id="paint1_linear_2104_15469" x1="14.8296" y1="18.129" x2="7.17382" y2="4.8691" gradientUnits="userSpaceOnUse">
<stop stop-color="#C9DEEF"/>
<stop offset="1" stop-color="#E0F9FF"/>
</linearGradient>
<linearGradient id="paint2_linear_2104_15469" x1="14.803" y1="18.0847" x2="7.19874" y2="4.91397" gradientUnits="userSpaceOnUse">
<stop stop-color="white"/>
<stop offset="1" stop-color="#7B7C7D"/>
</linearGradient>
<linearGradient id="paint3_linear_2104_15469" x1="8.20077" y1="8.54" x2="5.67338" y2="5.905" gradientUnits="userSpaceOnUse">
<stop/>
<stop offset="1" stop-color="#C9DEEF"/>
</linearGradient>
<linearGradient id="paint4_linear_2104_15469" x1="7.45426" y1="6.0304" x2="7.22709" y2="5.6806" gradientUnits="userSpaceOnUse">
<stop/>
<stop offset="1" stop-color="#C9DEEF"/>
</linearGradient>
<linearGradient id="paint5_linear_2104_15469" x1="13.6592" y1="16.1068" x2="8.34011" y2="6.89368" gradientUnits="userSpaceOnUse">
<stop stop-color="#E0F9FF"/>
<stop offset="1" stop-color="#C9DEEF"/>
</linearGradient>
<linearGradient id="paint6_linear_2104_15469" x1="13.6048" y1="16.0108" x2="8.39639" y2="6.98932" gradientUnits="userSpaceOnUse">
<stop stop-color="white"/>
<stop offset="1" stop-color="#7B7C7D"/>
</linearGradient>
<linearGradient id="paint7_linear_2104_15469" x1="12.9852" y1="14.5422" x2="11.6685" y2="12.5237" gradientUnits="userSpaceOnUse">
<stop stop-color="#8898A6"/>
<stop offset="1" stop-color="#B0C9E7"/>
</linearGradient>
<linearGradient id="paint8_linear_2104_15469" x1="13.1395" y1="14.6976" x2="12.4711" y2="13.6951" gradientUnits="userSpaceOnUse">
<stop stop-color="#7B7C7D"/>
<stop offset="1" stop-color="#C9DEEF"/>
</linearGradient>
<linearGradient id="paint9_linear_2104_15469" x1="9.6952" y1="9.6479" x2="8.8512" y2="8.43479" gradientUnits="userSpaceOnUse">
<stop/>
<stop offset="1" stop-color="#C9DEEF"/>
</linearGradient>
<linearGradient id="paint10_linear_2104_15469" x1="8.7601" y1="8.34233" x2="8.13807" y2="7.4686" gradientUnits="userSpaceOnUse">
<stop/>
<stop offset="1" stop-color="#D6E6F4"/>
</linearGradient>
<linearGradient id="paint11_linear_2104_15469" x1="13.3326" y1="14.6168" x2="16.456" y2="18.8009" gradientUnits="userSpaceOnUse">
<stop stop-color="#C9DEEF"/>
<stop offset="1" stop-color="#7B7C7D"/>
</linearGradient>
<linearGradient id="paint12_linear_2104_15469" x1="9.50855" y1="12.4276" x2="9.50855" y2="10.4202" gradientUnits="userSpaceOnUse">
<stop stop-color="#7B7C7D"/>
<stop offset="1" stop-color="#C9DEEF"/>
</linearGradient>
<linearGradient id="paint13_linear_2104_15469" x1="10.834" y1="12.4278" x2="10.834" y2="10.4203" gradientUnits="userSpaceOnUse">
<stop stop-color="#7B7C7D"/>
<stop offset="1" stop-color="#C9DEEF"/>
</linearGradient>
<linearGradient id="paint14_linear_2104_15469" x1="12.7858" y1="12.4277" x2="12.7858" y2="10.4203" gradientUnits="userSpaceOnUse">
<stop stop-color="#7B7C7D"/>
<stop offset="1" stop-color="#C9DEEF"/>
</linearGradient>
<radialGradient id="paint15_radial_2104_15469" cx="0" cy="0" r="1" gradientUnits="userSpaceOnUse" gradientTransform="translate(8.19 17.2292) scale(0.890901 0.890902)">
<stop stop-color="#C9DEEF"/>
<stop offset="0.36" stop-color="#7A8791"/>
<stop offset="0.77" stop-color="#232629"/>
<stop offset="0.96"/>
</radialGradient>
<linearGradient id="paint16_linear_2104_15469" x1="8.58642" y1="17.9429" x2="7.89142" y2="16.7402" gradientUnits="userSpaceOnUse">
<stop stop-color="#96A4B7"/>
<stop offset="1" stop-color="#C9DEEF"/>
</linearGradient>
<linearGradient id="paint17_linear_2104_15469" x1="7.83012" y1="16.8807" x2="7.82338" y2="17.3256" gradientUnits="userSpaceOnUse">
<stop stop-color="#C9DEEF"/>
<stop offset="1" stop-color="#8898A6"/>
</linearGradient>
<linearGradient id="paint18_linear_2104_15469" x1="8.31245" y1="17.1366" x2="8.0442" y2="16.7224" gradientUnits="userSpaceOnUse">
<stop stop-color="#8898A6"/>
<stop offset="1" stop-color="#C9DEEF"/>
</linearGradient>
<linearGradient id="paint19_linear_2104_15469" x1="8.78876" y1="16.933" x2="8.2728" y2="17.2586" gradientUnits="userSpaceOnUse">
<stop stop-color="#C9DEEF"/>
<stop offset="1" stop-color="#8898A6"/>
</linearGradient>
<linearGradient id="paint20_linear_2104_15469" x1="7.83664" y1="17.1134" x2="7.76337" y2="17.3955" gradientUnits="userSpaceOnUse">
<stop stop-color="#8898A6"/>
<stop offset="1" stop-color="#B0C9E7"/>
</linearGradient>
<linearGradient id="paint21_linear_2104_15469" x1="8.2185" y1="17.1893" x2="8.39386" y2="16.4425" gradientUnits="userSpaceOnUse">
<stop stop-color="#8898A6"/>
<stop offset="1" stop-color="#C9DEEF"/>
</linearGradient>
<linearGradient id="paint22_linear_2104_15469" x1="8.23386" y1="17.8647" x2="8.61493" y2="17.2899" gradientUnits="userSpaceOnUse">
<stop stop-color="#8898A6"/>
<stop offset="1" stop-color="#C9DEEF"/>
</linearGradient>
<linearGradient id="paint23_linear_2104_15469" x1="8.28629" y1="17.1501" x2="8.73542" y2="17.2491" gradientUnits="userSpaceOnUse">
<stop stop-color="#8898A6"/>
<stop offset="1" stop-color="#B0C9E7"/>
</linearGradient>
<linearGradient id="paint24_linear_2104_15469" x1="8.14533" y1="17.8982" x2="7.77162" y2="17.2663" gradientUnits="userSpaceOnUse">
<stop stop-color="#8898A6"/>
<stop offset="1" stop-color="#C9DEEF"/>
</linearGradient>
<linearGradient id="paint25_linear_2104_15469" x1="8.41133" y1="17.3057" x2="8.41133" y2="17.9918" gradientUnits="userSpaceOnUse">
<stop stop-color="#8898A6"/>
<stop offset="1" stop-color="#B0C9E7"/>
</linearGradient>
<linearGradient id="paint26_linear_2104_15469" x1="7.96725" y1="17.3055" x2="7.96725" y2="18.0009" gradientUnits="userSpaceOnUse">
<stop stop-color="#8898A6"/>
<stop offset="1" stop-color="#B0C9E7"/>
</linearGradient>
<linearGradient id="paint27_linear_2104_15469" x1="7.69552" y1="16.4576" x2="8.21639" y2="17.3135" gradientUnits="userSpaceOnUse">
<stop stop-color="#C9DEEF"/>
<stop offset="1"/>
</linearGradient>
<radialGradient id="paint28_radial_2104_15469" cx="0" cy="0" r="1" gradientUnits="userSpaceOnUse" gradientTransform="translate(13.8111 17.2292) scale(0.890901 0.890902)">
<stop stop-color="#C9DEEF"/>
<stop offset="0.36" stop-color="#7A8791"/>
<stop offset="0.77" stop-color="#232629"/>
<stop offset="0.96"/>
</radialGradient>
<linearGradient id="paint29_linear_2104_15469" x1="14.2075" y1="17.9429" x2="13.5122" y2="16.7402" gradientUnits="userSpaceOnUse">
<stop stop-color="#96A4B7"/>
<stop offset="1" stop-color="#C9DEEF"/>
</linearGradient>
<linearGradient id="paint30_linear_2104_15469" x1="13.4535" y1="16.8807" x2="13.4467" y2="17.3256" gradientUnits="userSpaceOnUse">
<stop stop-color="#C9DEEF"/>
<stop offset="1" stop-color="#8898A6"/>
</linearGradient>
<linearGradient id="paint31_linear_2104_15469" x1="13.9355" y1="17.1366" x2="13.6669" y2="16.7224" gradientUnits="userSpaceOnUse">
<stop stop-color="#8898A6"/>
<stop offset="1" stop-color="#C9DEEF"/>
</linearGradient>
<linearGradient id="paint32_linear_2104_15469" x1="14.4095" y1="16.933" x2="13.8936" y2="17.2586" gradientUnits="userSpaceOnUse">
<stop stop-color="#C9DEEF"/>
<stop offset="1" stop-color="#8898A6"/>
</linearGradient>
<linearGradient id="paint33_linear_2104_15469" x1="13.458" y1="17.1134" x2="13.3845" y2="17.3955" gradientUnits="userSpaceOnUse">
<stop stop-color="#8898A6"/>
<stop offset="1" stop-color="#B0C9E7"/>
</linearGradient>
<linearGradient id="paint34_linear_2104_15469" x1="13.8393" y1="17.1893" x2="14.0146" y2="16.4425" gradientUnits="userSpaceOnUse">
<stop stop-color="#8898A6"/>
<stop offset="1" stop-color="#C9DEEF"/>
</linearGradient>
<linearGradient id="paint35_linear_2104_15469" x1="13.8546" y1="17.8647" x2="14.2357" y2="17.2899" gradientUnits="userSpaceOnUse">
<stop stop-color="#8898A6"/>
<stop offset="1" stop-color="#C9DEEF"/>
</linearGradient>
<linearGradient id="paint36_linear_2104_15469" x1="13.9096" y1="17.1501" x2="14.3588" y2="17.2491" gradientUnits="userSpaceOnUse">
<stop stop-color="#8898A6"/>
<stop offset="1" stop-color="#B0C9E7"/>
</linearGradient>
<linearGradient id="paint37_linear_2104_15469" x1="13.7664" y1="17.8982" x2="13.393" y2="17.2663" gradientUnits="userSpaceOnUse">
<stop stop-color="#8898A6"/>
<stop offset="1" stop-color="#C9DEEF"/>
</linearGradient>
<linearGradient id="paint38_linear_2104_15469" x1="14.0324" y1="17.3057" x2="14.0324" y2="17.9918" gradientUnits="userSpaceOnUse">
<stop stop-color="#8898A6"/>
<stop offset="1" stop-color="#B0C9E7"/>
</linearGradient>
<linearGradient id="paint39_linear_2104_15469" x1="13.5886" y1="17.3055" x2="13.5886" y2="18.0009" gradientUnits="userSpaceOnUse">
<stop stop-color="#8898A6"/>
<stop offset="1" stop-color="#B0C9E7"/>
</linearGradient>
<linearGradient id="paint40_linear_2104_15469" x1="13.3166" y1="16.4576" x2="13.8372" y2="17.3135" gradientUnits="userSpaceOnUse">
<stop stop-color="#C9DEEF"/>
<stop offset="1"/>
</linearGradient>
<clipPath id="clip0_2104_15469">
<rect width="22" height="22" fill="white" transform="translate(0 0.5)"/>
</clipPath>
</defs>
</svg>
