<svg width="22" height="23" viewBox="0 0 22 23" fill="none" xmlns="http://www.w3.org/2000/svg">
<g id="Frame" clip-path="url(#clip0_2104_15424)">
<g id="Group">
<g id="Layer 1">
<path id="Vector" style="mix-blend-mode:screen" d="M18.7779 19.2785C23.0737 14.9827 23.0737 8.01779 18.7779 3.72196C14.4821 -0.573867 7.5173 -0.573867 3.22153 3.72196C-1.07423 8.01779 -1.07423 14.9827 3.22153 19.2785C7.5173 23.5744 14.4821 23.5744 18.7779 19.2785Z" fill="url(#paint0_radial_2104_15424)"/>
<path id="Vector_2" d="M10.7743 19.7584C8.88155 19.2209 5.31432 17.2497 3.95928 15.8229C3.8531 15.7149 3.776 15.5818 3.73518 15.436C3.2508 13.5279 3.17201 9.44831 3.73518 7.56197C3.77649 7.41707 3.85355 7.28487 3.95928 7.17753C5.3695 5.80684 8.86132 3.70252 10.774 3.24235C10.8473 3.22488 11.1541 3.22488 11.2274 3.24235C13.1401 3.70099 16.6298 5.805 18.0424 7.17753C18.1506 7.28366 18.228 7.41717 18.2662 7.56381C18.7522 9.47161 18.8276 13.5512 18.2662 15.4378C18.2254 15.5836 18.1484 15.7166 18.0424 15.8247C16.6322 17.1957 13.1401 19.2991 11.2274 19.7599C11.1545 19.7758 10.8464 19.7777 10.7743 19.7584Z" fill="#EEAA47"/>
<path id="Vector_3" style="mix-blend-mode:screen" d="M10.7743 19.7584C8.88155 19.2209 5.31432 17.2497 3.95928 15.8229C3.8531 15.7149 3.776 15.5818 3.73518 15.436C3.2508 13.5279 3.17201 9.44831 3.73518 7.56197C3.77649 7.41707 3.85355 7.28487 3.95928 7.17753C5.3695 5.80684 8.86132 3.70252 10.774 3.24235C10.8473 3.22488 11.1541 3.22488 11.2274 3.24235C13.1401 3.70099 16.6298 5.805 18.0424 7.17753C18.1506 7.28366 18.228 7.41717 18.2662 7.56381C18.7522 9.47161 18.8276 13.5512 18.2662 15.4378C18.2254 15.5836 18.1484 15.7166 18.0424 15.8247C16.6322 17.1957 13.1401 19.2991 11.2274 19.7599C11.1545 19.7758 10.8464 19.7777 10.7743 19.7584Z" fill="url(#paint1_linear_2104_15424)"/>
<path id="Vector_4" style="mix-blend-mode:multiply" d="M10.7732 19.7025C8.89332 19.1691 5.35 17.211 4.00416 15.7943C3.89941 15.6867 3.82349 15.5543 3.78343 15.4096C3.30211 13.5146 3.22394 9.46205 3.78343 7.58888C3.82407 7.44429 3.90051 7.31228 4.00569 7.20506C5.40824 5.84356 8.87462 3.75335 10.7732 3.29655C10.8459 3.27908 11.1509 3.27908 11.2235 3.29655C13.1243 3.75335 16.591 5.84326 17.9926 7.20506C18.1002 7.31048 18.1771 7.44314 18.2152 7.58888C18.6977 9.48351 18.7725 13.5364 18.2152 15.4096C18.1744 15.5544 18.0978 15.6867 17.9926 15.7943C16.591 17.1558 13.1234 19.2451 11.2235 19.7025C11.1521 19.7203 10.8465 19.7231 10.7732 19.7025Z" fill="url(#paint2_linear_2104_15424)"/>
<path id="Vector_5" d="M10.7788 19.5267C8.93943 19.0056 5.47183 17.0886 4.15481 15.7019C4.05173 15.5969 3.97686 15.4675 3.93714 15.3258C3.46625 13.4713 3.38992 9.50731 3.93622 7.67246C3.97602 7.53096 4.05089 7.40179 4.15389 7.29691C5.52578 5.96455 8.91858 3.91909 10.7779 3.4721C10.849 3.45494 11.1476 3.45494 11.2185 3.4721C13.0778 3.91909 16.4709 5.96455 17.8425 7.29691C17.9478 7.4 18.0231 7.52983 18.0602 7.67246C18.5326 9.52662 18.6059 13.4918 18.0602 15.3258C18.0205 15.4675 17.9456 15.5969 17.8425 15.7019C16.4709 17.0346 13.0775 19.0791 11.2185 19.5267C11.1486 19.5439 10.849 19.547 10.7788 19.5267Z" fill="#EEAA47"/>
<path id="Vector_6" style="mix-blend-mode:screen" d="M3.9738 15.4331C3.9738 15.4331 5.1452 9.03518 8.08183 7.18624C11.2088 5.21559 15.9229 5.776 17.9533 7.4315C17.9218 7.38313 17.885 7.3384 17.8436 7.29814C16.4717 5.96454 13.0786 3.91909 11.2193 3.4721C11.1484 3.45494 10.8498 3.45494 10.7787 3.4721C8.91937 3.91909 5.52658 5.96455 4.15468 7.29691C4.05168 7.40179 3.97681 7.53096 3.93702 7.67246C3.38979 9.50577 3.46613 13.4713 3.93702 15.3258C3.94632 15.3625 3.95863 15.3984 3.9738 15.4331Z" fill="url(#paint3_linear_2104_15424)"/>
<path id="Vector_7" style="mix-blend-mode:screen" d="M4.02991 7.83955C4.06978 7.69807 4.14463 7.56891 4.24757 7.46399C5.61916 6.13163 9.01226 4.08617 10.8716 3.63919C10.9424 3.62202 11.2395 3.62202 11.3121 3.63919C13.0596 4.0598 16.166 5.89373 17.6704 7.21904C17.7695 7.28751 17.8637 7.35792 17.953 7.43027C17.9215 7.3819 17.8847 7.33718 17.8433 7.29691C16.4717 5.96455 13.0786 3.91909 11.2193 3.4721C11.1484 3.45494 10.8498 3.45494 10.7787 3.4721C8.91937 3.91909 5.52658 5.96455 4.15468 7.29691C4.05168 7.40179 3.97681 7.53096 3.93702 7.67246C3.38979 9.50577 3.46613 13.4713 3.93702 15.3258C3.94632 15.3625 3.95863 15.3984 3.9738 15.4331C3.9738 15.4331 3.98024 15.399 3.9925 15.3368C3.55534 13.4244 3.4974 9.62319 4.02991 7.83955Z" fill="url(#paint4_linear_2104_15424)"/>
<path id="Vector_8" style="mix-blend-mode:lighten" d="M14.7598 15.2607C16.8366 13.1839 16.8366 9.81662 14.7598 7.73976C12.683 5.6629 9.31577 5.6629 7.23895 7.73976C5.16212 9.81662 5.16212 13.1839 7.23895 15.2607C9.31577 17.3376 12.683 17.3376 14.7598 15.2607Z" fill="url(#paint5_linear_2104_15424)"/>
<path id="Vector_9" style="mix-blend-mode:multiply" d="M11.0007 16.708C13.8768 16.708 16.2083 14.3764 16.2083 11.5002C16.2083 8.62407 13.8768 6.29248 11.0007 6.29248C8.12453 6.29248 5.79297 8.62407 5.79297 11.5002C5.79297 14.3764 8.12453 16.708 11.0007 16.708Z" fill="url(#paint6_linear_2104_15424)"/>
<path id="Vector_10" d="M14.5054 15.0054C16.4412 13.0695 16.4412 9.93095 14.5054 7.99513C12.5696 6.05931 9.4311 6.05931 7.4953 7.99513C5.55951 9.93095 5.55951 13.0695 7.4953 15.0054C9.4311 16.9412 12.5696 16.9412 14.5054 15.0054Z" fill="#E57246"/>
<path id="Vector_11" d="M14.7487 8.25781C15.117 9.34666 15.0955 10.5296 14.6879 11.6044C14.2803 12.6791 13.512 13.5789 12.5143 14.1497C11.5166 14.7205 10.3516 14.9269 9.2185 14.7336C8.08544 14.5403 7.05475 13.9593 6.30273 13.09C6.5374 13.7831 6.92257 14.4157 7.43062 14.9423C7.93866 15.4689 8.55698 15.8765 9.2412 16.1358C9.92541 16.3952 10.6586 16.4999 11.388 16.4424C12.1175 16.3849 12.8252 16.1666 13.4603 15.8032C14.0954 15.4399 14.6422 14.9404 15.0615 14.3407C15.4807 13.741 15.762 13.0559 15.8852 12.3346C16.0084 11.6133 15.9703 10.8737 15.7738 10.1688C15.5774 9.46398 15.2273 8.81136 14.7487 8.25781Z" fill="url(#paint7_linear_2104_15424)"/>
<path id="Vector_12" d="M14.7313 11.5002C14.7314 12.2383 14.5125 12.9598 14.1025 13.5736C13.6925 14.1873 13.1097 14.6657 12.4278 14.9482C11.7459 15.2307 10.9955 15.3047 10.2716 15.1607C9.54765 15.0168 8.88267 14.6613 8.36073 14.1394C7.83878 13.6175 7.48333 12.9526 7.33931 12.2286C7.19529 11.5047 7.26917 10.7543 7.55162 10.0724C7.83407 9.39046 8.31239 8.8076 8.9261 8.39752C9.53981 7.98743 10.2613 7.76855 10.9994 7.76855C11.4895 7.76851 11.9748 7.86501 12.4275 8.05252C12.8803 8.24003 13.2917 8.51489 13.6383 8.86141C13.9848 9.20792 14.2597 9.61931 14.4472 10.0721C14.6348 10.5248 14.7313 11.0101 14.7313 11.5002Z" fill="#EEAA47"/>
<path id="Vector_13" d="M13.6747 8.89917C14.2714 9.64834 14.5572 10.5983 14.4728 11.5524C14.3884 12.5065 13.9402 13.3916 13.2212 14.0243C12.5022 14.6571 11.5673 14.989 10.6103 14.9515C9.65322 14.9139 8.74728 14.5096 8.08008 13.8224C8.39461 14.2186 8.78642 14.5467 9.2317 14.7868C9.67697 15.0268 10.1664 15.1738 10.6703 15.2188C11.1741 15.2638 11.6819 15.2059 12.1626 15.0485C12.6434 14.8912 13.0871 14.6377 13.4669 14.3035C13.8466 13.9693 14.1545 13.5614 14.3717 13.1045C14.5889 12.6477 14.7109 12.1514 14.7303 11.6459C14.7498 11.1404 14.6662 10.6363 14.4847 10.1641C14.3032 9.69188 14.0276 9.26153 13.6747 8.89917Z" fill="url(#paint8_linear_2104_15424)"/>
<path id="Vector_14" style="mix-blend-mode:screen" d="M7.58125 11.8125C7.58108 11.0933 7.78883 10.3892 8.17949 9.78529C8.57014 9.18133 9.12705 8.70317 9.78315 8.40839C10.4392 8.1136 11.1666 8.01476 11.8775 8.12375C12.5885 8.23274 13.2528 8.54493 13.7905 9.02273C13.4527 8.64285 13.0408 8.33601 12.5802 8.12103C12.1196 7.90606 11.6198 7.78749 11.1117 7.7726C10.6036 7.75771 10.0978 7.84681 9.62535 8.03444C9.15291 8.22206 8.72379 8.50426 8.36433 8.8637C8.00487 9.22315 7.72265 9.65226 7.535 10.1247C7.34735 10.5971 7.25822 11.1029 7.27308 11.6111C7.28794 12.1192 7.40648 12.6189 7.62142 13.0796C7.83637 13.5403 8.14318 13.9521 8.52303 14.29C7.9154 13.6079 7.58015 12.726 7.58125 11.8125Z" fill="url(#paint9_linear_2104_15424)"/>
<path id="Vector_15" style="mix-blend-mode:screen" d="M5.68157 11.5C5.68152 10.3649 6.04467 9.25956 6.71791 8.34563C7.39114 7.43171 8.33914 6.75718 9.42324 6.4207C10.5073 6.08423 11.6706 6.10346 12.743 6.47559C13.8154 6.84771 14.7406 7.55321 15.3833 8.48889C15.0053 7.89144 14.5121 7.37533 13.9324 6.97074C13.3526 6.56616 12.6981 6.28121 12.0069 6.13257C11.3158 5.98392 10.602 5.97456 9.90715 6.10503C9.21236 6.2355 8.55054 6.50318 7.96041 6.89243C7.37027 7.28167 6.86366 7.78466 6.47019 8.372C6.07673 8.95933 5.8043 9.61921 5.66885 10.3131C5.5334 11.0069 5.53763 11.7208 5.68131 12.413C5.82499 13.1052 6.10522 13.7618 6.50563 14.3444C5.96584 13.4941 5.67996 12.5073 5.68157 11.5Z" fill="url(#paint10_linear_2104_15424)"/>
<path id="Vector_16" style="mix-blend-mode:multiply" d="M17.9546 7.43042C17.9546 7.43042 17.5613 13.8479 13.7699 16.0411C9.97861 18.2344 4.15625 15.7021 4.15625 15.7021C5.4745 17.0887 8.94057 19.0048 10.7803 19.5269C10.8505 19.5471 11.15 19.544 11.2208 19.5269C13.0799 19.0793 16.4733 17.0347 17.8449 15.7021C17.948 15.5971 18.0229 15.4677 18.0625 15.3259C18.6082 13.492 18.5349 9.52677 18.0625 7.67261C18.0402 7.58645 18.0038 7.5046 17.9546 7.43042Z" fill="url(#paint11_linear_2104_15424)"/>
<path id="Vector_17" d="M8.78516 10.6748H9.3517V12.0565H10.2358V12.5081H8.78516V10.6748Z" fill="url(#paint12_linear_2104_15424)"/>
<path id="Vector_18" d="M10.0547 11.1802H10.5844L10.842 12.0217L11.1093 11.1802H11.6231L11.0584 12.5083H10.6071L10.0547 11.1802Z" fill="url(#paint13_linear_2104_15424)"/>
<path id="Vector_19" d="M13.2166 10.6436V12.5081H12.7013V11.2855C12.6256 11.344 12.5446 11.3953 12.4594 11.4388C12.3649 11.4844 12.2668 11.5221 12.166 11.5513V11.135C12.3395 11.0792 12.4742 11.0121 12.5701 10.9336C12.666 10.8552 12.743 10.756 12.7951 10.6436H13.2166Z" fill="url(#paint14_linear_2104_15424)"/>
<path id="Vector_20" d="M8.7832 10.5234H9.34974V11.9055H10.2336V12.3567H8.7832V10.5234Z" fill="white"/>
<path id="Vector_21" d="M10.0527 11.0286H10.5822L10.84 11.8701L11.1073 11.0286H11.6208L11.0564 12.3566H10.6049L10.0527 11.0286Z" fill="white"/>
<path id="Vector_22" d="M13.2144 10.4922V12.3568H12.6993V11.1351C12.6235 11.1934 12.5426 11.2447 12.4574 11.2884C12.3629 11.3338 12.2647 11.3714 12.1641 11.4009V10.9836C12.3376 10.9278 12.4723 10.8608 12.5681 10.7825C12.6639 10.7038 12.7408 10.6046 12.7931 10.4922H13.2144Z" fill="white"/>
<path id="Vector_23" style="mix-blend-mode:screen" d="M12.3234 18.151C12.3234 18.4126 12.2458 18.6684 12.1005 18.8859C11.9551 19.1035 11.7485 19.273 11.5068 19.3732C11.2651 19.4733 10.9991 19.4995 10.7425 19.4484C10.4859 19.3974 10.2502 19.2714 10.0652 19.0864C9.88018 18.9014 9.7542 18.6657 9.70315 18.4091C9.65211 18.1525 9.67831 17.8865 9.77843 17.6448C9.87855 17.403 10.0481 17.1964 10.2656 17.0511C10.4832 16.9057 10.7389 16.8281 11.0006 16.8281C11.3514 16.8281 11.6879 16.9675 11.936 17.2156C12.1841 17.4637 12.3234 17.8001 12.3234 18.151Z" fill="url(#paint15_radial_2104_15424)"/>
<path id="Vector_24" d="M11.0006 18.7411L10.5018 18.9183L10.5162 18.3892L10.1934 17.9695L10.7013 17.8199L11.0006 17.3833L11.2998 17.8199L11.8074 17.9695L11.4846 18.3892L11.499 18.9183L11.0006 18.7411Z" fill="url(#paint16_linear_2104_15424)"/>
<path id="Vector_25" d="M10.9888 18.1709L10.7058 17.833L10.2285 17.9737L10.9888 18.1709Z" fill="url(#paint17_linear_2104_15424)"/>
<path id="Vector_26" d="M10.9968 18.1678V17.4146L10.7129 17.829L10.9968 18.1678Z" fill="url(#paint18_linear_2104_15424)"/>
<path id="Vector_27" d="M11.7707 17.9741L11.2912 17.8328L11.0098 18.1709L11.7707 17.9741Z" fill="url(#paint19_linear_2104_15424)"/>
<path id="Vector_28" d="M10.9886 18.1783L10.2246 17.9802L10.5303 18.3778L10.9886 18.1783Z" fill="url(#paint20_linear_2104_15424)"/>
<path id="Vector_29" d="M11.0039 18.1664L11.2853 17.8282L11.0039 17.4177V18.1664Z" fill="url(#paint21_linear_2104_15424)"/>
<path id="Vector_30" d="M11.0098 18.1855L11.48 18.8864L11.4666 18.3848L11.0098 18.1855Z" fill="url(#paint22_linear_2104_15424)"/>
<path id="Vector_31" d="M11.0117 18.1783L11.4691 18.3779L11.7745 17.9812L11.0117 18.1783Z" fill="url(#paint23_linear_2104_15424)"/>
<path id="Vector_32" d="M10.9904 18.1855L10.533 18.3848L10.5195 18.8845L10.9904 18.1855Z" fill="url(#paint24_linear_2104_15424)"/>
<path id="Vector_33" d="M11.0039 18.1902V18.7218L11.4723 18.8883L11.0039 18.1902Z" fill="url(#paint25_linear_2104_15424)"/>
<path id="Vector_34" d="M10.9972 18.1882L10.5254 18.8884L10.9972 18.7208V18.1882Z" fill="url(#paint26_linear_2104_15424)"/>
</g>
</g>
</g>
<defs>
<radialGradient id="paint0_radial_2104_15424" cx="0" cy="0" r="1" gradientUnits="userSpaceOnUse" gradientTransform="translate(10.9997 11.5002) scale(10.9273 10.9275)">
<stop stop-color="#EEAA47"/>
<stop offset="0.96"/>
</radialGradient>
<linearGradient id="paint1_linear_2104_15424" x1="14.8293" y1="18.1289" x2="7.17381" y2="4.86912" gradientUnits="userSpaceOnUse">
<stop stop-color="#FFE181"/>
<stop offset="1" stop-color="#EEAA47"/>
</linearGradient>
<linearGradient id="paint2_linear_2104_15424" x1="14.8024" y1="18.0844" x2="7.19845" y2="4.91382" gradientUnits="userSpaceOnUse">
<stop stop-color="#FFE181"/>
<stop offset="1" stop-color="#EEAA47"/>
</linearGradient>
<linearGradient id="paint3_linear_2104_15424" x1="8.19894" y1="8.53976" x2="5.67155" y2="5.9048" gradientUnits="userSpaceOnUse">
<stop/>
<stop offset="1" stop-color="#EEAA47"/>
</linearGradient>
<linearGradient id="paint4_linear_2104_15424" x1="7.45244" y1="6.03015" x2="7.22496" y2="5.68035" gradientUnits="userSpaceOnUse">
<stop/>
<stop offset="1" stop-color="#EEAA47"/>
</linearGradient>
<linearGradient id="paint5_linear_2104_15424" x1="13.6588" y1="16.1068" x2="8.33976" y2="6.89374" gradientUnits="userSpaceOnUse">
<stop stop-color="#FFE181"/>
<stop offset="1" stop-color="#E57246"/>
</linearGradient>
<linearGradient id="paint6_linear_2104_15424" x1="13.605" y1="16.0109" x2="8.39624" y2="6.98938" gradientUnits="userSpaceOnUse">
<stop stop-color="#FFFF00"/>
<stop offset="1" stop-color="#E57246"/>
</linearGradient>
<linearGradient id="paint7_linear_2104_15424" x1="12.7217" y1="14.0842" x2="11.385" y2="12.079" gradientUnits="userSpaceOnUse">
<stop stop-color="#C25E43"/>
<stop offset="1" stop-color="#E57246"/>
</linearGradient>
<linearGradient id="paint8_linear_2104_15424" x1="13.0968" y1="14.633" x2="12.4284" y2="13.6305" gradientUnits="userSpaceOnUse">
<stop stop-color="#D89036"/>
<stop offset="1" stop-color="#EEAA47"/>
</linearGradient>
<linearGradient id="paint9_linear_2104_15424" x1="9.69566" y1="9.64783" x2="8.85166" y2="8.43473" gradientUnits="userSpaceOnUse">
<stop/>
<stop offset="1" stop-color="#EEAA47"/>
</linearGradient>
<linearGradient id="paint10_linear_2104_15424" x1="8.76044" y1="8.34204" x2="8.1381" y2="7.46831" gradientUnits="userSpaceOnUse">
<stop/>
<stop offset="1" stop-color="#EEAA47"/>
</linearGradient>
<linearGradient id="paint11_linear_2104_15424" x1="13.9297" y1="14.2581" x2="17.745" y2="17.8229" gradientUnits="userSpaceOnUse">
<stop offset="0.09" stop-color="#FFFF00"/>
<stop offset="1" stop-color="#E57246"/>
</linearGradient>
<linearGradient id="paint12_linear_2104_15424" x1="9.5105" y1="11.9774" x2="9.5105" y2="10.4317" gradientUnits="userSpaceOnUse">
<stop stop-color="#D89036"/>
<stop offset="1" stop-color="#EEAA47"/>
</linearGradient>
<linearGradient id="paint13_linear_2104_15424" x1="10.8389" y1="11.9776" x2="10.8389" y2="10.4318" gradientUnits="userSpaceOnUse">
<stop stop-color="#D89036"/>
<stop offset="1" stop-color="#EEAA47"/>
</linearGradient>
<linearGradient id="paint14_linear_2104_15424" x1="12.6915" y1="11.9775" x2="12.6915" y2="10.4317" gradientUnits="userSpaceOnUse">
<stop stop-color="#D89036"/>
<stop offset="1" stop-color="#EEAA47"/>
</linearGradient>
<radialGradient id="paint15_radial_2104_15424" cx="0" cy="0" r="1" gradientUnits="userSpaceOnUse" gradientTransform="translate(11.0006 18.151) scale(1.32285 1.32286)">
<stop stop-color="#EEAA47"/>
<stop offset="0.96"/>
</radialGradient>
<linearGradient id="paint16_linear_2104_15424" x1="11.347" y1="17.4934" x2="10.5474" y2="19.0112" gradientUnits="userSpaceOnUse">
<stop stop-color="#F8D400"/>
<stop offset="0.44" stop-color="#E07400"/>
<stop offset="0.54" stop-color="#E17A00"/>
<stop offset="0.67" stop-color="#E68B00"/>
<stop offset="0.82" stop-color="#EDA700"/>
<stop offset="0.98" stop-color="#F6CD00"/>
<stop offset="1" stop-color="#F8D400"/>
</linearGradient>
<linearGradient id="paint17_linear_2104_15424" x1="10.4391" y1="18.413" x2="10.7782" y2="17.7321" gradientUnits="userSpaceOnUse">
<stop offset="0.55" stop-color="#F8D400"/>
<stop offset="0.93" stop-color="#E4FF2B"/>
</linearGradient>
<linearGradient id="paint18_linear_2104_15424" x1="11.1464" y1="18.3168" x2="10.7641" y2="17.4054" gradientUnits="userSpaceOnUse">
<stop stop-color="#E07400"/>
<stop offset="0.11" stop-color="#E68D00"/>
<stop offset="0.36" stop-color="#F6CD00"/>
<stop offset="0.38" stop-color="#F8D400"/>
<stop offset="0.97" stop-color="#E4FF2B"/>
</linearGradient>
<linearGradient id="paint19_linear_2104_15424" x1="11.3378" y1="18.5508" x2="11.4298" y2="17.7104" gradientUnits="userSpaceOnUse">
<stop stop-color="#E07400"/>
<stop offset="0.17" stop-color="#E68D00"/>
<stop offset="0.53" stop-color="#F6CD00"/>
<stop offset="0.57" stop-color="#F8D400"/>
<stop offset="0.92" stop-color="#E4FF2B"/>
</linearGradient>
<linearGradient id="paint20_linear_2104_15424" x1="10.6835" y1="17.7831" x2="10.4656" y2="18.6207" gradientUnits="userSpaceOnUse">
<stop offset="0.09" stop-color="#E07400"/>
<stop offset="0.3" stop-color="#E68D00"/>
<stop offset="0.74" stop-color="#F6CD00"/>
<stop offset="0.79" stop-color="#F8D400"/>
<stop offset="0.93" stop-color="#E4FF2B"/>
</linearGradient>
<linearGradient id="paint21_linear_2104_15424" x1="10.7455" y1="18.1888" x2="11.3482" y2="17.3343" gradientUnits="userSpaceOnUse">
<stop stop-color="#E07400"/>
<stop offset="0.19" stop-color="#E68D00"/>
<stop offset="0.59" stop-color="#F6CD00"/>
<stop offset="0.63" stop-color="#F8D400"/>
<stop offset="0.93" stop-color="#E4FF2B"/>
</linearGradient>
<linearGradient id="paint22_linear_2104_15424" x1="11.0472" y1="18.8346" x2="11.4571" y2="18.2159" gradientUnits="userSpaceOnUse">
<stop stop-color="#E07400"/>
<stop offset="0.19" stop-color="#E68D00"/>
<stop offset="0.58" stop-color="#F6CD00"/>
<stop offset="0.62" stop-color="#F8D400"/>
<stop offset="0.88" stop-color="#E4FF2B"/>
</linearGradient>
<linearGradient id="paint23_linear_2104_15424" x1="11.2821" y1="17.838" x2="11.764" y2="18.8862" gradientUnits="userSpaceOnUse">
<stop offset="0.09" stop-color="#E07400"/>
<stop offset="0.3" stop-color="#E68D00"/>
<stop offset="0.74" stop-color="#F6CD00"/>
<stop offset="0.79" stop-color="#F8D400"/>
<stop offset="0.93" stop-color="#E4FF2B"/>
</linearGradient>
<linearGradient id="paint24_linear_2104_15424" x1="10.953" y1="18.8704" x2="10.5511" y2="18.1905" gradientUnits="userSpaceOnUse">
<stop stop-color="#E07400"/>
<stop offset="0.17" stop-color="#E68D00"/>
<stop offset="0.53" stop-color="#F6CD00"/>
<stop offset="0.57" stop-color="#F8D400"/>
<stop offset="0.93" stop-color="#E4FF2B"/>
</linearGradient>
<linearGradient id="paint25_linear_2104_15424" x1="11.4371" y1="18.1749" x2="10.9067" y2="19.1464" gradientUnits="userSpaceOnUse">
<stop offset="0.09" stop-color="#E07400"/>
<stop offset="0.3" stop-color="#E68D00"/>
<stop offset="0.74" stop-color="#F6CD00"/>
<stop offset="0.79" stop-color="#F8D400"/>
<stop offset="0.93" stop-color="#E4FF2B"/>
</linearGradient>
<linearGradient id="paint26_linear_2104_15424" x1="10.5959" y1="18.2428" x2="11.0968" y2="19.138" gradientUnits="userSpaceOnUse">
<stop offset="0.09" stop-color="#E07400"/>
<stop offset="0.3" stop-color="#E68D00"/>
<stop offset="0.74" stop-color="#F6CD00"/>
<stop offset="0.79" stop-color="#F8D400"/>
<stop offset="0.93" stop-color="#E4FF2B"/>
</linearGradient>
<clipPath id="clip0_2104_15424">
<rect width="22" height="22" fill="white" transform="translate(0 0.5)"/>
</clipPath>
</defs>
</svg>
