<svg width="19" height="18" viewBox="0 0 19 18" fill="none" xmlns="http://www.w3.org/2000/svg">
<g id="material-symbols:history-rounded">
<path id="Vector" d="M10.25 8.7L12.125 10.575C12.2625 10.7125 12.3312 10.8875 12.3312 11.1C12.3312 11.3125 12.2625 11.4875 12.125 11.625C11.9875 11.7625 11.8125 11.8312 11.6 11.8312C11.3875 11.8312 11.2125 11.7625 11.075 11.625L8.975 9.525C8.9 9.45 8.84375 9.3655 8.80625 9.2715C8.76875 9.178 8.75 9.08125 8.75 8.98125V6C8.75 5.7875 8.822 5.60925 8.966 5.46525C9.1095 5.32175 9.2875 5.25 9.5 5.25C9.7125 5.25 9.89075 5.32175 10.0348 5.46525C10.1783 5.60925 10.25 5.7875 10.25 6V8.7ZM9.5 15.75C7.9875 15.75 6.63125 15.303 5.43125 14.409C4.23125 13.5155 3.425 12.35 3.0125 10.9125C2.95 10.6875 2.972 10.475 3.0785 10.275C3.1845 10.075 3.35 9.95 3.575 9.9C3.7875 9.85 3.97825 9.89675 4.14725 10.0403C4.31575 10.1843 4.43125 10.3625 4.49375 10.575C4.81875 11.675 5.447 12.5625 6.3785 13.2375C7.3095 13.9125 8.35 14.25 9.5 14.25C10.9625 14.25 12.203 13.7405 13.2215 12.7215C14.2405 11.703 14.75 10.4625 14.75 9C14.75 7.5375 14.2405 6.29675 13.2215 5.27775C12.203 4.25925 10.9625 3.75 9.5 3.75C8.6375 3.75 7.83125 3.95 7.08125 4.35C6.33125 4.75 5.7 5.3 5.1875 6H6.5C6.7125 6 6.89075 6.07175 7.03475 6.21525C7.17825 6.35925 7.25 6.5375 7.25 6.75C7.25 6.9625 7.17825 7.1405 7.03475 7.284C6.89075 7.428 6.7125 7.5 6.5 7.5H3.5C3.2875 7.5 3.1095 7.428 2.966 7.284C2.822 7.1405 2.75 6.9625 2.75 6.75V3.75C2.75 3.5375 2.822 3.35925 2.966 3.21525C3.1095 3.07175 3.2875 3 3.5 3C3.7125 3 3.89075 3.07175 4.03475 3.21525C4.17825 3.35925 4.25 3.5375 4.25 3.75V4.7625C4.8875 3.9625 5.66575 3.34375 6.58475 2.90625C7.50325 2.46875 8.475 2.25 9.5 2.25C10.4375 2.25 11.3157 2.428 12.1347 2.784C12.9532 3.1405 13.6658 3.62175 14.2723 4.22775C14.8783 4.83425 15.3595 5.54675 15.716 6.36525C16.072 7.18425 16.25 8.0625 16.25 9C16.25 9.9375 16.072 10.8155 15.716 11.634C15.3595 12.453 14.8783 13.1655 14.2723 13.7715C13.6658 14.378 12.9532 14.8595 12.1347 15.216C11.3157 15.572 10.4375 15.75 9.5 15.75Z" fill="#51535F"/>
</g>
</svg>
