<svg xmlns="http://www.w3.org/2000/svg" width="20" height="20" viewBox="0 0 20 20" fill="none">
    <path
        d="M4.99935 15.8333C4.99935 16.75 5.74935 17.5 6.66602 17.5H13.3327C14.2494 17.5 14.9994 16.75 14.9994 15.8333V5.83333H4.99935V15.8333ZM7.64102 10.4917C7.4852 10.3359 7.39767 10.1245 7.39767 9.90417C7.39767 9.68381 7.4852 9.47248 7.64102 9.31667C7.79683 9.16085 8.00816 9.07332 8.22852 9.07332C8.44887 9.07332 8.6602 9.16085 8.81602 9.31667L9.99935 10.4917L11.1743 9.31667C11.3302 9.16085 11.5415 9.07332 11.7618 9.07332C11.9822 9.07332 12.1935 9.16085 12.3493 9.31667C12.5052 9.47248 12.5927 9.68381 12.5927 9.90417C12.5927 10.1245 12.5052 10.3359 12.3493 10.4917L11.1743 11.6667L12.3493 12.8417C12.4265 12.9188 12.4877 13.0104 12.5295 13.1112C12.5712 13.212 12.5927 13.3201 12.5927 13.4292C12.5927 13.5383 12.5712 13.6463 12.5295 13.7471C12.4877 13.8479 12.4265 13.9395 12.3493 14.0167C12.2722 14.0938 12.1806 14.155 12.0798 14.1968C11.979 14.2385 11.871 14.26 11.7618 14.26C11.6527 14.26 11.5447 14.2385 11.4439 14.1968C11.3431 14.155 11.2515 14.0938 11.1743 14.0167L9.99935 12.8417L8.82435 14.0167C8.7472 14.0938 8.65561 14.155 8.5548 14.1968C8.454 14.2385 8.34596 14.26 8.23685 14.26C8.12774 14.26 8.0197 14.2385 7.9189 14.1968C7.81809 14.155 7.7265 14.0938 7.64935 14.0167C7.5722 13.9395 7.511 13.8479 7.46924 13.7471C7.42749 13.6463 7.406 13.5383 7.406 13.4292C7.406 13.3201 7.42749 13.212 7.46924 13.1112C7.511 13.0104 7.5722 12.9188 7.64935 12.8417L8.82435 11.6667L7.64102 10.4917ZM14.9994 3.33333H12.916L12.3244 2.74167C12.1743 2.59167 11.9577 2.5 11.741 2.5H8.25768C8.04102 2.5 7.82435 2.59167 7.67435 2.74167L7.08268 3.33333H4.99935C4.54102 3.33333 4.16602 3.70833 4.16602 4.16667C4.16602 4.625 4.54102 5 4.99935 5H14.9994C15.4577 5 15.8327 4.625 15.8327 4.16667C15.8327 3.70833 15.4577 3.33333 14.9994 3.33333Z"
        fill="#51535F" />
</svg>