<svg width="16" height="16" viewBox="0 0 16 16" fill="none" xmlns="http://www.w3.org/2000/svg">
<g id="mdi:user" clip-path="url(#clip0_2104_1251)">
<path id="Vector" d="M8.00078 0.800049C8.95556 0.800049 9.87123 1.17933 10.5464 1.85446C11.2215 2.5296 11.6008 3.44527 11.6008 4.40005C11.6008 5.35483 11.2215 6.2705 10.5464 6.94563C9.87123 7.62076 8.95556 8.00005 8.00078 8.00005C7.046 8.00005 6.13033 7.62076 5.4552 6.94563C4.78007 6.2705 4.40078 5.35483 4.40078 4.40005C4.40078 3.44527 4.78007 2.5296 5.4552 1.85446C6.13033 1.17933 7.046 0.800049 8.00078 0.800049ZM8.00078 9.80005C11.9788 9.80005 15.2008 11.411 15.2008 13.4C15.2008 14.3942 14.3949 15.2 13.4008 15.2H2.60078C1.60667 15.2 0.800781 14.3942 0.800781 13.4C0.800781 11.411 4.02278 9.80005 8.00078 9.80005Z" fill="#70717E"/>
</g>
<defs>
<clipPath id="clip0_2104_1251">
<rect width="16" height="16" fill="white"/>
</clipPath>
</defs>
</svg>
