<svg width="24" height="24" viewBox="0 0 24 24" fill="none" xmlns="http://www.w3.org/2000/svg">
<path d="M16.2855 4.3316C15.7562 4.17407 15.1993 4.47547 15.0418 5.00481C14.8843 5.53415 15.1857 6.09097 15.715 6.24851C18.1941 6.98633 20.0003 9.28364 20.0003 12.0002C20.0003 14.7167 18.1941 17.014 15.715 17.7518C15.1857 17.9094 14.8843 18.4662 15.0418 18.9955C15.1993 19.5249 15.7562 19.8263 16.2855 19.6688C19.5894 18.6855 22.0003 15.6257 22.0003 12.0002C22.0003 8.37468 19.5894 5.31488 16.2855 4.3316Z" fill="#51535F"/>
<path d="M16.7074 9.29289C16.3168 8.90237 15.6837 8.90237 15.2931 9.29289C14.9026 9.68342 14.9026 10.3166 15.2931 10.7071C15.7827 11.1967 16.0002 11.4397 16.0002 11.9998C16.0002 12.56 15.7825 12.8036 15.2931 13.2929C14.9026 13.6834 14.9026 14.3166 15.2931 14.7071C15.6837 15.0976 16.3168 15.0976 16.7074 14.7071L16.733 14.6815C17.2438 14.1711 18.0002 13.4152 18.0002 11.9998C18.0002 10.5847 17.2441 9.82923 16.7336 9.3191L16.7074 9.29289Z" fill="#51535F"/>
<path d="M13 6.00436C13 4.29235 10.989 3.3717 9.69308 4.49044L5.62807 7.99965H4C2.89543 7.99965 2 8.89508 2 9.99965V13.9996C2 15.1042 2.89543 15.9996 4 15.9996H5.62805L9.69301 19.5091C10.9889 20.6279 13 19.7073 13 17.9952V6.00436Z" fill="#51535F"/>
</svg>
