<svg width="16" height="16" viewBox="0 0 16 16" fill="none" xmlns="http://www.w3.org/2000/svg">
<g id="wallet (1) 1">
<path id="Vector" d="M2.54584 4C2.67334 3.0925 3.08834 2.75 3.95584 2.75H11.7733C11.902 2.7558 12.0235 2.81102 12.1124 2.90417C12.2014 2.99732 12.251 3.1212 12.2508 3.25V4H2.54584ZM13.2508 4.0225V3.25C13.2509 2.85604 13.0959 2.47788 12.8195 2.19722C12.543 1.91655 12.1673 1.75591 11.7733 1.75H3.95584C1.78084 1.75 1.53334 3.5225 1.50084 4.4425C1.49972 4.45163 1.49972 4.46087 1.50084 4.47V4.5V12.5C1.50084 12.8978 1.65888 13.2794 1.94018 13.5607C2.22149 13.842 2.60302 14 3.00084 14H13.0008C13.3987 14 13.7802 13.842 14.0615 13.5607C14.3428 13.2794 14.5008 12.8978 14.5008 12.5V5.5C14.5005 5.14578 14.3748 4.80312 14.146 4.53269C13.9172 4.26227 13.6001 4.08154 13.2508 4.0225ZM11.6258 10.25C11.4033 10.25 11.1858 10.184 11.0008 10.0604C10.8158 9.93679 10.6716 9.76109 10.5865 9.55552C10.5013 9.34995 10.4791 9.12375 10.5225 8.90552C10.5659 8.68729 10.673 8.48684 10.8303 8.3295C10.9877 8.17217 11.1881 8.06503 11.4064 8.02162C11.6246 7.97821 11.8508 8.00049 12.0564 8.08564C12.2619 8.17078 12.4376 8.31498 12.5612 8.49998C12.6849 8.68499 12.7508 8.9025 12.7508 9.125C12.7512 9.27283 12.7223 9.41927 12.6659 9.55591C12.6095 9.69255 12.5266 9.8167 12.4221 9.92123C12.3175 10.0258 12.1934 10.1086 12.0568 10.165C11.9201 10.2215 11.7737 10.2503 11.6258 10.25Z" fill="#65DC80"/>
</g>
</svg>
