<svg xmlns="http://www.w3.org/2000/svg" width="27" height="26" viewBox="0 0 27 26" fill="none">
    <path
        d="M19.9997 1.08398H6.99967C5.56361 1.0857 4.18686 1.65694 3.17141 2.67239C2.15596 3.68784 1.58473 5.06459 1.58301 6.50065V15.1673C1.58458 16.4155 2.01644 17.6251 2.80579 18.592C3.59513 19.559 4.6937 20.2242 5.91634 20.4757V23.834C5.91631 24.0301 5.96953 24.2226 6.07031 24.3908C6.17109 24.5591 6.31566 24.6968 6.4886 24.7894C6.66153 24.8819 6.85634 24.9257 7.05223 24.9162C7.24813 24.9067 7.43777 24.8442 7.60092 24.7353L13.8247 20.584H19.9997C21.4357 20.5823 22.8125 20.011 23.8279 18.9956C24.8434 17.9801 25.4146 16.6034 25.4163 15.1673V6.50065C25.4146 5.06459 24.8434 3.68784 23.8279 2.67239C22.8125 1.65694 21.4357 1.0857 19.9997 1.08398ZM17.833 14.084H9.16634C8.87902 14.084 8.60347 13.9698 8.40031 13.7667C8.19714 13.5635 8.08301 13.288 8.08301 13.0007C8.08301 12.7133 8.19714 12.4378 8.40031 12.2346C8.60347 12.0315 8.87902 11.9173 9.16634 11.9173H17.833C18.1203 11.9173 18.3959 12.0315 18.599 12.2346C18.8022 12.4378 18.9163 12.7133 18.9163 13.0007C18.9163 13.288 18.8022 13.5635 18.599 13.7667C18.3959 13.9698 18.1203 14.084 17.833 14.084ZM19.9997 9.75065H6.99967C6.71236 9.75065 6.43681 9.63652 6.23364 9.43335C6.03048 9.23019 5.91634 8.95464 5.91634 8.66732C5.91634 8.38 6.03048 8.10445 6.23364 7.90129C6.43681 7.69812 6.71236 7.58399 6.99967 7.58399H19.9997C20.287 7.58399 20.5625 7.69812 20.7657 7.90129C20.9689 8.10445 21.083 8.38 21.083 8.66732C21.083 8.95464 20.9689 9.23019 20.7657 9.43335C20.5625 9.63652 20.287 9.75065 19.9997 9.75065Z"
        fill="#51535F" />
</svg>