<svg xmlns="http://www.w3.org/2000/svg" width="27" height="26" viewBox="0 0 27 26" fill="none">
    <g clip-path="url(#clip0_2373_87871)">
        <path
            d="M12.5321 12.0395L0.852422 7.12174C0.685098 7.05125 0.5 7.17414 0.5 7.35574V20.5029C0.5 20.8352 0.702262 21.134 1.01076 21.2573L12.3393 25.7887C12.5061 25.8554 12.6875 25.7326 12.6875 25.553V12.2735C12.6875 12.1713 12.6263 12.0792 12.5321 12.0395Z"
            fill="#51535F" />
        <path
            d="M13.5989 10.6433L24.8883 5.88986C25.0912 5.80445 25.0967 5.51885 24.8971 5.42577L13.8439 0.267616C13.6261 0.166003 13.3746 0.166003 13.1568 0.267616L2.10358 5.42577C1.90406 5.51885 1.90949 5.80445 2.11241 5.88986L13.4018 10.6433C13.4648 10.6698 13.5359 10.6698 13.5989 10.6433Z"
            fill="#51535F" />
        <path
            d="M14.3125 12.2735V25.553C14.3125 25.7326 14.4939 25.8554 14.6607 25.7887L25.9892 21.2573C26.2977 21.1339 26.5 20.8352 26.5 20.5029V7.35574C26.5 7.17414 26.3149 7.05125 26.1476 7.12174L14.4679 12.0395C14.3737 12.0792 14.3125 12.1713 14.3125 12.2735Z"
            fill="#51535F" />
    </g>
    <defs>
        <clipPath id="clip0_2373_87871">
            <rect width="26" height="26" fill="white" transform="translate(0.5)" />
        </clipPath>
    </defs>
</svg>