<svg width="737" height="764" viewBox="0 0 737 764" fill="none" xmlns="http://www.w3.org/2000/svg">
    <g filter="url(#filter0_f_0_1)">
        <circle cx="460" cy="304" r="168" fill="#EC8220" fill-opacity="0.3" />
    </g>
    <g clip-path="url(#clip0_0_1)">
        <path style="mix-blend-mode:screen"
            d="M473.67 430.9C489.163 430.9 501.722 356.577 501.722 264.894C501.722 173.212 489.163 98.8887 473.67 98.8887C458.177 98.8887 445.617 173.212 445.617 264.894C445.617 356.577 458.177 430.9 473.67 430.9Z"
            fill="url(#paint0_radial_0_1)" />
        <path style="mix-blend-mode:screen"
            d="M378.785 424.542C394.278 424.542 406.837 378.273 406.837 321.196C406.837 264.12 394.278 217.851 378.785 217.851C363.292 217.851 350.732 264.12 350.732 321.196C350.732 378.273 363.292 424.542 378.785 424.542Z"
            fill="url(#paint1_radial_0_1)" />
        <path style="mix-blend-mode:screen"
            d="M513.219 428.169C528.712 428.169 541.271 366.166 541.271 289.682C541.271 213.199 528.712 151.196 513.219 151.196C497.726 151.196 485.166 213.199 485.166 289.682C485.166 366.166 497.726 428.169 513.219 428.169Z"
            fill="url(#paint2_radial_0_1)" />
        <path style="mix-blend-mode:screen"
            d="M565.781 421.055C587.386 421.055 604.9 385.054 604.9 340.644C604.9 296.234 587.386 260.232 565.781 260.232C544.176 260.232 526.662 296.234 526.662 340.644C526.662 385.054 544.176 421.055 565.781 421.055Z"
            fill="url(#paint3_radial_0_1)" />
        <path style="mix-blend-mode:screen"
            d="M421.289 365.222C436.782 365.222 449.341 308.023 449.341 237.465C449.341 166.906 436.782 109.707 421.289 109.707C405.796 109.707 393.236 166.906 393.236 237.465C393.236 308.023 405.796 365.222 421.289 365.222Z"
            fill="url(#paint4_radial_0_1)" />
        <path style="mix-blend-mode:screen"
            d="M425.446 348.538C432.795 311.483 412.261 276.62 379.582 270.669C346.904 264.719 314.455 289.933 307.107 326.988C299.758 364.042 320.292 398.905 352.971 404.856C385.649 410.807 418.098 385.592 425.446 348.538Z"
            fill="url(#paint5_radial_0_1)" />
        <path style="mix-blend-mode:screen"
            d="M591.759 368.834C599.107 331.78 578.573 296.917 545.895 290.966C513.216 285.015 480.768 310.23 473.419 347.285C466.07 384.339 486.605 419.202 519.283 425.153C551.962 431.104 584.41 405.889 591.759 368.834Z"
            fill="url(#paint6_radial_0_1)" />
        <path style="mix-blend-mode:screen"
            d="M454.458 432.046C540.271 432.046 609.836 398.286 609.836 356.64C609.836 314.995 540.271 281.234 454.458 281.234C368.645 281.234 299.08 314.995 299.08 356.64C299.08 398.286 368.645 432.046 454.458 432.046Z"
            fill="url(#paint7_radial_0_1)" />
        <path style="mix-blend-mode:screen"
            d="M464.203 407.887C480.523 407.805 493.607 380.903 493.426 347.8C493.246 314.697 479.868 287.928 463.547 288.01C447.227 288.092 434.143 314.994 434.324 348.097C434.504 381.2 447.882 407.969 464.203 407.887Z"
            fill="url(#paint8_radial_0_1)" />
        <path style="mix-blend-mode:screen"
            d="M457.999 442.505C562.932 442.505 647.997 423.7 647.997 400.504C647.997 377.307 562.932 358.503 457.999 358.503C353.065 358.503 268 377.307 268 400.504C268 423.7 353.065 442.505 457.999 442.505Z"
            fill="url(#paint9_radial_0_1)" />
        <path style="mix-blend-mode:screen"
            d="M457.999 439.753C556.06 439.753 635.554 422.18 635.554 400.503C635.554 378.827 556.06 361.254 457.999 361.254C359.938 361.254 280.443 378.827 280.443 400.503C280.443 422.18 359.938 439.753 457.999 439.753Z"
            fill="url(#paint10_radial_0_1)" />
        <g style="mix-blend-mode:overlay">
            <path
                d="M456.276 434.478C456.276 433.782 457.024 433.218 457.955 433.218C458.88 433.218 459.634 433.782 459.634 434.478C459.634 435.173 458.885 435.74 457.955 435.74C457.024 435.74 456.276 435.173 456.276 434.478ZM466.284 434.428C466.264 433.73 466.998 433.153 467.926 433.139C468.851 433.125 469.62 433.677 469.64 434.375C469.66 435.068 468.926 435.647 467.998 435.661H467.963C467.05 435.661 466.304 435.114 466.284 434.428ZM447.919 435.659C446.991 435.642 446.257 435.068 446.277 434.373C446.297 433.677 447.066 433.125 447.991 433.139C448.919 433.139 449.655 433.73 449.633 434.425C449.613 435.111 448.864 435.659 447.956 435.659H447.919ZM476.296 434.224C476.258 433.529 476.977 432.941 477.9 432.912C478.825 432.883 479.611 433.424 479.646 434.107C479.686 434.803 478.967 435.393 478.042 435.422H477.972C477.069 435.422 476.328 434.891 476.288 434.212L476.296 434.224ZM437.878 435.42C436.952 435.389 436.234 434.8 436.271 434.105C436.311 433.409 437.097 432.869 438.017 432.91C438.943 432.938 439.659 433.526 439.619 434.222C439.582 434.901 438.841 435.432 437.943 435.432H437.87L437.878 435.42ZM486.292 433.839C486.232 433.144 486.933 432.544 487.861 432.498C488.784 432.453 489.582 432.976 489.642 433.675C489.702 434.37 489.001 434.97 488.078 435.016H487.963C487.085 435.016 486.337 434.504 486.284 433.837L486.292 433.839ZM427.839 435.004C426.916 434.958 426.215 434.358 426.275 433.663C426.335 432.967 427.133 432.441 428.061 432.489C428.984 432.534 429.685 433.134 429.625 433.828C429.565 434.497 428.83 435.008 427.949 435.006H427.839V435.004ZM496.268 433.285C496.185 432.589 496.869 431.98 497.792 431.915C498.715 431.855 499.538 432.367 499.613 433.06C499.693 433.753 499.012 434.368 498.089 434.428C498.037 434.428 497.987 434.428 497.937 434.428C497.079 434.437 496.345 433.945 496.268 433.29V433.285ZM417.823 434.423C416.898 434.361 416.216 433.749 416.299 433.053C416.381 432.36 417.194 431.858 418.12 431.91C419.043 431.97 419.726 432.584 419.642 433.278C419.564 433.933 418.833 434.428 417.973 434.428L417.823 434.423ZM506.229 432.558C506.124 431.865 506.785 431.239 507.708 431.162C508.629 431.083 509.455 431.58 509.564 432.271C509.669 432.965 509.008 433.588 508.088 433.667C508.024 433.671 507.961 433.671 507.898 433.667V433.667C507.055 433.682 506.329 433.206 506.229 432.563V432.558ZM407.822 433.66C406.901 433.581 406.24 432.943 406.345 432.264C406.447 431.573 407.281 431.069 408.204 431.155C409.124 431.231 409.785 431.858 409.68 432.551C409.583 433.194 408.855 433.667 408.012 433.667C407.952 433.672 407.884 433.67 407.822 433.665V433.66ZM516.165 431.64C516.036 430.952 516.664 430.314 517.592 430.206C518.513 430.108 519.361 430.586 519.488 431.279C519.62 431.968 518.989 432.606 518.061 432.714C517.981 432.714 517.904 432.714 517.827 432.714C517.001 432.733 516.273 432.276 516.165 431.657V431.64ZM397.848 432.704C396.93 432.606 396.294 431.968 396.421 431.27C396.551 430.581 397.402 430.101 398.317 430.199C399.238 430.294 399.876 430.933 399.744 431.633C399.627 432.262 398.908 432.718 398.085 432.718C398.006 432.72 397.927 432.717 397.848 432.709V432.704ZM526.074 430.524C525.919 429.835 526.533 429.185 527.446 429.066C528.362 428.949 529.227 429.412 529.385 430.098C529.539 430.782 528.928 431.437 528.012 431.552C527.919 431.565 527.825 431.572 527.731 431.571V431.571C526.912 431.576 526.204 431.141 526.062 430.529L526.074 430.524ZM387.924 431.542C387.011 431.425 386.395 430.775 386.55 430.086C386.707 429.4 387.575 428.939 388.491 429.058C389.404 429.173 390.018 429.828 389.86 430.514C389.721 431.129 389.012 431.561 388.209 431.561C388.11 431.563 388.01 431.558 387.912 431.547L387.924 431.542ZM535.923 429.178C535.738 428.497 536.322 427.83 537.233 427.691C538.138 427.552 539.026 427.992 539.213 428.674C539.398 429.355 538.814 430.024 537.904 430.163C537.792 430.18 537.678 430.189 537.565 430.189V430.189C536.774 430.194 536.073 429.783 535.911 429.183L535.923 429.178ZM378.031 430.149C377.125 430.01 376.534 429.343 376.723 428.659C376.908 427.978 377.796 427.538 378.704 427.679C379.612 427.818 380.201 428.482 380.011 429.166C379.849 429.761 379.151 430.175 378.37 430.175C378.252 430.177 378.135 430.169 378.018 430.153L378.031 430.149ZM545.695 427.593C545.475 426.914 546.026 426.233 546.942 426.068C547.84 425.903 548.748 426.319 548.97 426.995C549.187 427.674 548.633 428.353 547.723 428.518C547.593 428.543 547.461 428.555 547.329 428.556V428.556C546.565 428.549 545.882 428.167 545.695 427.593ZM368.192 428.504C367.289 428.337 366.737 427.655 366.957 426.979C367.179 426.302 368.084 425.889 368.985 426.051C369.888 426.219 370.437 426.9 370.22 427.574C370.033 428.153 369.347 428.53 368.588 428.53C368.456 428.533 368.323 428.525 368.192 428.504V428.504ZM555.386 425.714C555.137 425.045 555.636 424.344 556.529 424.151C557.42 423.955 558.35 424.342 558.607 425.009C558.856 425.678 558.358 426.379 557.467 426.572C557.312 426.606 557.154 426.624 556.995 426.625V426.625C556.267 426.637 555.596 426.264 555.386 425.714V425.714ZM358.448 426.553C357.557 426.36 357.045 425.659 357.305 424.99C357.554 424.321 358.492 423.938 359.383 424.132C360.276 424.325 360.787 425.026 360.528 425.693C360.316 426.245 359.645 426.603 358.916 426.603C358.759 426.603 358.601 426.586 358.448 426.553V426.553ZM564.948 423.493C564.642 422.838 565.103 422.116 565.981 421.887C566.852 421.648 567.81 422.004 568.119 422.662C568.424 423.319 567.96 424.038 567.089 424.268C566.908 424.315 566.722 424.339 566.535 424.34C565.839 424.34 565.19 424.007 564.948 423.493ZM348.828 424.246C347.952 424.007 347.493 423.29 347.798 422.64C348.107 421.98 349.063 421.636 349.936 421.865C350.814 422.105 351.273 422.822 350.966 423.474C350.717 423.991 350.073 424.316 349.382 424.316C349.195 424.316 349.009 424.293 348.828 424.246ZM574.318 420.859C573.954 420.218 574.343 419.477 575.194 419.198C576.047 418.923 577.035 419.219 577.402 419.857C577.771 420.498 577.377 421.239 576.524 421.516C576.311 421.585 576.087 421.62 575.863 421.619C575.558 421.633 575.256 421.569 574.985 421.436C574.714 421.303 574.484 421.104 574.318 420.859V420.859ZM339.401 421.488C338.548 421.21 338.153 420.469 338.523 419.829C338.892 419.191 339.88 418.896 340.733 419.174C341.581 419.449 341.98 420.192 341.606 420.83C341.441 421.075 341.211 421.274 340.941 421.408C340.671 421.542 340.368 421.606 340.064 421.593V421.593C339.839 421.594 339.614 421.558 339.401 421.488V421.488ZM583.392 417.663C582.938 417.053 583.229 416.286 584.038 415.949C584.846 415.607 585.871 415.827 586.32 416.427C586.774 417.037 586.482 417.804 585.674 418.143C585.416 418.249 585.139 418.304 584.858 418.304V418.304C584.577 418.317 584.297 418.267 584.04 418.157C583.783 418.048 583.557 417.882 583.379 417.673L583.392 417.663ZM330.263 418.117C329.452 417.778 329.165 417.008 329.617 416.401C330.068 415.791 331.091 415.576 331.899 415.923C332.71 416.26 332.997 417.03 332.548 417.637C332.373 417.846 332.149 418.014 331.894 418.127C331.64 418.239 331.361 418.293 331.081 418.285V418.285C330.797 418.287 330.516 418.233 330.255 418.127L330.263 418.117ZM591.878 413.728C591.305 413.181 591.427 412.39 592.155 411.954C592.52 411.744 592.945 411.651 593.368 411.688C593.792 411.726 594.192 411.892 594.51 412.162C595.089 412.705 594.964 413.501 594.238 413.931C593.925 414.113 593.565 414.208 593.198 414.204V414.204C592.711 414.214 592.238 414.044 591.878 413.728V413.728ZM321.689 413.879C320.963 413.446 320.84 412.653 321.419 412.107C321.739 411.839 322.14 411.674 322.565 411.637C322.989 411.601 323.414 411.694 323.779 411.904V411.904C324.503 412.339 324.625 413.131 324.046 413.676C323.69 413.993 323.218 414.165 322.731 414.154C322.364 414.157 322.003 414.062 321.689 413.879V413.879ZM599.153 408.596C598.384 408.204 598.185 407.42 598.704 406.844C599.225 406.267 600.268 406.126 601.036 406.507C601.802 406.899 602.004 407.683 601.483 408.259C601.305 408.44 601.089 408.583 600.85 408.678C600.61 408.774 600.353 408.82 600.093 408.813V408.813C599.766 408.815 599.443 408.74 599.153 408.596V408.596ZM314.454 408.194C313.938 407.618 314.142 406.836 314.916 406.447C315.684 406.055 316.727 406.208 317.241 406.791C317.757 407.367 317.552 408.151 316.784 408.541C316.495 408.683 316.175 408.756 315.851 408.754C315.59 408.76 315.331 408.714 315.09 408.617C314.849 408.521 314.632 408.377 314.454 408.194V408.194ZM603.207 401.836C602.281 401.836 601.533 401.264 601.54 400.566C601.54 399.868 602.289 399.309 603.227 399.314C604.155 399.314 604.903 399.887 604.896 400.583C604.896 401.276 604.147 401.836 603.217 401.836H603.207ZM311.094 400.504C311.094 400.48 311.094 400.451 311.094 400.428V400.341C311.094 399.646 311.865 399.089 312.79 399.098C313.718 399.098 314.459 399.677 314.449 400.375C314.449 400.396 314.449 400.418 314.449 400.437V400.497C314.449 401.192 313.701 401.759 312.77 401.759C311.852 401.776 311.099 401.2 311.099 400.504H311.094ZM598.796 394.272C598.282 393.693 598.494 392.912 599.263 392.525C600.036 392.14 601.079 392.285 601.59 392.876C602.104 393.454 601.892 394.241 601.121 394.626C600.833 394.765 600.515 394.837 600.193 394.836C599.933 394.842 599.674 394.795 599.434 394.698C599.194 394.6 598.978 394.455 598.801 394.272H598.796ZM315.008 394.442C314.242 394.047 314.045 393.263 314.569 392.689C315.09 392.113 316.135 391.972 316.901 392.357C317.667 392.752 317.862 393.536 317.338 394.112C317.16 394.292 316.945 394.434 316.706 394.529C316.467 394.624 316.209 394.669 315.951 394.662V394.662C315.624 394.662 315.302 394.587 315.013 394.442H315.008ZM592.287 389.147C591.567 388.714 591.444 387.92 592.038 387.375C592.357 387.105 592.758 386.94 593.182 386.904C593.606 386.868 594.032 386.963 594.396 387.175V387.175C595.119 387.612 595.236 388.403 594.66 388.948C594.304 389.265 593.833 389.436 593.348 389.426V389.426C592.976 389.429 592.61 389.332 592.292 389.147H592.287ZM321.554 388.812C320.98 388.265 321.107 387.473 321.833 387.041C322.199 386.832 322.625 386.739 323.049 386.777C323.473 386.815 323.874 386.981 324.193 387.251C324.767 387.799 324.64 388.59 323.914 389.022C323.6 389.204 323.24 389.299 322.874 389.295V389.295C322.387 389.302 321.916 389.129 321.559 388.812H321.554ZM584.182 385.119C583.374 384.779 583.085 384.01 583.539 383.402C583.993 382.795 585.016 382.578 585.824 382.924C586.635 383.266 586.924 384.036 586.47 384.643C586.295 384.852 586.071 385.02 585.816 385.132C585.561 385.244 585.283 385.297 585.003 385.289V385.289C584.722 385.287 584.444 385.229 584.187 385.119H584.182ZM329.764 384.531C329.312 383.921 329.604 383.151 330.415 382.814C331.223 382.477 332.244 382.695 332.695 383.292C333.144 383.902 332.855 384.669 332.044 385.006C331.787 385.113 331.51 385.168 331.231 385.167C330.952 385.177 330.675 385.125 330.421 385.014C330.168 384.904 329.944 384.738 329.769 384.531H329.764ZM575.359 381.863C574.508 381.586 574.111 380.845 574.486 380.206C574.855 379.566 575.84 379.274 576.693 379.551C577.544 379.826 577.941 380.57 577.564 381.208C577.399 381.453 577.169 381.652 576.899 381.786C576.629 381.919 576.326 381.983 576.022 381.971C575.798 381.97 575.576 381.933 575.364 381.863H575.359ZM338.68 381.122C338.313 380.484 338.705 379.743 339.558 379.465C340.409 379.19 341.399 379.484 341.763 380.125C342.13 380.763 341.738 381.509 340.885 381.784C340.672 381.852 340.449 381.887 340.224 381.887V381.887C339.92 381.899 339.618 381.835 339.348 381.7C339.078 381.566 338.85 381.367 338.685 381.122H338.68ZM566.146 379.166C565.27 378.927 564.811 378.21 565.118 377.558C565.425 376.903 566.385 376.556 567.259 376.786C568.134 377.025 568.593 377.742 568.284 378.397C568.034 378.915 567.396 379.238 566.7 379.238C566.514 379.237 566.33 379.213 566.151 379.166H566.146ZM347.967 378.325C347.663 377.668 348.122 376.948 348.998 376.719C349.873 376.48 350.831 376.836 351.136 377.493C351.442 378.148 350.983 378.87 350.105 379.1C349.925 379.147 349.739 379.171 349.552 379.171V379.171C348.863 379.171 348.214 378.844 347.972 378.325H347.967ZM556.699 376.891C555.811 376.697 555.299 375.994 555.559 375.327C555.808 374.658 556.751 374.276 557.639 374.469C558.53 374.663 559.039 375.366 558.782 376.033C558.567 376.582 557.899 376.941 557.17 376.941C557.013 376.944 556.857 376.929 556.704 376.898L556.699 376.891ZM357.477 375.973C357.228 375.303 357.727 374.605 358.622 374.412C359.513 374.216 360.443 374.603 360.7 375.272C360.95 375.939 360.451 376.637 359.555 376.833C359.402 376.867 359.246 376.883 359.089 376.884C358.36 376.891 357.694 376.532 357.482 375.98L357.477 375.973ZM547.102 374.966C546.199 374.801 545.647 374.118 545.869 373.444C546.089 372.767 546.997 372.354 547.897 372.516C548.798 372.681 549.352 373.365 549.13 374.041C548.943 374.617 548.257 374.997 547.501 374.997C547.369 375.001 547.237 374.993 547.107 374.974L547.102 374.966ZM367.134 373.991C366.912 373.315 367.466 372.631 368.369 372.466C369.267 372.303 370.175 372.719 370.397 373.396C370.614 374.07 370.06 374.754 369.15 374.919C369.018 374.942 368.884 374.954 368.75 374.954V374.954C368.01 374.962 367.324 374.574 367.139 373.998L367.134 373.991ZM537.392 373.334C536.487 373.195 535.896 372.528 536.088 371.847C536.275 371.163 537.163 370.723 538.068 370.862C538.979 371.001 539.565 371.667 539.378 372.351C539.213 372.946 538.515 373.358 537.732 373.358C537.62 373.361 537.508 373.355 537.397 373.341L537.392 373.334ZM376.888 372.311C376.703 371.627 377.287 370.96 378.198 370.821C379.103 370.68 379.991 371.122 380.179 371.806C380.363 372.487 379.774 373.152 378.869 373.293C378.757 373.31 378.645 373.319 378.532 373.319C377.756 373.329 377.055 372.913 376.893 372.318L376.888 372.311ZM527.611 371.954C526.698 371.837 526.084 371.185 526.241 370.499C526.396 369.81 527.267 369.351 528.18 369.468C529.093 369.585 529.706 370.238 529.549 370.924C529.407 371.538 528.698 371.971 527.898 371.971C527.804 371.974 527.709 371.97 527.616 371.962L527.611 371.954ZM386.717 370.888C386.56 370.202 387.174 369.549 388.092 369.432C389.005 369.318 389.87 369.779 390.025 370.465C390.182 371.151 389.568 371.804 388.655 371.918C388.56 371.932 388.465 371.938 388.369 371.938V371.938C387.573 371.945 386.859 371.51 386.722 370.895L386.717 370.888ZM517.769 370.8C516.849 370.704 516.213 370.066 516.342 369.365C516.47 368.677 517.32 368.194 518.238 368.292C519.156 368.392 519.793 369.028 519.665 369.726C519.546 370.357 518.827 370.812 518.004 370.812C517.926 370.815 517.847 370.813 517.769 370.807V370.8ZM396.601 369.698C396.469 369.009 397.1 368.371 398.028 368.263C398.948 368.168 399.797 368.646 399.924 369.337C400.051 370.025 399.425 370.663 398.494 370.771C398.417 370.771 398.337 370.785 398.26 370.785C397.442 370.793 396.723 370.336 396.606 369.705L396.601 369.698ZM507.885 369.851C506.965 369.774 506.304 369.148 506.409 368.457C506.516 367.764 507.349 367.262 508.267 367.348C509.188 367.424 509.849 368.051 509.746 368.742C509.644 369.385 508.918 369.858 508.08 369.858L507.885 369.851ZM406.525 368.715C406.42 368.024 407.081 367.4 408.002 367.322C408.925 367.243 409.748 367.74 409.86 368.431C409.965 369.124 409.304 369.75 408.381 369.829C408.316 369.829 408.254 369.829 408.189 369.829C407.35 369.844 406.627 369.368 406.53 368.722L406.525 368.715ZM497.969 369.095C497.046 369.031 496.365 368.419 496.447 367.726C496.53 367.032 497.345 366.53 498.269 366.583C499.192 366.643 499.873 367.257 499.793 367.95C499.71 368.605 498.98 369.1 498.119 369.1L497.969 369.095ZM416.486 367.938C416.404 367.243 417.087 366.633 418.01 366.569C418.933 366.509 419.756 367.02 419.829 367.714C419.914 368.409 419.228 369.021 418.305 369.081C418.255 369.081 418.205 369.081 418.157 369.081C417.294 369.086 416.561 368.596 416.486 367.938ZM488.035 368.522C487.112 368.476 486.411 367.876 486.471 367.183C486.531 366.487 487.332 365.959 488.257 366.007C489.185 366.052 489.881 366.652 489.822 367.345C489.764 368.015 489.026 368.524 488.15 368.524H488.035V368.522ZM426.462 367.326C426.402 366.633 427.103 366.033 428.029 365.988C428.952 365.942 429.753 366.466 429.812 367.166C429.872 367.859 429.171 368.459 428.248 368.505H428.136C427.255 368.512 426.517 368 426.465 367.331L426.462 367.326ZM478.079 368.11C477.156 368.079 476.438 367.494 476.475 366.796C476.518 366.1 477.301 365.56 478.221 365.6C479.149 365.631 479.868 366.22 479.823 366.915C479.786 367.594 479.045 368.11 478.149 368.11H478.074H478.079ZM436.443 366.901C436.403 366.203 437.122 365.617 438.047 365.588C438.975 365.557 439.756 366.098 439.794 366.784C439.831 367.479 439.113 368.067 438.187 368.098H438.117C437.237 368.108 436.491 367.577 436.443 366.901ZM468.101 367.874C467.173 367.859 466.439 367.283 466.459 366.588C466.479 365.89 467.247 365.337 468.173 365.352C469.101 365.366 469.834 365.945 469.814 366.64C469.794 367.326 469.051 367.874 468.138 367.874H468.101ZM446.454 366.635C446.437 365.94 447.173 365.364 448.098 365.349C449.026 365.333 449.79 365.885 449.81 366.583C449.832 367.279 449.096 367.855 448.168 367.869H448.133C447.223 367.871 446.474 367.324 446.454 366.635ZM456.465 366.533C456.465 365.835 457.214 365.271 458.142 365.271C459.07 365.271 459.821 365.835 459.818 366.533C459.818 367.228 459.07 367.792 458.139 367.792C457.214 367.792 456.46 367.228 456.465 366.533Z"
                fill="#FFDEC2" />
        </g>
        <g style="mix-blend-mode:overlay">
            <path
                d="M458.146 431.575C421.055 431.575 386.184 428.322 359.958 422.41C333.732 416.498 319.295 408.641 319.295 400.281C319.295 391.922 333.739 384.064 359.958 378.152C386.177 372.241 421.055 368.987 458.146 368.987C495.236 368.987 530.109 372.243 556.336 378.152C582.562 384.062 596.999 391.924 596.999 400.281C596.999 408.638 582.555 416.498 556.336 422.41C530.117 428.322 495.246 431.575 458.146 431.575ZM458.146 369.308C382.36 369.308 320.704 383.204 320.704 400.281C320.704 417.359 382.37 431.255 458.146 431.255C533.921 431.255 595.602 417.361 595.602 400.281C595.602 383.201 533.941 369.308 458.146 369.308Z"
                fill="#FFDEC2" />
        </g>
        <g style="mix-blend-mode:overlay">
            <path
                d="M458.146 429.506C423.512 429.506 390.949 426.465 366.459 420.945C341.969 415.426 328.48 408.089 328.48 400.282C328.48 392.475 341.967 385.138 366.459 379.619C390.952 374.099 423.512 371.061 458.146 371.061C492.779 371.061 525.345 374.101 549.835 379.619C574.325 385.136 587.813 392.477 587.813 400.282C587.813 408.087 574.325 415.426 549.835 420.945C525.345 426.465 492.792 429.506 458.146 429.506ZM458.146 371.381C387.432 371.381 329.9 384.347 329.9 400.282C329.9 416.217 387.442 429.185 458.146 429.185C528.85 429.185 586.394 416.219 586.394 400.282C586.394 384.345 528.872 371.381 458.146 371.381Z"
                fill="#FFDEC2" />
        </g>
        <g style="mix-blend-mode:overlay">
            <path
                d="M522.486 425.394H393.826L329.496 400.293L329.701 400.214L393.814 375.184H522.473L586.806 400.284L586.601 400.365L522.486 425.394ZM394.647 425.073H521.668L585.177 400.281L521.668 375.492H394.647L331.135 400.281L394.647 425.073Z"
                fill="#FFDEC2" />
        </g>
        <g style="mix-blend-mode:overlay">
            <path
                d="M458.146 429.278L457.792 429.23L346.734 414.78V385.785L458.146 371.287L458.503 371.333L569.57 385.785V414.78L569.216 414.825L458.146 429.278ZM348.144 414.596L458.159 428.908L568.173 414.596V385.97L458.146 371.655L348.144 385.97V414.596Z"
                fill="#FFDEC2" />
        </g>
        <g style="mix-blend-mode:overlay">
            <path
                d="M424.857 428.289L333.879 407.788L367.18 379.783L491.457 372.279L582.432 392.783L549.134 420.79L548.737 420.814L424.857 428.289ZM335.463 407.692L425.271 427.932L547.964 420.522L580.838 392.871L491.03 372.628L368.335 380.039L335.463 407.692Z"
                fill="#FFDEC2" />
        </g>
        <g style="mix-blend-mode:overlay">
            <path
                d="M491.457 428.289L491.06 428.265L367.18 420.785L333.879 392.778L424.857 372.274L549.134 379.783L582.432 407.792L491.457 428.289ZM368.338 420.524L491.033 427.935L580.841 407.694L547.966 380.044L425.273 372.633L335.466 392.876L368.338 420.524Z"
                fill="#FFDEC2" />
        </g>
        <g style="mix-blend-mode:overlay">
            <path
                d="M491.457 428.289L491.06 428.265L367.18 420.785L333.879 392.778L424.857 372.274L549.134 379.783L582.432 407.792L491.457 428.289ZM368.338 420.524L491.033 427.935L580.841 407.694L547.966 380.044L425.273 372.633L335.466 392.876L368.338 420.524Z"
                fill="#FFDEC2" />
        </g>
        <path style="mix-blend-mode:color-dodge"
            d="M473.671 270.533C475.914 270.533 477.732 253.901 477.732 233.385C477.732 212.868 475.914 196.236 473.671 196.236C471.428 196.236 469.609 212.868 469.609 233.385C469.609 253.901 471.428 270.533 473.671 270.533Z"
            fill="url(#paint11_radial_0_1)" />
        <path style="mix-blend-mode:color-dodge"
            d="M348.733 406.135C349.838 406.135 350.734 389.504 350.734 368.987C350.734 348.471 349.838 331.839 348.733 331.839C347.628 331.839 346.732 348.471 346.732 368.987C346.732 389.504 347.628 406.135 348.733 406.135Z"
            fill="url(#paint12_radial_0_1)" />
        <path style="mix-blend-mode:color-dodge"
            d="M448.919 325.425C450.024 325.425 450.919 308.794 450.919 288.277C450.919 267.761 450.024 251.129 448.919 251.129C447.814 251.129 446.918 267.761 446.918 288.277C446.918 308.794 447.814 325.425 448.919 325.425Z"
            fill="url(#paint13_radial_0_1)" />
        <path
            d="M457.998 421.648C430.21 421.648 404.071 419.532 384.406 415.691C374.764 413.807 367.173 411.605 361.847 409.148C356.056 406.475 353.115 403.566 353.115 400.504C353.115 397.442 356.051 394.528 361.847 391.862C367.173 389.402 374.764 387.201 384.406 385.319C404.081 381.478 430.22 379.362 457.998 379.362C485.777 379.362 511.926 381.478 531.604 385.319C541.245 387.201 548.834 389.402 554.163 391.862C559.953 394.535 562.894 397.442 562.894 400.504C562.894 403.566 559.958 406.48 554.163 409.148C548.834 411.605 541.245 413.807 531.604 415.691C511.926 419.532 485.787 421.648 457.998 421.648ZM457.998 381.184C430.427 381.184 404.523 383.278 385.057 387.079C366.362 390.729 355.64 395.622 355.64 400.504C355.64 405.385 366.367 410.281 385.057 413.931C404.515 417.732 430.427 419.826 457.998 419.826C485.57 419.826 511.474 417.732 530.943 413.931C549.638 410.281 560.36 405.388 560.36 400.504C560.36 395.62 549.633 390.729 530.943 387.079C511.474 383.278 485.57 381.184 457.998 381.184V381.184Z"
            fill="url(#paint14_linear_0_1)" />
        <path style="mix-blend-mode:screen"
            d="M457.999 416.869C504.293 416.869 541.822 409.542 541.822 400.504C541.822 391.466 504.293 384.139 457.999 384.139C411.705 384.139 374.176 391.466 374.176 400.504C374.176 409.542 411.705 416.869 457.999 416.869Z"
            fill="url(#paint15_radial_0_1)" />
        <path style="mix-blend-mode:color-dodge"
            d="M434.327 334.287C435.716 334.287 436.842 319.243 436.842 300.684C436.842 282.126 435.716 267.081 434.327 267.081C432.938 267.081 431.812 282.126 431.812 300.684C431.812 319.243 432.938 334.287 434.327 334.287Z"
            fill="url(#paint16_radial_0_1)" />
        <path style="mix-blend-mode:color-dodge"
            d="M541.821 365.44C543.21 365.44 544.336 350.395 544.336 331.837C544.336 313.278 543.21 298.233 541.821 298.233C540.432 298.233 539.307 313.278 539.307 331.837C539.307 350.395 540.432 365.44 541.821 365.44Z"
            fill="url(#paint17_radial_0_1)" />
        <path style="mix-blend-mode:color-dodge"
            d="M368.106 414.459C370.349 414.459 372.168 381.411 372.168 340.643C372.168 299.876 370.349 266.827 368.106 266.827C365.863 266.827 364.045 299.876 364.045 340.643C364.045 381.411 365.863 414.459 368.106 414.459Z"
            fill="url(#paint18_radial_0_1)" />
        <path style="mix-blend-mode:color-dodge"
            d="M513.218 335.645C514.601 335.645 515.722 315.257 515.722 290.106C515.722 264.956 514.601 244.567 513.218 244.567C511.834 244.567 510.713 264.956 510.713 290.106C510.713 315.257 511.834 335.645 513.218 335.645Z"
            fill="url(#paint19_radial_0_1)" />
        <path style="mix-blend-mode:color-dodge"
            d="M522.329 430.939C523.434 430.939 524.33 414.307 524.33 393.791C524.33 373.274 523.434 356.643 522.329 356.643C521.224 356.643 520.328 373.274 520.328 393.791C520.328 414.307 521.224 430.939 522.329 430.939Z"
            fill="url(#paint20_radial_0_1)" />
        <path style="mix-blend-mode:color-dodge"
            d="M391.221 385.092C392.326 385.092 393.222 368.461 393.222 347.944C393.222 327.428 392.326 310.796 391.221 310.796C390.116 310.796 389.221 327.428 389.221 347.944C389.221 368.461 390.116 385.092 391.221 385.092Z"
            fill="url(#paint21_radial_0_1)" />
        <path style="mix-blend-mode:color-dodge"
            d="M491.046 405.146C493.289 405.146 495.107 372.097 495.107 331.33C495.107 290.562 493.289 257.514 491.046 257.514C488.803 257.514 486.984 290.562 486.984 331.33C486.984 372.097 488.803 405.146 491.046 405.146Z"
            fill="url(#paint22_radial_0_1)" />
        <path style="mix-blend-mode:color-dodge"
            d="M419.368 241.104C420.429 241.104 421.289 233.302 421.289 223.679C421.289 214.056 420.429 206.255 419.368 206.255C418.307 206.255 417.447 214.056 417.447 223.679C417.447 233.302 418.307 241.104 419.368 241.104Z"
            fill="url(#paint23_radial_0_1)" />
        <path style="mix-blend-mode:color-dodge"
            d="M526.251 300.684C527.312 300.684 528.172 292.882 528.172 283.259C528.172 273.636 527.312 265.835 526.251 265.835C525.19 265.835 524.33 273.636 524.33 283.259C524.33 292.882 525.19 300.684 526.251 300.684Z"
            fill="url(#paint24_radial_0_1)" />
        <path style="mix-blend-mode:color-dodge"
            d="M473.671 342.967C474.732 342.967 475.592 335.166 475.592 325.542C475.592 315.919 474.732 308.118 473.671 308.118C472.61 308.118 471.75 315.919 471.75 325.542C471.75 335.166 472.61 342.967 473.671 342.967Z"
            fill="url(#paint25_radial_0_1)" />
        <path style="mix-blend-mode:color-dodge"
            d="M353.11 328.218C354.171 328.218 355.031 320.417 355.031 310.793C355.031 301.17 354.171 293.369 353.11 293.369C352.049 293.369 351.189 301.17 351.189 310.793C351.189 320.417 352.049 328.218 353.11 328.218Z"
            fill="url(#paint26_radial_0_1)" />
        <path style="mix-blend-mode:color-dodge"
            d="M582.433 402.517C583.494 402.517 584.354 394.715 584.354 385.092C584.354 375.469 583.494 367.668 582.433 367.668C581.372 367.668 580.512 375.469 580.512 385.092C580.512 394.715 581.372 402.517 582.433 402.517Z"
            fill="url(#paint27_radial_0_1)" />
        <path style="mix-blend-mode:color-dodge"
            d="M456.397 206.252C457.458 206.252 458.318 198.451 458.318 188.828C458.318 179.204 457.458 171.403 456.397 171.403C455.337 171.403 454.477 179.204 454.477 188.828C454.477 198.451 455.337 206.252 456.397 206.252Z"
            fill="url(#paint28_radial_0_1)" />
        <path style="mix-blend-mode:color-dodge"
            d="M457.999 389.698C459.06 389.698 459.92 381.897 459.92 372.274C459.92 362.651 459.06 354.85 457.999 354.85C456.938 354.85 456.078 362.651 456.078 372.274C456.078 381.897 456.938 389.698 457.999 389.698Z"
            fill="url(#paint29_radial_0_1)" />
        <path style="mix-blend-mode:color-dodge"
            d="M415.309 432.319C417.552 432.319 419.371 399.27 419.371 358.503C419.371 317.735 417.552 284.687 415.309 284.687C413.066 284.687 411.248 317.735 411.248 358.503C411.248 399.27 413.066 432.319 415.309 432.319Z"
            fill="url(#paint30_radial_0_1)" />
        <path style="mix-blend-mode:color-dodge"
            d="M565.78 418.917C568.023 418.917 569.841 385.869 569.841 345.101C569.841 304.334 568.023 271.285 565.78 271.285C563.537 271.285 561.719 304.334 561.719 345.101C561.719 385.869 563.537 418.917 565.78 418.917Z"
            fill="url(#paint31_radial_0_1)" />
        <path
            d="M429.544 158.168C428.629 158.168 427.822 157.991 427.122 157.636C426.431 157.272 425.895 156.763 425.512 156.11C425.139 155.457 424.952 154.696 424.952 153.828V148.816H427.052V153.856C427.052 154.612 427.267 155.195 427.696 155.606C428.135 156.017 428.751 156.222 429.544 156.222C430.347 156.222 430.963 156.017 431.392 155.606C431.831 155.195 432.05 154.612 432.05 153.856V148.816H434.15V153.828C434.15 154.696 433.959 155.457 433.576 156.11C433.203 156.763 432.666 157.272 431.966 157.636C431.275 157.991 430.468 158.168 429.544 158.168ZM440.436 150.818C441.257 150.818 441.976 150.967 442.592 151.266C443.208 151.555 443.679 151.975 444.006 152.526C444.342 153.067 444.51 153.697 444.51 154.416V154.556C444.51 155.275 444.342 155.909 444.006 156.46C443.67 157.001 443.194 157.421 442.578 157.72C441.971 158.019 441.257 158.168 440.436 158.168C439.54 158.168 438.779 157.939 438.154 157.482V160.38H436.124V150.986H438.014L438.07 151.588C438.732 151.075 439.521 150.818 440.436 150.818ZM442.41 154.416C442.41 153.865 442.218 153.436 441.836 153.128C441.453 152.82 440.921 152.666 440.24 152.666C439.792 152.666 439.381 152.736 439.008 152.876C438.644 153.007 438.359 153.193 438.154 153.436V155.536C438.368 155.779 438.658 155.97 439.022 156.11C439.395 156.25 439.801 156.32 440.24 156.32C440.921 156.32 441.453 156.166 441.836 155.858C442.218 155.55 442.41 155.116 442.41 154.556V154.416ZM453.945 150.986V157.216C453.945 159.456 452.559 160.567 449.787 160.548C448.471 160.548 447.444 160.31 446.707 159.834C445.97 159.358 445.601 158.695 445.601 157.846V157.762H447.673V157.846C447.673 158.117 447.869 158.341 448.261 158.518C448.653 158.695 449.148 158.784 449.745 158.784C450.454 158.784 450.991 158.653 451.355 158.392C451.728 158.14 451.915 157.771 451.915 157.286V156.922C451.262 157.361 450.492 157.58 449.605 157.58C448.308 157.58 447.309 157.3 446.609 156.74C445.909 156.18 445.559 155.377 445.559 154.332V154.192C445.559 153.128 445.914 152.302 446.623 151.714C447.332 151.117 448.326 150.818 449.605 150.818C450.557 150.818 451.36 151.056 452.013 151.532L452.055 150.986H453.945ZM449.815 155.844C450.263 155.844 450.674 155.774 451.047 155.634C451.42 155.494 451.71 155.303 451.915 155.06V153.422C451.71 153.179 451.416 152.983 451.033 152.834C450.66 152.685 450.254 152.61 449.815 152.61C448.378 152.61 447.659 153.137 447.659 154.192V154.332C447.659 154.845 447.832 155.228 448.177 155.48C448.532 155.723 449.078 155.844 449.815 155.844ZM461.393 150.986V152.778H459.825C458.947 152.778 458.331 152.997 457.977 153.436V158H455.961V150.986H457.851L457.907 151.63C458.495 151.201 459.223 150.986 460.091 150.986H461.393ZM471.25 156.222V158H470.06C469.631 158 469.258 157.93 468.94 157.79C468.632 157.641 468.399 157.431 468.24 157.16C467.531 157.832 466.523 158.168 465.216 158.168C464.227 158.168 463.457 157.981 462.906 157.608C462.356 157.235 462.08 156.712 462.08 156.04C462.08 155.471 462.286 155.018 462.696 154.682C463.107 154.337 463.704 154.122 464.488 154.038L467.946 153.66C467.834 152.969 467.209 152.624 466.07 152.624C465.473 152.624 465.006 152.708 464.67 152.876C464.344 153.035 464.18 153.259 464.18 153.548V153.59H462.136V153.548C462.136 152.997 462.295 152.517 462.612 152.106C462.939 151.695 463.401 151.378 463.998 151.154C464.596 150.93 465.291 150.818 466.084 150.818C467.316 150.818 468.273 151.093 468.954 151.644C469.645 152.195 469.99 152.955 469.99 153.926V155.662C469.99 156.035 470.205 156.222 470.634 156.222H471.25ZM465.356 156.544C465.954 156.544 466.481 156.455 466.938 156.278C467.405 156.091 467.746 155.844 467.96 155.536V155.06L465.02 155.396C464.712 155.433 464.484 155.499 464.334 155.592C464.185 155.685 464.11 155.816 464.11 155.984C464.11 156.357 464.526 156.544 465.356 156.544ZM480.264 148.256V158H478.374L478.318 157.398C477.674 157.911 476.857 158.168 475.868 158.168C475.056 158.168 474.351 158.023 473.754 157.734C473.156 157.435 472.694 157.015 472.368 156.474C472.041 155.923 471.878 155.284 471.878 154.556V154.416C471.878 153.688 472.036 153.053 472.354 152.512C472.68 151.971 473.142 151.555 473.74 151.266C474.346 150.967 475.056 150.818 475.868 150.818C476.792 150.818 477.58 151.056 478.234 151.532V148.256H480.264ZM476.162 156.32C476.6 156.32 477.002 156.25 477.366 156.11C477.73 155.961 478.019 155.765 478.234 155.522V153.45C478.028 153.207 477.739 153.016 477.366 152.876C477.002 152.736 476.6 152.666 476.162 152.666C475.471 152.666 474.934 152.82 474.552 153.128C474.169 153.436 473.978 153.865 473.978 154.416V154.556C473.978 155.116 474.169 155.55 474.552 155.858C474.934 156.166 475.471 156.32 476.162 156.32ZM490.147 155.088H483.903C483.968 155.527 484.183 155.863 484.547 156.096C484.911 156.329 485.401 156.446 486.017 156.446C486.577 156.446 487.034 156.371 487.389 156.222C487.744 156.073 487.949 155.867 488.005 155.606H490.133C490.03 156.427 489.62 157.062 488.901 157.51C488.192 157.949 487.23 158.168 486.017 158.168C485.158 158.168 484.412 158.028 483.777 157.748C483.142 157.459 482.657 157.048 482.321 156.516C481.985 155.984 481.817 155.359 481.817 154.64V154.374C481.817 153.646 481.985 153.016 482.321 152.484C482.666 151.943 483.152 151.532 483.777 151.252C484.412 150.963 485.158 150.818 486.017 150.818C487.324 150.818 488.336 151.131 489.055 151.756C489.783 152.372 490.147 153.24 490.147 154.36V155.088ZM486.003 152.512C485.462 152.512 485.014 152.61 484.659 152.806C484.304 153.002 484.071 153.277 483.959 153.632H488.005C487.893 153.277 487.664 153.002 487.319 152.806C486.974 152.61 486.535 152.512 486.003 152.512Z"
            fill="white" />
        <path
            d="M374.892 468.816C376.609 468.816 377.906 469.199 378.784 469.964C379.67 470.72 380.114 471.845 380.114 473.338V473.492C380.114 474.985 379.675 476.11 378.798 476.866C377.92 477.622 376.618 478 374.892 478H370.314V468.816H374.892ZM374.892 476.11C375.946 476.11 376.721 475.9 377.216 475.48C377.72 475.06 377.972 474.407 377.972 473.52V473.324C377.972 472.447 377.715 471.793 377.202 471.364C376.688 470.925 375.914 470.706 374.878 470.706H372.414V476.11H374.892ZM386.934 478.168C385.833 478.168 384.871 477.977 384.05 477.594C383.229 477.211 382.589 476.665 382.132 475.956C381.684 475.247 381.46 474.421 381.46 473.478V473.352C381.46 472.409 381.684 471.583 382.132 470.874C382.589 470.165 383.229 469.619 384.05 469.236C384.881 468.844 385.842 468.648 386.934 468.648C388.035 468.648 388.997 468.844 389.818 469.236C390.639 469.619 391.274 470.165 391.722 470.874C392.17 471.583 392.394 472.409 392.394 473.352V473.478C392.394 474.421 392.17 475.247 391.722 475.956C391.274 476.665 390.639 477.211 389.818 477.594C388.997 477.977 388.035 478.168 386.934 478.168ZM386.934 476.222C388.017 476.222 388.838 475.989 389.398 475.522C389.967 475.055 390.252 474.383 390.252 473.506V473.338C390.252 472.461 389.963 471.784 389.384 471.308C388.815 470.832 387.998 470.594 386.934 470.594C385.861 470.594 385.035 470.832 384.456 471.308C383.887 471.784 383.602 472.461 383.602 473.338V473.506C383.602 474.383 383.887 475.055 384.456 475.522C385.035 475.989 385.861 476.222 386.934 476.222ZM408.815 468.816V469.138L405.637 478H403.075L400.751 471.476L398.441 478H395.879L392.673 469.138V468.816H394.815L397.167 475.662L399.603 468.816H401.899L404.335 475.648L406.673 468.816H408.815ZM419.34 468.816V478H417.324L412.074 471.77V478H410.058V468.816H412.074L417.324 475.032V468.816H419.34ZM423.629 468.816V472.47H428.711V468.816H430.811V478H428.711V474.346H423.629V478H421.529V468.816H423.629ZM435.057 468.816V478H432.943V468.816H435.057ZM439.283 468.816V476.11H445.513V478H437.183V468.816H439.283ZM448.894 468.816V476.11H455.124V478H446.794V468.816H448.894ZM465.107 478.168C463.595 478.168 462.447 477.897 461.663 477.356C460.879 476.815 460.487 476.021 460.487 474.976V474.836H462.559V474.976C462.559 475.424 462.783 475.765 463.231 475.998C463.679 476.231 464.332 476.348 465.191 476.348C465.956 476.348 466.535 476.269 466.927 476.11C467.328 475.942 467.529 475.699 467.529 475.382V475.284C467.529 475.032 467.417 474.841 467.193 474.71C466.969 474.57 466.572 474.458 466.003 474.374L463.665 474.038C461.649 473.739 460.641 472.909 460.641 471.546V471.406C460.641 470.538 461.019 469.861 461.775 469.376C462.54 468.891 463.609 468.648 464.981 468.648C466.437 468.648 467.547 468.909 468.313 469.432C469.078 469.955 469.461 470.711 469.461 471.7V471.826H467.389V471.7C467.389 470.879 466.586 470.468 464.981 470.468C464.262 470.468 463.711 470.543 463.329 470.692C462.955 470.841 462.769 471.061 462.769 471.35V471.462C462.769 471.677 462.871 471.845 463.077 471.966C463.291 472.087 463.655 472.185 464.169 472.26L466.521 472.596C467.594 472.755 468.383 473.044 468.887 473.464C469.4 473.875 469.657 474.449 469.657 475.186V475.326C469.657 476.222 469.26 476.922 468.467 477.426C467.673 477.921 466.553 478.168 465.107 478.168ZM480.85 468.816V478H478.834L473.584 471.77V478H471.568V468.816H473.584L478.834 475.032V468.816H480.85ZM488.092 478.168C486.991 478.168 486.03 477.977 485.208 477.594C484.387 477.211 483.748 476.665 483.29 475.956C482.842 475.247 482.618 474.421 482.618 473.478V473.352C482.618 472.409 482.842 471.583 483.29 470.874C483.748 470.165 484.387 469.619 485.208 469.236C486.039 468.844 487 468.648 488.092 468.648C489.194 468.648 490.155 468.844 490.976 469.236C491.798 469.619 492.432 470.165 492.88 470.874C493.328 471.583 493.552 472.409 493.552 473.352V473.478C493.552 474.421 493.328 475.247 492.88 475.956C492.432 476.665 491.798 477.211 490.976 477.594C490.155 477.977 489.194 478.168 488.092 478.168ZM488.092 476.222C489.175 476.222 489.996 475.989 490.556 475.522C491.126 475.055 491.41 474.383 491.41 473.506V473.338C491.41 472.461 491.121 471.784 490.542 471.308C489.973 470.832 489.156 470.594 488.092 470.594C487.019 470.594 486.193 470.832 485.614 471.308C485.045 471.784 484.76 472.461 484.76 473.338V473.506C484.76 474.383 485.045 475.055 485.614 475.522C486.193 475.989 487.019 476.222 488.092 476.222ZM509.973 468.816V469.138L506.795 478H504.233L501.909 471.476L499.599 478H497.037L493.831 469.138V468.816H495.973L498.325 475.662L500.761 468.816H503.057L505.493 475.648L507.831 468.816H509.973ZM523.438 478H521.352V471.672L518.384 478H516.27L513.302 471.644V478H511.216V468.816H514.114L517.334 475.634L520.54 468.816H523.438V478ZM535.16 477.678V478H533.06L532.22 476.096H527.628L526.788 478H524.688V477.678L528.762 468.816H531.086L535.16 477.678ZM531.422 474.276L529.924 470.86L528.426 474.276H531.422ZM545.682 468.816V478H543.666L538.416 471.77V478H536.4V468.816H538.416L543.666 475.032V468.816H545.682ZM445.784 488.816V492.47H450.866V488.816H452.966V498H450.866V494.346H445.784V498H443.684V488.816H445.784ZM464.689 497.678V498H462.589L461.749 496.096H457.157L456.317 498H454.217V497.678L458.291 488.816H460.615L464.689 497.678ZM460.951 494.276L459.453 490.86L457.955 494.276H460.951ZM463.925 490.706V488.816H473.207V490.706H469.623V498H467.509V490.706H463.925Z"
            fill="#70717E" />
    </g>
    <defs>
        <filter id="filter0_f_0_1" x="0" y="-156" width="920" height="920"
            filterUnits="userSpaceOnUse" color-interpolation-filters="sRGB">
            <feFlood flood-opacity="0" result="BackgroundImageFix" />
            <feBlend mode="normal" in="SourceGraphic" in2="BackgroundImageFix" result="shape" />
            <feGaussianBlur stdDeviation="146" result="effect1_foregroundBlur_0_1" />
        </filter>
        <radialGradient id="paint0_radial_0_1" cx="0" cy="0" r="1" gradientUnits="userSpaceOnUse"
            gradientTransform="translate(474.395 265.204) scale(28.1674 166.071)">
            <stop stop-color="#7D3B01" />
            <stop offset="0.03" stop-color="#683101" />
            <stop offset="0.1" stop-color="#3C1C00" />
            <stop offset="0.19" stop-color="#160A00" />
            <stop offset="0.28" />
            <stop offset="0.38" />
            <stop offset="0.5" />
            <stop offset="0.66" />
            <stop offset="1" />
        </radialGradient>
        <radialGradient id="paint1_radial_0_1" cx="0" cy="0" r="1" gradientUnits="userSpaceOnUse"
            gradientTransform="translate(379.112 321.773) scale(28.1674 103.466)">
            <stop stop-color="#7D3B01" />
            <stop offset="0.03" stop-color="#683101" />
            <stop offset="0.1" stop-color="#3C1C00" />
            <stop offset="0.19" stop-color="#160A00" />
            <stop offset="0.28" />
            <stop offset="0.38" />
            <stop offset="0.5" />
            <stop offset="0.66" />
            <stop offset="1" />
        </radialGradient>
        <radialGradient id="paint2_radial_0_1" cx="0" cy="0" r="1" gradientUnits="userSpaceOnUse"
            gradientTransform="translate(514.109 288.895) scale(28.1674 138.33)">
            <stop stop-color="#7D3B01" />
            <stop offset="0.03" stop-color="#683101" />
            <stop offset="0.1" stop-color="#3C1C00" />
            <stop offset="0.19" stop-color="#160A00" />
            <stop offset="0.28" />
            <stop offset="0.38" />
            <stop offset="0.5" />
            <stop offset="0.66" />
            <stop offset="1" />
        </radialGradient>
        <radialGradient id="paint3_radial_0_1" cx="0" cy="0" r="1" gradientUnits="userSpaceOnUse"
            gradientTransform="translate(565.818 341.657) scale(39.1214 80.5987)">
            <stop stop-color="#7D3B01" />
            <stop offset="0.03" stop-color="#683101" />
            <stop offset="0.1" stop-color="#3C1C00" />
            <stop offset="0.19" stop-color="#160A00" />
            <stop offset="0.28" />
            <stop offset="0.38" />
            <stop offset="0.5" />
            <stop offset="0.66" />
            <stop offset="1" />
        </radialGradient>
        <radialGradient id="paint4_radial_0_1" cx="0" cy="0" r="1" gradientUnits="userSpaceOnUse"
            gradientTransform="translate(421.796 237.809) scale(28.1674 127.833)">
            <stop stop-color="#7D3B01" />
            <stop offset="0.03" stop-color="#683101" />
            <stop offset="0.1" stop-color="#3C1C00" />
            <stop offset="0.19" stop-color="#160A00" />
            <stop offset="0.28" />
            <stop offset="0.38" />
            <stop offset="0.5" />
            <stop offset="0.66" />
            <stop offset="1" />
        </radialGradient>
        <radialGradient id="paint5_radial_0_1" cx="0" cy="0" r="1" gradientUnits="userSpaceOnUse"
            gradientTransform="translate(366.991 337.712) rotate(10.3206) scale(60.2613 68.366)">
            <stop offset="0.09" stop-color="#B15301" />
            <stop offset="0.12" stop-color="#884001" />
            <stop offset="0.16" stop-color="#5F2D00" />
            <stop offset="0.21" stop-color="#3A1B00" />
            <stop offset="0.25" stop-color="#1A0C00" />
            <stop offset="0.31" />
            <stop offset="0.37" />
            <stop offset="0.44" />
            <stop offset="0.53" />
            <stop offset="0.65" />
            <stop offset="1" />
        </radialGradient>
        <radialGradient id="paint6_radial_0_1" cx="0" cy="0" r="1" gradientUnits="userSpaceOnUse"
            gradientTransform="translate(533.626 358.077) rotate(10.3206) scale(60.2613 68.366)">
            <stop offset="0.09" stop-color="#B15301" />
            <stop offset="0.12" stop-color="#884001" />
            <stop offset="0.16" stop-color="#5F2D00" />
            <stop offset="0.21" stop-color="#3A1B00" />
            <stop offset="0.25" stop-color="#1A0C00" />
            <stop offset="0.31" />
            <stop offset="0.37" />
            <stop offset="0.44" />
            <stop offset="0.53" />
            <stop offset="0.65" />
            <stop offset="1" />
        </radialGradient>
        <radialGradient id="paint7_radial_0_1" cx="0" cy="0" r="1" gradientUnits="userSpaceOnUse"
            gradientTransform="translate(454.458 358.07) scale(155.37 75.9301)">
            <stop offset="0.22" stop-color="#462100" />
            <stop offset="0.25" stop-color="#3D1D00" />
            <stop offset="0.48" stop-color="#090400" />
            <stop offset="0.69" />
            <stop offset="0.87" />
            <stop offset="1" />
        </radialGradient>
        <radialGradient id="paint8_radial_0_1" cx="0" cy="0" r="1" gradientUnits="userSpaceOnUse"
            gradientTransform="translate(464.838 348.244) rotate(-0.287473) scale(29.6975 59.9839)">
            <stop stop-color="#B15301" />
            <stop offset="0.11" stop-color="#7C3A01" />
            <stop offset="0.23" stop-color="#4B2300" />
            <stop offset="0.35" stop-color="#221000" />
            <stop offset="0.48" />
            <stop offset="0.6" />
            <stop offset="0.73" />
            <stop offset="0.86" />
            <stop offset="1" />
        </radialGradient>
        <radialGradient id="paint9_radial_0_1" cx="0" cy="0" r="1" gradientUnits="userSpaceOnUse"
            gradientTransform="translate(457.73 403.444) scale(189.913 42.4254)">
            <stop offset="0.52" />
            <stop offset="0.69" stop-color="#7D3B01" />
            <stop offset="0.75" stop-color="#4D2400" />
            <stop offset="0.83" stop-color="#120800" />
            <stop offset="0.9" />
            <stop offset="0.96" />
            <stop offset="1" />
        </radialGradient>
        <radialGradient id="paint10_radial_0_1" cx="0" cy="0" r="1" gradientUnits="userSpaceOnUse"
            gradientTransform="translate(457.73 401.768) scale(177.474 39.6466)">
            <stop stop-color="#B15301" />
            <stop offset="0.03" stop-color="#803C01" />
            <stop offset="0.08" stop-color="#4E2500" />
            <stop offset="0.12" stop-color="#241100" />
            <stop offset="0.16" stop-color="#010000" />
            <stop offset="0.2" />
            <stop offset="0.24" />
            <stop offset="0.29" />
            <stop offset="0.33" />
            <stop offset="0.38" />
            <stop offset="0.44" />
            <stop offset="0.49" />
            <stop offset="0.53" stop-color="#020100" />
            <stop offset="0.58" stop-color="#251100" />
            <stop offset="0.63" stop-color="#502600" />
            <stop offset="0.68" stop-color="#823D01" />
            <stop offset="0.72" stop-color="#B15301" />
            <stop offset="0.73" stop-color="#964601" />
            <stop offset="0.74" stop-color="#6A3201" />
            <stop offset="0.76" stop-color="#421F00" />
            <stop offset="0.78" stop-color="#200F00" />
            <stop offset="0.8" stop-color="#030100" />
            <stop offset="0.82" />
            <stop offset="0.85" />
            <stop offset="0.87" />
            <stop offset="0.91" />
            <stop offset="1" />
        </radialGradient>
        <radialGradient id="paint11_radial_0_1" cx="0" cy="0" r="1" gradientUnits="userSpaceOnUse"
            gradientTransform="translate(472.24 232.551) scale(4.07459 37.0922)">
            <stop stop-color="#FFDEC2" />
            <stop offset="0.01" stop-color="#FFDABA" />
            <stop offset="0.09" stop-color="#FEA353" />
            <stop offset="0.17" stop-color="#F27101" />
            <stop offset="0.26" stop-color="#A04B01" />
            <stop offset="0.35" stop-color="#5C2B00" />
            <stop offset="0.45" stop-color="#251100" />
            <stop offset="0.55" />
            <stop offset="0.67" />
            <stop offset="0.8" />
            <stop offset="1" />
        </radialGradient>
        <radialGradient id="paint12_radial_0_1" cx="0" cy="0" r="1" gradientUnits="userSpaceOnUse"
            gradientTransform="translate(341.051 368.08) scale(2.03662 37.08)">
            <stop stop-color="#FFDEC2" />
            <stop offset="0.01" stop-color="#FFDABA" />
            <stop offset="0.09" stop-color="#FEA353" />
            <stop offset="0.17" stop-color="#F27101" />
            <stop offset="0.26" stop-color="#A04B01" />
            <stop offset="0.35" stop-color="#5C2B00" />
            <stop offset="0.45" stop-color="#251100" />
            <stop offset="0.55" />
            <stop offset="0.67" />
            <stop offset="0.8" />
            <stop offset="1" />
        </radialGradient>
        <radialGradient id="paint13_radial_0_1" cx="0" cy="0" r="1" gradientUnits="userSpaceOnUse"
            gradientTransform="translate(443.049 287.498) scale(2.03662 37.08)">
            <stop stop-color="#FFDEC2" />
            <stop offset="0.01" stop-color="#FFDABA" />
            <stop offset="0.09" stop-color="#FEA353" />
            <stop offset="0.17" stop-color="#F27101" />
            <stop offset="0.26" stop-color="#A04B01" />
            <stop offset="0.35" stop-color="#5C2B00" />
            <stop offset="0.45" stop-color="#251100" />
            <stop offset="0.55" />
            <stop offset="0.67" />
            <stop offset="0.8" />
            <stop offset="1" />
        </radialGradient>
        <linearGradient id="paint14_linear_0_1" x1="353.11" y1="400.504" x2="562.889" y2="400.504"
            gradientUnits="userSpaceOnUse">
            <stop stop-color="#C15B01" />
            <stop offset="0.52" stop-color="#7E3B01" />
            <stop offset="1" stop-color="#C15B01" />
        </linearGradient>
        <radialGradient id="paint15_radial_0_1" cx="0" cy="0" r="1" gradientUnits="userSpaceOnUse"
            gradientTransform="translate(458.001 398.647) scale(84.3312 15.7974)">
            <stop offset="0.57" stop-color="#7E3B01" />
            <stop offset="0.58" stop-color="#733601" />
            <stop offset="0.66" stop-color="#3E1D00" />
            <stop offset="0.74" stop-color="#120800" />
            <stop offset="0.81" />
            <stop offset="0.88" />
            <stop offset="0.95" />
            <stop offset="1" />
        </radialGradient>
        <radialGradient id="paint16_radial_0_1" cx="0" cy="0" r="1" gradientUnits="userSpaceOnUse"
            gradientTransform="translate(438.728 300.914) scale(2.4903 33.6253)">
            <stop stop-color="#FFDEC2" />
            <stop offset="0.01" stop-color="#FFDABA" />
            <stop offset="0.09" stop-color="#FEA353" />
            <stop offset="0.17" stop-color="#F27101" />
            <stop offset="0.26" stop-color="#A04B01" />
            <stop offset="0.35" stop-color="#5C2B00" />
            <stop offset="0.45" stop-color="#251100" />
            <stop offset="0.55" />
            <stop offset="0.67" />
            <stop offset="0.8" />
            <stop offset="1" />
        </radialGradient>
        <radialGradient id="paint17_radial_0_1" cx="0" cy="0" r="1" gradientUnits="userSpaceOnUse"
            gradientTransform="translate(545.255 332.082) scale(2.49029 33.6253)">
            <stop stop-color="#FFDEC2" />
            <stop offset="0.01" stop-color="#FFDABA" />
            <stop offset="0.09" stop-color="#FEA353" />
            <stop offset="0.17" stop-color="#F27101" />
            <stop offset="0.26" stop-color="#A04B01" />
            <stop offset="0.35" stop-color="#5C2B00" />
            <stop offset="0.45" stop-color="#251100" />
            <stop offset="0.55" />
            <stop offset="0.67" />
            <stop offset="0.8" />
            <stop offset="1" />
        </radialGradient>
        <radialGradient id="paint18_radial_0_1" cx="0" cy="0" r="1" gradientUnits="userSpaceOnUse"
            gradientTransform="translate(366.322 339.679) scale(4.07459 73.7506)">
            <stop stop-color="#FFDEC2" />
            <stop offset="0.01" stop-color="#FFDABA" />
            <stop offset="0.09" stop-color="#FEA353" />
            <stop offset="0.17" stop-color="#F27101" />
            <stop offset="0.26" stop-color="#A04B01" />
            <stop offset="0.35" stop-color="#5C2B00" />
            <stop offset="0.45" stop-color="#251100" />
            <stop offset="0.55" />
            <stop offset="0.67" />
            <stop offset="0.8" />
            <stop offset="1" />
        </radialGradient>
        <radialGradient id="paint19_radial_0_1" cx="0" cy="0" r="1" gradientUnits="userSpaceOnUse"
            gradientTransform="translate(511.919 289.191) scale(2.51373 45.4988)">
            <stop stop-color="#FFDEC2" />
            <stop offset="0.01" stop-color="#FFDABA" />
            <stop offset="0.09" stop-color="#FEA353" />
            <stop offset="0.17" stop-color="#F27101" />
            <stop offset="0.26" stop-color="#A04B01" />
            <stop offset="0.35" stop-color="#5C2B00" />
            <stop offset="0.45" stop-color="#251100" />
            <stop offset="0.55" />
            <stop offset="0.67" />
            <stop offset="0.8" />
            <stop offset="1" />
        </radialGradient>
        <radialGradient id="paint20_radial_0_1" cx="0" cy="0" r="1" gradientUnits="userSpaceOnUse"
            gradientTransform="translate(517.789 392.843) scale(2.03663 37.08)">
            <stop stop-color="#FFDEC2" />
            <stop offset="0.01" stop-color="#FFDABA" />
            <stop offset="0.09" stop-color="#FEA353" />
            <stop offset="0.17" stop-color="#F27101" />
            <stop offset="0.26" stop-color="#A04B01" />
            <stop offset="0.35" stop-color="#5C2B00" />
            <stop offset="0.45" stop-color="#251100" />
            <stop offset="0.55" />
            <stop offset="0.67" />
            <stop offset="0.8" />
            <stop offset="1" />
        </radialGradient>
        <radialGradient id="paint21_radial_0_1" cx="0" cy="0" r="1" gradientUnits="userSpaceOnUse"
            gradientTransform="translate(384.307 347.069) scale(2.03662 37.08)">
            <stop stop-color="#FFDEC2" />
            <stop offset="0.01" stop-color="#FFDABA" />
            <stop offset="0.09" stop-color="#FEA353" />
            <stop offset="0.17" stop-color="#F27101" />
            <stop offset="0.26" stop-color="#A04B01" />
            <stop offset="0.35" stop-color="#5C2B00" />
            <stop offset="0.45" stop-color="#251100" />
            <stop offset="0.55" />
            <stop offset="0.67" />
            <stop offset="0.8" />
            <stop offset="1" />
        </radialGradient>
        <radialGradient id="paint22_radial_0_1" cx="0" cy="0" r="1" gradientUnits="userSpaceOnUse"
            gradientTransform="translate(489.672 330.373) scale(4.07459 73.7506)">
            <stop stop-color="#FFDEC2" />
            <stop offset="0.01" stop-color="#FFDABA" />
            <stop offset="0.09" stop-color="#FEA353" />
            <stop offset="0.17" stop-color="#F27101" />
            <stop offset="0.26" stop-color="#A04B01" />
            <stop offset="0.35" stop-color="#5C2B00" />
            <stop offset="0.45" stop-color="#251100" />
            <stop offset="0.55" />
            <stop offset="0.67" />
            <stop offset="0.8" />
            <stop offset="1" />
        </radialGradient>
        <radialGradient id="paint23_radial_0_1" cx="0" cy="0" r="1" gradientUnits="userSpaceOnUse"
            gradientTransform="translate(440.336 223.094) scale(1.81132 17.3569)">
            <stop stop-color="#FFDEC2" />
            <stop offset="0.01" stop-color="#FFDABA" />
            <stop offset="0.09" stop-color="#FEA353" />
            <stop offset="0.17" stop-color="#F27101" />
            <stop offset="0.26" stop-color="#A04B01" />
            <stop offset="0.35" stop-color="#5C2B00" />
            <stop offset="0.45" stop-color="#251100" />
            <stop offset="0.55" />
            <stop offset="0.67" />
            <stop offset="0.8" />
            <stop offset="1" />
        </radialGradient>
        <radialGradient id="paint24_radial_0_1" cx="0" cy="0" r="1" gradientUnits="userSpaceOnUse"
            gradientTransform="translate(541.168 282.429) scale(1.81133 17.3569)">
            <stop stop-color="#FFDEC2" />
            <stop offset="0.01" stop-color="#FFDABA" />
            <stop offset="0.09" stop-color="#FEA353" />
            <stop offset="0.17" stop-color="#F27101" />
            <stop offset="0.26" stop-color="#A04B01" />
            <stop offset="0.35" stop-color="#5C2B00" />
            <stop offset="0.45" stop-color="#251100" />
            <stop offset="0.55" />
            <stop offset="0.67" />
            <stop offset="0.8" />
            <stop offset="1" />
        </radialGradient>
        <radialGradient id="paint25_radial_0_1" cx="0" cy="0" r="1" gradientUnits="userSpaceOnUse"
            gradientTransform="translate(491.565 324.538) scale(1.81133 17.3569)">
            <stop stop-color="#FFDEC2" />
            <stop offset="0.01" stop-color="#FFDABA" />
            <stop offset="0.09" stop-color="#FEA353" />
            <stop offset="0.17" stop-color="#F27101" />
            <stop offset="0.26" stop-color="#A04B01" />
            <stop offset="0.35" stop-color="#5C2B00" />
            <stop offset="0.45" stop-color="#251100" />
            <stop offset="0.55" />
            <stop offset="0.67" />
            <stop offset="0.8" />
            <stop offset="1" />
        </radialGradient>
        <radialGradient id="paint26_radial_0_1" cx="0" cy="0" r="1" gradientUnits="userSpaceOnUse"
            gradientTransform="translate(377.828 309.851) scale(1.81133 17.3569)">
            <stop stop-color="#FFDEC2" />
            <stop offset="0.01" stop-color="#FFDABA" />
            <stop offset="0.09" stop-color="#FEA353" />
            <stop offset="0.17" stop-color="#F27101" />
            <stop offset="0.26" stop-color="#A04B01" />
            <stop offset="0.35" stop-color="#5C2B00" />
            <stop offset="0.45" stop-color="#251100" />
            <stop offset="0.55" />
            <stop offset="0.67" />
            <stop offset="0.8" />
            <stop offset="1" />
        </radialGradient>
        <radialGradient id="paint27_radial_0_1" cx="0" cy="0" r="1" gradientUnits="userSpaceOnUse"
            gradientTransform="translate(594.171 383.845) scale(1.81133 17.3569)">
            <stop stop-color="#FFDEC2" />
            <stop offset="0.01" stop-color="#FFDABA" />
            <stop offset="0.09" stop-color="#FEA353" />
            <stop offset="0.17" stop-color="#F27101" />
            <stop offset="0.26" stop-color="#A04B01" />
            <stop offset="0.35" stop-color="#5C2B00" />
            <stop offset="0.45" stop-color="#251100" />
            <stop offset="0.55" />
            <stop offset="0.67" />
            <stop offset="0.8" />
            <stop offset="1" />
        </radialGradient>
        <radialGradient id="paint28_radial_0_1" cx="0" cy="0" r="1" gradientUnits="userSpaceOnUse"
            gradientTransform="translate(475.268 188.387) scale(1.81133 17.3569)">
            <stop stop-color="#FFDEC2" />
            <stop offset="0.01" stop-color="#FFDABA" />
            <stop offset="0.09" stop-color="#FEA353" />
            <stop offset="0.17" stop-color="#F27101" />
            <stop offset="0.26" stop-color="#A04B01" />
            <stop offset="0.35" stop-color="#5C2B00" />
            <stop offset="0.45" stop-color="#251100" />
            <stop offset="0.55" />
            <stop offset="0.67" />
            <stop offset="0.8" />
            <stop offset="1" />
        </radialGradient>
        <radialGradient id="paint29_radial_0_1" cx="0" cy="0" r="1" gradientUnits="userSpaceOnUse"
            gradientTransform="translate(476.781 371.078) scale(1.81133 17.3569)">
            <stop stop-color="#FFDEC2" />
            <stop offset="0.01" stop-color="#FFDABA" />
            <stop offset="0.09" stop-color="#FEA353" />
            <stop offset="0.17" stop-color="#F27101" />
            <stop offset="0.26" stop-color="#A04B01" />
            <stop offset="0.35" stop-color="#5C2B00" />
            <stop offset="0.45" stop-color="#251100" />
            <stop offset="0.55" />
            <stop offset="0.67" />
            <stop offset="0.8" />
            <stop offset="1" />
        </radialGradient>
        <radialGradient id="paint30_radial_0_1" cx="0" cy="0" r="1" gradientUnits="userSpaceOnUse"
            gradientTransform="translate(413.682 357.52) scale(4.07459 73.7506)">
            <stop stop-color="#FFDEC2" />
            <stop offset="0.01" stop-color="#FFDABA" />
            <stop offset="0.09" stop-color="#FEA353" />
            <stop offset="0.17" stop-color="#F27101" />
            <stop offset="0.26" stop-color="#A04B01" />
            <stop offset="0.35" stop-color="#5C2B00" />
            <stop offset="0.45" stop-color="#251100" />
            <stop offset="0.55" />
            <stop offset="0.67" />
            <stop offset="0.8" />
            <stop offset="1" />
        </radialGradient>
        <radialGradient id="paint31_radial_0_1" cx="0" cy="0" r="1" gradientUnits="userSpaceOnUse"
            gradientTransform="translate(564.658 344.133) scale(4.07458 73.7506)">
            <stop stop-color="#FFDEC2" />
            <stop offset="0.01" stop-color="#FFDABA" />
            <stop offset="0.09" stop-color="#FEA353" />
            <stop offset="0.17" stop-color="#F27101" />
            <stop offset="0.26" stop-color="#A04B01" />
            <stop offset="0.35" stop-color="#5C2B00" />
            <stop offset="0.45" stop-color="#251100" />
            <stop offset="0.55" />
            <stop offset="0.67" />
            <stop offset="0.8" />
            <stop offset="1" />
        </radialGradient>
        <clipPath id="clip0_0_1">
            <rect width="380" height="380" fill="white" transform="translate(268 122)" />
        </clipPath>
    </defs>
</svg>