<svg width="30" height="30" viewBox="0 0 30 30" fill="none" xmlns="http://www.w3.org/2000/svg">
<path d="M10.7037 5.99501C10.7037 5.58238 11.0394 5.24667 11.452 5.24667H18.5414C18.9541 5.24667 19.2898 5.58238 19.2898 5.99501V6.39412H20.7864V5.99501C20.7864 4.75711 19.7793 3.75 18.5414 3.75H11.452C10.2141 3.75 9.20703 4.75711 9.20703 5.99501V6.39412H10.7037V5.99501Z" fill="#51535F"/>
<path d="M27.7249 22.4636C25.6463 22.4621 23.9579 24.172 23.9847 26.2501H25.526C26.7639 26.2501 27.771 25.243 27.771 24.0051V22.4639C27.7645 22.4645 27.732 22.4637 27.7249 22.4636Z" fill="#51535F"/>
<path d="M25.526 7.89087H23.9847C23.9562 9.98472 25.6767 11.7064 27.771 11.6768V10.1359C27.771 8.89798 26.7639 7.89087 25.526 7.89087Z" fill="#51535F"/>
<path d="M27.7257 13.174C24.8224 13.1755 22.4611 10.7943 22.4891 7.89087H7.51118C7.54086 10.8099 5.14758 13.2032 2.22852 13.1735V20.9674C5.14758 20.9377 7.54086 23.331 7.51118 26.2501H22.4891C22.4594 23.331 24.8527 20.9377 27.7718 20.9674V13.1735C27.7564 13.1737 27.7411 13.174 27.7257 13.174Z" fill="#51535F"/>
<path d="M2.27461 11.6773C4.35319 11.6789 6.04159 9.969 6.0148 7.89087H4.47353C3.23563 7.89087 2.22852 8.89798 2.22852 10.1359V11.6768C2.23311 11.6767 2.26932 11.6773 2.27461 11.6773Z" fill="#51535F"/>
<path d="M2.27461 22.4636C2.26708 22.4637 2.23555 22.4643 2.22852 22.4643V24.0051C2.22852 25.243 3.23563 26.2501 4.47353 26.2501H6.0148C6.04159 24.1719 4.35319 22.4621 2.27461 22.4636Z" fill="#51535F"/>
</svg>
