<svg width="30" height="30" viewBox="0 0 30 30" fill="none" xmlns="http://www.w3.org/2000/svg">
<path d="M13.1251 2.81262C10.3916 2.81757 7.77144 3.90566 5.83855 5.83855C3.90565 7.77145 2.81757 10.3916 2.81261 13.1251C2.80429 14.8943 3.25623 16.6352 4.12407 18.1769C4.99191 19.7187 6.2458 21.0082 7.76261 21.9189C9.37012 22.923 11.2298 23.4497 13.1251 23.4376C15.8586 23.4327 18.4788 22.3446 20.4117 20.4117C22.3446 18.4788 23.4327 15.8586 23.4376 13.1251C23.4496 11.2298 22.9229 9.37013 21.9189 7.76262C21.0083 6.24574 19.7188 4.99179 18.177 4.12395C16.6353 3.2561 14.8943 2.8042 13.1251 2.81262ZM20.6251 14.0626C20.5017 14.0638 20.3792 14.0404 20.2649 13.9938C20.1506 13.9471 20.0468 13.8781 19.9595 13.7908C19.8722 13.7035 19.8032 13.5996 19.7565 13.4853C19.7098 13.371 19.6864 13.2486 19.6876 13.1251C19.695 11.9205 19.3636 10.738 18.7314 9.71262C18.1483 8.74827 17.3255 7.9513 16.3431 7.39929C15.3606 6.84728 14.252 6.55904 13.1251 6.56262C12.8765 6.56262 12.638 6.46384 12.4622 6.28803C12.2864 6.11221 12.1876 5.87376 12.1876 5.62512C12.1876 5.37648 12.2864 5.13802 12.4622 4.9622C12.638 4.78639 12.8765 4.68762 13.1251 4.68762C15.3616 4.69178 17.5053 5.58206 19.0867 7.1635C20.6682 8.74494 21.5584 10.8886 21.5626 13.1251C21.5638 13.2486 21.5404 13.371 21.4938 13.4853C21.4471 13.5996 21.3781 13.7035 21.2908 13.7908C21.2035 13.8781 21.0996 13.9471 20.9853 13.9938C20.871 14.0404 20.7486 14.0638 20.6251 14.0626Z" fill="#51535F"/>
<path d="M13.1254 25.3124C12.7304 25.3154 12.3356 25.2904 11.9441 25.2374C11.8883 25.2468 11.8313 25.2468 11.7754 25.2374C11.3912 25.1946 11.0094 25.132 10.6316 25.0499C10.6129 25.0499 10.5754 25.0312 10.5566 25.0312C12.3622 26.4368 14.5872 27.1961 16.8754 27.1874C19.6089 27.1824 22.2291 26.0944 24.162 24.1615C26.0948 22.2286 27.1829 19.6084 27.1879 16.8749C27.1967 14.5867 26.4374 12.3617 25.0316 10.5562C25.0316 10.5749 25.0504 10.6124 25.0504 10.6312C25.1326 11.0089 25.1951 11.3907 25.2379 11.7749C25.2472 11.8308 25.2472 11.8878 25.2379 11.9437C25.2909 12.3351 25.3159 12.7299 25.3129 13.1249C25.3066 16.3553 24.0206 19.4516 21.7364 21.7359C19.4521 24.0201 16.3558 25.3062 13.1254 25.3124Z" fill="#51535F"/>
</svg>
