<svg width="32" height="32" viewBox="0 0 32 32" fill="none" xmlns="http://www.w3.org/2000/svg">
<g filter="url(#filter0_i_59_7734)">
<path d="M24.9498 7.52357C23.2655 6.72684 21.4645 6.14782 19.5816 5.81812C19.3504 6.24078 19.0802 6.80928 18.894 7.26151C16.8924 6.9572 14.9093 6.9572 12.9446 7.26151C12.7584 6.80928 12.4821 6.24078 12.2488 5.81812C10.3639 6.14782 8.56083 6.72897 6.87649 7.52778C3.47918 12.718 2.55822 17.7793 3.0187 22.7688C5.27198 24.47 7.45568 25.5034 9.60252 26.1797C10.1326 25.4421 10.6053 24.6581 11.0126 23.8318C10.237 23.5338 9.49406 23.1661 8.7921 22.7392C8.97833 22.5997 9.16049 22.4539 9.33647 22.3039C13.6179 24.3284 18.2698 24.3284 22.5 22.3039C22.6781 22.4539 22.8602 22.5997 23.0444 22.7392C22.3404 23.1682 21.5955 23.5359 20.8198 23.8339C21.2271 24.6581 21.6978 25.4442 22.2299 26.1818C24.3788 25.5055 26.5645 24.4721 28.8178 22.7688C29.3581 16.9847 27.8948 11.9699 24.9498 7.52357ZM11.5959 19.7003C10.3106 19.7003 9.25665 18.4873 9.25665 17.0101C9.25665 15.5329 10.2881 14.3178 11.5959 14.3178C12.9037 14.3178 13.9576 15.5308 13.9351 17.0101C13.9372 18.4873 12.9037 19.7003 11.5959 19.7003ZM20.2406 19.7003C18.9554 19.7003 17.9014 18.4873 17.9014 17.0101C17.9014 15.5329 18.9328 14.3178 20.2406 14.3178C21.5484 14.3178 22.6024 15.5308 22.5799 17.0101C22.5799 18.4873 21.5484 19.7003 20.2406 19.7003Z" fill="#20A1EC"/>
</g>
<defs>
<filter id="filter0_i_59_7734" x="2.9082" y="5.81812" width="26.0195" height="21.3635" filterUnits="userSpaceOnUse" color-interpolation-filters="sRGB">
<feFlood flood-opacity="0" result="BackgroundImageFix"/>
<feBlend mode="normal" in="SourceGraphic" in2="BackgroundImageFix" result="shape"/>
<feColorMatrix in="SourceAlpha" type="matrix" values="0 0 0 0 0 0 0 0 0 0 0 0 0 0 0 0 0 0 127 0" result="hardAlpha"/>
<feOffset dy="1"/>
<feGaussianBlur stdDeviation="3.5"/>
<feComposite in2="hardAlpha" operator="arithmetic" k2="-1" k3="1"/>
<feColorMatrix type="matrix" values="0 0 0 0 1 0 0 0 0 1 0 0 0 0 1 0 0 0 0.47 0"/>
<feBlend mode="normal" in2="shape" result="effect1_innerShadow_59_7734"/>
</filter>
</defs>
</svg>
