<svg width="34" height="30" viewBox="0 0 34 30" fill="none" xmlns="http://www.w3.org/2000/svg">
<path d="M33.7126 9.79882L33.0605 9.14667C32.679 8.76459 32.0593 8.76459 31.6772 9.14667C31.2951 9.52847 31.2951 10.1479 31.6772 10.53L32.3293 11.1822C32.5204 11.3732 32.7707 11.4688 33.021 11.4688C33.2712 11.4688 33.5216 11.3732 33.7126 11.1822C34.0948 10.8004 34.0948 10.181 33.7126 9.79882Z" fill="#51535F"/>
<path d="M29.8005 9.14647C29.4184 8.76433 28.7987 8.76433 28.4172 9.14647L27.7651 9.79862C27.383 10.1807 27.383 10.8001 27.7651 11.182C27.9562 11.373 28.2065 11.4686 28.4567 11.4686C28.707 11.4686 28.9573 11.373 29.1484 11.182L29.8005 10.5298C30.1826 10.1477 30.1826 9.52833 29.8005 9.14647Z" fill="#51535F"/>
<path d="M33.7127 5.23342C33.5216 5.04234 33.2713 4.94678 33.021 4.94678C32.7707 4.94678 32.5204 5.04234 32.3293 5.23342L31.6772 5.88556C31.2951 6.26765 31.2951 6.88705 31.6772 7.2689C32.0593 7.65099 32.679 7.65099 33.0605 7.2689L33.7127 6.61675C34.0948 6.23467 34.0948 5.61527 33.7127 5.23342Z" fill="#51535F"/>
<path d="M29.8784 6.12395L28.495 4.74062C27.3509 3.59582 25.4882 3.59646 24.3447 4.74062L23.8836 5.20169L22.5 3.81806C22.1179 3.43597 21.4988 3.43597 21.1167 3.81806L18.5049 6.42987C17.2334 5.89187 15.8539 5.60898 14.4297 5.60898C11.6392 5.60898 9.01897 6.69261 7.05134 8.6603C2.98289 12.7287 2.98289 19.3489 7.05134 23.4173C9.01903 25.385 11.6392 26.4686 14.4297 26.4686C17.2202 26.4686 19.8407 25.385 21.8084 23.4173C23.7761 21.4496 24.8597 18.8295 24.8597 16.0389C24.8597 14.6148 24.5768 13.2352 24.0388 11.9637L26.6506 9.35188C27.0327 8.97008 27.0327 8.3504 26.6506 7.96854L25.267 6.58491L25.7281 6.12384C26.1093 5.74263 26.7298 5.74204 27.1117 6.12384L28.495 7.50717C28.6861 7.69825 28.9364 7.79382 29.1867 7.79382C29.4369 7.79382 29.6873 7.69825 29.8783 7.50717C30.2605 7.12544 30.2605 6.50569 29.8784 6.12395ZM19.0446 20.6437C17.8119 21.8767 16.1748 22.5556 14.4348 22.5556C12.6948 22.5556 11.0577 21.8767 9.82504 20.6437C9.44295 20.2619 9.44295 19.6422 9.82504 19.2604C10.2071 18.8783 10.8262 18.8783 11.2084 19.2604C12.0716 20.1236 13.2178 20.599 14.4349 20.599C15.652 20.599 16.798 20.1236 17.6614 19.2604C18.0435 18.8783 18.6626 18.8783 19.0448 19.2604C19.4267 19.6421 19.4267 20.2618 19.0446 20.6437Z" fill="#51535F"/>
</svg>
