<svg width="30" height="30" viewBox="0 0 30 30" fill="none" xmlns="http://www.w3.org/2000/svg">
<path fill-rule="evenodd" clip-rule="evenodd" d="M19.4473 22.935C25.2754 22.935 30 18.1366 30 12.2175C30 6.2984 25.2754 1.5 19.4473 1.5C13.6192 1.5 8.89454 6.2984 8.89454 12.2175C8.89454 18.1366 13.6192 22.935 19.4473 22.935ZM26.1891 18.3026C25.9019 18.6416 25.3896 18.6396 25.0754 18.3254C24.7612 18.0112 24.7648 17.5041 25.0464 17.1605C25.9914 16.0075 26.6051 14.6126 26.8127 13.1259C27.0203 11.6393 26.8122 10.1296 26.2192 8.76183C26.0425 8.35417 26.178 7.86549 26.5662 7.64939C26.9545 7.4333 27.4477 7.5717 27.6311 7.97643C28.3905 9.65259 28.6623 11.5151 28.4063 13.3484C28.1503 15.1818 27.3786 16.8986 26.1891 18.3026Z" fill="#51535F"/>
<path d="M7.04004 18.3341C6.62793 17.9156 5.95976 17.9156 5.54765 18.3341L3.30908 20.6077C2.89697 21.0262 2.89697 21.7048 3.30908 22.1233C3.72119 22.5419 4.38935 22.5419 4.80146 22.1233L7.04004 19.8498C7.45215 19.4313 7.45215 18.7527 7.04004 18.3341Z" fill="#51535F"/>
<path d="M6.60293 23.6929C7.01504 23.2743 7.6832 23.2743 8.09531 23.6929C8.50742 24.1114 8.50742 24.79 8.09531 25.2086L5.85674 27.4821C5.44463 27.9006 4.77646 27.9006 4.36436 27.4821C3.95225 27.0636 3.95225 26.385 4.36436 25.9664L6.60293 23.6929Z" fill="#51535F"/>
<path d="M13.0096 24.3969C12.5975 23.9783 11.9293 23.9783 11.5172 24.3969L9.27865 26.6704C8.86654 27.0889 8.86654 27.7675 9.27865 28.1861C9.69076 28.6046 10.3589 28.6046 10.771 28.1861L13.0096 25.9126C13.4217 25.494 13.4217 24.8154 13.0096 24.3969Z" fill="#51535F"/>
</svg>
