<svg width="30" height="30" viewBox="0 0 30 30" fill="none" xmlns="http://www.w3.org/2000/svg">
<g clip-path="url(#clip0_2104_9789)">
<path d="M15 0.973877C11.2718 0.978418 7.69757 2.46146 5.06133 5.0977C2.42508 7.73395 0.942041 11.3082 0.9375 15.0364C1.71135 33.692 28.2915 33.6865 29.0625 15.0363C29.0579 11.3081 27.5749 7.73389 24.9386 5.09767C22.3024 2.46145 18.7282 0.978423 15 0.973877ZM15 28.1614C11.5202 28.1576 8.18403 26.7735 5.72344 24.3129C3.26285 21.8524 1.87882 18.5162 1.875 15.0364C2.59543 -2.37582 27.4072 -2.37075 28.125 15.0365C28.1212 18.5163 26.7371 21.8524 24.2765 24.313C21.8159 26.7735 18.4798 28.1576 15 28.1614Z" fill="#51535F"/>
<path d="M22.6021 6.1349C12.4848 -2.26959 -1.5602 9.48784 4.86933 20.9146C9.26382 28.6866 20.879 28.6251 25.1756 20.8302C26.1809 19.0648 26.7095 17.0681 26.7095 15.0365C26.7095 13.0048 26.1809 11.0082 25.1756 9.24272C25.1757 9.23788 25.1744 9.23313 25.1719 9.22898C25.1694 9.22484 25.1658 9.22148 25.1615 9.21928C25.1549 9.18806 25.146 9.16631 25.1287 9.15834C24.4694 8.01083 23.6143 6.98758 22.6021 6.1349ZM19.124 5.07553C19.9933 5.43713 20.8113 5.91151 21.5568 6.48647L18.5475 10.0818C18.2229 9.85178 17.8777 9.65249 17.5162 9.48647L19.124 5.07553ZM14.5303 4.26926V8.96614C14.1334 8.98979 13.7404 9.05739 13.3584 9.1677L11.7553 4.75676C12.654 4.46957 13.5875 4.30558 14.5303 4.26926ZM7.71936 7.09114L10.7381 10.6864C10.456 10.9637 10.2002 11.2666 9.97407 11.5911L5.91001 9.24272C6.41803 8.45067 7.02616 7.7275 7.71933 7.09114L7.71936 7.09114ZM4.31154 16.4427C4.18726 15.5093 4.18726 14.5636 4.31154 13.6302L8.93811 14.4411C8.89362 14.8368 8.89362 15.2361 8.93811 15.6318L4.31154 16.4427ZM7.71936 22.9818C7.02618 22.3454 6.41803 21.6222 5.90998 20.8302L9.97404 18.4818C10.2002 18.8063 10.456 19.1092 10.7381 19.3864L7.71936 22.9818ZM14.5303 25.8036C13.5875 25.7673 12.654 25.6033 11.7553 25.3161L13.3584 20.9052C13.7407 21.0148 14.1335 21.0839 14.5303 21.1115V25.8036ZM16.7615 19.8833C15.982 20.1672 15.1455 20.2588 14.323 20.1504C13.5004 20.0421 12.7162 19.7368 12.0368 19.2607C11.3574 18.7846 10.8029 18.1516 10.4203 17.4154C10.0378 16.6793 9.83843 15.8617 9.83924 15.0321C9.84004 14.2024 10.041 13.3853 10.425 12.6499C10.809 11.9145 11.3647 11.2825 12.0451 10.8077C12.7254 10.3329 13.5102 10.0292 14.3329 9.92246C15.1557 9.81568 15.992 9.90894 16.771 10.1943C21.261 11.827 21.2513 18.2586 16.7615 19.8833V19.8833ZM19.124 24.9974L17.5162 20.5865C17.8777 20.4204 18.2229 20.2211 18.5475 19.9911L21.5569 23.5864C20.8113 24.1614 19.9933 24.6358 19.124 24.9974V24.9974ZM24.5569 20.0146L20.4975 17.6661C20.6686 17.3102 20.8037 16.938 20.9006 16.5552L25.5225 17.3661C25.3229 18.2889 24.998 19.1799 24.5569 20.0146V20.0146ZM25.5225 12.7068L20.9006 13.5177C20.8036 13.1349 20.6686 12.7627 20.4975 12.4068L24.5568 10.0583C24.998 10.893 25.3229 11.784 25.5225 12.7068Z" fill="#51535F"/>
<path d="M17.9807 16.0301C17.7753 15.8247 17.5115 15.6879 17.2253 15.6384C16.9391 15.5889 16.6447 15.6291 16.3822 15.7535L15.665 15.0364L16.3869 14.3145C16.6873 14.4548 17.0276 14.4845 17.3477 14.3983C17.6678 14.3121 17.9472 14.1155 18.1365 13.8434C18.3258 13.5712 18.4128 13.2409 18.3823 12.9108C18.3517 12.5807 18.2054 12.272 17.9694 12.0392C17.7333 11.8064 17.4226 11.6646 17.0921 11.6386C16.7616 11.6127 16.4325 11.7044 16.163 11.8975C15.8935 12.0906 15.701 12.3727 15.6193 12.694C15.5376 13.0153 15.5721 13.3552 15.7166 13.6535L14.9994 14.3707L14.2822 13.6535C14.4268 13.3552 14.4613 13.0153 14.3796 12.694C14.2979 12.3727 14.1053 12.0906 13.8358 11.8975C13.5663 11.7043 13.2373 11.6127 12.9068 11.6386C12.5762 11.6645 12.2655 11.8064 12.0294 12.0392C11.7934 12.2719 11.6471 12.5806 11.6165 12.9108C11.586 13.2409 11.673 13.5712 11.8623 13.8434C12.0516 14.1155 12.331 14.3121 12.6511 14.3983C12.9713 14.4845 13.3115 14.4548 13.6119 14.3145L14.3338 15.0364L13.6166 15.7535C13.3169 15.6108 12.9764 15.5786 12.6552 15.6625C12.3341 15.7465 12.0529 15.9412 11.8614 16.2123C11.6699 16.4835 11.5804 16.8136 11.6086 17.1443C11.6369 17.4751 11.7811 17.7852 12.0158 18.0199C12.2506 18.2547 12.5607 18.3989 12.8914 18.4271C13.2222 18.4554 13.5523 18.3659 13.8234 18.1744C14.0946 17.9829 14.2893 17.7017 14.3733 17.3805C14.4572 17.0594 14.425 16.7189 14.2822 16.4192L14.9994 15.702L15.7166 16.4192C15.606 16.6517 15.5615 16.9101 15.5878 17.1663C15.6141 17.4224 15.7102 17.6664 15.8658 17.8716C16.0213 18.0768 16.2302 18.2353 16.4697 18.3299C16.7092 18.4244 16.97 18.4514 17.2238 18.4078C17.4776 18.3642 17.7145 18.2517 17.9087 18.0826C18.1028 17.9135 18.2468 17.6943 18.3249 17.449C18.403 17.2036 18.4122 16.9416 18.3515 16.6913C18.2908 16.4411 18.1625 16.2124 17.9807 16.0301Z" fill="#51535F"/>
</g>
<defs>
<clipPath id="clip0_2104_9789">
<rect width="30" height="30" fill="white"/>
</clipPath>
</defs>
</svg>
