<svg width="30" height="30" viewBox="0 0 30 30" fill="none" xmlns="http://www.w3.org/2000/svg">
<path d="M25.1144 1.5H21.2147C20.9516 1.5 20.7383 1.71333 20.7383 1.97644V4.35865H17.558V1.97644C17.558 1.71333 17.3447 1.5 17.0816 1.5H12.9151C12.652 1.5 12.4386 1.71333 12.4386 1.97644V4.35865H9.26077V1.97644C9.26077 1.71333 9.04744 1.5 8.78433 1.5H4.88465C4.62153 1.5 4.4082 1.71333 4.4082 1.97644V7.09105C4.41082 8.3806 5.4556 9.42538 6.74515 9.428H6.75468H23.2539C24.5434 9.42538 25.5882 8.3806 25.5908 7.09105V1.97644C25.5908 1.71333 25.3775 1.5 25.1144 1.5Z" fill="#51535F"/>
<path d="M22.8656 10.1404H7.14298L6.46881 25.4366V25.5843C6.46423 26.3113 6.70983 27.0179 7.16442 27.5853C7.58172 28.122 8.20842 28.4549 8.88676 28.5001H21.1242C21.8025 28.4549 22.4292 28.122 22.8465 27.5853C23.3011 27.0179 23.5467 26.3113 23.5421 25.5843C23.5421 25.5557 23.5421 25.5057 23.5421 25.4366L22.8656 10.1404ZM18.6181 27.571H11.3857V20.8627C11.3857 18.8636 13.0063 17.2429 15.0055 17.2429C17.0046 17.2429 18.6252 18.8636 18.6252 20.8627L18.6181 27.571Z" fill="#51535F"/>
</svg>
