<svg width="30" height="30" viewBox="0 0 30 30" fill="none" xmlns="http://www.w3.org/2000/svg">
<path d="M20.5066 22.4273C20.6316 22.558 20.7984 22.6433 20.9797 22.669C21.161 22.6948 21.3459 22.6595 21.5038 22.569C21.6618 22.4785 21.7834 22.3382 21.8487 22.1711C21.9139 22.0041 21.9189 21.8204 21.8627 21.6503L20.7987 13.5503C20.7914 13.5016 20.7944 13.452 20.8076 13.4045C20.8208 13.357 20.844 13.3126 20.8756 13.2743C20.9103 13.2376 20.9527 13.2086 21 13.1895C21.0472 13.1703 21.0982 13.1614 21.1493 13.1633L24.4764 13.1633C24.6557 13.1845 24.8373 13.1516 24.9967 13.069C25.1562 12.9864 25.2858 12.8581 25.3682 12.7013C25.4111 12.6069 25.432 12.5045 25.4297 12.4013C25.4172 12.1485 25.3074 11.9096 25.1222 11.7323L15.9587 1.6943C15.8392 1.56063 15.6917 1.45349 15.5263 1.38007C15.3608 1.30666 15.1811 1.26867 14.9993 1.26867C14.8175 1.26867 14.6378 1.30666 14.4723 1.38007C14.3068 1.45349 14.1594 1.56063 14.0399 1.6943L4.88562 11.7473C4.74347 11.8589 4.64329 12.0133 4.60079 12.1864C4.55829 12.3596 4.57588 12.5415 4.6508 12.7038C4.72572 12.8661 4.85373 12.9996 5.01476 13.0833C5.17578 13.167 5.36073 13.1962 5.54059 13.1663L8.85852 13.1663C8.90965 13.1644 8.9606 13.1733 9.00785 13.1925C9.0551 13.2116 9.09753 13.2406 9.13219 13.2773C9.16382 13.3156 9.18697 13.36 9.2002 13.4075C9.21343 13.455 9.21645 13.5046 9.20907 13.5533L8.14512 21.6533C8.10095 21.8249 8.11243 22.0056 8.17797 22.1706C8.2435 22.3355 8.35988 22.4766 8.51104 22.5743C8.67249 22.6538 8.85521 22.6827 9.03414 22.6569C9.21307 22.6311 9.37943 22.552 9.51042 22.4303L14.5411 18.7883C14.6799 18.7053 14.8396 18.6613 15.0024 18.6613C15.1652 18.6613 15.3248 18.7053 15.4636 18.7883L20.5066 22.4273Z" fill="#51535F"/>
<path d="M22.3642 26.3243C22.2453 25.6424 21.8744 25.0266 21.3217 24.5933L15.9097 20.6933C15.6119 20.4912 15.2578 20.3829 14.895 20.3829C14.5322 20.3829 14.1781 20.4912 13.8802 20.6933L8.46824 24.5933C7.91554 25.0266 7.54469 25.6424 7.42582 26.3243L7.14599 28.4603C7.06604 29.0603 7.37047 29.3033 7.50269 29.3783C7.66362 29.4591 7.84636 29.4889 8.02549 29.4637C8.20461 29.4384 8.3712 29.3593 8.50207 29.2373L14.4276 24.9533C14.5659 24.8689 14.7257 24.8242 14.8888 24.8242C15.052 24.8242 15.2118 24.8689 15.3501 24.9533L21.2879 29.2373C21.4178 29.3567 21.5821 29.4343 21.7587 29.4595C21.9353 29.4847 22.1155 29.4564 22.275 29.3783C22.3989 29.301 22.4989 29.1924 22.5644 29.064C22.63 28.9356 22.6585 28.7923 22.6471 28.6493C22.6513 28.5864 22.6513 28.5232 22.6471 28.4603L22.3642 26.3243Z" fill="#51535F"/>
</svg>
