<svg width="18" height="18" viewBox="0 0 18 18" fill="none" xmlns="http://www.w3.org/2000/svg">
<g id="box 2" clip-path="url(#clip0_226_55449)">
<g id="Group">
<path id="Vector" d="M8.32992 8.33556L0.243984 4.93096C0.128145 4.88216 0 4.96724 0 5.09296V14.1949C0 14.4249 0.140027 14.6317 0.353602 14.7171L8.19643 17.8543C8.31189 17.9004 8.4375 17.8154 8.4375 17.6911V8.49756C8.4375 8.42682 8.3951 8.36302 8.32992 8.33556Z" fill="#51535F"/>
<path id="Vector_2" d="M9.06755 7.36873L16.8833 4.0779C17.0238 4.01876 17.0276 3.82105 16.8894 3.7566L9.23722 0.185573C9.08643 0.115226 8.91227 0.115226 8.76148 0.185573L1.10927 3.7566C0.971138 3.82105 0.9749 4.01876 1.11538 4.0779L8.93115 7.36873C8.97474 7.38712 9.02396 7.38712 9.06755 7.36873Z" fill="#51535F"/>
<path id="Vector_3" d="M9.5625 8.49756V17.6911C9.5625 17.8154 9.68811 17.9004 9.80357 17.8543L17.6464 14.7171C17.8599 14.6317 18 14.4249 18 14.1949V5.09296C18 4.96724 17.8719 4.88216 17.756 4.93096L9.67008 8.33556C9.6049 8.36302 9.5625 8.42682 9.5625 8.49756Z" fill="#51535F"/>
</g>
</g>
<defs>
<clipPath id="clip0_226_55449">
<rect width="18" height="18" fill="white"/>
</clipPath>
</defs>
</svg>
