<svg width="18" height="18" viewBox="0 0 18 18" fill="none" xmlns="http://www.w3.org/2000/svg">
<g id="mdi:user" clip-path="url(#clip0_226_55455)">
<path id="Vector" d="M9.00039 0.900391C10.0745 0.900391 11.1047 1.32709 11.8642 2.08661C12.6237 2.84613 13.0504 3.87626 13.0504 4.95039C13.0504 6.02452 12.6237 7.05465 11.8642 7.81417C11.1047 8.5737 10.0745 9.00039 9.00039 9.00039C7.92626 9.00039 6.89613 8.5737 6.13661 7.81417C5.37709 7.05465 4.95039 6.02452 4.95039 4.95039C4.95039 3.87626 5.37709 2.84613 6.13661 2.08661C6.89613 1.32709 7.92626 0.900391 9.00039 0.900391ZM9.00039 11.0254C13.4756 11.0254 17.1004 12.8378 17.1004 15.0754C17.1004 16.1938 16.1938 17.1004 15.0754 17.1004H2.92539C1.80701 17.1004 0.900391 16.1938 0.900391 15.0754C0.900391 12.8378 4.52514 11.0254 9.00039 11.0254Z" fill="#51535F"/>
</g>
<defs>
<clipPath id="clip0_226_55455">
<rect width="18" height="18" fill="white"/>
</clipPath>
</defs>
</svg>
