<svg width="18" height="18" viewBox="0 0 18 18" fill="none" xmlns="http://www.w3.org/2000/svg">
<g id="wallet (1) 1">
<path id="Vector" d="M2.86407 4.5C3.00751 3.47906 3.47439 3.09375 4.45032 3.09375H13.245C13.3898 3.10027 13.5264 3.1624 13.6265 3.26719C13.7266 3.37198 13.7823 3.51135 13.7822 3.65625V4.5H2.86407ZM14.9072 4.52531V3.65625C14.9072 3.21305 14.7329 2.78762 14.4219 2.47187C14.1109 2.15612 13.6882 1.9754 13.245 1.96875H4.45032C2.00345 1.96875 1.72501 3.96281 1.68845 4.99781C1.68718 5.00809 1.68718 5.01848 1.68845 5.02875V5.0625V14.0625C1.68845 14.5101 1.86624 14.9393 2.18271 15.2557C2.49917 15.5722 2.9284 15.75 3.37595 15.75H14.6259C15.0735 15.75 15.5027 15.5722 15.8192 15.2557C16.1357 14.9393 16.3134 14.5101 16.3134 14.0625V6.1875C16.313 5.789 16.1716 5.40351 15.9142 5.09928C15.6569 4.79505 15.3001 4.59173 14.9072 4.52531ZM13.0791 11.5312C12.8288 11.5312 12.5841 11.457 12.3759 11.318C12.1678 11.1789 12.0056 10.9812 11.9098 10.75C11.814 10.5187 11.7889 10.2642 11.8378 10.0187C11.8866 9.77321 12.0071 9.54769 12.1841 9.37069C12.3611 9.19369 12.5867 9.07315 12.8322 9.02432C13.0777 8.97548 13.3321 9.00055 13.5634 9.09634C13.7947 9.19213 13.9923 9.35435 14.1314 9.56248C14.2705 9.77061 14.3447 10.0153 14.3447 10.2656C14.3451 10.4319 14.3126 10.5967 14.2491 10.7504C14.1856 10.9041 14.0924 11.0438 13.9748 11.1614C13.8572 11.279 13.7176 11.3722 13.5638 11.4357C13.4101 11.4991 13.2454 11.5316 13.0791 11.5312Z" fill="#51535F"/>
</g>
</svg>
