<svg width="16" height="16" viewBox="0 0 16 16" fill="none" xmlns="http://www.w3.org/2000/svg">
<path d="M12.0002 9.33329C11.9649 9.33329 11.9335 9.34262 11.8969 9.34395L9.87821 5.89195C10.2535 5.51995 10.5098 5.04484 10.6146 4.52693C10.7194 4.00901 10.6679 3.47163 10.4668 2.983C10.2656 2.49437 9.92386 2.07651 9.48482 1.78246C9.04578 1.48841 8.52928 1.33142 8.00087 1.33142C7.47246 1.33142 6.95596 1.48841 6.51692 1.78246C6.07788 2.07651 5.73611 2.49437 5.53496 2.983C5.33382 3.47163 5.28238 4.00901 5.38717 4.52693C5.49196 5.04484 5.74826 5.51995 6.12354 5.89195L4.11087 9.34462C4.07287 9.34262 4.0382 9.33329 4.0002 9.33329C3.50106 9.33154 3.01144 9.46993 2.58705 9.7327C2.16267 9.99547 1.82055 10.3721 1.59963 10.8197C1.37871 11.2673 1.28785 11.7679 1.33739 12.2646C1.38692 12.7613 1.57487 13.2341 1.87985 13.6292C2.18482 14.0244 2.59458 14.326 3.06251 14.4998C3.53043 14.6736 4.03774 14.7125 4.52671 14.6122C5.01568 14.5119 5.46669 14.2764 5.82842 13.9324C6.19015 13.5885 6.44808 13.1499 6.57287 12.6666H9.42754C9.55297 13.1485 9.81102 13.5856 10.1724 13.9282C10.5338 14.2708 10.984 14.5052 11.4719 14.6048C11.9598 14.7044 12.4658 14.6652 12.9326 14.4916C13.3993 14.318 13.808 14.017 14.1122 13.6228C14.4165 13.2286 14.6041 12.757 14.6538 12.2615C14.7034 11.766 14.6131 11.2665 14.3932 10.8198C14.1732 10.373 13.8324 9.99691 13.4094 9.73415C12.9864 9.47139 12.4982 9.33251 12.0002 9.33329ZM9.42754 11.3333H6.57287C6.40357 10.6778 5.99093 10.1114 5.41887 9.74929L7.28087 6.55595C7.74969 6.70396 8.25272 6.70396 8.72154 6.55595L10.5882 9.74662C10.0129 10.1078 9.59756 10.6756 9.42754 11.3333Z" fill="#51535F"/>
</svg>
