<svg width="16" height="16" viewBox="0 0 16 16" fill="none" xmlns="http://www.w3.org/2000/svg">
<g clip-path="url(#clip0_2104_50324)">
<path d="M8.46875 2.375V1.40625C8.46875 1.14722 8.25903 0.9375 8 0.9375C7.74097 0.9375 7.53125 1.14722 7.53125 1.40625V2.375C7.53125 2.63403 7.74097 2.84375 8 2.84375C8.25903 2.84375 8.46875 2.63403 8.46875 2.375Z" fill="#51535F"/>
<path d="M10.3438 1.40625V0.46875C10.3438 0.209717 10.134 0 9.875 0C9.61597 0 9.40625 0.209717 9.40625 0.46875V1.40625C9.40625 1.66528 9.61597 1.90625 9.875 1.90625C10.134 1.90625 10.3438 1.66528 10.3438 1.40625Z" fill="#51535F"/>
<path d="M6.125 0C5.86597 0 5.65625 0.209717 5.65625 0.46875V1.40625C5.65625 1.66528 5.86597 1.90625 6.125 1.90625C6.38403 1.90625 6.59375 1.66528 6.59375 1.40625V0.46875C6.59375 0.209717 6.38403 0 6.125 0Z" fill="#51535F"/>
<path d="M14.125 4.71869C13.866 4.71869 13.6562 4.92841 13.6562 5.18744C13.6562 5.44647 13.866 5.65619 14.125 5.65619C14.6418 5.65619 15.0625 6.07684 15.0625 6.59369C15.0625 6.93854 14.8781 7.24115 14.5962 7.40424C13.8422 5.82245 12.2095 4.71869 10.3438 4.71869H10.2963C10.3273 4.87018 10.3438 5.02692 10.3438 5.18744C10.3438 5.34662 10.3136 5.50177 10.2821 5.65619H10.8125C11.0715 5.65619 11.2812 5.86591 11.2812 6.12494C11.2812 6.38397 11.0715 6.59369 10.8125 6.59369H5.1875C4.92847 6.59369 4.71875 6.38397 4.71875 6.12494C4.71875 5.86591 4.92847 5.65619 5.1875 5.65619H5.7179C5.6864 5.50177 5.65625 5.34662 5.65625 5.18744C5.65625 5.02692 5.67273 4.87018 5.70374 4.71869H5.65625C5.51343 4.71869 5.37244 4.72504 5.23279 4.73749L5.0199 4.5246C3.74146 3.24554 1.62781 3.24554 0.348389 4.5246C0.165283 4.7077 0.165283 5.00433 0.348389 5.18744L1.86548 6.6734C1.48096 7.21075 1.21545 7.82001 1.08411 8.46869H0.46875C0.209717 8.46869 0 8.67841 0 8.93744V11.7499C0 12.009 0.209717 12.2187 0.46875 12.2187H1.90808C2.3905 12.8591 3.03003 13.3599 3.78125 13.6859V15.5312C3.78125 15.7902 3.99097 15.9999 4.25 15.9999H6.125C6.38403 15.9999 6.59375 15.7902 6.59375 15.5312V14.0937H9.40625V15.5312C9.40625 15.7902 9.61597 15.9999 9.875 15.9999H11.75C12.009 15.9999 12.2188 15.7902 12.2188 15.5312V13.6849C13.9138 12.9424 15.0625 11.2629 15.0625 9.40619C15.0625 9.01923 15.0018 8.64887 14.9131 8.289C15.5623 7.98956 16 7.3432 16 6.59369C16 5.55963 15.1591 4.71869 14.125 4.71869ZM3.31165 9.40619C3.05273 9.40619 2.8429 9.19635 2.8429 8.93744C2.8429 8.67853 3.05273 8.46869 3.31165 8.46869C3.57056 8.46869 3.7804 8.67853 3.7804 8.93744C3.7804 9.19635 3.57056 9.40619 3.31165 9.40619Z" fill="#51535F"/>
<path d="M6.59375 5.1875C6.59375 5.35278 6.62744 5.50891 6.67981 5.65625H9.32019C9.37256 5.50891 9.40625 5.35278 9.40625 5.1875C9.40625 4.41089 8.77661 3.78125 8 3.78125C7.22339 3.78125 6.59375 4.41089 6.59375 5.1875Z" fill="#51535F"/>
</g>
<defs>
<clipPath id="clip0_2104_50324">
<rect width="16" height="16" fill="white"/>
</clipPath>
</defs>
</svg>
