<svg width="16" height="16" viewBox="0 0 16 16" fill="none" xmlns="http://www.w3.org/2000/svg">
<g clip-path="url(#clip0_2104_50333)">
<path d="M11.9993 0.666626H3.99935C3.11562 0.667685 2.26839 1.01921 1.6435 1.64411C1.0186 2.269 0.667074 3.11623 0.666016 3.99996V9.33329C0.666985 10.1014 0.932742 10.8457 1.41849 11.4408C1.90425 12.0358 2.58029 12.4452 3.33268 12.6V14.6666C3.33266 14.7873 3.36541 14.9058 3.42743 15.0093C3.48945 15.1128 3.57842 15.1976 3.68484 15.2545C3.79126 15.3115 3.91114 15.3385 4.03169 15.3326C4.15225 15.3268 4.26895 15.2883 4.36935 15.2213L8.19935 12.6666H11.9993C12.8831 12.6656 13.7303 12.314 14.3552 11.6891C14.9801 11.0643 15.3316 10.217 15.3327 9.33329V3.99996C15.3316 3.11623 14.9801 2.269 14.3552 1.64411C13.7303 1.01921 12.8831 0.667685 11.9993 0.666626ZM10.666 8.66663H5.33268C5.15587 8.66663 4.9863 8.59639 4.86128 8.47136C4.73625 8.34634 4.66602 8.17677 4.66602 7.99996C4.66602 7.82315 4.73625 7.65358 4.86128 7.52856C4.9863 7.40353 5.15587 7.33329 5.33268 7.33329H10.666C10.8428 7.33329 11.0124 7.40353 11.1374 7.52856C11.2624 7.65358 11.3327 7.82315 11.3327 7.99996C11.3327 8.17677 11.2624 8.34634 11.1374 8.47136C11.0124 8.59639 10.8428 8.66663 10.666 8.66663ZM11.9993 5.99996H3.99935C3.82254 5.99996 3.65297 5.92972 3.52794 5.8047C3.40292 5.67967 3.33268 5.5101 3.33268 5.33329C3.33268 5.15648 3.40292 4.98691 3.52794 4.86189C3.65297 4.73686 3.82254 4.66663 3.99935 4.66663H11.9993C12.1762 4.66663 12.3457 4.73686 12.4708 4.86189C12.5958 4.98691 12.666 5.15648 12.666 5.33329C12.666 5.5101 12.5958 5.67967 12.4708 5.8047C12.3457 5.92972 12.1762 5.99996 11.9993 5.99996Z" fill="#51535F"/>
</g>
<defs>
<clipPath id="clip0_2104_50333">
<rect width="16" height="16" fill="white"/>
</clipPath>
</defs>
</svg>
