<svg width="16" height="16" viewBox="0 0 16 16" fill="none" xmlns="http://www.w3.org/2000/svg">
    <g clip-path="url(#clip0_2104_50309)" filter="url(#filter0_i_2104_50309)">
        <path fill-rule="evenodd" clip-rule="evenodd"
            d="M14.2221 7.15713H14.8443C15.1059 7.15713 15.3394 6.99367 15.429 6.74797C15.5185 6.50229 15.4448 6.22684 15.2447 6.0586L9.18828 0.968196C8.49842 0.388369 7.50137 0.388368 6.81151 0.968196L0.755109 6.0586C0.554936 6.22684 0.481311 6.50229 0.570846 6.74797C0.660381 6.99367 0.893969 7.15713 1.15545 7.15713H1.77768V13.566C1.77768 14.5998 2.59773 15.4667 3.64434 15.4667H12.3555C13.4021 15.4667 14.2221 14.5998 14.2221 13.566V7.15713ZM9.86656 11.1111V14.2222H6.13323V11.1111C6.13323 10.0801 6.96894 9.24443 7.9999 9.24443C9.03086 9.24443 9.86656 10.0801 9.86656 11.1111Z"
            fill="#51535F" />
    </g>
    <defs>
        <filter id="filter0_i_2104_50309" x="0" y="0" width="16" height="17"
            filterUnits="userSpaceOnUse" color-interpolation-filters="sRGB">
            <feFlood flood-opacity="0" result="BackgroundImageFix" />
            <feBlend mode="normal" in="SourceGraphic" in2="BackgroundImageFix" result="shape" />
            <feColorMatrix in="SourceAlpha" type="matrix"
                values="0 0 0 0 0 0 0 0 0 0 0 0 0 0 0 0 0 0 127 0" result="hardAlpha" />
            <feOffset dy="1" />
            <feGaussianBlur stdDeviation="3.5" />
            <feComposite in2="hardAlpha" operator="arithmetic" k2="-1" k3="1" />
            <feColorMatrix type="matrix" values="0 0 0 0 1 0 0 0 0 1 0 0 0 0 1 0 0 0 0.47 0" />
            <feBlend mode="normal" in2="shape" result="effect1_innerShadow_2104_50309" />
        </filter>
        <clipPath id="clip0_2104_50309">
            <rect width="16" height="16" fill="white" />
        </clipPath>
    </defs>
</svg>