<svg width="18" height="18" viewBox="0 0 18 18" fill="none" xmlns="http://www.w3.org/2000/svg">
<g clip-path="url(#clip0_2104_50354)">
<path d="M0.00195312 13.3721C0.0168036 14.0459 0.566575 14.5848 1.2406 14.5862H16.7578C17.4434 14.5862 17.9992 14.0303 17.9992 13.3448V4.78894L0.00195312 13.3721Z" fill="#FF3051"/>
<path d="M18 4.6552C18 3.96965 17.4442 3.41382 16.7586 3.41382H1.24138C0.555832 3.41382 0 3.96965 0 4.6552V13.3449C0 13.3541 0.00242457 13.3629 0.00272764 13.3721L18 4.789V4.6552Z" fill="#FF4764"/>
<path d="M4.96498 11.1724H2.79256V6.51725C2.79256 6.34587 2.65361 6.20691 2.48222 6.20691C2.31083 6.20691 2.17188 6.34587 2.17188 6.51725V11.4828C2.17188 11.6542 2.31083 11.7931 2.48222 11.7931H4.96498C5.13637 11.7931 5.27532 11.6542 5.27532 11.4828C5.27532 11.3114 5.13637 11.1724 4.96498 11.1724Z" fill="#F1F2F2"/>
<path d="M15.5158 6.8276C15.6871 6.8276 15.8261 6.68864 15.8261 6.51725C15.8261 6.34587 15.6871 6.20691 15.5158 6.20691H13.033C12.8616 6.20691 12.7227 6.34587 12.7227 6.51725V11.4828C12.7227 11.6542 12.8616 11.7931 13.033 11.7931H15.5158C15.6871 11.7931 15.8261 11.6542 15.8261 11.4828C15.8261 11.3114 15.6871 11.1724 15.5158 11.1724H13.3433V9.31036H14.8951C15.0665 9.31036 15.2054 9.1714 15.2054 9.00001C15.2054 8.82863 15.0665 8.68967 14.8951 8.68967H13.3433V6.8276H15.5158Z" fill="#F1F2F2"/>
<path d="M6.51738 6.20691C6.34599 6.20691 6.20703 6.34587 6.20703 6.51725V11.4828C6.20703 11.6542 6.34599 11.7931 6.51738 11.7931C6.68876 11.7931 6.82772 11.6542 6.82772 11.4828V6.51725C6.82772 6.34587 6.68876 6.20691 6.51738 6.20691Z" fill="#F1F2F2"/>
<path d="M11.5913 6.2265C11.5142 6.19755 11.4287 6.20043 11.3537 6.23453C11.2787 6.26862 11.2204 6.33121 11.1916 6.40834L9.64696 10.5278L8.36497 6.42425C8.3136 6.26044 8.13918 6.16952 7.97552 6.22089C7.81171 6.27226 7.72079 6.44668 7.77216 6.61034L9.32388 11.5759C9.36359 11.7024 9.47921 11.7895 9.61165 11.7932H9.62029C9.7497 11.7933 9.86562 11.713 9.91108 11.5918L11.7732 6.62625C11.8021 6.54912 11.7992 6.46365 11.7651 6.38864C11.731 6.31363 11.6684 6.25529 11.5913 6.2265Z" fill="#F1F2F2"/>
</g>
<defs>
<clipPath id="clip0_2104_50354">
<rect width="18" height="18" fill="white"/>
</clipPath>
</defs>
</svg>
