<svg width="16" height="16" viewBox="0 0 16 16" fill="none" xmlns="http://www.w3.org/2000/svg">
<g clip-path="url(#clip0_2104_50318)">
<path d="M1.33398 13.3333C1.33557 13.8632 1.54679 14.371 1.92152 14.7458C2.29625 15.1205 2.80404 15.3317 3.33398 15.3333H7.33398V8.66663H1.33398V13.3333Z" fill="#51535F"/>
<path d="M8.66602 15.3333H12.666C13.196 15.3317 13.7038 15.1205 14.0785 14.7458C14.4532 14.371 14.6644 13.8632 14.666 13.3333V8.66663H8.66602V15.3333Z" fill="#51535F"/>
<path d="M13.3327 3.33329H11.2127C11.2934 3.12036 11.3341 2.89434 11.3327 2.66663C11.3311 2.13668 11.1199 1.62889 10.7451 1.25416C10.3704 0.879431 9.86263 0.668209 9.33268 0.666626C8.839 0.667913 8.36355 0.853337 7.99935 1.18663C7.63515 0.853337 7.1597 0.667913 6.66602 0.666626C6.13607 0.668209 5.62828 0.879431 5.25355 1.25416C4.87882 1.62889 4.6676 2.13668 4.66602 2.66663C4.6646 2.89434 4.70528 3.12036 4.78602 3.33329H2.66602C2.13607 3.33488 1.62828 3.5461 1.25355 3.92083C0.87882 4.29556 0.667598 4.80335 0.666016 5.33329V6.66663C0.666016 6.84344 0.736253 7.01301 0.861278 7.13803C0.986302 7.26305 1.15587 7.33329 1.33268 7.33329H7.33268V3.33329H6.66602C6.53416 3.33329 6.40527 3.29419 6.29564 3.22094C6.186 3.14768 6.10055 3.04357 6.0501 2.92175C5.99964 2.79993 5.98644 2.66589 6.01216 2.53657C6.03788 2.40725 6.10138 2.28846 6.19461 2.19522C6.28785 2.10199 6.40664 2.03849 6.53596 2.01277C6.66528 1.98705 6.79932 2.00025 6.92114 2.05071C7.04296 2.10116 7.14708 2.18661 7.22033 2.29625C7.29358 2.40588 7.33268 2.53477 7.33268 2.66663V3.33329H8.66602V2.66663C8.66602 2.53477 8.70512 2.40588 8.77837 2.29625C8.85162 2.18661 8.95574 2.10116 9.07756 2.05071C9.19938 2.00025 9.33342 1.98705 9.46274 2.01277C9.59206 2.03849 9.71085 2.10199 9.80409 2.19522C9.89732 2.28846 9.96082 2.40725 9.98654 2.53657C10.0123 2.66589 9.99906 2.79993 9.9486 2.92175C9.89814 3.04357 9.8127 3.14768 9.70306 3.22094C9.59343 3.29419 9.46454 3.33329 9.33268 3.33329H8.66602V7.33329H14.666C14.8428 7.33329 15.0124 7.26305 15.1374 7.13803C15.2624 7.01301 15.3327 6.84344 15.3327 6.66663V5.33329C15.3311 4.80335 15.1199 4.29556 14.7451 3.92083C14.3704 3.5461 13.8626 3.33488 13.3327 3.33329Z" fill="#51535F"/>
</g>
<defs>
<clipPath id="clip0_2104_50318">
<rect width="16" height="16" fill="white"/>
</clipPath>
</defs>
</svg>
