<svg width="20" height="20" viewBox="0 0 20 20" fill="none" xmlns="http://www.w3.org/2000/svg">
<g clip-path="url(#clip0_2104_50343)">
<path d="M3.77539 2.93958V7.35749H6.15158V6.18758H12.8803C12.8803 6.18758 7.07528 11.0717 6.57681 17.0603H12.1723C12.1723 17.0603 11.6057 11.0668 16.2227 6.44981V2.93958H13.7797V3.98538C13.7797 3.98538 11.8951 2.93958 9.99901 2.93958C8.10289 2.93958 6.1611 3.98538 6.1611 3.98538V2.93958H3.77539Z" fill="#FA184B"/>
<path d="M13.7807 3.98538C13.7807 3.98538 11.8961 2.93958 10 2.93958V6.18758H12.8813C12.8813 6.18758 11.483 7.36414 10 9.27024V17.0603H12.1732C12.1732 17.0603 11.6067 11.0668 16.2237 6.44981V2.93958H13.7807V3.98538Z" fill="#D3003C"/>
<path d="M12.1724 17.5H6.57694C6.45402 17.5 6.33669 17.4485 6.25346 17.3581C6.1702 17.2676 6.12863 17.1464 6.13885 17.0239C6.25694 15.6053 6.67274 14.1328 7.3747 12.6473C7.93158 11.4688 8.6692 10.2788 9.56706 9.11041C10.3899 8.03962 11.1894 7.1903 11.7607 6.62726H6.59136V7.35752C6.59136 7.60033 6.39452 7.79714 6.15174 7.79714H3.77555C3.53275 7.79714 3.33594 7.6003 3.33594 7.35752V2.93961C3.33588 2.69684 3.53272 2.5 3.77552 2.5H6.16123C6.40404 2.5 6.60085 2.69684 6.60085 2.93961V3.2924C7.35932 2.96701 8.67804 2.5 9.99917 2.5C11.3103 2.5 12.5948 2.95977 13.3403 3.28551V2.93961C13.3403 2.69684 13.5371 2.5 13.7799 2.5H16.2228C16.4656 2.5 16.6624 2.69684 16.6624 2.93961V6.44988C16.6624 6.56648 16.6161 6.6783 16.5337 6.76074C15.5147 7.77971 14.6746 8.95357 14.0366 10.2497C13.5254 11.2883 13.1418 12.4077 12.8965 13.5768C12.4795 15.564 12.6087 17.0047 12.6101 17.019C12.6217 17.1423 12.5809 17.2647 12.4976 17.3563C12.4143 17.4478 12.2962 17.5 12.1724 17.5ZM7.06657 16.6207H11.7121C11.7006 16.0021 11.7339 14.836 12.036 13.3962C12.2964 12.1552 12.7041 10.9659 13.2477 9.86139C13.9013 8.53358 14.7537 7.32606 15.7832 6.26944V3.37926H14.2195V3.98542C14.2195 4.14116 14.1371 4.28526 14.0029 4.36427C13.8688 4.44328 13.7028 4.44542 13.5666 4.36984C13.549 4.36011 11.7545 3.37926 9.99914 3.37926C8.24042 3.37926 6.3879 4.36272 6.36941 4.37265C6.23318 4.4458 6.06837 4.44205 5.93566 4.36266C5.80295 4.28327 5.72159 4.1401 5.72159 3.98545V3.37926H4.21514V6.91791H5.7121V6.18765C5.7121 5.94485 5.90894 5.74804 6.15171 5.74804H12.8805C13.0652 5.74804 13.2302 5.86349 13.2935 6.03704C13.3568 6.21056 13.3048 6.40514 13.1635 6.52409C13.1494 6.53598 11.7199 7.74836 10.2521 9.66203C9.39524 10.7791 8.69296 11.9134 8.16478 13.0333C7.58973 14.2525 7.22122 15.457 7.06657 16.6207Z" fill="#FFE96D"/>
<path d="M13.5674 4.36984C13.7036 4.44542 13.8696 4.44328 14.0038 4.36427C14.138 4.28526 14.2203 4.14116 14.2203 3.98542V3.37926H15.784V6.26947C14.7545 7.32609 13.9021 8.53361 13.2485 9.86142C12.7049 10.9659 12.2972 12.1552 12.0368 13.3962C11.7347 14.836 11.7014 16.0022 11.7129 16.6208H10V17.5H12.1733C12.297 17.5 12.4151 17.4478 12.4984 17.3563C12.5817 17.2647 12.6226 17.1423 12.6109 17.019C12.6096 17.0047 12.4804 15.564 12.8974 13.5768C13.1427 12.4077 13.5262 11.2883 14.0374 10.2497C14.6754 8.95357 15.5156 7.77971 16.5345 6.76074C16.617 6.6783 16.6633 6.56648 16.6633 6.44988V2.93961C16.6633 2.69684 16.4664 2.5 16.2237 2.5H13.7807C13.5379 2.5 13.3411 2.69684 13.3411 2.93961V3.28548C12.5956 2.95977 11.3112 2.5 10 2.5V3.37926C11.7554 3.37926 13.5498 4.36008 13.5674 4.36984Z" fill="#FFBF26"/>
<path d="M13.1643 6.52397C13.3057 6.40506 13.3576 6.21048 13.2943 6.03693C13.231 5.86341 13.066 5.74792 12.8813 5.74792H10V6.62718H11.7615C11.291 7.09091 10.6657 7.74895 10 8.56484V9.99882C10.0829 9.88638 10.1669 9.77403 10.2529 9.66192C11.7208 7.74825 13.1502 6.53587 13.1643 6.52397Z" fill="#FFBF26"/>
</g>
<defs>
<clipPath id="clip0_2104_50343">
<rect width="15" height="15" fill="white" transform="translate(2.5 2.5)"/>
</clipPath>
</defs>
</svg>
