<svg width="16" height="16" viewBox="0 0 16 16" fill="none" xmlns="http://www.w3.org/2000/svg">
<path d="M11.3226 14.2733L11.099 15.1872C10.4284 15.4519 9.89263 15.6534 9.49369 15.7919C9.09433 15.9309 8.63029 16 8.10158 16C7.28966 16 6.65813 15.8011 6.20771 15.406C5.7573 15.0094 5.53202 14.5068 5.53202 13.8971C5.53202 13.661 5.54836 13.4182 5.58235 13.1709C5.61662 12.9232 5.67111 12.6443 5.74568 12.3326L6.58385 9.36594C6.65841 9.08187 6.7218 8.81271 6.77256 8.55818C6.82404 8.30522 6.84885 8.07249 6.84885 7.86298C6.84885 7.48412 6.77041 7.21912 6.61425 7.07013C6.45809 6.92157 6.1601 6.84614 5.71772 6.84614C5.50104 6.84614 5.27834 6.88084 5.05134 6.94796C4.82334 7.01535 4.62846 7.08046 4.46484 7.14097L4.68898 6.22637C5.23805 6.00281 5.76289 5.81138 6.26493 5.65249C6.76697 5.49318 7.24133 5.41345 7.69002 5.41345C8.49636 5.41345 9.11856 5.60832 9.5555 5.99808C9.99243 6.38813 10.2108 6.89375 10.2108 7.51682C10.2108 7.64573 10.1965 7.87288 10.1657 8.19753C10.1355 8.5229 10.0795 8.82103 9.99774 9.0922L9.16316 12.0469C9.09476 12.2843 9.03324 12.5556 8.97975 12.8609C8.92454 13.1641 8.89816 13.3959 8.89816 13.5513C8.89816 13.9437 8.98563 14.2115 9.16101 14.3539C9.33768 14.4963 9.64197 14.5672 10.0742 14.5672C10.2771 14.5672 10.508 14.5312 10.7645 14.4605C11.0203 14.3898 11.2069 14.3277 11.3226 14.2733ZM11.5343 1.86849C11.5343 2.38329 11.3402 2.82295 10.9503 3.18446C10.5614 3.54725 10.0928 3.7288 9.5446 3.7288C8.99467 3.7288 8.52489 3.54725 8.13155 3.18446C7.73892 2.8228 7.54218 2.38329 7.54218 1.86849C7.54218 1.35469 7.73892 0.91431 8.13155 0.548213C8.52418 0.18269 8.99481 0 9.5446 0C10.0927 0 10.5614 0.18312 10.9503 0.548213C11.3405 0.91431 11.5343 1.35483 11.5343 1.86849Z" fill="#51535F"/>
</svg>
